<svg xmlns="http://www.w3.org/2000/svg" height="1em" viewBox="0 0 640 512"><!--! Font Awesome Pro 6.4.2 by @fontawesome - https://fontawesome.com License - https://fontawesome.com/license (Commercial License) Copyright 2023 Fonticons, Inc. --><path d="M0 128C0 92.7 28.7 64 64 64c128 0 256 0 384 0c35.3 0 64 28.7 64 64c0 30.7 0 61.5 0 92.2c-10.7 10.7-21.3 21.3-32 32c0-14.9 0-29.7 0-44.6c-58.9 43.2-117.8 86.3-176.7 129.5c-28.2 20.6-66.5 20.6-94.6 0C149.8 293.9 90.9 250.8 32 207.6c0 58.8 0 117.6 0 176.4c0 17.7 14.3 32 32 32c91.5 0 182.9 0 274.4 0c-2.7 10.7-5.3 21.3-8 32c-88.8 0-177.6 0-266.4 0c-35.3 0-64-28.7-64-64c0-85.4 0-170.7 0-256zm32 0c0 13.3 0 26.6 0 39.9c65.2 47.8 130.4 95.6 195.6 143.4c16.9 12.4 39.9 12.4 56.8 0c65.2-47.8 130.4-95.6 195.6-143.4c0-13.3 0-26.6 0-39.9c0-17.7-14.3-32-32-32c-128 0-256 0-384 0c-17.7 0-32 14.3-32 32zM356.5 492.1c6.2-25 12.5-49.9 18.7-74.9c2.1-8.4 6.4-16.1 12.6-22.3C439 343.7 490.3 292.4 541.5 241.2c18.8-18.7 49.2-18.7 67.9 0c5.8 5.8 11.6 11.6 17.4 17.4c18.7 18.8 18.7 49.2 0 67.9C575.6 377.7 524.3 429 473.1 480.2c-6.2 6.1-13.9 10.5-22.3 12.6c-25 6.2-49.9 12.5-74.9 18.7c-5.5 1.4-11.2-.2-15.2-4.2s-5.6-9.7-4.2-15.2zM394 474l49-12.2c2.8-.7 5.3-2.1 7.4-4.2c35.4-35.4 70.9-70.9 106.3-106.3c-13.3-13.3-26.7-26.7-40-40c-35.3 35.4-70.8 70.9-106.2 106.3c-2 2-3.5 4.6-4.2 7.4c-4.1 16.3-8.2 32.7-12.3 49zM539.3 288.6l40 40c8.3-8.3 16.5-16.5 24.8-24.8c6.2-6.2 6.2-16.4 0-22.6c-5.8-5.8-11.5-11.6-17.3-17.4c-6.2-6.2-16.4-6.2-22.6 0c-8.3 8.3-16.6 16.5-24.9 24.8z"/></svg>
