<svg xmlns="http://www.w3.org/2000/svg" height="1em" viewBox="0 0 576 512"><!--! Font Awesome Pro 6.4.2 by @fontawesome - https://fontawesome.com License - https://fontawesome.com/license (Commercial License) Copyright 2023 Fonticons, Inc. --><path d="M0 64C0 28.7 28.7 0 64 0c52.1 0 104.1 0 156.2 0c12.7 0 24.9 5.1 33.9 14.1C292.7 52.7 331.3 91.4 369.9 130c9 9 14.1 21.2 14.1 33.9c0 40.1 0 80.2 0 120.3c-10.7 10.7-21.3 21.3-32 32c0-41.4 0-82.8 0-124.3c-37.3 0-74.7 0-112 0c-26.5 0-48-21.5-48-48c0-37.3 0-74.7 0-112c-42.7 0-85.3 0-128 0C46.3 32 32 46.3 32 64c0 128 0 256 0 384c0 17.7 14.3 32 32 32c64.8 0 129.6 0 194.4 0c-.3 1.3-.6 2.5-1 3.8c-2.3 9.5-1.8 19.3 1.4 28.2c-64.9 0-129.9 0-194.8 0c-35.3 0-64-28.7-64-64C0 320 0 192 0 64zM64 80c0-8.8 7.2-16 16-16c21.3 0 42.7 0 64 0c8.8 0 16 7.2 16 16s-7.2 16-16 16c-21.3 0-42.7 0-64 0c-8.8 0-16-7.2-16-16zm0 64c0-8.8 7.2-16 16-16c21.3 0 42.7 0 64 0c8.8 0 16 7.2 16 16s-7.2 16-16 16c-21.3 0-42.7 0-64 0c-8.8 0-16-7.2-16-16zm0 128c0-17.7 14.3-32 32-32c64 0 128 0 192 0c17.7 0 32 14.3 32 32c0 21.3 0 42.7 0 64c0 6.4-1.9 12.4-5.2 17.4c-3.1 3.1-6.3 6.3-9.4 9.4c-5 3.3-11 5.2-17.5 5.2c-64 0-128 0-192 0c-17.7 0-32-14.3-32-32c0-21.3 0-42.7 0-64zm32 0c0 21.3 0 42.7 0 64c64 0 128 0 192 0c0-21.3 0-42.7 0-64L96 272zM224 32.5c0 37.2 0 74.3 0 111.5c0 8.8 7.2 16 16 16c37.2 0 74.3 0 111.5 0c-.7-2.8-2.1-5.3-4.2-7.4C308.7 114 270 75.3 231.4 36.7c-2-2.1-4.6-3.5-7.4-4.2zM224 432c0-8.8 7.2-16 16-16c11.5 0 22.9 0 34.4 0c-2.7 10.7-5.3 21.3-8 32c-8.8 0-17.6 0-26.4 0c-8.8 0-16-7.2-16-16zm68.5 60.1c6.2-25 12.5-49.9 18.7-74.9c2.1-8.4 6.4-16.1 12.6-22.3C375 343.7 426.3 292.4 477.5 241.2c18.8-18.7 49.2-18.7 67.9 0c5.8 5.8 11.6 11.6 17.4 17.4c18.7 18.8 18.7 49.2 0 67.9C511.6 377.7 460.3 429 409.1 480.2c-6.2 6.1-13.9 10.5-22.3 12.6c-25 6.2-49.9 12.5-74.9 18.7c-5.5 1.4-11.2-.2-15.2-4.2s-5.6-9.7-4.2-15.2zM330 474l49-12.2c2.8-.7 5.3-2.1 7.4-4.2c35.4-35.4 70.9-70.9 106.3-106.3c-13.3-13.3-26.7-26.7-40-40c-35.3 35.4-70.8 70.9-106.2 106.3c-2 2-3.5 4.6-4.2 7.4c-4.1 16.3-8.2 32.7-12.3 49zM475.3 288.6l40 40c8.3-8.3 16.5-16.5 24.8-24.8c6.2-6.2 6.2-16.4 0-22.6c-5.8-5.8-11.5-11.6-17.3-17.4c-6.2-6.2-16.4-6.2-22.6 0c-8.3 8.3-16.6 16.5-24.9 24.8z"/></svg>
