<svg xmlns="http://www.w3.org/2000/svg" height="1em" viewBox="0 0 640 512"><!--! Font Awesome Pro 6.4.2 by @fontawesome - https://fontawesome.com License - https://fontawesome.com/license (Commercial License) Copyright 2023 Fonticons, Inc. --><path d="M0 96C0 60.7 28.7 32 64 32c128 0 256 0 384 0c35.3 0 64 28.7 64 64c0 41.4 0 82.8 0 124.2c-10.7 10.7-21.3 21.3-32 32c0-52.1 0-104.1 0-156.2c0-17.7-14.3-32-32-32c-128 0-256 0-384 0C46.3 64 32 78.3 32 96c0 106.7 0 213.3 0 320c0 17.7 14.3 32 32 32c88.8 0 177.6 0 266.4 0c-2.7 10.7-5.3 21.3-8 32c-86.1 0-172.2 0-258.4 0c-35.3 0-64-28.7-64-64C0 309.3 0 202.7 0 96zM132.1 245.3l64-72c5.9-6.6 16-7.2 22.6-1.3s7.2 16 1.3 22.6c-18.2 20.5-36.4 40.9-54.6 61.4c18.2 20.4 36.4 40.9 54.6 61.3c5.9 6.6 5.3 16.7-1.3 22.6s-16.7 5.3-22.6-1.3c-21.3-24-42.7-48-64-72c-5.4-6.1-5.4-15.2 0-21.3zM292 317.4L346.6 256c-18.2-20.5-36.3-40.9-54.5-61.4c-5.9-6.6-5.3-16.7 1.3-22.6c-.1 .1 0 0-.1 .1c6.6-5.9 16.7-5.3 22.6 1.3c21.3 24 42.7 48 64 72c5.4 6.1 5.4 15.2 0 21.3c-21.3 24-42.7 48-64 72c-5.9 6.6-16 7.2-22.6 1.3s-7.2-16-1.3-22.6zm64.5 174.7c6.2-25 12.5-49.9 18.7-74.9c2.1-8.4 6.4-16.1 12.6-22.3C439 343.7 490.3 292.4 541.5 241.2c18.8-18.7 49.2-18.7 67.9 0c5.8 5.8 11.6 11.6 17.4 17.4c18.7 18.8 18.7 49.2 0 67.9C575.6 377.7 524.3 429 473.1 480.2c-6.2 6.1-13.9 10.5-22.3 12.6c-25 6.2-49.9 12.5-74.9 18.7c-5.5 1.4-11.2-.2-15.2-4.2s-5.6-9.7-4.2-15.2zM394 474l49-12.2c2.8-.7 5.3-2.1 7.4-4.2c35.4-35.4 70.9-70.9 106.3-106.3c-13.3-13.3-26.7-26.7-40-40c-35.3 35.4-70.8 70.9-106.2 106.3c-2 2-3.5 4.6-4.2 7.4c-4.1 16.3-8.2 32.7-12.3 49zM539.3 288.6l40 40c8.3-8.3 16.5-16.5 24.8-24.8c6.2-6.2 6.2-16.4 0-22.6c-5.8-5.8-11.5-11.6-17.3-17.4c-6.2-6.2-16.4-6.2-22.6 0c-8.3 8.3-16.6 16.5-24.9 24.8z"/></svg>
