<svg xmlns="http://www.w3.org/2000/svg" height="1em" viewBox="0 0 640 512"><!--! Font Awesome Pro 6.4.2 by @fontawesome - https://fontawesome.com License - https://fontawesome.com/license (Commercial License) Copyright 2023 Fonticons, Inc. --><path d="M0 96C0 60.7 28.7 32 64 32c128 0 256 0 384 0c35.3 0 64 28.7 64 64c0 46.6 0 93.1 0 139.7c-16 16-32 32-48 48c0-62.6 0-125.1 0-187.7c0-8.8-7.2-16-16-16c-128 0-256 0-384 0c-8.8 0-16 7.2-16 16c0 106.7 0 213.3 0 320c0 8.8 7.2 16 16 16c90.2 0 180.3 0 270.5 0c-4 16-8 32-12.1 48c-86.1 0-172.3 0-258.5 0c-35.3 0-64-28.7-64-64C0 309.3 0 202.7 0 96zM127.1 239.1l64-64c9.3-9.4 24.5-9.3 33.9 0s9.4 24.5 0 33.9c0 .1 0 0 0 .1c-15.7 15.7-31.3 31.3-47 47c15.7 15.7 31.3 31.3 47 47c9.4 9.3 9.3 24.5 0 33.9s-24.5 9.4-33.9 0c-21.3-21.3-42.7-42.7-64-64c-9.4-9.3-9.4-24.5 0-33.9zM287 174.9c9.3-9.4 24.5-9.4 33.9 0c21.3 21.3 42.7 42.7 64 64c9.4 9.3 9.4 24.5 0 33.9c-21.3 21.3-42.7 42.7-64 64c-9.3 9.4-24.5 9.3-33.9 0s-9.4-24.5 0-33.9c15.7-15.7 31.3-31.3 47-47c-15.7-15.7-31.3-31.3-47-47c-9.4-9.3-9.4-24.5 0-33.9c0-.1 0 0 0-.1zm66.5 317.2c5-20 10-40.1 15-60.1c1.4-5.7 4.3-10.8 8.4-14.9C420 374 463.1 331 506.2 287.9c-.1 0 0 0-.1 0c23.7 23.7 47.3 47.3 71 71C534 402 491 445 447.9 488.1c-4.1 4.1-9.3 7-14.9 8.4c-20 5-40.1 10-60.1 15c-5.5 1.4-11.2-.2-15.2-4.2s-5.6-9.7-4.2-15.2zM528.8 265.3c9.8-9.8 19.6-19.6 29.4-29.4c15.7-15.6 41-15.6 56.6 0c4.8 4.8 9.5 9.5 14.3 14.3c15.6 15.7 15.6 41 0 56.6c-9.8 9.8-19.6 19.6-29.4 29.4l-70.9-70.9z"/></svg>
