<svg xmlns="http://www.w3.org/2000/svg" width="14" height="14" fill="none" viewBox="0 0 14 14">
    <path fill="currentColor" d="M14 8.65c0-.028-.004-.054-.008-.08V2.025C13.992.914 13.028 0 11.855 0h-9.71C.97 0 .007.914.007 2.026v6.541c-.01.06-.01.12 0 .18v3.227C.008 13.086.97 14 2.144 14h9.711c1.173 0 2.137-.914 2.137-2.026V8.749c.005-.033.008-.066.008-.1zm-1.174-6.624v6.08H1.173v-6.08c0-.515.428-.92.971-.92h9.711c.543 0 .971.405.971.92zm0 7.185v2.763c0 .515-.428.92-.97.92H2.143c-.543 0-.971-.405-.971-.92V9.21h11.653zm-3.49-4.059c0-.11-.034-.217-.1-.309-.064-.09-.156-.162-.263-.203-.108-.041-.226-.051-.34-.029-.113.023-.217.077-.297.156l-.752.713.006-2.715c.001-.074-.013-.146-.042-.214-.028-.068-.07-.13-.125-.183-.054-.052-.118-.093-.19-.122-.07-.028-.147-.043-.224-.043-.077 0-.154.014-.225.042-.071.028-.136.07-.19.121-.055.052-.098.114-.127.182-.029.068-.043.14-.042.214l-.006 2.721-.755-.716c-.054-.053-.118-.095-.19-.124-.07-.03-.147-.045-.225-.046-.077 0-.154.013-.226.041-.072.028-.137.07-.192.121-.055.052-.098.114-.127.182-.03.068-.044.141-.043.215 0 .073.017.146.047.213.031.068.076.129.132.18l1.748 1.658c.109.103.257.161.412.161.154 0 .302-.058.412-.161L9.16 5.549c.056-.052.1-.114.13-.182.03-.068.046-.14.046-.215z"/>
</svg>
