<svg width="21" height="22" viewBox="0 0 21 22" fill="none" xmlns="http://www.w3.org/2000/svg">
<path d="M7.5 0.5C4.6084 0.5 2.25 2.8584 2.25 5.75C2.25 7.55762 3.17285 9.16309 4.57031 10.1094C1.89551 11.2578 0 13.9121 0 17H1.5C1.5 13.6777 4.17773 11 7.5 11C8.53125 11 9.49219 11.2695 10.3359 11.7266C9.50391 12.7578 9 14.0762 9 15.5C9 18.8047 11.6953 21.5 15 21.5C18.3047 21.5 21 18.8047 21 15.5C21 12.1953 18.3047 9.5 15 9.5C13.6904 9.5 12.4717 9.93066 11.4844 10.6484C11.1533 10.4404 10.793 10.2646 10.4297 10.1094C11.8271 9.16309 12.75 7.55762 12.75 5.75C12.75 2.8584 10.3916 0.5 7.5 0.5ZM7.5 2C9.58008 2 11.25 3.66992 11.25 5.75C11.25 7.83008 9.58008 9.5 7.5 9.5C5.41992 9.5 3.75 7.83008 3.75 5.75C3.75 3.66992 5.41992 2 7.5 2ZM15 11C17.4932 11 19.5 13.0068 19.5 15.5C19.5 17.9932 17.4932 20 15 20C12.5068 20 10.5 17.9932 10.5 15.5C10.5 13.0068 12.5068 11 15 11ZM14.25 12.5V14.75H12V16.25H14.25V18.5H15.75V16.25H18V14.75H15.75V12.5H14.25Z" fill="lmscurrentColor" />
</svg>
