<svg xmlns="http://www.w3.org/2000/svg" width="10" height="10" fill="none" viewBox="0 0 10 10">
    <path fill="currentColor"  d="M4.557 0C2.654-.035.862 1.186.23 3.126-.146 4.282-.06 5.52.476 6.61 1.01 7.7 1.929 8.512 3.06 8.897c.466.158.94.233 1.405.233.363 0 .72-.046 1.066-.133v-.45c-.743.209-1.552.204-2.337-.062C2.17 8.137 1.34 7.401.857 6.415.373 5.43.294 4.31.634 3.264 1.197 1.532 2.779.435 4.473.435c.422 0 .85.068 1.272.211C6.77.994 7.6 1.73 8.084 2.715c.13.268.23.546.301.83l-1.281-.54c-.11-.046-.234.007-.279.117-.045.112.007.239.116.285l1.682.707c.027.011.053.016.08.016.084 0 .163-.05.197-.134l.659-1.633c.045-.111-.008-.238-.117-.284-.108-.045-.232.007-.277.119l-.422 1.046c-.073-.246-.164-.488-.279-.724C7.93 1.43 7.011.618 5.88.233 5.44.085 4.996.01 4.557.001zm2.216 5.87c-.448 0-.815.375-.815.833v2.464c0 .457.367.833.815.833h2.412c.447 0 .815-.375.815-.833V6.703c0-.458-.367-.833-.815-.833H6.773zm0 .434h2.412c.215 0 .39.179.39.399v2.464c0 .22-.175.398-.39.398H6.773c-.215 0-.39-.178-.39-.398V6.703c0-.22.175-.399.39-.399zm2.206.653L7.83 8.327l-.702-.544-.255.348 1 .782 1.425-1.674-.32-.282z"/>
</svg>
