<svg width="17" height="17" viewBox="0 0 17 17" fill="none" xmlns="http://www.w3.org/2000/svg">
<path fill-rule="evenodd" clip-rule="evenodd" d="M8.49999 16.0862C12.9183 16.0862 16.5 12.5045 16.5 8.08618C16.5 3.6679 12.9183 0.0861816 8.49999 0.0861816C4.08172 0.0861816 0.5 3.6679 0.5 8.08618C0.5 12.5045 4.08172 16.0862 8.49999 16.0862ZM12.2071 7.37908L9.2071 4.37908C8.81658 3.98855 8.18341 3.98855 7.79289 4.37908C7.40236 4.7696 7.40236 5.40276 7.79289 5.79329L9.08578 7.08618L5.5 7.08618C4.94771 7.08618 4.5 7.5339 4.5 8.08618C4.5 8.63847 4.94771 9.08618 5.5 9.08618H9.08578L7.79289 10.3791C7.40236 10.7696 7.40236 11.4028 7.79289 11.7933C8.18341 12.1838 8.81658 12.1838 9.2071 11.7933L12.2071 8.79329C12.5976 8.40276 12.5976 7.7696 12.2071 7.37908Z" fill="#00A99B"/>
</svg>
