<svg width="17" height="5" viewBox="0 0 17 5" fill="none" xmlns="http://www.w3.org/2000/svg">
<g opacity="0.8">
<path d="M3.26902 3.60705C3.26902 4.07605 2.94002 4.34905 2.40102 4.34905H1.32302V2.83005H2.37302C2.90502 2.83005 3.26902 3.12405 3.26902 3.60705ZM3.14302 1.48605C3.14302 1.93405 2.82802 2.17905 2.31002 2.17905H1.32302V0.786052H2.31002C2.82802 0.786052 3.14302 1.04505 3.14302 1.48605ZM4.06702 3.69105C4.06702 3.11005 3.64702 2.59205 3.12902 2.50105C3.59802 2.33305 3.95502 1.97605 3.95502 1.38805C3.95502 0.702052 3.40902 0.135052 2.38002 0.135052H0.525024V5.00005H2.47102C3.46502 5.00005 4.06702 4.43305 4.06702 3.69105Z" fill="white"/>
<path d="M7.6222 0.128052H4.9342V5.00005H7.6222V4.34905H5.7322V2.85805H7.4122V2.20705H5.7322V0.779052H7.6222V0.128052Z" fill="white"/>
<path d="M8.3531 0.786052H9.6551V5.00005H10.4531V0.786052H11.7481V0.135052H8.3531V0.786052Z" fill="white"/>
<path d="M15.8393 5.00005H16.6793L14.9363 0.128052H14.0123L12.2693 5.00005H13.1023L13.4523 4.00605H15.4893L15.8393 5.00005ZM15.2653 3.35505H13.6763L14.4743 1.09405L15.2653 3.35505Z" fill="white"/>
</g>
</svg>
