<svg width="20" height="20" viewBox="0 0 20 20" fill="none" xmlns="http://www.w3.org/2000/svg">
<path d="M15.4488 1.6001C17.0225 1.6001 18.3085 2.83154 18.3953 4.38333L18.4 4.55077L18.3994 15.4494C18.3992 17.079 17.0781 18.4001 15.4482 18.4001H4.55116C2.97748 18.4001 1.69147 17.1687 1.60464 15.6168L1.59998 15.4494L1.60052 4.55079C1.60071 2.92121 2.92192 1.6001 4.55169 1.6001H15.4488ZM9.31831 7.9556L2.96203 7.95651L2.96213 15.4493L2.96864 15.5952C3.0423 16.4044 3.72265 17.0382 4.5511 17.0382L9.31831 17.0376V7.9556ZM17.0366 13.4031L10.6804 13.404V17.0376L15.4481 17.0382C16.3258 17.0382 17.0373 16.3268 17.0374 15.4492L17.0366 13.4031ZM15.4488 2.96199L10.6804 2.96108V12.0421L17.0366 12.0412L17.0378 4.55084L17.0313 4.40491C16.9576 3.59576 16.2773 2.96199 15.4488 2.96199ZM9.31831 2.96108L4.55177 2.96199L4.42146 2.96727C3.60479 3.03361 2.96268 3.71729 2.96258 4.55089L2.96203 6.59462L9.31831 6.59371V2.96108Z" 
fill="currentColor" />
</svg>
