<svg width="16" height="16" viewBox="0 0 16 16" fill="none" xmlns="http://www.w3.org/2000/svg">
<path d="M4.00002 1.33333C3.26335 1.33333 2.66669 1.92999 2.66669 2.66666V10.6667C2.66669 11.4033 3.26335 12 4.00002 12H12C12.7367 12 13.3334 11.4033 13.3334 10.6667V2.66666C13.3334 1.92999 12.7367 1.33333 12 1.33333H4.00002ZM4.00002 2.66666H5.33335V6.66666L7.33335 5.66666L9.33335 6.66666V2.66666H12V10.6667H4.00002V2.66666ZM6.66669 2.66666H8.00002V4.50911L7.92971 4.47395L7.33335 4.17578L6.737 4.47395L6.66669 4.50911V2.66666ZM2.66669 13.3333V14.6667H13.3334V13.3333H2.66669Z" fill="#565656"/>
</svg>
