<svg width="479" height="46" viewBox="0 0 479 46" fill="none" xmlns="http://www.w3.org/2000/svg">
<rect x="1" y="0.596191" width="479" height="44" fill="#E5E7EB"/>
<path fill-rule="evenodd" clip-rule="evenodd" d="M18.2201 16.029V14.3828H19.2536V16.029H27.7466V14.3828H28.7801V16.029H29.6601C30.6307 16.029 31.4201 16.7674 31.4201 17.6752V25.7166C31.1993 25.6303 31.0947 25.5517 31.001 25.4812C30.8703 25.383 30.7608 25.3007 30.3866 25.2359V20.9677H16.6136V29.8783H19.9801V30.8449H17.3401C16.3694 30.8449 15.5801 30.1066 15.5801 29.1987V17.6752C15.5801 16.7674 16.3694 16.029 17.3401 16.029H18.2201ZM30.3866 16.9957H16.6136V20.001H30.3866V16.9957ZM23.7124 23.8037C24.2175 23.2722 25.0046 22.9232 25.9286 22.9232C26.8526 22.9232 27.6397 23.2722 28.1448 23.8037C28.6498 24.3352 28.8854 25.0167 28.8854 25.6889C28.8854 26.3611 28.6498 27.0426 28.1448 27.574C28.1304 27.5892 28.1108 27.6 28.0912 27.6108C28.073 27.6208 28.0549 27.6308 28.0408 27.6443C29.4016 28.3545 30.3638 29.6657 30.3638 31.2201H29.6119C29.6119 29.9135 28.4738 28.2406 26.8325 27.8521C26.6941 27.8193 28.2943 27.4027 28.3988 25.6635C28.3988 24.3874 27.2929 23.353 25.9286 23.353C24.5644 23.353 23.4584 24.3802 23.4584 25.6635C23.4584 26.6941 24.2984 27.6342 25.1349 27.8521C23.2829 28.2238 22.2453 29.8675 22.2453 31.2201H21.4934C21.4934 29.6657 22.4556 28.3545 23.8164 27.6443C23.8023 27.6308 23.7842 27.6208 23.7661 27.6108C23.7464 27.6 23.7268 27.5892 23.7124 27.574C23.2074 27.0426 22.9718 26.3611 22.9718 25.6889C22.9718 25.0167 23.2074 24.3352 23.7124 23.8037Z" fill="#6B7280"/>
<path d="M48.8253 9.86892H47.321L45.152 11.2624V12.7112L47.1932 11.4073H47.2443V18.5962H48.8253V9.86892ZM54.0753 18.7155C55.9205 18.7155 57.2074 17.4627 57.2074 15.7283C57.2074 14.0493 56.0398 12.8391 54.4545 12.8391C53.7472 12.8391 53.1207 13.1203 52.7969 13.5039H52.7457L52.9972 11.1899H56.7514V9.86892H51.6889L51.233 14.3689L52.6605 14.6033C52.9545 14.2794 53.5085 14.0621 54.0327 14.0664C54.9915 14.0706 55.6818 14.778 55.6776 15.7666C55.6818 16.7425 55.0085 17.4371 54.0753 17.4371C53.2869 17.4371 52.652 16.9385 52.5966 16.2226H51.0625C51.1051 17.6715 52.3707 18.7155 54.0753 18.7155ZM59.6023 17.5479C60.1051 17.5479 60.5355 17.1303 60.5398 16.6104C60.5355 16.099 60.1051 15.6814 59.6023 15.6814C59.0824 15.6814 58.6605 16.099 58.6648 16.6104C58.6605 17.1303 59.0824 17.5479 59.6023 17.5479ZM59.6023 13.2184C60.1051 13.2184 60.5355 12.8007 60.5398 12.2809C60.5355 11.7695 60.1051 11.3519 59.6023 11.3519C59.0824 11.3519 58.6605 11.7695 58.6648 12.2809C58.6605 12.8007 59.0824 13.2184 59.6023 13.2184ZM65.2475 18.7155C67.114 18.7155 68.4734 17.6459 68.4691 16.1715C68.4734 15.0806 67.7915 14.2965 66.5685 14.1218V14.0536C67.5146 13.849 68.1495 13.1459 68.1452 12.1658C68.1495 10.8362 67.016 9.7496 65.2731 9.7496C63.5771 9.7496 62.2646 10.7595 62.2305 12.2212H63.7518C63.7773 11.4882 64.4592 11.0323 65.2646 11.0323C66.0785 11.0323 66.6197 11.5266 66.6154 12.2595C66.6197 13.0223 65.989 13.5294 65.0856 13.5294H64.3143V14.7482H65.0856C66.1893 14.7482 66.8455 15.3022 66.8413 16.0905C66.8455 16.8618 66.1765 17.3902 65.2433 17.3902C64.3654 17.3902 63.6879 16.9343 63.6495 16.2226H62.0472C62.0898 17.697 63.4066 18.7155 65.2475 18.7155ZM73.1577 18.7624C75.2628 18.7666 76.5199 17.1047 76.5199 14.2411C76.5199 11.3945 75.2543 9.7496 73.1577 9.7496C71.0611 9.7496 69.7997 11.3902 69.7955 14.2411C69.7955 17.1005 71.0526 18.7624 73.1577 18.7624ZM73.1577 17.4286C72.071 17.4286 71.3892 16.3377 71.3935 14.2411C71.3977 12.1615 72.0753 11.0664 73.1577 11.0664C74.2443 11.0664 74.9219 12.1615 74.9261 14.2411C74.9261 16.3377 74.2486 17.4286 73.1577 17.4286Z" fill="#111827"/>
<path d="M45.5568 25.8689V34.5962H46.5455V27.9655H46.6307L49.358 34.5962H50.3125L53.0398 27.9655H53.125V34.5962H54.1136V25.8689H52.8523L49.8864 33.1132H49.7841L46.8182 25.8689H45.5568ZM58.7553 34.7326C60.5281 34.7326 61.7212 33.386 61.7212 31.3576C61.7212 29.3121 60.5281 27.9655 58.7553 27.9655C56.9826 27.9655 55.7894 29.3121 55.7894 31.3576C55.7894 33.386 56.9826 34.7326 58.7553 34.7326ZM58.7553 33.8291C57.4087 33.8291 56.7951 32.6701 56.7951 31.3576C56.7951 30.0451 57.4087 28.8689 58.7553 28.8689C60.1019 28.8689 60.7156 30.0451 60.7156 31.3576C60.7156 32.6701 60.1019 33.8291 58.7553 33.8291ZM64.2621 30.6587C64.2621 29.5166 64.9695 28.8689 65.9325 28.8689C66.8658 28.8689 67.4325 29.4783 67.4325 30.5053V34.5962H68.4382V30.4371C68.4382 28.7666 67.5476 27.9655 66.2223 27.9655C65.2337 27.9655 64.62 28.4087 64.3132 29.0735H64.228V28.0507H63.2564V34.5962H64.2621V30.6587ZM71.7759 33.403H70.685L70.6339 33.8803C70.5103 35.0351 70.2674 36.1857 70.1566 36.7269H70.9237C71.1282 36.1473 71.5629 34.8348 71.7077 33.8632L71.7759 33.403ZM84.071 25.8689H83.0312V32.7382H82.946L78.1733 25.8689H77.1506V34.5962H78.2074V27.7439H78.2926L83.0483 34.5962H84.071V25.8689ZM88.7085 34.7326C90.4812 34.7326 91.6744 33.386 91.6744 31.3576C91.6744 29.3121 90.4812 27.9655 88.7085 27.9655C86.9357 27.9655 85.7425 29.3121 85.7425 31.3576C85.7425 33.386 86.9357 34.7326 88.7085 34.7326ZM88.7085 33.8291C87.3619 33.8291 86.7482 32.6701 86.7482 31.3576C86.7482 30.0451 87.3619 28.8689 88.7085 28.8689C90.055 28.8689 90.6687 30.0451 90.6687 31.3576C90.6687 32.6701 90.055 33.8291 88.7085 33.8291ZM98.3274 28.0507H97.2365L95.4297 33.2666H95.3615L93.5547 28.0507H92.4638L94.8842 34.5962H95.907L98.3274 28.0507ZM103.013 34.5962H108.518V33.6587H104.462V33.5905L106.422 31.4939C107.922 29.8874 108.365 29.1374 108.365 28.1701C108.365 26.8235 107.274 25.7496 105.74 25.7496C104.21 25.7496 103.047 26.7894 103.047 28.3235H104.053C104.053 27.3306 104.696 26.6701 105.706 26.6701C106.652 26.6701 107.376 27.2496 107.376 28.1701C107.376 28.9755 106.903 29.572 105.893 30.6757L103.013 33.8291V34.5962ZM113.057 25.7496C111.284 25.7283 110.142 27.0621 110.142 28.6644C110.142 30.3519 111.386 31.5621 112.886 31.5621C113.79 31.5621 114.557 31.1189 115.034 30.403H115.102C115.102 32.5507 114.267 33.778 112.92 33.778C112 33.778 111.438 33.1985 111.25 32.3973H110.21C110.415 33.778 111.455 34.7155 112.92 34.7155C114.881 34.7155 116.091 32.9769 116.091 29.8746C116.091 26.6701 114.489 25.7666 113.057 25.7496ZM113.057 26.6871C114.148 26.6871 114.949 27.6246 114.949 28.6473C114.949 29.6871 114.097 30.6246 113.023 30.6246C111.949 30.6246 111.165 29.7553 111.165 28.6644C111.165 27.5735 111.983 26.6871 113.057 26.6871Z" fill="#6B7280"/>
<path d="M128.459 18.5962H129.776V15.528H131.565C133.589 15.528 134.591 14.305 134.591 12.6942C134.591 11.0877 133.598 9.86892 131.57 9.86892H128.459V18.5962ZM129.776 14.4115V10.9982H131.429C132.733 10.9982 133.266 11.7056 133.266 12.6942C133.266 13.6828 132.733 14.4115 131.446 14.4115H129.776ZM136.032 18.5962H137.306V14.599C137.306 13.7425 137.967 13.1246 138.87 13.1246C139.135 13.1246 139.433 13.1715 139.535 13.2013V11.9826C139.407 11.9655 139.156 11.9527 138.994 11.9527C138.227 11.9527 137.571 12.3874 137.332 13.0905H137.264V12.0507H136.032V18.5962ZM143.161 18.7283C145.006 18.7283 146.212 17.3774 146.212 15.3533C146.212 13.3164 145.006 11.9655 143.161 11.9655C141.315 11.9655 140.109 13.3164 140.109 15.3533C140.109 17.3774 141.315 18.7283 143.161 18.7283ZM143.165 17.6587C141.959 17.6587 141.396 16.6061 141.396 15.349C141.396 14.0962 141.959 13.0309 143.165 13.0309C144.362 13.0309 144.925 14.0962 144.925 15.349C144.925 16.6061 144.362 17.6587 143.165 17.6587ZM147.634 12.0507V19.0138C147.634 19.6189 147.382 19.9513 146.777 19.9513H146.573V21.0465C146.662 21.0507 146.743 21.0507 146.833 21.0507C148.188 21.0507 148.908 20.3348 148.908 19.0223V12.0507H147.634ZM148.265 11.0408C148.703 11.0408 149.07 10.6999 149.07 10.2823C149.07 9.86466 148.703 9.51949 148.265 9.51949C147.821 9.51949 147.459 9.86466 147.459 10.2823C147.459 10.6999 147.821 11.0408 148.265 11.0408ZM153.443 18.7283C154.871 18.7283 155.881 18.0252 156.17 16.9598L154.964 16.7425C154.734 17.3604 154.18 17.6757 153.456 17.6757C152.365 17.6757 151.632 16.9684 151.598 15.707H156.251V15.2553C156.251 12.8902 154.837 11.9655 153.354 11.9655C151.53 11.9655 150.328 13.3547 150.328 15.3661C150.328 17.3987 151.513 18.7283 153.443 18.7283ZM151.602 14.7524C151.653 13.8235 152.327 13.0181 153.362 13.0181C154.351 13.0181 154.999 13.751 155.003 14.7524H151.602ZM160.422 18.7283C161.969 18.7283 162.971 17.7993 163.111 16.5252H161.871C161.709 17.2326 161.159 17.6502 160.431 17.6502C159.353 17.6502 158.658 16.751 158.658 15.3235C158.658 13.9215 159.365 13.0394 160.431 13.0394C161.24 13.0394 161.735 13.5507 161.871 14.1644H163.111C162.975 12.8434 161.897 11.9655 160.409 11.9655C158.564 11.9655 157.371 13.3547 157.371 15.3533C157.371 17.3263 158.522 18.7283 160.422 18.7283ZM167.529 12.0507H166.187V10.4826H164.913V12.0507H163.954V13.0735H164.913V16.9385C164.908 18.1274 165.816 18.7027 166.822 18.6814C167.227 18.6772 167.499 18.6005 167.648 18.5451L167.418 17.4925C167.333 17.5095 167.175 17.5479 166.971 17.5479C166.558 17.5479 166.187 17.4115 166.187 16.6743V13.0735H167.529V12.0507ZM177.829 9.86892V15.5024C177.829 16.6871 177.011 17.5394 175.681 17.5394C174.356 17.5394 173.533 16.6871 173.533 15.5024V9.86892H172.217V15.609C172.217 17.4414 173.589 18.7411 175.681 18.7411C177.773 18.7411 179.15 17.4414 179.15 15.609V9.86892H177.829ZM180.962 21.0507H182.236V17.5777H182.313C182.543 17.9953 183.012 18.724 184.205 18.724C185.79 18.724 186.941 17.4541 186.941 15.3362C186.941 13.2141 185.773 11.9655 184.192 11.9655C182.978 11.9655 182.539 12.707 182.313 13.1118H182.206V12.0507H180.962V21.0507ZM182.211 15.3235C182.211 13.9556 182.807 13.0479 183.919 13.0479C185.074 13.0479 185.654 14.0237 185.654 15.3235C185.654 16.636 185.057 17.6374 183.919 17.6374C182.824 17.6374 182.211 16.6999 182.211 15.3235ZM190.819 18.724C192.012 18.724 192.48 17.9953 192.711 17.5777H192.817V18.5962H194.061V9.86892H192.787V13.1118H192.711C192.48 12.707 192.046 11.9655 190.827 11.9655C189.246 11.9655 188.083 13.2141 188.083 15.3362C188.083 17.4541 189.229 18.724 190.819 18.724ZM191.1 17.6374C189.962 17.6374 189.37 16.636 189.37 15.3235C189.37 14.0237 189.949 13.0479 191.1 13.0479C192.212 13.0479 192.809 13.9556 192.809 15.3235C192.809 16.6999 192.199 17.6374 191.1 17.6374ZM197.785 18.7411C198.867 18.7411 199.477 18.1914 199.719 17.7013H199.771V18.5962H201.015V14.2496C201.015 12.3448 199.515 11.9655 198.475 11.9655C197.29 11.9655 196.2 12.4428 195.773 13.636L196.971 13.9087C197.158 13.4442 197.636 12.9968 198.492 12.9968C199.315 12.9968 199.737 13.4272 199.737 14.1686V14.1985C199.737 14.663 199.259 14.6544 198.083 14.7908C196.843 14.9357 195.573 15.2595 195.573 16.7468C195.573 18.0337 196.54 18.7411 197.785 18.7411ZM198.062 17.7184C197.342 17.7184 196.822 17.3945 196.822 16.7638C196.822 16.082 197.427 15.8391 198.164 15.7411C198.577 15.6857 199.558 15.5749 199.741 15.3916V16.2354C199.741 17.011 199.123 17.7184 198.062 17.7184ZM205.767 12.0507H204.425V10.4826H203.151V12.0507H202.192V13.0735H203.151V16.9385C203.147 18.1274 204.054 18.7027 205.06 18.6814C205.465 18.6772 205.738 18.6005 205.887 18.5451L205.657 17.4925C205.571 17.5095 205.414 17.5479 205.209 17.5479C204.796 17.5479 204.425 17.4115 204.425 16.6743V13.0735H205.767V12.0507ZM209.928 18.7283C211.355 18.7283 212.365 18.0252 212.655 16.9598L211.449 16.7425C211.219 17.3604 210.665 17.6757 209.94 17.6757C208.849 17.6757 208.116 16.9684 208.082 15.707H212.736V15.2553C212.736 12.8902 211.321 11.9655 209.838 11.9655C208.014 11.9655 206.812 13.3547 206.812 15.3661C206.812 17.3987 207.997 18.7283 209.928 18.7283ZM208.087 14.7524C208.138 13.8235 208.811 13.0181 209.847 13.0181C210.835 13.0181 211.483 13.751 211.487 14.7524H208.087Z" fill="#4B5563"/>
<path d="M128.459 34.5962H133.982V33.4627H129.776V30.7908H133.645V29.6615H129.776V27.0024H133.93V25.8689H128.459V34.5962ZM136.593 28.0507H135.195L137.206 31.3235L135.169 34.5962H136.567L138.037 32.1502L139.512 34.5962H140.905L138.847 31.3235L140.888 28.0507H139.495L138.037 30.599L136.593 28.0507ZM144.089 34.7411C145.172 34.7411 145.781 34.1914 146.024 33.7013H146.075V34.5962H147.32V30.2496C147.32 28.3448 145.82 27.9655 144.78 27.9655C143.595 27.9655 142.504 28.4428 142.078 29.636L143.276 29.9087C143.463 29.4442 143.94 28.9968 144.797 28.9968C145.619 28.9968 146.041 29.4272 146.041 30.1686V30.1985C146.041 30.663 145.564 30.6544 144.388 30.7908C143.148 30.9357 141.878 31.2595 141.878 32.7468C141.878 34.0337 142.845 34.7411 144.089 34.7411ZM144.366 33.7184C143.646 33.7184 143.126 33.3945 143.126 32.7638C143.126 32.082 143.732 31.8391 144.469 31.7411C144.882 31.6857 145.862 31.5749 146.045 31.3916V32.2354C146.045 33.011 145.428 33.7184 144.366 33.7184ZM149.017 34.5962H150.291V30.5607C150.291 29.6786 150.909 29.0649 151.633 29.0649C152.341 29.0649 152.831 29.5337 152.831 30.2453V34.5962H154.1V30.4243C154.1 29.636 154.582 29.0649 155.413 29.0649C156.086 29.0649 156.64 29.4399 156.64 30.3263V34.5962H157.914V30.207C157.914 28.7112 157.079 27.9655 155.895 27.9655C154.953 27.9655 154.245 28.4172 153.93 29.1161H153.862C153.576 28.4002 152.975 27.9655 152.102 27.9655C151.237 27.9655 150.593 28.3959 150.321 29.1161H150.24V28.0507H149.017V34.5962ZM159.622 37.0507H160.896V33.5777H160.973C161.203 33.9953 161.672 34.724 162.865 34.724C164.45 34.724 165.601 33.4541 165.601 31.3362C165.601 29.2141 164.433 27.9655 162.852 27.9655C161.638 27.9655 161.199 28.707 160.973 29.1118H160.866V28.0507H159.622V37.0507ZM160.871 31.3235C160.871 29.9556 161.467 29.0479 162.58 29.0479C163.734 29.0479 164.314 30.0237 164.314 31.3235C164.314 32.636 163.717 33.6374 162.58 33.6374C161.484 33.6374 160.871 32.6999 160.871 31.3235ZM168.303 25.8689H167.028V34.5962H168.303V25.8689ZM172.838 34.7283C174.265 34.7283 175.275 34.0252 175.565 32.9598L174.359 32.7425C174.129 33.3604 173.575 33.6757 172.85 33.6757C171.76 33.6757 171.027 32.9684 170.993 31.707H175.646V31.2553C175.646 28.8902 174.231 27.9655 172.748 27.9655C170.924 27.9655 169.723 29.3547 169.723 31.3661C169.723 33.3987 170.907 34.7283 172.838 34.7283ZM170.997 30.7524C171.048 29.8235 171.721 29.0181 172.757 29.0181C173.745 29.0181 174.393 29.751 174.397 30.7524H170.997ZM180.338 34.5962H181.654V31.528H183.444C185.468 31.528 186.47 30.305 186.47 28.6942C186.47 27.0877 185.477 25.8689 183.449 25.8689H180.338V34.5962ZM181.654 30.4115V26.9982H183.308C184.612 26.9982 185.145 27.7056 185.145 28.6942C185.145 29.6828 184.612 30.4115 183.325 30.4115H181.654ZM187.911 34.5962H189.185V30.599C189.185 29.7425 189.846 29.1246 190.749 29.1246C191.013 29.1246 191.312 29.1715 191.414 29.2013V27.9826C191.286 27.9655 191.035 27.9527 190.873 27.9527C190.106 27.9527 189.45 28.3874 189.211 29.0905H189.143V28.0507H187.911V34.5962ZM195.039 34.7283C196.885 34.7283 198.091 33.3774 198.091 31.3533C198.091 29.3164 196.885 27.9655 195.039 27.9655C193.194 27.9655 191.988 29.3164 191.988 31.3533C191.988 33.3774 193.194 34.7283 195.039 34.7283ZM195.044 33.6587C193.838 33.6587 193.275 32.6061 193.275 31.349C193.275 30.0962 193.838 29.0309 195.044 29.0309C196.241 29.0309 196.804 30.0962 196.804 31.349C196.804 32.6061 196.241 33.6587 195.044 33.6587ZM199.513 28.0507V35.0138C199.513 35.6189 199.261 35.9513 198.656 35.9513H198.452V37.0465C198.541 37.0507 198.622 37.0507 198.712 37.0507C200.067 37.0507 200.787 36.3348 200.787 35.0223V28.0507H199.513ZM200.143 27.0408C200.582 27.0408 200.949 26.6999 200.949 26.2823C200.949 25.8647 200.582 25.5195 200.143 25.5195C199.7 25.5195 199.338 25.8647 199.338 26.2823C199.338 26.6999 199.7 27.0408 200.143 27.0408ZM205.322 34.7283C206.75 34.7283 207.76 34.0252 208.049 32.9598L206.843 32.7425C206.613 33.3604 206.059 33.6757 205.335 33.6757C204.244 33.6757 203.511 32.9684 203.477 31.707H208.13V31.2553C208.13 28.8902 206.716 27.9655 205.233 27.9655C203.409 27.9655 202.207 29.3547 202.207 31.3661C202.207 33.3987 203.392 34.7283 205.322 34.7283ZM203.481 30.7524C203.532 29.8235 204.206 29.0181 205.241 29.0181C206.23 29.0181 206.877 29.751 206.882 30.7524H203.481ZM212.301 34.7283C213.848 34.7283 214.849 33.7993 214.99 32.5252H213.75C213.588 33.2326 213.038 33.6502 212.31 33.6502C211.232 33.6502 210.537 32.751 210.537 31.3235C210.537 29.9215 211.244 29.0394 212.31 29.0394C213.119 29.0394 213.614 29.5507 213.75 30.1644H214.99C214.854 28.8434 213.776 27.9655 212.288 27.9655C210.443 27.9655 209.25 29.3547 209.25 31.3533C209.25 33.3263 210.401 34.7283 212.301 34.7283ZM219.408 28.0507H218.066V26.4826H216.792V28.0507H215.833V29.0735H216.792V32.9385C216.787 34.1274 217.695 34.7027 218.701 34.6814C219.105 34.6772 219.378 34.6005 219.527 34.5451L219.297 33.4925C219.212 33.5095 219.054 33.5479 218.85 33.5479C218.436 33.5479 218.066 33.4115 218.066 32.6743V29.0735H219.408V28.0507Z" fill="#9CA3AF"/>
<rect x="1" y="0.596191" width="479" height="44" stroke="#E5E7EB"/>
</svg>
