<svg width="14" height="14" viewBox="0 0 14 14" fill="none" xmlns="http://www.w3.org/2000/svg">
<path d="M2.15385 0V1.07692H1.61538C0.727764 1.07692 0 1.80469 0 2.69231V12.3846C0 13.2722 0.727764 14 1.61538 14H12.3846C13.2722 14 14 13.2722 14 12.3846V2.69231C14 1.80469 13.2722 1.07692 12.3846 1.07692H11.8462V0H10.7692V1.07692H3.23077V0H2.15385ZM1.61538 2.15385H2.15385V3.23077H3.23077V2.15385H10.7692V3.23077H11.8462V2.15385H12.3846C12.6875 2.15385 12.9231 2.38942 12.9231 2.69231V4.30769H1.07692V2.69231C1.07692 2.38942 1.3125 2.15385 1.61538 2.15385ZM1.07692 5.38462H12.9231V12.3846C12.9231 12.6875 12.6875 12.9231 12.3846 12.9231H1.61538C1.3125 12.9231 1.07692 12.6875 1.07692 12.3846V5.38462ZM2.15385 6.46154V7.53846H3.23077V6.46154H2.15385ZM4.30769 6.46154V7.53846H5.38462V6.46154H4.30769ZM7 6.46154C6.70132 6.46154 6.46154 6.70132 6.46154 7V11.3077C6.46154 11.6064 6.70132 11.8462 7 11.8462H11.3077C11.6064 11.8462 11.8462 11.6064 11.8462 11.3077V7C11.8462 6.70132 11.6064 6.46154 11.3077 6.46154H7ZM7.53846 7.53846H10.7692V10.7692H7.53846V7.53846ZM2.15385 8.61539V9.69231H3.23077V8.61539H2.15385ZM4.30769 8.61539V9.69231H5.38462V8.61539H4.30769ZM2.15385 10.7692V11.8462H3.23077V10.7692H2.15385ZM4.30769 10.7692V11.8462H5.38462V10.7692H4.30769Z" fill="#465669"/>
</svg>
