<svg xmlns="http://www.w3.org/2000/svg" width="16" height="16" fill="none" viewBox="0 0 16 16">
    <path  fill="currentColor"  d="M2.462 0v1.23h-.616C.832 1.23 0 2.064 0 3.078v11.077C0 15.168.832 16 1.846 16h12.308C15.168 16 16 15.168 16 14.154V3.077c0-1.014-.832-1.846-1.846-1.846h-.615V0h-1.231v1.23H3.692V0h-1.23zm-.616 2.462h.616v1.23h1.23v-1.23h8.616v1.23h1.23v-1.23h.616c.346 0 .615.269.615.615v1.846H1.231V3.077c0-.346.269-.615.615-.615zm-.615 3.692h13.538v8c0 .346-.269.615-.615.615H1.846c-.346 0-.615-.269-.615-.615v-8zm1.23 1.23v1.231h1.231v-1.23h-1.23zm2.462 0v1.231h1.23v-1.23h-1.23zm3.077 0c-.341 0-.615.275-.615.616v4.923c0 .341.274.616.615.616h4.923c.341 0 .616-.275.616-.616V8c0-.341-.275-.615-.616-.615H8zm.615 1.231h3.693v3.693H8.615V8.615zM2.462 9.846v1.23h1.23v-1.23h-1.23zm2.461 0v1.23h1.23v-1.23h-1.23zm-2.461 2.462v1.23h1.23v-1.23h-1.23zm2.461 0v1.23h1.23v-1.23h-1.23z"/>
</svg>
