<svg width="20" height="20" viewBox="0 0 20 20" fill="none" xmlns="http://www.w3.org/2000/svg">
<path d="M5 0.833252V2.49992H4.16667C3.2475 2.49992 2.5 3.24742 2.5 4.16659V15.8333C2.5 16.7524 3.2475 17.4999 4.16667 17.4999H15.8333C16.7525 17.4999 17.5 16.7524 17.5 15.8333V4.16659C17.5 3.24742 16.7525 2.49992 15.8333 2.49992H15V0.833252H13.3333V2.49992H6.66667V0.833252H5ZM4.16667 4.16659H15.8333V5.83325H4.16667V4.16659ZM4.16667 7.49992H15.8333L15.835 15.8333H4.16667V7.49992ZM9.16667 9.16659V10.8333H7.5V12.4999H9.16667V14.1666H10.8333V12.4999H12.5V10.8333H10.8333V9.16659H9.16667Z" fill="#6B7280"/>
</svg>
