<svg xmlns="http://www.w3.org/2000/svg" width="15" height="15" fill="none" viewBox="0 0 15 15">
    <path fill="#91A0B4" d="M10.871.001c-.506.014-1.013.15-1.47.42-1.365.796-2.374 1.448-5.096 4.17C1.578 7.313 1.207 8.059.42 9.402c-.715 1.22-.498 2.776.502 3.771L2.744 15l3.523-3.527-1.433-1.438c.077-.167.212-.43.402-.728.394-.615.995-1.402 1.692-2.094.691-.696 1.555-1.37 2.252-1.84.343-.235.655-.416.859-.52l.018-.009 1.415 1.424L15 2.746l-.407-.412L13.173.92c-.498-.497-1.135-.8-1.8-.89-.167-.023-.335-.032-.502-.028zm.348 1.171c.42.06.823.249 1.135.566l1.009 1.008-1.89 1.885-.828-.832c-.172-.171-.362-.185-.47-.185-.104 0-.177.018-.245.036-.14.04-.262.095-.407.163-.28.14-.615.344-.995.597-.75.51-1.66 1.22-2.424 1.98-.76.765-1.401 1.606-1.845 2.298-.217.343-.384.646-.497.908-.059.132-.104.245-.131.385-.014.068-.023.145-.014.248.005.105.04.267.186.412l.827.832-1.886 1.886-1.008-1.004c-.629-.633-.764-1.606-.317-2.37.8-1.37 1.013-1.89 3.7-4.576 2.69-2.686 3.518-3.201 4.866-3.993.384-.221.818-.298 1.234-.244z"/>
</svg>
