<svg width="30" height="30" viewBox="0 0 30 30" fill="none" xmlns="http://www.w3.org/2000/svg">
<path d="M3.74997 5.99993C1.69599 5.99993 0.999965 6.35675 0.999965 7.99993V26.9999C0.999965 28.6431 1.69599 28.9999 3.74997 28.9999H26.25C28.3039 28.9999 29 28.6431 29 26.9999V14.9999V7.99993C29 6.99993 28 5.99993 27.25 5.99993H3.74997ZM3.03568 8.99993C3.03568 8.44765 3.4834 7.99993 4.03568 7.99993H15H25.9643C26.5165 7.99993 26.9643 8.44765 26.9643 8.99993V25.9999C26.9643 26.5522 26.5165 26.9999 25.9643 26.9999H4.03568C3.48339 26.9999 3.03568 26.5522 3.03568 25.9999V8.99993ZM1.64282 1.28564C1.09054 1.28564 0.642822 1.73336 0.642822 2.28564C0.642822 2.83793 1.09054 3.28564 1.64282 3.28564H15H28.3571C28.9094 3.28564 29.3571 2.83793 29.3571 2.28564C29.3571 1.73336 28.9094 1.28564 28.3571 1.28564H15H1.64282Z" fill="#666666"/>
<path d="M6.95694 9.75C5.27928 9.75 5 10.8687 5 12.127V23C5 24.2582 5.50308 25 7.18073 25H22.8537C24.5314 25 25 24.2582 25 23V12C25 10.7418 24.1777 9.75 22.5 9.75H6.95694ZM6.95694 11H22.5C23.5 11 23.7911 11.4174 23.7911 12V21.0842L19.9935 18.3911L19.9924 18.3903C19.5602 18.0773 18.9927 17.9167 18.4299 17.9167C17.8674 17.9167 17.3 18.0772 16.8674 18.3911L15.7292 19.2171L12.296 16.7261C11.8647 16.4124 11.2978 16.25 10.7324 16.25C10.1662 16.25 9.60057 16.4134 9.16995 16.7253L9.16886 16.7261L6.29313 18.5417L6.29311 12.127C6.29311 11.5444 6.18014 11 6.95694 11ZM18.6111 12.9167C17.8472 12.9167 17.1688 13.154 16.7383 13.5173C16.3078 13.8805 16.1111 14.3403 16.1111 14.7917C16.1111 15.2431 16.3078 15.7028 16.7383 16.0661C17.1688 16.4293 17.8472 16.6667 18.6111 16.6667C19.375 16.6667 20.0535 16.4293 20.484 16.0661C20.9145 15.7028 21.1111 15.2431 21.1111 14.7917C21.1111 14.3403 20.9145 13.8805 20.484 13.5173C20.0535 13.154 19.375 12.9167 18.6111 12.9167ZM18.6111 14.1667C18.9584 14.1667 19.1133 14.2418 19.2383 14.3473C19.3634 14.4528 19.4445 14.6181 19.4445 14.7917C19.4445 14.9653 19.3634 15.1305 19.2383 15.236C19.1133 15.3415 18.9584 15.4167 18.6111 15.4167C18.2639 15.4167 18.109 15.3415 17.984 15.236C17.8589 15.1305 17.7778 14.9653 17.7778 14.7917C17.7778 14.6181 17.8589 14.4528 17.984 14.3473C18.109 14.2418 18.2639 14.1667 18.6111 14.1667ZM10.7324 17.5C10.8771 17.5 11.0197 17.539 11.1361 17.6237L11.1372 17.6245L14.5302 20.0863L9.48028 23.75H7.18073C6.40394 23.75 6.29311 23.5826 6.29311 23L6.29313 20.2808L10.3277 17.6245C10.446 17.5388 10.5887 17.5 10.7324 17.5ZM18.4299 19.1667C18.5771 19.1667 18.7181 19.2051 18.8347 19.2896L23.7911 22.5537V23C23.7911 23.5826 23.6305 23.75 22.8537 23.75H11.8783L18.0263 19.2896C18.1415 19.2059 18.2836 19.1667 18.4299 19.1667Z" fill="#666666"/>
</svg>
