<svg width="30" height="30" viewBox="0 0 30 30" fill="none" xmlns="http://www.w3.org/2000/svg">
<path d="M3.74997 1.5C1.69599 1.5 0.999965 1.85682 0.999965 3.5V22.5C0.999965 24.1432 1.69599 24.5 3.74997 24.5H26.25C28.3039 24.5 29 24.1432 29 22.5V10.5V3.5C29 2.5 28 1.5 27.25 1.5H3.74997ZM3.03568 4.5C3.03568 3.94772 3.4834 3.5 4.03568 3.5H15H25.9643C26.5165 3.5 26.9643 3.94772 26.9643 4.5V21.5C26.9643 22.0523 26.5165 22.5 25.9643 22.5H4.03568C3.48339 22.5 3.03568 22.0523 3.03568 21.5V4.5ZM1.64282 26.7857C1.09054 26.7857 0.642822 27.2334 0.642822 27.7857C0.642822 28.338 1.09054 28.7857 1.64282 28.7857H28.3571C28.9094 28.7857 29.3571 28.338 29.3571 27.7857C29.3571 27.2334 28.9094 26.7857 28.3571 26.7857H15H1.64282Z" fill="#666666"/>
<path d="M6.95694 5C5.27928 5 5 6.11874 5 7.37698V18.25C5 19.5082 5.50308 20.25 7.18073 20.25H22.8537C24.5314 20.25 25 19.5082 25 18.25V7.25C25 5.99176 24.1777 5 22.5 5H6.95694ZM6.95694 6.25H22.5C23.5 6.25 23.7911 6.66741 23.7911 7.25V16.3342L19.9935 13.6411L19.9924 13.6403C19.5602 13.3273 18.9927 13.1667 18.4299 13.1667C17.8674 13.1667 17.3 13.3272 16.8674 13.6411L15.7292 14.4671L12.296 11.9761C11.8647 11.6624 11.2978 11.5 10.7324 11.5C10.1662 11.5 9.60057 11.6634 9.16995 11.9753L9.16886 11.9761L6.29313 13.7917L6.29311 7.37698C6.29311 6.79439 6.18014 6.25 6.95694 6.25ZM18.6111 8.16667C17.8472 8.16667 17.1688 8.40401 16.7383 8.76725C16.3078 9.13049 16.1111 9.59028 16.1111 10.0417C16.1111 10.4931 16.3078 10.9528 16.7383 11.3161C17.1688 11.6793 17.8472 11.9167 18.6111 11.9167C19.375 11.9167 20.0535 11.6793 20.484 11.3161C20.9145 10.9528 21.1111 10.4931 21.1111 10.0417C21.1111 9.59028 20.9145 9.13049 20.484 8.76725C20.0535 8.40401 19.375 8.16667 18.6111 8.16667ZM18.6111 9.41667C18.9584 9.41667 19.1133 9.49182 19.2383 9.59733C19.3634 9.70284 19.4445 9.86806 19.4445 10.0417C19.4445 10.2153 19.3634 10.3805 19.2383 10.486C19.1133 10.5915 18.9584 10.6667 18.6111 10.6667C18.2639 10.6667 18.109 10.5915 17.984 10.486C17.8589 10.3805 17.7778 10.2153 17.7778 10.0417C17.7778 9.86806 17.8589 9.70284 17.984 9.59733C18.109 9.49182 18.2639 9.41667 18.6111 9.41667ZM10.7324 12.75C10.8771 12.75 11.0197 12.789 11.1361 12.8737L11.1372 12.8745L14.5302 15.3363L9.48028 19H7.18073C6.40394 19 6.29311 18.8326 6.29311 18.25L6.29313 15.5308L10.3277 12.8745C10.446 12.7888 10.5887 12.75 10.7324 12.75ZM18.4299 14.4167C18.5771 14.4167 18.7181 14.4551 18.8347 14.5396L23.7911 17.8037V18.25C23.7911 18.8326 23.6305 19 22.8537 19H11.8783L18.0263 14.5396C18.1415 14.4559 18.2836 14.4167 18.4299 14.4167Z" fill="#666666"/>
</svg>
