<svg width="30" height="30" viewBox="0 0 30 30" fill="none" xmlns="http://www.w3.org/2000/svg">
<path d="M3.75 1C1.69602 1 1 1.35682 1 3V27C1 28.6432 1.69602 29 3.75 29H26.25C28.304 29 29 28.6432 29 27V15V3C29 2 28 1 27.25 1H3.75ZM3.03571 4C3.03571 3.44772 3.48343 3 4.03571 3H15H25.9643C26.5166 3 26.9643 3.44772 26.9643 4V26C26.9643 26.5523 26.5166 27 25.9643 27H4.03571C3.48343 27 3.03571 26.5523 3.03571 26V4ZM5.64286 22.2857C5.09057 22.2857 4.64286 22.7334 4.64286 23.2857C4.64286 23.838 5.09057 24.2857 5.64286 24.2857H24.3571C24.9094 24.2857 25.3571 23.838 25.3571 23.2857C25.3571 22.7334 24.9094 22.2857 24.3571 22.2857H15H5.64286Z" fill="#666666"/>
<path d="M6.95694 5C5.27928 5 5 6.11874 5 7.37698V18.25C5 19.5082 5.50308 20.25 7.18073 20.25H22.8537C24.5314 20.25 25 19.5082 25 18.25V7.25C25 5.99176 24.1777 5 22.5 5H6.95694ZM6.95694 6.25H22.5C23.5 6.25 23.7911 6.66741 23.7911 7.25V16.3342L19.9935 13.6411L19.9924 13.6403C19.5602 13.3273 18.9927 13.1667 18.4299 13.1667C17.8674 13.1667 17.3 13.3272 16.8674 13.6411L15.7292 14.4671L12.296 11.9761C11.8647 11.6624 11.2978 11.5 10.7324 11.5C10.1662 11.5 9.60057 11.6634 9.16995 11.9753L9.16886 11.9761L6.29313 13.7917L6.29311 7.37698C6.29311 6.79439 6.18014 6.25 6.95694 6.25ZM18.6111 8.16667C17.8472 8.16667 17.1688 8.40401 16.7383 8.76725C16.3078 9.13049 16.1111 9.59028 16.1111 10.0417C16.1111 10.4931 16.3078 10.9528 16.7383 11.3161C17.1688 11.6793 17.8472 11.9167 18.6111 11.9167C19.375 11.9167 20.0535 11.6793 20.484 11.3161C20.9145 10.9528 21.1111 10.4931 21.1111 10.0417C21.1111 9.59028 20.9145 9.13049 20.484 8.76725C20.0535 8.40401 19.375 8.16667 18.6111 8.16667ZM18.6111 9.41667C18.9584 9.41667 19.1133 9.49182 19.2383 9.59733C19.3634 9.70284 19.4445 9.86806 19.4445 10.0417C19.4445 10.2153 19.3634 10.3805 19.2383 10.486C19.1133 10.5915 18.9584 10.6667 18.6111 10.6667C18.2639 10.6667 18.109 10.5915 17.984 10.486C17.8589 10.3805 17.7778 10.2153 17.7778 10.0417C17.7778 9.86806 17.8589 9.70284 17.984 9.59733C18.109 9.49182 18.2639 9.41667 18.6111 9.41667ZM10.7324 12.75C10.8771 12.75 11.0197 12.789 11.1361 12.8737L11.1372 12.8745L14.5302 15.3363L9.48028 19H7.18073C6.40394 19 6.29311 18.8326 6.29311 18.25L6.29313 15.5308L10.3277 12.8745C10.446 12.7888 10.5887 12.75 10.7324 12.75ZM18.4299 14.4167C18.5771 14.4167 18.7181 14.4551 18.8347 14.5396L23.7911 17.8037V18.25C23.7911 18.8326 23.6305 19 22.8537 19H11.8783L18.0263 14.5396C18.1415 14.4559 18.2836 14.4167 18.4299 14.4167Z" fill="#666666"/>
</svg>
