<svg xmlns="http://www.w3.org/2000/svg" width="16" height="12" fill="none" viewBox="0 0 16 12">
    <path  fill="currentColor" d="M1.714 0C.772 0 0 .737 0 1.636v8.728C0 11.263.772 12 1.714 12h12.572c.942 0 1.714-.737 1.714-1.636V1.636C16 .737 15.228 0 14.286 0H1.714zm0 1.09h12.572c.321 0 .571.24.571.546v8.728c0 .306-.25.545-.571.545H12.57c0-.6-.513-1.09-1.142-1.09-.63 0-1.143.49-1.143 1.09H5.714c0-.6-.513-1.09-1.143-1.09-.629 0-1.142.49-1.142 1.09H1.714c-.321 0-.571-.239-.571-.545V1.636c0-.306.25-.545.571-.545zm4 1.092c-1.254 0-2.285.984-2.285 2.182 0 .583.25 1.116.642 1.508-1.058.558-1.785 1.624-1.785 2.855h1.143c0-1.21 1.017-2.182 2.285-2.182C6.982 6.545 8 7.517 8 8.727h1.143c0-1.231-.728-2.297-1.786-2.855C7.75 5.48 8 4.947 8 4.364c0-1.198-1.031-2.182-2.286-2.182zm0 1.09c.639 0 1.143.482 1.143 1.092 0 .609-.504 1.09-1.143 1.09-.638 0-1.143-.481-1.143-1.09 0-.61.505-1.091 1.143-1.091zm4.572 1.092v1.09h3.428v-1.09h-3.428zm0 2.181v1.091h3.428v-1.09h-3.428z"/>
</svg>
