<svg xmlns="http://www.w3.org/2000/svg" width="19" height="19" fill="none" viewBox="0 0 19 19">
    <path  fill="currentColor" d="M13.818 0c-.949 0-1.727.778-1.727 1.727v4.318H7.773c-.95 0-1.728.779-1.728 1.728v4.318H1.727C.778 12.09 0 12.869 0 13.818v3.455C0 18.222.778 19 1.727 19H17.273c.949 0 1.727-.778 1.727-1.727V1.727C19 .778 18.222 0 17.273 0h-3.455zm0 .864h3.455c.329 0 .608.18.754.446-.093.024-.174.078-.233.154-.058.075-.09.168-.09.263 0 .115.046.225.127.306.081.08.19.126.305.126v1.727c-.114 0-.224.046-.305.127-.081.08-.127.19-.127.305 0 .115.046.225.127.306.081.08.19.126.305.126v2.16c-.114 0-.224.045-.305.126-.081.08-.127.19-.127.305 0 .114.046.224.127.305.081.081.19.127.305.127V9.5c-.114 0-.224.045-.305.126-.081.081-.127.191-.127.306 0 .114.046.224.127.305.081.081.19.127.305.127v1.295c-.114 0-.224.046-.305.127-.081.08-.127.19-.127.305 0 .114.046.224.127.305.081.081.19.127.305.127v1.727c-.114 0-.224.046-.305.127-.081.08-.127.19-.127.305 0 .114.046.224.127.305.081.081.19.127.305.127v1.727c-.114 0-.224.045-.305.126-.081.081-.127.191-.127.306 0 .095.032.188.09.263.059.076.14.13.233.154-.146.266-.425.446-.754.446h-4.319v-.431c.115 0 .225-.046.306-.127.08-.08.126-.19.126-.305 0-.115-.045-.225-.126-.306-.081-.08-.19-.126-.306-.126v-1.727c.115 0 .225-.046.306-.127.08-.08.126-.19.126-.305 0-.115-.045-.225-.126-.306-.081-.08-.19-.126-.306-.126v-1.727c.115 0 .225-.046.306-.127.08-.08.126-.19.126-.305 0-.115-.045-.224-.126-.305-.081-.081-.19-.127-.306-.127V9.932c.115 0 .225-.046.306-.127.08-.08.126-.19.126-.305 0-.115-.045-.224-.126-.305-.081-.081-.19-.127-.306-.127V7.341c.115 0 .225-.046.306-.127.08-.08.126-.19.126-.305 0-.113-.044-.222-.124-.303-.08-.081-.188-.127-.302-.129 0-.023-.002-.045-.006-.068V4.75c.115 0 .225-.045.306-.126.08-.081.126-.191.126-.306 0-.114-.045-.224-.126-.305-.081-.081-.19-.127-.306-.127V2.16c.115 0 .225-.045.306-.126.08-.081.126-.191.126-.306 0-.095-.031-.188-.09-.263-.058-.076-.14-.13-.232-.154.146-.266.425-.446.754-.446zm1.728.431c-.115 0-.225.046-.306.127-.08.08-.126.19-.126.305 0 .115.045.225.126.306.081.08.19.126.306.126.114 0 .224-.045.305-.126.08-.081.126-.191.126-.306 0-.114-.045-.224-.126-.305-.081-.081-.191-.127-.306-.127zM14.25 2.591c-.114 0-.224.045-.305.126-.081.081-.127.191-.127.306 0 .114.046.224.127.305.08.081.19.127.305.127.114 0 .224-.046.305-.127.081-.08.127-.19.127-.305 0-.115-.046-.225-.127-.306-.08-.08-.19-.126-.305-.126zm2.59 0c-.114 0-.224.045-.304.126-.081.081-.127.191-.127.306 0 .114.046.224.127.305.08.081.19.127.305.127.114 0 .224-.046.305-.127.081-.08.127-.19.127-.305 0-.115-.046-.225-.127-.306-.08-.08-.19-.126-.305-.126zm-1.294 1.295c-.115 0-.225.046-.306.127-.08.08-.126.19-.126.305 0 .115.045.225.126.306.081.08.19.126.306.126.114 0 .224-.045.305-.126.08-.081.126-.191.126-.306 0-.114-.045-.224-.126-.305-.081-.081-.191-.127-.306-.127zM14.25 5.182c-.114 0-.224.045-.305.126-.081.081-.127.191-.127.306 0 .114.046.224.127.305.08.081.19.126.305.126.114 0 .224-.045.305-.126.081-.081.127-.19.127-.305 0-.115-.046-.225-.127-.306-.08-.08-.19-.126-.305-.126zm2.59 0c-.114 0-.224.045-.304.126-.081.081-.127.191-.127.306 0 .114.046.224.127.305.08.081.19.126.305.126.114 0 .224-.045.305-.126.081-.081.127-.19.127-.305 0-.115-.046-.225-.127-.306-.08-.08-.19-.126-.305-.126zm-1.294 1.295c-.115 0-.225.046-.306.127-.08.08-.126.19-.126.305 0 .115.045.224.126.305.081.081.19.127.306.127.114 0 .224-.046.305-.127.08-.08.126-.19.126-.305 0-.114-.045-.224-.126-.305-.081-.081-.191-.127-.306-.127zm-7.773.432h4.318v11.227H1.727c-.482 0-.863-.381-.863-.863v-3.455c0-.482.381-.864.863-.864h4.75c.115 0 .225-.045.306-.126.08-.08.126-.19.126-.305v-4.75c0-.482.382-.864.864-.864zm6.477.864c-.114 0-.224.045-.305.126-.081.081-.127.191-.127.306 0 .114.046.224.127.305.08.08.19.126.305.126.114 0 .224-.045.305-.126.081-.081.127-.19.127-.305 0-.115-.046-.225-.127-.306-.08-.08-.19-.126-.305-.126zm2.59 0c-.114 0-.224.045-.304.126-.081.081-.127.191-.127.306 0 .114.046.224.127.305.08.08.19.126.305.126.114 0 .224-.045.305-.126.081-.081.127-.19.127-.305 0-.115-.046-.225-.127-.306-.08-.08-.19-.126-.305-.126zm-1.294 1.295c-.115 0-.225.046-.306.127-.08.08-.126.19-.126.305 0 .115.045.224.126.305.081.081.19.127.306.127.114 0 .224-.046.305-.127.08-.08.126-.19.126-.305 0-.115-.045-.224-.126-.305-.081-.081-.191-.127-.306-.127zm-1.296 1.296c-.114 0-.224.045-.305.126-.081.081-.127.19-.127.306 0 .114.046.224.127.305.08.08.19.126.305.126.114 0 .224-.045.305-.126.081-.081.127-.191.127-.306 0-.114-.046-.224-.127-.305-.08-.08-.19-.126-.305-.126zm2.59 0c-.114 0-.224.045-.304.126-.081.081-.127.19-.127.306 0 .114.046.224.127.305.08.08.19.126.305.126.114 0 .224-.045.305-.126.081-.081.127-.191.127-.306 0-.114-.046-.224-.127-.305-.08-.08-.19-.126-.305-.126zm-1.294 1.295c-.115 0-.225.046-.306.127-.08.08-.126.19-.126.305 0 .114.045.224.126.305.081.081.19.127.306.127.114 0 .224-.046.305-.127.08-.08.126-.19.126-.305 0-.115-.045-.224-.126-.305-.081-.081-.191-.127-.306-.127zm-1.296 1.295c-.114 0-.224.046-.305.127-.081.081-.127.19-.127.305 0 .115.046.225.127.306.08.08.19.126.305.126.114 0 .224-.045.305-.126.081-.081.127-.191.127-.306 0-.114-.046-.224-.127-.305-.08-.081-.19-.127-.305-.127zm2.59 0c-.114 0-.224.046-.304.127-.081.081-.127.19-.127.305 0 .115.046.225.127.306.08.08.19.126.305.126.114 0 .224-.045.305-.126.081-.081.127-.191.127-.306 0-.114-.046-.224-.127-.305-.08-.081-.19-.127-.305-.127zm-1.294 1.296c-.115 0-.225.046-.306.127-.08.08-.126.19-.126.305 0 .114.045.224.126.305.081.081.19.127.306.127.114 0 .224-.046.305-.127.08-.08.126-.19.126-.305 0-.115-.045-.225-.126-.306-.081-.08-.191-.126-.306-.126zm-1.296 1.296c-.114 0-.224.045-.305.126-.081.08-.127.19-.127.305 0 .115.046.225.127.306.08.08.19.126.305.126.114 0 .224-.045.305-.126.081-.081.127-.191.127-.306 0-.114-.046-.224-.127-.305-.08-.081-.19-.127-.305-.127zm2.59 0c-.114 0-.224.045-.304.126-.081.08-.127.19-.127.305 0 .115.046.225.127.306.08.08.19.126.305.126.114 0 .224-.045.305-.126.081-.081.127-.191.127-.306 0-.114-.046-.224-.127-.305-.08-.081-.19-.127-.305-.127zm-1.294 1.295c-.115 0-.225.045-.306.126-.08.081-.126.191-.126.306 0 .114.045.224.126.305.081.081.19.127.306.127.114 0 .224-.046.305-.127.08-.08.126-.19.126-.305 0-.115-.045-.225-.126-.306-.081-.08-.191-.126-.306-.126z"/>
</svg>
