<svg xmlns="http://www.w3.org/2000/svg" width="11" height="11" fill="none" viewBox="0 0 11 11">
    <path fill="currentColor" d="M5.475 0c-.34 0-.674.03-.999.09l.166.902c.27-.05.548-.075.833-.075 2.548 0 4.604 2.046 4.604 4.583 0 2.537-2.056 4.583-4.604 4.583-.285 0-.563-.026-.833-.075l-.166.903c.325.059.658.089 1 .089C8.52 11 11 8.532 11 5.5S8.521 0 5.475 0zM3.076.548l-.1.046-.016.008-.015.009L2.6.802l-.015.009-.014.01-.327.217-.014.01-.014.01-.307.24-.014.012-.013.012-.288.263-.012.012-.013.013-.094.1.673.626.086-.093.255-.232.284-.222.301-.2.309-.173.079-.037-.387-.831zm4.31 2.207c-.076.015-.146.06-.192.13L4.72 6.64 3.648 5.59c-.116-.12-.307-.12-.423 0l-.424.438c-.117.12-.117.317 0 .438l1.717 1.61c.096.098.247.174.383.174.135 0 .272-.089.36-.221l2.925-4.45c.093-.14.057-.333-.08-.429l-.496-.347c-.068-.048-.15-.062-.225-.048zm-6.77.133l-.034.058-.01.015-.007.017-.168.356-.009.016-.006.017-.141.37-.006.017-.006.017-.111.384-.006.017-.003.02-.082.394-.004.019-.002.018-.018.146.914.112.016-.133.074-.355.1-.348.127-.33.155-.328.025-.044-.799-.455zm.3 3.238l-.916.1.006.058.002.017.004.016.064.356.004.016.004.016.09.346.004.016.005.016.114.335.004.016.007.015.136.326.007.014.007.014.144.288.823-.411-.138-.274-.126-.303-.003-.006-.094-.283-.084-.321-.06-.327-.005-.04zM2.15 8.668l-.68.619.045.049.01.011.012.011.252.24.011.01.013.01.268.222.012.01.013.01.283.203.013.01.013.008.298.183.013.01.015.006.31.164.43-.81-.297-.158-.273-.169-.256-.184-.23-.19-.004-.004-.233-.22-.038-.041z"/>
</svg>
