<svg width="16" height="16" viewBox="0 0 16 16" fill="none" xmlns="http://www.w3.org/2000/svg">
<rect width="16" height="16" fill="currentColor" fill-opacity="0.01"/>
<path fill-rule="evenodd" clip-rule="evenodd" d="M2 2.662C2 2.29667 2.29667 2 2.662 2H13.338C13.7033 2 14 2.29667 14 2.662V13.338C13.9998 13.5135 13.93 13.6818 13.8059 13.8059C13.6818 13.93 13.5135 13.9998 13.338 14H2.662C2.48648 13.9998 2.3182 13.93 2.19409 13.8059C2.06998 13.6818 2.00018 13.5135 2 13.338V2.662ZM3.33333 3.33333V12.6667H12.6667V3.33333H3.33333Z" fill="currentColor"/>
<path d="M6.47133 7.52867C6.40984 7.46499 6.33627 7.4142 6.25494 7.37926C6.1736 7.34433 6.08612 7.32593 5.9976 7.32517C5.90908 7.3244 5.8213 7.34126 5.73936 7.37479C5.65743 7.40831 5.583 7.45781 5.5204 7.5204C5.45781 7.583 5.40831 7.65743 5.37479 7.73936C5.34127 7.82129 5.3244 7.90908 5.32517 7.9976C5.32594 8.08612 5.34433 8.1736 5.37927 8.25494C5.4142 8.33627 5.46499 8.40983 5.52867 8.47133L6.862 9.80467C6.98702 9.92965 7.15656 9.99986 7.33333 9.99986C7.51011 9.99986 7.67965 9.92965 7.80467 9.80467L10.4713 7.138C10.535 7.0765 10.5858 7.00294 10.6207 6.9216C10.6557 6.84027 10.6741 6.75279 10.6748 6.66427C10.6756 6.57575 10.6587 6.48796 10.6252 6.40603C10.5917 6.3241 10.5422 6.24967 10.4796 6.18707C10.417 6.12448 10.3426 6.07497 10.2606 6.04145C10.1787 6.00793 10.0909 5.99106 10.0024 5.99183C9.91388 5.9926 9.8264 6.01099 9.74506 6.04593C9.66373 6.08087 9.59017 6.13166 9.52867 6.19533L7.33333 8.39067L6.47133 7.52867Z" fill="currentColor"/>
</svg>
