<svg width="20" height="20" viewBox="0 0 20 20" fill="none" xmlns="http://www.w3.org/2000/svg">
<path d="M14.1666 2.5C13.2458 2.5 12.5 3.24583 12.5 4.16667V10L14.1666 8.33333H17.5C18.4208 8.33333 19.1666 7.5875 19.1666 6.66667V4.16667C19.1666 3.24583 18.4208 2.5 17.5 2.5H14.1666ZM7.91663 4.16667C6.31567 4.16667 4.99996 5.48237 4.99996 7.08333C4.99996 8.68429 6.31567 10 7.91663 10C9.51759 10 10.8333 8.68429 10.8333 7.08333C10.8333 5.48237 9.51759 4.16667 7.91663 4.16667ZM14.1666 4.16667H17.5V6.66667H14.1666V4.16667ZM7.91663 5.83333C8.61685 5.83333 9.16663 6.38311 9.16663 7.08333C9.16663 7.78356 8.61685 8.33333 7.91663 8.33333C7.2164 8.33333 6.66663 7.78356 6.66663 7.08333C6.66663 6.38311 7.2164 5.83333 7.91663 5.83333ZM7.91663 11.6667C6.67737 11.6667 5.25127 12.018 4.0413 12.6058C3.43632 12.8997 2.88681 13.2517 2.4495 13.6995C2.0122 14.1474 1.66663 14.7314 1.66663 15.4167V17.5H14.1666V16.6667V15.4167C14.1666 14.7314 13.8211 14.1474 13.3837 13.6995C12.9464 13.2517 12.3969 12.8997 11.792 12.6058C10.582 12.018 9.15588 11.6667 7.91663 11.6667ZM7.91663 13.3333C8.81653 13.3333 10.0992 13.6367 11.0628 14.1048C11.5446 14.3389 11.9466 14.6133 12.1907 14.8633C12.4348 15.1132 12.5 15.2969 12.5 15.4167V15.8333H3.33329V15.4167C3.33329 15.2969 3.39847 15.1132 3.64254 14.8633C3.88661 14.6133 4.28868 14.3389 4.77047 14.1048C5.73404 13.6367 7.01672 13.3333 7.91663 13.3333Z" fill="#6B7280"/>
</svg>
