<svg xmlns="http://www.w3.org/2000/svg"  viewBox="0 0 13 13">
    <path  d="M1.5 0C.676 0 0 .654 0 1.452v7.741c0 .798.676 1.452 1.5 1.452H3V13l3.652-2.355H11.5c.824 0 1.5-.654 1.5-1.452V1.452C13 .654 12.324 0 11.5 0h-10zm0 .968h10c.281 0 .5.211.5.484v7.741c0 .273-.219.484-.5.484H6.348L4 11.193V9.677H1.5c-.281 0-.5-.211-.5-.484V1.452c0-.273.219-.484.5-.484zm5 1.928c-.824 0-1.5.654-1.5 1.451 0 .465.234.881.594 1.15C4.664 5.846 4 6.72 4 7.741h1c0-.81.664-1.452 1.5-1.452S8 6.933 8 7.742h1c0-1.02-.664-1.894-1.594-2.246.36-.268.594-.684.594-1.149 0-.797-.676-1.451-1.5-1.451zm0 .967c.281 0 .5.212.5.484s-.219.484-.5.484S6 4.62 6 4.347s.219-.484.5-.484z"/>
</svg>
