<svg xmlns="http://www.w3.org/2000/svg" width="17" height="16" fill="none" viewBox="0 0 17 16">
    <path fill="#465669" d="M1.821 0C.821 0 0 .832 0 1.846V8c0 1.014.82 1.846 1.821 1.846h1.812v2.462l3.245-2.462h3.443c1.001 0 1.822-.832 1.822-1.846V1.846C12.143.832 11.323 0 10.32 0h-8.5zm0 1.23h8.5c.342 0 .608.27.608.616V8c0 .346-.266.615-.608.615H6.47L4.848 9.846v-1.23H1.82c-.341 0-.607-.27-.607-.616V1.846c0-.346.266-.615.607-.615zm.608 1.232v1.23h7.285v-1.23H2.43zm10.928 1.23v1.231h1.822c.341 0 .607.27.607.615v6.154c0 .347-.266.616-.607.616h-3.031v1.23l-1.618-1.23H6.68c-.242 0-.451-.15-.55-.36l-.978.744c.328.51.887.847 1.528.847h3.443L13.362 16v-2.461h1.817c1 0 1.821-.832 1.821-1.847V5.538c0-1.014-.82-1.846-1.821-1.846h-1.822zM2.43 4.923v1.23h4.857v-1.23H2.429zm10.928 1.23v1.232h1.214V6.154h-1.214zm0 2.462v1.231h1.214v-1.23h-1.214z"/>
</svg>
