<svg width="20" height="19" viewBox="0 0 20 19" fill="none" xmlns="http://www.w3.org/2000/svg">
<path fill="currentColor"  d="M2.77367 0C2.08272 0 1.51321 0.559868 1.51321 1.23913V1.70058L0 2.8913L1.51321 4.08042V4.54348C1.51321 5.22274 2.08272 5.78261 2.77367 5.78261H15.3783C16.0693 5.78261 16.6388 5.22274 16.6388 4.54348V1.23913C16.6388 0.559868 16.0693 0 15.3783 0H2.77367ZM2.77367 0.826087H15.3783C15.6163 0.826087 15.7985 1.00518 15.7985 1.23913V4.54348C15.7985 4.77743 15.6163 4.95652 15.3783 4.95652H2.77367C2.5357 4.95652 2.35352 4.77743 2.35352 4.54348V3.68512L1.34581 2.8913L2.35352 2.09749V1.23913C2.35352 1.00518 2.5357 0.826087 2.77367 0.826087ZM4.45429 2.47826C4.22288 2.47826 4.03414 2.66381 4.03414 2.8913C4.03414 3.1188 4.22288 3.30435 4.45429 3.30435C4.6857 3.30435 4.87445 3.1188 4.87445 2.8913C4.87445 2.66381 4.6857 2.47826 4.45429 2.47826ZM6.13491 2.47826C5.9035 2.47826 5.71475 2.66381 5.71475 2.8913C5.71475 3.1188 5.9035 3.30435 6.13491 3.30435C6.36632 3.30435 6.55506 3.1188 6.55506 2.8913C6.55506 2.66381 6.36632 2.47826 6.13491 2.47826ZM7.81553 2.47826C7.58411 2.47826 7.39537 2.66381 7.39537 2.8913C7.39537 3.1188 7.58411 3.30435 7.81553 3.30435C8.04694 3.30435 8.23568 3.1188 8.23568 2.8913C8.23568 2.66381 8.04694 2.47826 7.81553 2.47826ZM9.49614 2.47826C9.26473 2.47826 9.07599 2.66381 9.07599 2.8913C9.07599 3.1188 9.26473 3.30435 9.49614 3.30435C9.72756 3.30435 9.9163 3.1188 9.9163 2.8913C9.9163 2.66381 9.72756 2.47826 9.49614 2.47826ZM11.1768 2.47826C10.9453 2.47826 10.7566 2.66381 10.7566 2.8913C10.7566 3.1188 10.9453 3.30435 11.1768 3.30435C11.4082 3.30435 11.5969 3.1188 11.5969 2.8913C11.5969 2.66381 11.4082 2.47826 11.1768 2.47826ZM4.45429 6.6087C3.76333 6.6087 3.19383 7.16856 3.19383 7.84783V8.31089L1.68062 9.5L3.19383 10.6891V11.1522C3.19383 11.8314 3.76333 12.3913 4.45429 12.3913H17.0589C17.7499 12.3913 18.3194 11.8314 18.3194 11.1522V7.84783C18.3194 7.16856 17.7499 6.6087 17.0589 6.6087H4.45429ZM4.45429 7.43478H17.0589C17.2969 7.43478 17.4791 7.61388 17.4791 7.84783V11.1522C17.4791 11.3861 17.2969 11.5652 17.0589 11.5652H4.45429C4.21631 11.5652 4.03414 11.3861 4.03414 11.1522V10.2938L3.02642 9.5L4.03414 8.70618V7.84783C4.03414 7.61388 4.21631 7.43478 4.45429 7.43478ZM6.13491 9.08696C5.9035 9.08696 5.71475 9.2725 5.71475 9.5C5.71475 9.7275 5.9035 9.91304 6.13491 9.91304C6.36632 9.91304 6.55506 9.7275 6.55506 9.5C6.55506 9.2725 6.36632 9.08696 6.13491 9.08696ZM7.81553 9.08696C7.58411 9.08696 7.39537 9.2725 7.39537 9.5C7.39537 9.7275 7.58411 9.91304 7.81553 9.91304C8.04694 9.91304 8.23568 9.7275 8.23568 9.5C8.23568 9.2725 8.04694 9.08696 7.81553 9.08696ZM9.49614 9.08696C9.26473 9.08696 9.07599 9.2725 9.07599 9.5C9.07599 9.7275 9.26473 9.91304 9.49614 9.91304C9.72756 9.91304 9.9163 9.7275 9.9163 9.5C9.9163 9.2725 9.72756 9.08696 9.49614 9.08696ZM6.13491 13.2174C5.44395 13.2174 4.87445 13.7773 4.87445 14.4565V14.9196L3.36123 16.1087L4.87445 17.2978V17.7609C4.87445 18.4401 5.44395 19 6.13491 19H18.7395C19.4305 19 20 18.4401 20 17.7609V14.4565C20 13.7773 19.4305 13.2174 18.7395 13.2174H6.13491ZM6.13491 14.0435H18.7395C18.9775 14.0435 19.1597 14.2226 19.1597 14.4565V17.7609C19.1597 17.9948 18.9775 18.1739 18.7395 18.1739H6.13491C5.89693 18.1739 5.71475 17.9948 5.71475 17.7609V16.9025L4.70704 16.1087L5.71475 15.3149V14.4565C5.71475 14.2226 5.89693 14.0435 6.13491 14.0435ZM7.81553 15.6957C7.58411 15.6957 7.39537 15.8812 7.39537 16.1087C7.39537 16.3362 7.58411 16.5217 7.81553 16.5217C8.04694 16.5217 8.23568 16.3362 8.23568 16.1087C8.23568 15.8812 8.04694 15.6957 7.81553 15.6957ZM9.49614 15.6957C9.26473 15.6957 9.07599 15.8812 9.07599 16.1087C9.07599 16.3362 9.26473 16.5217 9.49614 16.5217C9.72756 16.5217 9.9163 16.3362 9.9163 16.1087C9.9163 15.8812 9.72756 15.6957 9.49614 15.6957ZM11.1768 15.6957C10.9453 15.6957 10.7566 15.8812 10.7566 16.1087C10.7566 16.3362 10.9453 16.5217 11.1768 16.5217C11.4082 16.5217 11.5969 16.3362 11.5969 16.1087C11.5969 15.8812 11.4082 15.6957 11.1768 15.6957ZM12.8574 15.6957C12.626 15.6957 12.4372 15.8812 12.4372 16.1087C12.4372 16.3362 12.626 16.5217 12.8574 16.5217C13.0888 16.5217 13.2775 16.3362 13.2775 16.1087C13.2775 15.8812 13.0888 15.6957 12.8574 15.6957ZM14.538 15.6957C14.3066 15.6957 14.1178 15.8812 14.1178 16.1087C14.1178 16.3362 14.3066 16.5217 14.538 16.5217C14.7694 16.5217 14.9581 16.3362 14.9581 16.1087C14.9581 15.8812 14.7694 15.6957 14.538 15.6957ZM16.2186 15.6957C15.9872 15.6957 15.7985 15.8812 15.7985 16.1087C15.7985 16.3362 15.9872 16.5217 16.2186 16.5217C16.45 16.5217 16.6388 16.3362 16.6388 16.1087C16.6388 15.8812 16.45 15.6957 16.2186 15.6957Z" fill="#566980"/>
</svg>
