<svg width="20" height="20" viewBox="0 0 20 20" fill="none" xmlns="http://www.w3.org/2000/svg">
<path d="M3.125 2.5C2.09473 2.5 1.25 3.34473 1.25 4.375V14.375C1.25 15.4053 2.09473 16.25 3.125 16.25H9.18457L13.75 19.292V16.25H15.625C16.6553 16.25 17.5 15.4053 17.5 14.375V4.375C17.5 3.34473 16.6553 2.5 15.625 2.5H3.125ZM3.125 3.75H15.625C15.9766 3.75 16.25 4.02344 16.25 4.375V14.375C16.25 14.7266 15.9766 15 15.625 15H12.5V16.958L9.56543 15H3.125C2.77344 15 2.5 14.7266 2.5 14.375V4.375C2.5 4.02344 2.77344 3.75 3.125 3.75ZM5 6.25V7.5H13.75V6.25H5ZM5 8.75V10H13.75V8.75H5ZM5 11.25V12.5H10V11.25H5Z" 
fill="currentColor"
/>
</svg>
