<svg xmlns="http://www.w3.org/2000/svg"  viewBox="0 0 14 13">
    <path  d="M2.275 0C1.025 0 0 1.003 0 2.226v5.82c0 1.224 1.025 2.226 2.275 2.226H2.8v1.884c0 .673.85 1.089 1.4.685l3.5-2.569h4.025c1.25 0 2.275-1.002 2.275-2.225V2.226C14 1.003 12.975 0 11.725 0h-9.45zm0 1.027h9.45c.683 0 1.225.531 1.225 1.199v5.82c0 .669-.542 1.2-1.225 1.2h-4.2c-.114 0-.224.035-.315.102l-3.36 2.465V9.76c0-.136-.055-.267-.154-.363-.098-.097-.232-.15-.371-.15h-1.05c-.683 0-1.225-.532-1.225-1.2v-5.82c0-.668.542-1.199 1.225-1.199zM4.37 3.76c-.138.003-.27.06-.366.158L3.5 4.41l-.504-.493c-.049-.05-.107-.089-.172-.116-.065-.026-.134-.04-.204-.04-.105 0-.207.03-.294.088-.086.057-.154.138-.193.232-.04.095-.049.2-.027.3.021.1.073.19.148.262l.504.493-.504.493c-.05.047-.09.104-.119.167-.027.062-.042.13-.043.198 0 .068.013.136.04.2.026.063.065.12.114.169.05.048.108.086.173.112.065.026.134.039.204.038.07 0 .139-.015.203-.042.064-.027.122-.067.17-.116l.504-.493.504.493c.048.05.106.089.17.116.064.027.133.041.203.042.07 0 .14-.012.204-.038.065-.026.123-.064.173-.112.05-.049.088-.106.115-.17.026-.063.04-.13.039-.199-.001-.068-.016-.136-.043-.198-.028-.063-.068-.12-.119-.167l-.504-.493.504-.493c.077-.072.129-.164.15-.266.022-.101.012-.206-.029-.302-.04-.095-.11-.177-.198-.233-.089-.057-.193-.086-.299-.083zm3.5 0c-.138.003-.27.06-.366.158L7 4.41l-.504-.493c-.049-.05-.107-.089-.172-.116-.065-.026-.134-.04-.204-.04-.105 0-.207.03-.294.088-.086.057-.154.138-.193.232-.04.095-.049.2-.027.3.021.1.073.19.148.262l.504.493-.504.493c-.05.047-.09.104-.119.167-.027.062-.042.13-.043.198 0 .068.013.136.04.2.026.063.065.12.114.169.05.048.108.086.173.112.065.026.134.039.204.038.07 0 .139-.015.203-.042.064-.027.122-.067.17-.116L7 5.863l.504.493c.048.05.106.089.17.116.064.027.133.041.203.042.07 0 .14-.012.204-.038.065-.026.123-.064.173-.112.05-.049.088-.106.115-.17.026-.063.04-.13.039-.199-.001-.068-.016-.136-.043-.198-.028-.063-.068-.12-.119-.167l-.504-.493.504-.493c.077-.072.129-.164.15-.266.022-.101.012-.206-.029-.302-.04-.095-.11-.177-.198-.233-.089-.057-.193-.086-.299-.083zm3.5 0c-.138.003-.27.06-.366.158l-.504.493-.504-.493c-.049-.05-.107-.089-.172-.116-.065-.026-.134-.04-.204-.04-.105 0-.207.03-.294.088-.086.057-.154.138-.193.232-.04.095-.049.2-.027.3.021.1.073.19.148.262l.504.493-.504.493c-.05.047-.09.104-.119.167-.027.062-.042.13-.043.198 0 .068.013.136.04.2.026.063.065.12.114.169.05.048.108.086.173.112.065.026.134.039.204.038.07 0 .139-.015.203-.042.064-.027.122-.067.17-.116l.504-.493.504.493c.048.05.106.089.17.116.064.027.133.041.203.042.07 0 .14-.012.204-.038.065-.026.123-.064.173-.112.05-.049.088-.106.115-.17.026-.063.04-.13.039-.199-.001-.068-.016-.136-.043-.198-.028-.063-.068-.12-.119-.167l-.504-.493.504-.493c.076-.072.129-.164.15-.266.022-.101.012-.206-.029-.302-.04-.095-.11-.177-.198-.233-.089-.057-.193-.086-.299-.083z"/>
</svg>
