<svg xmlns="http://www.w3.org/2000/svg" width="16" height="16" fill="none" viewBox="0 0 16 16">
    <path fill="currentColor" d="M5.843 0c-.236 0-.417.165-.417.381v15.238c0 .216.181.381.417.381.237 0 .418-.165.418-.381V.762h8.904v14.857c0 .216.181.381.418.381.236 0 .417-.165.417-.381V.381C16 .165 15.82 0 15.583 0h-9.74zm2.505 2.286c-.237 0-.418.165-.418.38v.509c0 .215.181.38.418.38.236 0 .417-.165.417-.38v-.508c0-.216-.18-.381-.417-.381zm2.365 0c-.236 0-.417.165-.417.38v.509c0 .215.18.38.417.38s.417-.165.417-.38v-.508c0-.216-.18-.381-.417-.381zm2.365 0c-.236 0-.417.165-.417.38v.509c0 .215.18.38.417.38s.418-.165.418-.38v-.508c0-.216-.181-.381-.418-.381zm-9.03 1.778c-.054-.002-.11.006-.166.025L.264 5.359c-.153.05-.264.203-.264.355v9.905c0 .216.18.381.417.381s.418-.165.418-.381V5.981L4.188 4.8c.208-.077.32-.293.236-.496-.062-.143-.211-.236-.375-.241zm4.3.761c-.237 0-.418.165-.418.381v.508c0 .216.181.381.418.381.236 0 .417-.165.417-.38v-.509c0-.216-.18-.38-.417-.38zm2.365 0c-.236 0-.417.165-.417.381v.508c0 .216.18.381.417.381s.417-.165.417-.38v-.509c0-.216-.18-.38-.417-.38zm2.365 0c-.236 0-.417.165-.417.381v.508c0 .216.18.381.417.381s.418-.165.418-.38v-.509c0-.216-.181-.38-.418-.38zM3.2 7.365c-.237 0-.417.165-.417.381v.508c0 .216.18.38.417.38s.417-.164.417-.38v-.508c0-.216-.18-.38-.417-.38zm5.148 0c-.237 0-.418.165-.418.381v.508c0 .216.181.38.418.38.236 0 .417-.164.417-.38v-.508c0-.216-.18-.38-.417-.38zm2.365 0c-.236 0-.417.165-.417.381v.508c0 .216.18.38.417.38s.417-.164.417-.38v-.508c0-.216-.18-.38-.417-.38zm2.365 0c-.236 0-.417.165-.417.381v.508c0 .216.18.38.417.38s.418-.164.418-.38v-.508c0-.216-.181-.38-.418-.38zM3.2 9.905c-.237 0-.417.165-.417.38v.509c0 .215.18.38.417.38s.417-.165.417-.38v-.508c0-.216-.18-.381-.417-.381zm5.148 0c-.237 0-.418.165-.418.38v.509c0 .215.181.38.418.38.236 0 .417-.165.417-.38v-.508c0-.216-.18-.381-.417-.381zm2.365 0c-.236 0-.417.165-.417.38v.509c0 .215.18.38.417.38s.417-.165.417-.38v-.508c0-.216-.18-.381-.417-.381zm2.365 0c-.236 0-.417.165-.417.38v.509c0 .215.18.38.417.38s.418-.165.418-.38v-.508c0-.216-.181-.381-.418-.381zM2.783 12.952c-.237 0-.418.165-.418.381v2.286c0 .216.181.381.418.381h.834c.237 0 .418-.165.418-.381v-2.286c0-.216-.181-.38-.418-.38h-.834zm7.513 0c-.237 0-.418.165-.418.381v2.286c0 .216.181.381.418.381h.834c.237 0 .418-.165.418-.381v-2.286c0-.216-.181-.38-.418-.38h-.834z"/>
</svg>
