<svg xmlns="http://www.w3.org/2000/svg" width="22" height="20" fill="none" viewBox="0 0 22 20">
    <path   fill="currentColor" d="M12.495 9.548l-.024-.025c-.128-.128-.297-.203-.476-.208-.143-.004-.283.036-.403.116-.12.08-.215.195-.27.33-.056.136-.07.286-.042.43.027.143.096.273.195.375l.01.009c.06.059.743.73 1.292 1.334.575.632 1.653-.335 1.004-1.033-.597-.643-1.195-1.237-1.286-1.328z"/>
    <path   fill="currentColor"  fill-rule="evenodd" d="M12.033.053c.087-.036.18-.054.274-.053h2.364c.095-.001.188.017.275.053.087.036.167.09.234.158.066.068.12.149.156.238.036.09.055.186.055.283 0 .097-.019.193-.055.282-.036.09-.09.17-.156.239-.067.068-.147.122-.234.158-.087.036-.18.054-.274.052-.262 0-.473.212-.473.473v.056c0 .274.21.5.481.54 1.625.235 3.102.943 4.299 1.989l1.003 1.035C21.24 7.087 22 9.062 22 11.22 22 16.06 18.181 20 13.49 20c-2.748 0-5.197-1.351-6.754-3.444l.356-.26c.441-.323 1.055-.225 1.44.163 1.278 1.286 3.026 2.078 4.957 2.078 3.926 0 7.093-3.268 7.093-7.317 0-2.006-.78-3.819-2.04-5.139-.027-.023-.052-.05-.075-.077-1.26-1.28-2.982-2.073-4.89-2.097-.057.007-.114.007-.171 0-1.79.022-3.419.722-4.654 1.864-.4.37-1.015.443-1.442.105l-.35-.277c1.322-1.629 3.205-2.757 5.339-3.067.271-.04.481-.266.481-.54v-.056c0-.26-.211-.473-.473-.473-.094.002-.187-.016-.274-.052-.087-.036-.167-.09-.233-.158-.067-.068-.12-.15-.157-.239-.036-.09-.055-.185-.055-.282 0-.097.019-.193.055-.283.036-.09.09-.17.156-.238.067-.068.147-.122.234-.158zm4.013 7.494l.032-.033c.127-.125.295-.198.47-.204.144-.004.284.037.405.116.12.08.214.195.27.33.055.136.07.286.042.43-.029.145-.099.277-.2.38-.001 0 0 0 0 0-.012.012-2.578 2.597-3.152 3.228-.575.631-1.71-.16-1.003-1.034.673-.833 2.926-3.011 3.136-3.213z" clip-rule="evenodd"/>
    <path   fill="currentColor" d="M5 8.15c0-.359.291-.65.65-.65h3.7c.359 0 .65.291.65.65 0 .359-.291.65-.65.65h-3.7c-.359 0-.65-.291-.65-.65zM0 11.15c0-.359.291-.65.65-.65h8.7c.359 0 .65.291.65.65 0 .359-.291.65-.65.65H.65c-.359 0-.65-.291-.65-.65zM3 14.15c0-.359.291-.65.65-.65h5.7c.359 0 .65.291.65.65 0 .359-.291.65-.65.65h-5.7c-.359 0-.65-.291-.65-.65z"/>
</svg>
