<svg xmlns="http://www.w3.org/2000/svg" width="20" height="15" fill="none" viewBox="0 0 20 15">
    <path fill="currentColor" d="M12.5 9.643h3.889c.153 0 .278-.12.278-.268v-.536c0-.147-.125-.268-.278-.268H12.5c-.153 0-.278.121-.278.268v.536c0 .147.125.268.278.268zm0-2.143h3.889c.153 0 .278-.12.278-.268v-.536c0-.147-.125-.267-.278-.267H12.5c-.153 0-.278.12-.278.267v.536c0 .147.125.268.278.268zm0 4.286h3.889c.153 0 .278-.12.278-.268v-.536c0-.147-.125-.268-.278-.268H12.5c-.153 0-.278.12-.278.268v.536c0 .147.125.268.278.268zm-5.833-1.072c1.534 0 2.777-1.198 2.777-2.678S8.201 5.357 6.667 5.357c-1.535 0-2.778 1.199-2.778 2.679 0 1.48 1.243 2.678 2.778 2.678zm0-4.285c.92 0 1.666.72 1.666 1.607s-.746 1.607-1.666 1.607C5.747 9.643 5 8.923 5 8.036c0-.888.747-1.607 1.667-1.607zM17.777 0H2.223C.997 0 0 .96 0 2.143v10.714C0 14.04.997 15 2.222 15h15.556C19.004 15 20 14.04 20 12.857V2.143C20 .96 19.003 0 17.778 0zM9.445 13.929H3.89v-.506c0-.234.073-.462.208-.656.195-.278.549-.442.948-.442.43 0 .722.234 1.625.234.9 0 1.191-.234 1.625-.234.4 0 .754.167.948.442.135.194.208.422.208.656v.506h-.007zm9.445-1.072c0 .59-.5 1.072-1.111 1.072h-7.222v-.506c0-.465-.146-.897-.396-1.256-.42-.599-1.136-.917-1.868-.917-.677 0-.848.234-1.625.234-.778 0-.948-.234-1.625-.234-.736 0-1.452.315-1.868.917-.25.359-.396.79-.396 1.256v.506h-.556c-.61 0-1.11-.483-1.11-1.072V4.286h17.777v8.571zm0-9.643H1.11V2.143c0-.59.5-1.072 1.111-1.072h15.556c.61 0 1.11.483 1.11 1.072v1.071z"/>
</svg>
