<svg xmlns="http://www.w3.org/2000/svg" width="16" height="13" fill="none" viewBox="0 0 16 13">
    <path fill="currentColor"  d="M4.129 0C2.425 0 1.032 1.403 1.032 3.12c0 1.05.555 1.939 1.351 2.505C.986 6.293 0 7.703 0 9.36h1.032c0-1.73 1.38-3.12 3.097-3.12 1.716 0 3.097 1.39 3.097 3.12h.552C8.035 11.404 9.775 13 11.871 13 14.141 13 16 11.128 16 8.84c0-1.622-.936-3.03-2.288-3.716.458-.542.74-1.238.74-2.004 0-1.72-1.39-3.12-3.097-3.12-1.708 0-3.097 1.4-3.097 3.12 0 .969.446 1.83 1.136 2.402-.262.2-.503.427-.712.682-.384.33-.703.73-.946 1.179-.423-.762-1.072-1.381-1.861-1.758.796-.566 1.35-1.454 1.35-2.505C7.226 1.403 5.834 0 4.13 0zm0 1.04c1.146 0 2.065.925 2.065 2.08S5.275 5.2 4.129 5.2s-2.064-.925-2.064-2.08.918-2.08 2.064-2.08zm7.226 0c1.138 0 2.064.933 2.064 2.08 0 .665-.317 1.251-.8 1.632-.243-.045-.492-.072-.748-.072-.516 0-1.008.1-1.465.276C9.746 4.61 9.29 3.921 9.29 3.12c0-1.147.926-2.08 2.065-2.08zm.516 4.68c1.703 0 3.097 1.404 3.097 3.12 0 1.716-1.394 3.12-3.097 3.12s-3.097-1.404-3.097-3.12c0-1.716 1.394-3.12 3.097-3.12zm1.548 1.716l-1.703 1.716-1.187-1.196-.723.728 1.91 1.924 2.426-2.444-.723-.728z"/>
</svg>
