<svg xmlns="http://www.w3.org/2000/svg" width="17" height="14" fill="none" viewBox="0 0 17 14">
    <path fill="currentColor" d="M11.18 0c-.103 0-.204.04-.278.119-.162.158-.162.409 0 .554l.66.647H.406c-.23 0-.405.171-.405.395v10.556c0 .225.175.396.405.396h1.349c.23 0 .405-.171.405-.396 0-.224-.176-.395-.405-.395H.81V2.11h10.766l-.66.647c-.163.158-.163.409 0 .554.08.08.188.119.282.119.095 0 .203-.04.284-.12l1.349-1.319c.04-.04.067-.079.08-.118.068-.146.028-.317-.093-.436l-1.35-1.32C11.388.04 11.283 0 11.18 0zm4.066 1.32c-.23 0-.405.171-.405.395 0 .225.176.396.405.396h.944v9.765H5.425l.66-.647c.163-.158.163-.409 0-.554-.161-.158-.417-.158-.566 0l-1.349 1.32v.013c-.027.04-.067.079-.08.118-.068.146-.028.317.094.436l1.349 1.32c.08.078.189.118.283.118.094 0 .202-.04.283-.119.162-.158.162-.409 0-.554l-.66-.646h11.157c.23 0 .405-.172.405-.396V1.715c0-.224-.175-.395-.405-.395h-1.349zM8.5 4.354c-1.484 0-2.698 1.188-2.698 2.64 0 1.45 1.214 2.638 2.698 2.638s2.698-1.187 2.698-2.639c0-1.451-1.214-2.639-2.698-2.639zm0 .792c1.039 0 1.889.831 1.889 1.847S9.539 8.841 8.5 8.841c-1.039 0-1.889-.832-1.889-1.848s.85-1.847 1.889-1.847z"/>
</svg>
