<svg width="18" height="18" viewBox="0 0 18 18" fill="none" xmlns="http://www.w3.org/2000/svg">
<path d="M2.39995 3C1.73695 3 1.19995 3.537 1.19995 4.2V7.31016C1.89775 7.55796 2.39995 8.2176 2.39995 9C2.39995 9.7824 1.89775 10.442 1.19995 10.6898V13.8C1.19995 14.463 1.73695 15 2.39995 15H15.6C16.2629 15 16.8 14.463 16.8 13.8V10.6898C16.1021 10.442 15.6 9.7824 15.6 9C15.6 8.2176 16.1021 7.55796 16.8 7.31016V4.2C16.8 3.537 16.2629 3 15.6 3H2.39995ZM6.95972 5.66133C7.90352 5.66133 8.51948 6.30947 8.51948 7.30547C8.51948 8.29727 7.90352 8.94961 6.95972 8.94961C6.02132 8.94961 5.39995 8.29727 5.39995 7.30547C5.39995 6.31367 6.01712 5.66133 6.95972 5.66133ZM10.3535 5.8207H11.8195L9.39136 9.17344L7.69097 12.1793H6.21909L8.60854 8.84297L10.3535 5.8207ZM6.95972 6.60937C6.69092 6.60937 6.52847 6.86575 6.52847 7.30195C6.52847 7.73395 6.69092 7.99336 6.95972 7.99336C7.22432 7.99336 7.38745 7.73335 7.38745 7.30195C7.38745 6.86155 7.23332 6.60937 6.95972 6.60937ZM11.0449 9.05039C11.9833 9.05039 12.6 9.69864 12.6 10.6898C12.6 11.6864 11.9833 12.3375 11.0449 12.3375C10.1065 12.3375 9.48979 11.6858 9.48979 10.6898C9.48979 9.69864 10.1065 9.05039 11.0449 9.05039ZM11.0449 9.99844C10.7761 9.99844 10.6125 10.2536 10.6125 10.6898C10.6125 11.1218 10.7761 11.3824 11.0449 11.3824C11.3095 11.3824 11.4714 11.1218 11.4714 10.6898C11.4714 10.2488 11.3131 9.99844 11.0449 9.99844Z" fill="currentColor"/>
</svg>
