<svg xmlns="http://www.w3.org/2000/svg" width="13" height="13" fill="none" viewBox="0 0 13 13">
    <path fill="#465669" d="M2 0C.898 0 0 .898 0 2v9c0 1.102.898 2 2 2h6.5c.531 0 1.27-.768 2.125-1.64.12-.122.236-.237.36-.36.122-.123.253-.256.374-.375C12.232 9.77 13 9.031 13 8.5V2c0-1.102-.898-2-2-2H2zm0 1h9c.553 0 1 .447 1 1v6.5c0 .498-.502.5-1 .5H9.5c-.275 0-.5.225-.5.5v1.531c0 .444.002.877-.36.969H2c-.553 0-1-.447-1-1V2c0-.553.447-1 1-1zm1.406 3c-.275.025-.478.271-.453.547.026.275.272.478.547.453h6c.18.002.348-.092.44-.248.09-.156.09-.348 0-.504-.092-.156-.26-.25-.44-.248H3.406zm0 2.5c-.275.025-.478.271-.453.547.026.275.272.478.547.453h5c.18.002.348-.092.44-.248.09-.156.09-.348 0-.504-.092-.156-.26-.25-.44-.248H3.406z"/>
</svg>
