<svg width="20" height="20" viewBox="0 0 20 20" fill="none" xmlns="http://www.w3.org/2000/svg">
<path d="M8.53194 1.65775C8.50138 1.6585 8.47092 1.66149 8.4408 1.6667H5.20837C4.17504 1.6667 3.33337 2.50837 3.33337 3.5417V16.4584C3.33337 17.4917 4.17504 18.3334 5.20837 18.3334H10.6796C10.3212 17.9667 10.0212 17.5459 9.7795 17.0834H5.20837C4.86254 17.0834 4.58337 16.8042 4.58337 16.4584V3.5417C4.58337 3.19587 4.86254 2.9167 5.20837 2.9167H7.91671V3.12504C7.91672 3.29079 7.98258 3.44975 8.09979 3.56696C8.21699 3.68417 8.37595 3.75002 8.54171 3.75004H11.4584C11.6241 3.75002 11.7831 3.68417 11.9003 3.56696C12.0175 3.44975 12.0834 3.29079 12.0834 3.12504V2.9167H14.7917C15.1375 2.9167 15.4167 3.19587 15.4167 3.5417V9.22937C15.85 9.3002 16.2709 9.4167 16.6667 9.58337V3.5417C16.6667 2.50837 15.825 1.6667 14.7917 1.6667H11.5609C11.4938 1.65568 11.4254 1.65568 11.3583 1.6667H8.64425C8.60716 1.66034 8.56957 1.65735 8.53194 1.65775ZM8.54171 4.58337C8.45889 4.5822 8.37666 4.5975 8.29981 4.62838C8.22295 4.65927 8.153 4.70512 8.09402 4.76327C8.03504 4.82142 7.9882 4.89072 7.95624 4.96713C7.92427 5.04354 7.90781 5.12554 7.90781 5.20837C7.90781 5.2912 7.92427 5.3732 7.95624 5.44961C7.9882 5.52602 8.03504 5.59532 8.09402 5.65347C8.153 5.71162 8.22295 5.75747 8.29981 5.78836C8.37666 5.81924 8.45889 5.83454 8.54171 5.83337H11.4584C11.5412 5.83454 11.6234 5.81924 11.7003 5.78836C11.7771 5.75747 11.8471 5.71162 11.9061 5.65347C11.965 5.59532 12.0119 5.52602 12.0438 5.44961C12.0758 5.3732 12.0923 5.2912 12.0923 5.20837C12.0923 5.12554 12.0758 5.04354 12.0438 4.96713C12.0119 4.89072 11.965 4.82142 11.9061 4.76327C11.8471 4.70512 11.7771 4.65927 11.7003 4.62838C11.6234 4.5975 11.5412 4.5822 11.4584 4.58337H8.54171ZM8.54171 6.6667C8.28754 6.6667 8.05395 6.82064 7.96228 7.05814C7.92478 7.14981 7.08337 9.27087 7.08337 10.8334C7.08337 12.1792 7.99981 13.3166 9.24565 13.6499C9.32065 13.2333 9.44203 12.8296 9.60453 12.4504C8.87537 12.2754 8.33337 11.6167 8.33337 10.8334C8.33337 9.87087 8.74965 8.56254 8.97465 7.9167H11.0254C11.1921 8.40004 11.4708 9.25853 11.6 10.0627C11.9625 9.8252 12.3504 9.62911 12.7629 9.48327C12.5171 8.26661 12.067 7.12481 12.0378 7.05814C11.9461 6.82064 11.7125 6.6667 11.4584 6.6667H8.54171ZM10 10C9.54171 10 9.16671 10.375 9.16671 10.8334C9.16671 11.2917 9.54171 11.6667 10 11.6667H10.0212C10.2504 11.3125 10.517 10.9834 10.8212 10.6918C10.7545 10.3001 10.4084 10 10 10ZM14.5834 10C12.0521 10 10 12.0521 10 14.5834C10 17.1146 12.0521 19.1667 14.5834 19.1667C17.1146 19.1667 19.1667 17.1146 19.1667 14.5834C19.1667 12.0521 17.1146 10 14.5834 10ZM14.5834 11.25C14.8134 11.25 15 11.4367 15 11.6667V14.1667H17.5C17.73 14.1667 17.9167 14.3534 17.9167 14.5834C17.9167 14.8134 17.73 15 17.5 15H15V17.5C15 17.73 14.8134 17.9167 14.5834 17.9167C14.3534 17.9167 14.1667 17.73 14.1667 17.5V15H11.6667C11.4367 15 11.25 14.8134 11.25 14.5834C11.25 14.3534 11.4367 14.1667 11.6667 14.1667H14.1667V11.6667C14.1667 11.4367 14.3534 11.25 14.5834 11.25Z" fill="#6B7280"/>
</svg>
