<svg width="14" height="14" viewBox="0 0 14 14" fill="none" xmlns="http://www.w3.org/2000/svg">
<path d="M0 0V12H7.63512C7.23618 12.5677 6.99854 13.256 6.99854 14H7.99833C7.99833 12.6132 9.11126 11.5 10.4978 11.5C11.8843 11.5 12.9973 12.6132 12.9973 14H13.9971C13.9971 12.6858 13.2367 11.5787 12.1605 10.9805C12.3895 10.8258 12.6228 10.6687 12.8147 10.5029C13.357 10.0345 13.7413 9.56836 13.7413 9.56836L14 9.25391L13.7452 8.93652C13.7452 8.93652 13.3703 8.46803 12.8313 7.99805C12.5874 7.78535 12.306 7.56595 11.9975 7.38379V0H0ZM0.999791 1H10.9977V3H0.999791V1ZM1.49969 1.5V2.5H2.49948V1.5H1.49969ZM2.99937 1.5V2.5H3.99916V1.5H2.99937ZM4.49906 1.5V2.5H10.4978V1.5H4.49906ZM0.999791 4H10.9977V7.01855C10.9155 7.0084 10.8329 7 10.7478 7C9.51129 7 8.49822 8.01328 8.49822 9.25C8.49822 9.84519 8.74183 10.3815 9.12309 10.7852C8.97979 10.8468 8.84288 10.9205 8.71009 11H0.999791V4ZM10.7478 8C11.106 8 11.7097 8.34693 12.1742 8.75195C12.4577 8.99911 12.5193 9.09158 12.6575 9.24707C12.516 9.40312 12.4502 9.49773 12.1615 9.74707C11.6909 10.1536 11.0795 10.5 10.7478 10.5C10.0516 10.5 9.49801 9.94628 9.49801 9.25C9.49801 8.55372 10.0516 8 10.7478 8Z" fill="currentColor"/>
</svg>
