<svg width="80" height="80" viewBox="0 0 80 80" fill="none" xmlns="http://www.w3.org/2000/svg">
  <path d="M40.0001 73.3334C58.4096 73.3334 73.3334 58.4096 73.3334 40.0001C73.3334 21.5906 58.4096 6.66675 40.0001 6.66675C21.5906 6.66675 6.66675 21.5906 6.66675 40.0001C6.66675 58.4096 21.5906 73.3334 40.0001 73.3334Z" fill="#0EA5E9"/>
  <path d="M25 45V51.6667C25 53.5 26.5 55 28.3333 55H51.6667C53.5 55 55 53.5 55 51.6667V45H25ZM31.6667 51.6667H28.3333V48.3333H31.6667V51.6667Z" fill="white"/>
  <path d="M51.6667 25H28.3333C26.5 25 25 26.5 25 28.3333V41.6667H55V28.3333C55 26.5 53.5 25 51.6667 25ZM31.6667 38.3333H28.3333V35H31.6667V38.3333ZM48.3333 31.6667H31.6667V28.3333H48.3333V31.6667Z" fill="white"/>
</svg>
