<svg xmlns="http://www.w3.org/2000/svg" width="20" height="20" fill="none" viewBox="0 0 20 20">
    <path fill="currentColor"  d="M10 0C8.602 0 7.273.291 6.064.811l.727.727c.15.151.282.317.396.492.882-.313 1.826-.492 2.813-.492 4.665 0 8.462 3.797 8.462 8.462 0 4.665-3.797 8.462-8.462 8.462-4.665 0-8.462-3.797-8.462-8.462 0-.987.18-1.93.492-2.811-.175-.115-.34-.247-.492-.398l-.727-.727C.291 7.273 0 8.602 0 10c0 5.514 4.486 10 10 10s10-4.486 10-10S15.514 0 10 0zM1.531.762c-.153 0-.303.045-.43.13-.126.086-.225.208-.283.35-.057.141-.071.297-.04.447.032.15.107.287.217.393l.994.995h-.67c-.487 0-.73.588-.386.933l1.693 1.693c.289.289.68.45 1.088.45h1.352l4.39 4.39c.071.075.156.134.25.174.094.04.195.062.297.063.103.001.204-.018.299-.057.095-.038.18-.096.253-.168.072-.072.13-.158.168-.253.039-.095.058-.196.057-.299 0-.102-.022-.203-.063-.297-.04-.094-.1-.179-.173-.25l-4.39-4.39V3.714c0-.408-.162-.8-.45-1.088L4.01.933c-.345-.345-.933-.1-.933.386v.67L2.082.995C2.011.92 1.925.862 1.83.822c-.094-.04-.196-.06-.3-.06zM10 3.077c-.818 0-1.601.15-2.33.412.006.075.022.149.022.225v.715l.504.503c.565-.201 1.17-.317 1.804-.317 2.969 0 5.385 2.416 5.385 5.385 0 2.97-2.416 5.385-5.385 5.385-2.968 0-5.385-2.416-5.385-5.385 0-.633.115-1.239.317-1.804l-.503-.504h-.715c-.076 0-.15-.016-.225-.022-.262.729-.412 1.512-.412 2.33 0 3.817 3.105 6.923 6.923 6.923s6.923-3.106 6.923-6.923S13.818 3.077 10 3.077zm0 3.077c-.182 0-.354.03-.529.054l2.16 2.16v.002c.418.418.677.994.677 1.63 0 1.272-1.036 2.308-2.308 2.308-.636 0-1.212-.26-1.63-.678l-.002.002-2.16-2.16c-.025.174-.054.346-.054.528 0 2.12 1.725 3.846 3.846 3.846 2.12 0 3.846-1.725 3.846-3.846 0-2.12-1.725-3.846-3.846-3.846z"/>
</svg>
