<svg width="26" height="33" viewBox="0 0 26 33" fill="none" xmlns="http://www.w3.org/2000/svg">
<path d="M0.786058 0.711537V32.8299L4.63522 28.0974L7.53786 31.6941L10.3774 28.0974L13.2169 31.6941L16.0565 28.0974L18.896 31.6941L21.7356 28.0974L25.5216 32.8299V0.711537H0.786058ZM23.6286 27.4032L21.7356 25.0685L18.896 28.6653L16.0565 25.0685L13.2169 28.6653L10.3774 25.0685L7.53786 28.6653L4.69832 25.0685L2.67909 27.5294V2.60457H23.6286V27.4032ZM17.8864 8.28365H6.46514V6.39062H17.8864V8.28365ZM14.1004 15.9189H6.46514V14.0258H14.1004V15.9189ZM19.7794 12.1328H6.46514V10.2398H19.7794V12.1328ZM6.52825 19.7049H19.7794V21.598H6.52825V19.7049Z" 
fill="currentColor"/>
</svg>
