<svg xmlns="http://www.w3.org/2000/svg" width="20" height="21" fill="none" viewBox="0 0 20 21">
    <path fill="currentColor"  d="M13.13 0c-.298-.008-.6.045-.878.15L5.953 2.428H2.25C1.004 2.428 0 3.444 0 4.706v14.016C0 19.984 1.004 21 2.25 21h9.518c1.107 0 2.042-.806 2.215-1.892l4.5-1.542c.588-.21 1.037-.63 1.28-1.191.276-.526.311-1.157.104-1.752L15.125 1.482C14.918.922 14.502.43 13.983.22c-.26-.14-.554-.21-.853-.22zm-.099 1.022c.156.004.311.04.467.11.277.14.52.385.623.7l.554 1.542c-.485-.596-1.212-.946-2.042-.946H8.964l3.6-1.332c.156-.053.311-.078.467-.074zM2.25 3.48h9.518c.692 0 1.211.526 1.211 1.227v14.016c0 .701-.52 1.227-1.211 1.227H2.25c-.658 0-1.212-.526-1.212-1.227V4.706c0-.701.554-1.227 1.212-1.227zm13.117 1.858l3.496 9.671c.138.315.138.63-.035.91-.138.316-.38.527-.692.632l-2.769.946V5.336zM3.531 10.312c-.312 0-.52.245-.52.526 0 .28.208.526.52.526h7.095c.277 0 .519-.246.519-.526s-.242-.526-.52-.526H3.532zm0 2.628c-.312 0-.52.246-.52.526s.208.526.52.526h7.095c.277 0 .519-.246.519-.526s-.242-.526-.52-.526H3.532zm0 2.629c-.312 0-.52.245-.52.525s.208.526.52.526h4.602c.312 0 .52-.245.52-.526 0-.28-.242-.526-.554-.526H3.531z"/>
</svg>
