<svg width="40" height="40" viewBox="0 0 40 40" fill="none" xmlns="http://www.w3.org/2000/svg">
<g clip-path="url(#clip0_835_267)">
<path d="M10.2477 6.19075L33.8968 27.764C34.325 28.1546 35.0154 27.9327 35.1359 27.3659L37.2169 17.5755C37.272 17.3164 37.1863 17.0475 36.9915 16.868L20.9314 2.06968C20.7344 1.88818 20.4556 1.8255 20.1999 1.90524L10.5299 4.92066C9.97703 5.09307 9.81987 5.80043 10.2477 6.19075Z" fill="#FACC15" stroke="#0F172A" stroke-width="0.5"/>
<path d="M36.1387 17.0466L5.56001 27.29C5.0065 27.4754 4.86766 28.1942 5.31231 28.5724L13.3603 35.418C13.5621 35.5896 13.8395 35.6421 14.0901 35.556L34.5042 28.5388C34.7539 28.453 34.9401 28.2422 34.9944 27.9838L37.1109 17.912C37.2301 17.3448 36.6883 16.8625 36.1387 17.0466Z" fill="#FACC15" stroke="#0F172A" stroke-width="0.5" stroke-linejoin="round"/>
<path d="M5.0162 12.8441L35.3954 22.9333C35.9454 23.116 36.4859 22.6325 36.3654 22.0656L34.2844 12.2752C34.2293 12.0162 34.0416 11.8053 33.7907 11.7206L13.1 4.7339C12.8463 4.64821 12.5661 4.70435 12.3649 4.8812L4.75739 11.5691C4.32243 11.9514 4.46657 12.6616 5.0162 12.8441Z" fill="#FB7185" stroke="#0F172A" stroke-width="0.5"/>
<path d="M33.0854 12.2304L9.31668 34.0256C8.88643 34.4202 9.05197 35.1333 9.612 35.298L19.7486 38.2783C20.0027 38.353 20.2775 38.2881 20.4713 38.1075L36.2665 23.3939C36.4597 23.2139 36.544 22.9456 36.4885 22.6874L34.3255 12.6255C34.2037 12.0589 33.5125 11.8387 33.0854 12.2304Z" fill="#FB7185" stroke="#0F172A" stroke-width="0.5" stroke-linejoin="round"/>
<path d="M6.1506 9.21553L33.7683 25.4004C34.2682 25.6934 34.8975 25.3329 34.8975 24.7534L34.8975 14.7443C34.8975 14.4794 34.7577 14.2342 34.5299 14.0991L15.744 2.96326C15.5136 2.82668 15.2278 2.82334 14.9943 2.95449L6.16255 7.91453C5.65759 8.19812 5.65093 8.9227 6.1506 9.21553Z" fill="#38BDF8" stroke="#0F172A" stroke-width="0.5"/>
<path d="M33.733 14.4509L5.95224 30.8281C5.44937 31.1246 5.46302 31.8565 5.97658 32.134L15.272 37.1567C15.5051 37.2827 15.7873 37.2763 16.0145 37.14L34.5236 26.0318C34.75 25.896 34.8882 25.6511 34.8876 25.387L34.8639 15.0953C34.8625 14.5157 34.2323 14.1566 33.733 14.4509Z" fill="#38BDF8" stroke="#0F172A" stroke-width="0.5" stroke-linejoin="round"/>
</g>
<defs>
<clipPath id="clip0_835_267">
<rect width="40" height="40" fill="white"/>
</clipPath>
</defs>
</svg>
