<svg width="18" height="18" viewBox="0 0 18 18" fill="none" xmlns="http://www.w3.org/2000/svg">
<path d="M8.5 8.5V14" stroke="white" stroke-linecap="round" stroke-linejoin="round"/>
<path d="M6.38464 11.8846L8.50003 14L10.6154 11.8846" stroke="white" stroke-linecap="round" stroke-linejoin="round"/>
<path d="M4.69231 14H3.84615C3.62174 14 3.40652 13.9109 3.24783 13.7522C3.08915 13.5935 3 13.3783 3 13.1538V3.84615C3 3.62174 3.08915 3.40652 3.24783 3.24783C3.40652 3.08915 3.62174 3 3.84615 3H13.1538C13.3783 3 13.5935 3.08915 13.7522 3.24783C13.9109 3.40652 14 3.62174 14 3.84615V13.1538C14 13.3783 13.9109 13.5935 13.7522 13.7522C13.5935 13.9109 13.3783 14 13.1538 14H12.3077" stroke="white" stroke-linecap="round" stroke-linejoin="round"/>
<path d="M3 5.53845H14" stroke="white" stroke-linecap="round" stroke-linejoin="round"/>
</svg>
