<svg width="26" height="26" viewBox="0 0 26 26" fill="none" xmlns="http://www.w3.org/2000/svg">
<path d="M16.5825 5.38524L13.6726 2.44724C13.3021 2.07349 12.6987 2.07349 12.3282 2.44724L9.4173 5.38524C9.00889 5.79799 9.30139 6.49999 9.88314 6.49999H16.1177C16.6984 6.49999 16.9909 5.79799 16.5825 5.38524Z" fill="CurrentColor"/>
<path d="M9.4173 20.6147L12.3271 23.5527C12.6976 23.9265 13.3011 23.9265 13.6716 23.5527L16.5814 20.6147C16.9909 20.202 16.6984 19.5 16.1166 19.5H9.88314C9.30139 19.5 9.00889 20.202 9.4173 20.6147Z" fill="CurrentColor"/>
<path d="M21.125 14.0833H4.875C3.978 14.0833 3.25 14.8113 3.25 15.7083C3.25 16.6053 3.978 17.3333 4.875 17.3333H21.125C22.022 17.3333 22.75 16.6053 22.75 15.7083C22.75 14.8113 22.022 14.0833 21.125 14.0833Z" fill="CurrentColor"/>
<path d="M21.125 8.66667H4.875C3.978 8.66667 3.25 9.39467 3.25 10.2917C3.25 11.1887 3.978 11.9167 4.875 11.9167H21.125C22.022 11.9167 22.75 11.1887 22.75 10.2917C22.75 9.39467 22.022 8.66667 21.125 8.66667Z" fill="CurrentColor"/>
</svg>
