<svg width="28" height="28" viewBox="0 0 28 28" fill="none" xmlns="http://www.w3.org/2000/svg">
<path d="M6.33341 1.66666C5.87341 1.66666 5.50008 2.03999 5.50008 2.49999C5.50008 2.95999 5.87341 3.33332 6.33341 3.33332H17.1667V14.1667C17.1667 14.6267 17.5401 15 18.0001 15C18.4601 15 18.8334 14.6267 18.8334 14.1667V3.33332C18.8334 2.41249 18.0876 1.66666 17.1667 1.66666H6.33341ZM3.83341 4.99999C2.91258 4.99999 2.16675 5.74582 2.16675 6.66666V16.6667C2.16675 17.5875 2.91258 18.3333 3.83341 18.3333H13.8334C14.7542 18.3333 15.5001 17.5875 15.5001 16.6667V6.66666C15.5001 5.74582 14.7542 4.99999 13.8334 4.99999H3.83341ZM8.83341 8.33332C9.29341 8.33332 9.66675 8.70666 9.66675 9.16666V10.8333H11.3334C11.7934 10.8333 12.1667 11.2067 12.1667 11.6667C12.1667 12.1267 11.7934 12.5 11.3334 12.5H9.66675V14.1667C9.66675 14.6267 9.29341 15 8.83341 15C8.37341 15 8.00008 14.6267 8.00008 14.1667V12.5H6.33341C5.87341 12.5 5.50008 12.1267 5.50008 11.6667C5.50008 11.2067 5.87341 10.8333 6.33341 10.8333H8.00008V9.16666C8.00008 8.70666 8.37341 8.33332 8.83341 8.33332Z" fill="CurrentColor"/>
</svg>
