<svg xmlns="http://www.w3.org/2000/svg" width="16" height="15" fill="none" viewBox="0 0 16 15">
    <path fill="currentColor" d="M1.043 0C.47 0 0 .442 0 .98v11.428c0 .537.471.98 1.043.98h11.252l1.297 1.208c.556.522 1.425.555 2.016 0 .557-.523.487-1.371 0-1.894l-1.008-.934V.98c0-.538-.47-.98-1.043-.98H1.043zm0 .653h12.514c.197 0 .348.142.348.327v10.143l-3.232-2.996c-.044-.04-.096-.068-.155-.083l-2.085-.523c-.122-.03-.25.003-.338.087-.087.083-.12.205-.087.318l.592 1.96c.016.054.046.102.09.142l2.905 2.707H1.043c-.197 0-.348-.142-.348-.327V.98c0-.185.151-.327.348-.327zM3.129 2.94c-.046 0-.092.007-.135.023-.043.016-.082.04-.114.07-.033.031-.06.067-.077.107-.018.04-.027.083-.027.126 0 .044.01.086.027.126.018.04.044.076.077.107.032.03.071.054.114.07.043.016.089.024.135.024h8.343c.046 0 .091-.008.134-.024.043-.016.082-.04.115-.07.032-.03.059-.067.076-.107.018-.04.027-.082.027-.126 0-.043-.009-.086-.027-.126-.018-.04-.044-.076-.076-.106-.033-.03-.072-.055-.115-.07-.043-.017-.088-.025-.134-.024H3.129zm0 2.286c-.046-.001-.092.007-.135.023-.043.016-.082.04-.114.07-.033.03-.06.067-.077.107-.018.04-.027.083-.027.126s.01.086.027.126c.018.04.044.076.077.107.032.03.071.054.114.07.043.016.089.024.135.024h8.343c.046 0 .091-.008.134-.024.043-.016.082-.04.115-.07.032-.03.059-.067.076-.107.018-.04.027-.083.027-.126s-.009-.086-.027-.126c-.018-.04-.044-.076-.076-.106-.033-.03-.072-.055-.115-.07-.043-.017-.088-.025-.134-.024H3.129zm0 2.285c-.046 0-.092.008-.135.024-.043.016-.082.04-.114.07-.033.03-.06.067-.077.107-.018.04-.027.083-.027.126s.01.086.027.126c.018.04.044.076.077.106.032.03.071.055.114.07.043.017.089.025.135.024h3.476c.046.001.092-.007.134-.023.043-.016.082-.04.115-.07.033-.031.059-.067.077-.107.017-.04.026-.083.026-.126s-.009-.086-.026-.126c-.018-.04-.044-.076-.077-.107-.033-.03-.072-.054-.115-.07-.042-.016-.088-.024-.134-.024H3.129zm7.121 1.143l4.608 4.297-1.038.975-4.576-4.3-.012-.038 1.018-.934z"/>
</svg>
