<svg xmlns="http://www.w3.org/2000/svg" viewBox="0 0 64 64">
  <path xmlns="http://www.w3.org/2000/svg" d="M 28.662075 78.828798 L 89.580318 78.828798 C 93.540849 78.828798 96.751519 82.039468 96.751519 85.999999 C 96.751519 89.960529 93.540849 93.171199 89.580318 93.171199 L 28.662075 93.171199 C 24.712106 93.171199 21.501436 89.960529 21.501436 85.999999 C 21.501436 82.039468 24.712106 78.828798 28.662075 78.828798 Z M 28.662075 35.833276 L 143.337922 35.833276 C 147.287891 35.833276 150.498561 39.043947 150.498561 43.004477 C 150.498561 46.954447 147.287891 50.165117 143.337922 50.165117 L 28.662075 50.165117 C 24.712106 50.165117 21.501436 46.954447 21.501436 43.004477 C 21.501436 39.043947 24.712106 35.833276 28.662075 35.833276 Z M 28.662075 121.83488 L 121.83488 121.83488 C 125.795411 121.83488 128.99552 125.04555 128.99552 128.99552 C 128.99552 132.95605 125.795411 136.166721 121.83488 136.166721 L 28.662075 136.166721 C 24.712106 136.166721 21.501436 132.95605 21.501436 128.99552 C 21.501436 125.04555 24.712106 121.83488 28.662075 121.83488 Z M 28.662075 121.83488 " transform="matrix(0.36986,0,0,0.36986,0.192,0.192)"/>
</svg>
