<svg xmlns="http://www.w3.org/2000/svg" width="13" height="13" fill="none" viewBox="0 0 13 13">
    <path fill="#465669" d="M3.095 0C1.39 0 0 1.39 0 3.095v6.81C0 11.61 1.39 13 3.095 13h6.81C11.61 13 13 11.61 13 9.905v-6.81C13 1.39 11.61 0 9.905 0h-6.81zm0 .619h6.81c1.371 0 2.476 1.105 2.476 2.476v6.81c0 1.371-1.105 2.476-2.476 2.476h-6.81C1.724 12.381.62 11.276.62 9.905v-6.81C.619 1.724 1.724.62 3.095.62zm-.31 2.786c-.508 0-.928.42-.928.928v4.334c0 .509.42.928.929.928h7.428c.51 0 .929-.42.929-.928V4.333c0-.509-.42-.928-.929-.928H2.786zm.129.619h7.171L7.33 6.776c-.462.462-1.201.462-1.663 0L2.914 4.024zm7.61.437v4.078L8.482 6.5l2.042-2.04zm-8.048 0L4.515 6.5 2.476 8.539V4.462zm5.568 2.476l2.042 2.04H2.914l2.038-2.04.276.276c.698.699 1.84.7 2.538.002l.278-.278z"/>
</svg>
