<svg width="14" height="14" viewBox="0 0 14 14" fill="none" xmlns="http://www.w3.org/2000/svg">
<path d="M8 0C7.83542 0 7.67083 0.0503937 7.53021 0.153281L0.33125 5.40892C0.123958 5.55906 0 5.80367 0 6.06089V15.1937C0 15.6378 0.359375 16 0.8 16H15.2C15.6406 16 16 15.6378 16 15.1937V6.06089C16 5.80367 15.876 5.55906 15.6698 5.40892L8.46979 0.153281C8.32917 0.0503937 8.16458 0 8 0ZM8 0.537533C8.05417 0.537533 8.10938 0.554331 8.15625 0.588976L15.3573 5.84462C15.426 5.89501 15.4667 5.97585 15.4667 6.06089V6.45564L13.3333 8.0126V5.78688C13.3333 5.49081 13.0938 5.24934 12.8 5.24934H3.2C2.90625 5.24934 2.66667 5.49081 2.66667 5.78688V8.0126L0.533333 6.45564V6.06089C0.533333 5.97585 0.573958 5.89396 0.64375 5.84357L7.84271 0.588976C7.89063 0.554331 7.94583 0.537533 8 0.537533ZM3.2 5.78688H12.8V8.4021L8.3125 11.6777C8.12604 11.8142 7.87396 11.8142 7.6875 11.6777L5.50833 10.0871H7.2C7.34792 10.0871 7.46667 9.9664 7.46667 9.81837C7.46667 9.67034 7.34792 9.54961 7.2 9.54961H5.06667C4.99375 9.54961 4.92708 9.579 4.87917 9.6273L3.2 8.4021V5.78688ZM0.533333 7.11916L7.37396 12.1123C7.56146 12.2488 7.78021 12.3171 8 12.3171C8.21979 12.3171 8.43854 12.2488 8.62604 12.1123L15.4667 7.11916V13.9087L11.0583 11.201C10.9323 11.1244 10.7688 11.1643 10.6917 11.2913C10.6156 11.4173 10.6552 11.5832 10.7802 11.6609L14.476 13.9297C14.4292 13.979 14.4 14.0451 14.4 14.1186V14.6562C14.4 14.8042 14.5188 14.9249 14.6667 14.9249C14.8146 14.9249 14.9333 14.8042 14.9333 14.6562V14.211L15.4667 14.5386V15.1937C15.4667 15.3417 15.3469 15.4625 15.2 15.4625H0.8C0.653125 15.4625 0.533333 15.3417 0.533333 15.1937V14.5386L1.06667 14.211V14.6562C1.06667 14.8042 1.18542 14.9249 1.33333 14.9249C1.48125 14.9249 1.6 14.8042 1.6 14.6562V14.1186C1.6 14.0451 1.57083 13.979 1.52292 13.9307L5.21979 11.6609C5.34479 11.5832 5.38542 11.4173 5.30833 11.2913C5.23229 11.1633 5.06771 11.1244 4.94167 11.201L0.533333 13.9087V7.11916ZM5.06667 7.39948C4.91875 7.39948 4.8 7.52021 4.8 7.66824C4.8 7.81627 4.91875 7.93701 5.06667 7.93701H6.13333C6.28125 7.93701 6.4 7.81627 6.4 7.66824C6.4 7.52021 6.28125 7.39948 6.13333 7.39948H5.06667ZM7.2 7.39948C7.05208 7.39948 6.93333 7.52021 6.93333 7.66824C6.93333 7.81627 7.05208 7.93701 7.2 7.93701H10.9333C11.0813 7.93701 11.2 7.81627 11.2 7.66824C11.2 7.52021 11.0813 7.39948 10.9333 7.39948H7.2ZM5.06667 8.47454C4.91875 8.47454 4.8 8.59528 4.8 8.74331C4.8 8.89134 4.91875 9.01207 5.06667 9.01207H10.4C10.5479 9.01207 10.6667 8.89134 10.6667 8.74331C10.6667 8.59528 10.5479 8.47454 10.4 8.47454H5.06667ZM8.26667 9.54961C8.11875 9.54961 8 9.67034 8 9.81837C8 9.9664 8.11875 10.0871 8.26667 10.0871H9.6C9.74792 10.0871 9.86667 9.9664 9.86667 9.81837C9.86667 9.67034 9.74792 9.54961 9.6 9.54961H8.26667ZM2.66667 13.8499C2.51875 13.8499 2.4 13.9706 2.4 14.1186V14.6562C2.4 14.8042 2.51875 14.9249 2.66667 14.9249C2.81458 14.9249 2.93333 14.8042 2.93333 14.6562V14.1186C2.93333 13.9706 2.81458 13.8499 2.66667 13.8499ZM4 13.8499C3.85208 13.8499 3.73333 13.9706 3.73333 14.1186V14.6562C3.73333 14.8042 3.85208 14.9249 4 14.9249C4.14792 14.9249 4.26667 14.8042 4.26667 14.6562V14.1186C4.26667 13.9706 4.14792 13.8499 4 13.8499ZM5.33333 13.8499C5.18542 13.8499 5.06667 13.9706 5.06667 14.1186V14.6562C5.06667 14.8042 5.18542 14.9249 5.33333 14.9249C5.48125 14.9249 5.6 14.8042 5.6 14.6562V14.1186C5.6 13.9706 5.48125 13.8499 5.33333 13.8499ZM6.66667 13.8499C6.51875 13.8499 6.4 13.9706 6.4 14.1186V14.6562C6.4 14.8042 6.51875 14.9249 6.66667 14.9249C6.81458 14.9249 6.93333 14.8042 6.93333 14.6562V14.1186C6.93333 13.9706 6.81458 13.8499 6.66667 13.8499ZM8 13.8499C7.85208 13.8499 7.73333 13.9706 7.73333 14.1186V14.6562C7.73333 14.8042 7.85208 14.9249 8 14.9249C8.14792 14.9249 8.26667 14.8042 8.26667 14.6562V14.1186C8.26667 13.9706 8.14792 13.8499 8 13.8499ZM9.33333 13.8499C9.18542 13.8499 9.06667 13.9706 9.06667 14.1186V14.6562C9.06667 14.8042 9.18542 14.9249 9.33333 14.9249C9.48125 14.9249 9.6 14.8042 9.6 14.6562V14.1186C9.6 13.9706 9.48125 13.8499 9.33333 13.8499ZM10.6667 13.8499C10.5188 13.8499 10.4 13.9706 10.4 14.1186V14.6562C10.4 14.8042 10.5188 14.9249 10.6667 14.9249C10.8146 14.9249 10.9333 14.8042 10.9333 14.6562V14.1186C10.9333 13.9706 10.8146 13.8499 10.6667 13.8499ZM12 13.8499C11.8521 13.8499 11.7333 13.9706 11.7333 14.1186V14.6562C11.7333 14.8042 11.8521 14.9249 12 14.9249C12.1479 14.9249 12.2667 14.8042 12.2667 14.6562V14.1186C12.2667 13.9706 12.1479 13.8499 12 13.8499ZM13.3333 13.8499C13.1854 13.8499 13.0667 13.9706 13.0667 14.1186V14.6562C13.0667 14.8042 13.1854 14.9249 13.3333 14.9249C13.4813 14.9249 13.6 14.8042 13.6 14.6562V14.1186C13.6 13.9706 13.4813 13.8499 13.3333 13.8499Z"
fill="currentColor"/>
</svg>
