<svg width="20" height="20" viewBox="0 0 20 20" fill="none" xmlns="http://www.w3.org/2000/svg">
<path fill-rule="evenodd" clip-rule="evenodd" d="M11.7491 3.46138C16.8233 4.82332 17.7255 7.27368 16.5276 11.752C15.3297 16.2304 13.3252 17.9006 8.25094 16.5386C3.17665 15.1767 2.27446 12.7263 3.4724 8.24798C4.67035 3.76964 6.67478 2.09943 11.7491 3.46138Z" fill="#F7578C"/>
<path fill-rule="evenodd" clip-rule="evenodd" d="M6.50592 10.0765C5.86203 8.72831 5.83279 7.40613 6.6194 6.61952C7.40601 5.83291 8.72818 5.86215 10.0764 6.50604C11.4245 5.86215 12.7467 5.83291 13.5333 6.61952C14.3199 7.40613 14.2907 8.72831 13.6468 10.0765C14.2907 11.4247 14.3199 12.7468 13.5333 13.5335C12.7467 14.3201 11.4245 14.2908 10.0764 13.6469C8.72818 14.2908 7.40601 14.3201 6.6194 13.5335C5.83279 12.7468 5.86203 11.4247 6.50592 10.0765ZM7.13784 9.01663C7.38837 8.66798 7.67771 8.32679 8.00219 8.00231C8.32667 7.67783 8.66786 7.38849 9.01651 7.13796C8.2844 6.91604 7.65712 6.96459 7.31079 7.31091C6.96447 7.65724 6.91592 8.28452 7.13784 9.01663ZM13.0149 11.1363C12.7644 11.485 12.475 11.8262 12.1505 12.1507C11.8261 12.4751 11.4849 12.7645 11.1362 13.015C11.8683 13.2369 12.4956 13.1884 12.8419 12.8421C13.1883 12.4957 13.2368 11.8685 13.0149 11.1363ZM7.13784 11.1363C6.91592 11.8685 6.96447 12.4957 7.31079 12.8421C7.65712 13.1884 8.2844 13.2369 9.01651 13.015C8.66786 12.7645 8.32667 12.4751 8.00219 12.1507C7.67771 11.8262 7.38837 11.485 7.13784 11.1363ZM7.61322 10.0765C7.88626 10.5411 8.24822 11.0139 8.69358 11.4593C9.13894 11.9046 9.61175 12.2666 10.0764 12.5396C10.541 12.2666 11.0138 11.9046 11.4592 11.4593C11.9045 11.0139 12.2665 10.5411 12.5395 10.0765C12.2665 9.61187 11.9045 9.13906 11.4592 8.6937C11.0138 8.24835 10.541 7.88638 10.0764 7.61334C9.61175 7.88638 9.13894 8.24835 8.69358 8.6937C8.24822 9.13906 7.88626 9.61187 7.61322 10.0765ZM11.1362 7.13796C11.4849 7.38849 11.8261 7.67783 12.1505 8.00231C12.475 8.32679 12.7644 8.66798 13.0149 9.01663C13.2368 8.28452 13.1883 7.65724 12.8419 7.31091C12.4956 6.96459 11.8683 6.91604 11.1362 7.13796Z" fill="white"/>
</svg>
