<svg width="20" height="20" viewBox="0 0 20 20" fill="none" xmlns="http://www.w3.org/2000/svg">
<path d="M18.9913 5.70669C18.9112 7.49811 17.6874 9.95113 15.3204 13.0645C12.8731 16.3167 10.8025 17.9426 9.10869 17.9426C8.05983 17.9426 7.17152 16.9526 6.44648 14.9718C5.96191 13.1561 5.47789 11.3407 4.99351 9.525C4.45476 7.54532 3.87714 6.55419 3.25955 6.55419C3.12491 6.55419 2.65367 6.84385 1.84691 7.42097L1 6.30549C1.88831 5.5074 2.76473 4.7095 3.62694 3.9105C4.8117 2.86372 5.70109 2.31324 6.29383 2.25758C7.69478 2.12001 8.55699 3.09901 8.88063 5.19478C9.23037 7.45586 9.47229 8.86229 9.60838 9.41277C10.0121 11.2887 10.4564 12.2254 10.9418 12.2254C11.3186 12.2254 11.8845 11.6171 12.6391 10.4004C13.3929 9.18336 13.7966 8.25744 13.8512 7.62136C13.9585 6.57108 13.5545 6.04466 12.6391 6.04466C12.2081 6.04466 11.7639 6.14605 11.3069 6.34645C12.1914 3.3839 13.8816 1.94515 16.3764 2.02725C18.2259 2.08272 19.0979 3.30914 18.9913 5.70669Z" fill="#32B8E8"/>
</svg>
