<svg width="20" height="20" viewBox="0 0 20 20" fill="none" xmlns="http://www.w3.org/2000/svg">
<path d="M17.2422 1H2.75781C1.787 1 1 1.787 1 2.75781V17.2422C1 18.213 1.787 19 2.75781 19H17.2422C18.213 19 19 18.213 19 17.2422V2.75781C19 1.787 18.213 1 17.2422 1Z" fill="url(#paint0_linear_331_295)"/>
<path d="M15.8162 3.34009H12.0137C11.5477 3.34009 11.17 3.71785 11.17 4.18384V10.3713C11.17 10.8373 11.5477 11.2151 12.0137 11.2151H15.8162C16.2822 11.2151 16.66 10.8373 16.66 10.3713V4.18384C16.66 3.71785 16.2822 3.34009 15.8162 3.34009Z" fill="white"/>
<path d="M7.98628 3.34009H4.18378C3.71779 3.34009 3.34003 3.71785 3.34003 4.18384V14.8713C3.34003 15.3373 3.71779 15.7151 4.18378 15.7151H7.98628C8.45227 15.7151 8.83003 15.3373 8.83003 14.8713V4.18384C8.83003 3.71785 8.45227 3.34009 7.98628 3.34009Z" fill="white"/>
<defs>
<linearGradient id="paint0_linear_331_295" x1="10" y1="1" x2="10" y2="19" gradientUnits="userSpaceOnUse">
<stop stop-color="#0091E6"/>
<stop offset="1" stop-color="#0079BF"/>
</linearGradient>
</defs>
</svg>
