<svg width="20" height="20" viewBox="0 0 20 20" fill="none" xmlns="http://www.w3.org/2000/svg">
<g clip-path="url(#clip0_331_137)">
<path d="M2.8292 1.19478C2.2219 1.49287 2 1.95147 2 2.91452V3.75146H8.73869H15.4774L15.127 3.39605C14.1577 2.38713 12.2307 1.4814 10.4672 1.17185C8.93723 0.908153 3.38978 0.931083 2.8292 1.19478Z" fill="black"/>
<path d="M2 7.53485V8.91064H3.45985C5.12993 8.91064 5.62044 8.77306 5.90073 8.23421C6.00584 8.05077 6.08759 7.67243 6.08759 7.40873C6.08759 7.03039 6.01752 6.86988 5.69051 6.54886L5.29343 6.15905H3.64672H2V7.53485Z" fill="black"/>
<path d="M9.054 6.54886C8.72699 6.86988 8.65692 7.03039 8.65692 7.40873C8.65692 7.67243 8.73867 8.05077 8.84378 8.23421C9.18247 8.87625 9.41605 8.91064 13.7372 8.91064C17.381 8.91064 17.6496 8.89918 17.6496 8.70428C17.6379 8.44058 17.4628 7.6151 17.2292 6.81256L17.0306 6.15905H13.235H9.45108L9.054 6.54886Z" fill="black"/>
<path d="M2 12.5795V13.9553H5.56204C9.43942 13.9553 9.63796 13.9209 9.91825 13.3247C10.1168 12.9005 10.0934 12.098 9.87153 11.7884C9.48613 11.2496 9.14745 11.2037 5.44526 11.2037H2V12.5795Z" fill="black"/>
<path d="M13.6204 11.284C13.235 11.3757 12.7562 11.9031 12.6744 12.3158C12.5693 12.8432 12.6978 13.2445 13.0949 13.6228L13.4219 13.9553H15.2321H17.0306L17.1825 13.4623C17.3693 12.8547 17.6379 11.6623 17.6496 11.3986C17.6496 11.2152 17.4861 11.2037 15.7576 11.2152C14.7065 11.2267 13.7489 11.2496 13.6204 11.284Z" fill="black"/>
<path d="M2 17.177C2 18.1171 2.25693 18.656 2.80584 18.8738C3.03942 18.977 4.23066 18.9999 7.03358 18.977L10.9343 18.9426L11.8686 18.6216C13.0131 18.2318 14.1577 17.5783 14.9168 16.8904L15.4891 16.3744L8.75036 16.363H2V17.177Z" fill="black"/>
</g>
<defs>
<clipPath id="clip0_331_137">
<rect width="16" height="18" fill="white" transform="translate(2 1)"/>
</clipPath>
</defs>
</svg>
