<svg width="20" height="20" viewBox="0 0 20 20" fill="none" xmlns="http://www.w3.org/2000/svg">
<path d="M15.5929 1H9.74286V9.87143H19V4.40714C19 3.95714 18.9357 3.50714 18.7429 3.12143C18.55 2.73571 18.2929 2.35 17.9714 2.02857C17.65 1.70714 17.2643 1.45 16.8786 1.25714C16.4929 1.06429 16.0429 1 15.5929 1Z" fill="#287EFF"/>
<path d="M19 9.87134H9.67859V18.9999H15.5286C16.4286 18.9999 17.3286 18.6142 17.9714 17.9713C18.6143 17.3285 19 16.4285 19 15.5285V9.87134Z" fill="#0258ED"/>
<path d="M9.67857 1H4.40714C3.50714 1 2.67143 1.38571 2.02857 2.02857C1.38571 2.67143 1 3.50714 1 4.40714V15.5286C1 16.4286 1.38571 17.3286 2.02857 17.9714C2.67143 18.6143 3.57143 19 4.47143 19H9.74286V1H9.67857Z" fill="#0246CC"/>
<path d="M6.9786 11.8643H4.53574C4.47145 11.8643 4.34288 11.8643 4.2786 11.8C4.21431 11.7357 4.15003 11.7357 4.08574 11.6715C4.02145 11.6072 3.95717 11.5429 3.95717 11.4786C3.89288 11.4143 3.89288 11.2857 3.89288 11.2215V8.7786C3.89288 8.71431 3.89288 8.58574 3.95717 8.52146C4.02145 8.45717 4.02145 8.39288 4.08574 8.3286C4.15003 8.26431 4.21431 8.20003 4.2786 8.20003C4.34288 8.13574 4.47145 8.13574 4.53574 8.13574H7.04288C7.10717 8.13574 7.23574 8.13574 7.30003 8.20003C7.36431 8.26431 7.4286 8.26431 7.49288 8.3286C7.55717 8.39288 7.62145 8.45717 7.62145 8.52146C7.68574 8.58574 7.68574 8.71431 7.68574 8.7786V11.2215C7.68574 11.4143 7.62145 11.6072 7.49288 11.7357C7.36431 11.7357 7.17145 11.8643 6.9786 11.8643Z" fill="white"/>
<path d="M12.5071 3.69995H15.0143C15.0785 3.69995 15.2071 3.69995 15.2714 3.76424C15.3357 3.82852 15.4 3.82852 15.4643 3.89281C15.5285 3.95709 15.5928 4.02138 15.5928 4.08567C15.6571 4.14995 15.6571 4.27852 15.6571 4.34281V6.84995C15.6571 6.91424 15.6571 7.04281 15.5928 7.10709C15.5285 7.17138 15.5285 7.23567 15.4643 7.29995C15.4 7.36424 15.3357 7.42852 15.2714 7.42852C15.2071 7.49281 15.0785 7.49281 15.0143 7.49281H12.5071C12.4428 7.49281 12.3143 7.49281 12.25 7.42852C12.1857 7.36424 12.1214 7.36424 12.0571 7.29995C11.9928 7.29995 11.9285 7.23567 11.9285 7.10709C11.8643 7.04281 11.8643 6.91424 11.8643 6.84995V4.40709C11.8643 4.21424 11.9285 4.02138 12.0571 3.89281C12.1857 3.76424 12.3785 3.69995 12.5071 3.69995Z" fill="white"/>
<path d="M12.5071 12.5071H15.0143C15.0785 12.5071 15.2071 12.5071 15.2714 12.5714C15.3357 12.6357 15.4 12.6357 15.4643 12.6999C15.5285 12.7642 15.5928 12.8285 15.5928 12.8928C15.6571 12.9571 15.6571 13.0857 15.6571 13.1499V15.5928C15.6571 15.6571 15.6571 15.7857 15.5928 15.8499C15.5285 15.9142 15.5285 15.9785 15.4643 16.0428C15.4 16.1071 15.3357 16.1714 15.2714 16.1714C15.2071 16.2357 15.0785 16.2357 15.0143 16.2357H12.5071C12.4428 16.2357 12.3143 16.2357 12.25 16.1714C12.1857 16.1071 12.1214 16.1071 12.0571 16.0428C11.9928 15.9785 11.9285 15.9142 11.9285 15.8499C11.8643 15.7857 11.8643 15.6571 11.8643 15.5928V13.2142C11.8643 13.0214 11.9285 12.8285 12.0571 12.6999C12.1857 12.5714 12.3785 12.5071 12.5071 12.5071Z" fill="white"/>
<path d="M5.88574 10.3214L13.3429 4.92139L13.8572 5.69282L6.40003 11.0285L5.88574 10.3214Z" fill="white"/>
<path d="M5.88574 9.4215L6.46431 8.71436L13.6643 14.3072L13.0857 15.0144L5.88574 9.4215Z" fill="white"/>
</svg>
