<svg width="20" height="20" viewBox="0 0 20 20" fill="none" xmlns="http://www.w3.org/2000/svg">
<path d="M14.7412 5.26611H5.26599V14.7413H14.7412V5.26611Z" fill="white"/>
<path d="M14.734 18.9999L19 14.7339H14.734V18.9999Z" fill="#EA4335"/>
<path d="M19 5.26611H14.734V14.7413H19V5.26611Z" fill="#FBBC04"/>
<path d="M14.7412 14.7339H5.26599V18.9999H14.7412V14.7339Z" fill="#34A853"/>
<path d="M1 14.7339V17.5743C1 18.3627 1.6372 18.9999 2.422 18.9999H5.2624V14.7339H1Z" fill="#188038"/>
<path d="M19 5.266V2.422C19 1.6372 18.3628 1 17.578 1H14.7376V5.266H19Z" fill="#1967D2"/>
<path d="M14.734 1H2.422C1.6372 1 1 1.6372 1 2.422V14.7376H5.266V5.266H14.7412L14.734 1Z" fill="#4285F4"/>
<path d="M7.20638 12.6136C6.84998 12.376 6.60878 12.0268 6.47198 11.5624L7.29638 11.224C7.37198 11.5084 7.50158 11.728 7.68518 11.8864C7.87238 12.0412 8.09558 12.1168 8.35838 12.1168C8.62478 12.1168 8.85879 12.0376 9.04959 11.872C9.24399 11.7064 9.34118 11.4976 9.34118 11.2456C9.34118 10.99 9.24038 10.7776 9.03518 10.612C8.82998 10.45 8.57438 10.3672 8.26838 10.3672H7.79318V9.55362H8.21798C8.48078 9.55362 8.70398 9.48162 8.88399 9.33762C9.06399 9.19722 9.15399 8.99922 9.15399 8.75442C9.15399 8.53122 9.07479 8.35842 8.91279 8.22882C8.75079 8.09922 8.54559 8.03082 8.30079 8.03082C8.05959 8.03082 7.86879 8.09562 7.72479 8.22522C7.58439 8.35482 7.47638 8.51682 7.41518 8.70042L6.60159 8.36202C6.70959 8.05602 6.90759 7.78602 7.19559 7.55202C7.48719 7.32162 7.85798 7.19922 8.30798 7.19922C8.64279 7.19922 8.94158 7.26402 9.20438 7.39362C9.46718 7.52322 9.67959 7.70322 9.83079 7.92642C9.98199 8.15322 10.054 8.41242 10.054 8.69682C10.054 8.98842 9.98199 9.22962 9.84159 9.43482C9.70119 9.63642 9.52838 9.79122 9.32318 9.89922V9.94962C9.58598 10.0576 9.81639 10.2376 9.98559 10.468C10.1584 10.6984 10.2412 10.9756 10.2412 11.296C10.2412 11.62 10.162 11.9044 9.99638 12.1564C9.83438 12.4084 9.60759 12.6064 9.31959 12.7504C9.03159 12.8944 8.70759 12.97 8.34759 12.97C7.94439 12.97 7.55918 12.8512 7.20638 12.6136ZM12.2536 8.53482L11.35 9.19002L10.9 8.50602L12.5164 7.33962H13.1392V12.8476H12.2536V8.53482Z" fill="#4285F4"/>
</svg>
