<svg width="20" height="20" viewBox="0 0 20 20" fill="none" xmlns="http://www.w3.org/2000/svg">
<g clip-path="url(#clip0_331_190)">
<path d="M11.1317 1H4.21752C3.55228 1 3 1.5544 3 2.2204V17.7796C3 18.4456 3.55228 19 4.21752 19H14.7843C15.4477 19 16.0018 18.4456 16.0018 17.7796V5.9086L11.1317 1Z" fill="#4285F4"/>
<path d="M11.4922 5.54858L16 10.1242V5.90858L11.4922 5.54858Z" fill="url(#paint0_linear_331_190)"/>
<path d="M11.1318 4.6774C11.1318 5.356 11.6841 5.9104 12.3601 5.9104H16.0001L11.1318 1V4.6774Z" fill="#A1C2FA"/>
<path d="M4.21755 1C3.50748 0.998204 2.94624 1.6282 3.00003 2.332C3.00003 1.666 3.5523 1.1116 4.21755 1.1116H11.1318V1H4.21755Z" fill="white" fill-opacity="0.2"/>
<path d="M14.7807 18.8883H4.22652C3.56307 18.8883 3.0108 18.3339 3.0108 17.6697C2.9588 18.3717 3.51825 19.0017 4.22652 18.9999H14.7807C15.489 19.0017 16.0502 18.3717 15.9964 17.6697C15.9964 18.3357 15.4424 18.8883 14.7807 18.8883Z" fill="#1A237E" fill-opacity="0.2"/>
<path d="M12.3493 5.90863C11.6858 5.90863 11.1317 5.35423 11.1317 4.68823C11.0779 5.39203 11.6392 6.02203 12.3493 6.02023H16V5.90863H12.3493Z" fill="#1A237E" fill-opacity="0.1"/>
<path d="M12.7635 13.2869H6.26349V14.1185H12.7635V13.2869Z" fill="white"/>
<path d="M11.1318 14.9231H6.26349V15.7547H11.1318V14.9231Z" fill="white"/>
<path d="M12.7635 10.0144H6.26349V10.846H12.7635V10.0144Z" fill="white"/>
<path d="M12.7635 11.6506H6.26349V12.4822H12.7635V11.6506Z" fill="white"/>
</g>
<defs>
<linearGradient id="paint0_linear_331_190" x1="13.7466" y1="5.94513" x2="13.7466" y2="10.1103" gradientUnits="userSpaceOnUse">
<stop stop-color="#1A237E" stop-opacity="0.2"/>
<stop offset="1" stop-color="#1A237E" stop-opacity="0.02"/>
</linearGradient>
<clipPath id="clip0_331_190">
<rect width="13" height="18" fill="white" transform="translate(3 1)"/>
</clipPath>
</defs>
</svg>
