<svg width="20" height="20" viewBox="0 0 20 20" fill="none" xmlns="http://www.w3.org/2000/svg">
<path d="M16.7514 13.6345H10.2153C8.63487 13.6345 7.74927 14.692 7.74927 15.8169C7.74927 16.8552 8.50023 17.9993 10.2153 17.9993H16.7514V13.6345Z" fill="#669DF3"/>
<path d="M16.7514 17.9959C17.9933 17.9959 19 17.0188 19 15.8135C19 14.6082 17.9933 13.6311 16.7514 13.6311C15.5096 13.6311 14.5029 14.6082 14.5029 15.8135C14.5029 17.0188 15.5096 17.9959 16.7514 17.9959Z" fill="#1A73E8"/>
<path d="M10.0022 7.81519H3.466C1.8856 7.81519 1 8.87268 1 9.99829C1 11.0365 1.75096 12.1807 3.466 12.1807H10.0022V7.81519Z" fill="#669DF3"/>
<path d="M10.0022 12.1807C11.244 12.1807 12.2507 11.2036 12.2507 9.99833C12.2507 8.79302 11.244 7.81592 10.0022 7.81592C8.76032 7.81592 7.7536 8.79302 7.7536 9.99833C7.7536 11.2036 8.76032 12.1807 10.0022 12.1807Z" fill="#1A73E8"/>
<path d="M16.7514 2H10.2153C8.63487 2 7.74927 3.05749 7.74927 4.18241C7.74927 5.22064 8.50023 6.36482 10.2153 6.36482H16.7514V2Z" fill="#669DF3"/>
<path d="M16.7514 6.36482C17.9933 6.36482 19 5.38773 19 4.18241C19 2.9771 17.9933 2 16.7514 2C15.5096 2 14.5029 2.9771 14.5029 4.18241C14.5029 5.38773 15.5096 6.36482 16.7514 6.36482Z" fill="#1A73E8"/>
</svg>
