<svg width="20" height="20" viewBox="0 0 20 20" fill="none" xmlns="http://www.w3.org/2000/svg">
<path d="M2 4H14.4444C16.4081 4 18 5.57305 18 7.51352V13.4865C18 15.4269 16.4081 17 14.4444 17H5.55556C3.59188 17 2 15.4269 2 13.4865V4Z" fill="#00C4B9"/>
<path d="M10.3764 9.58472C10.8338 9.58472 11.2046 9.869 11.2046 10.2197V10.6007C11.2046 10.9513 10.8338 11.2356 10.3764 11.2356H10.128C9.5334 11.2356 9.05139 10.8661 9.05139 10.4102C9.05139 9.95428 9.5334 9.58472 10.128 9.58472H10.3764Z" fill="white"/>
<path d="M11.9981 10.4102C11.9981 9.95428 12.4801 9.58472 13.0747 9.58472C13.6693 9.58472 14.1513 9.95428 14.1513 10.4102C14.1513 10.8661 13.6693 11.2356 13.0747 11.2356H11.9981V10.4102Z" fill="white"/>
<path d="M8.38321 13.0779C7.92582 13.0779 7.55505 12.7936 7.55505 12.4429V12.062C7.55505 11.7113 7.92582 11.427 8.38321 11.427H8.63166C9.22624 11.427 9.70825 11.7966 9.70825 12.2524C9.70825 12.7083 9.22624 13.0779 8.63166 13.0779H8.38321Z" fill="white"/>
<path d="M9.05176 14.1289C9.05176 13.673 9.53376 13.3035 10.1283 13.3035C10.7229 13.3035 11.205 13.673 11.205 14.1289V14.3194C11.205 14.6701 10.8342 14.9544 10.3768 14.9544H9.87991C9.42253 14.9544 9.05176 14.6701 9.05176 14.3194V14.1289Z" fill="white"/>
<path d="M10.525 12.0617C10.525 11.711 10.8958 11.4268 11.3531 11.4268H11.85C12.3074 11.4268 12.6782 11.711 12.6782 12.0617V12.2522C12.6782 12.7081 12.1962 13.0777 11.6016 13.0777C11.007 13.0777 10.525 12.7081 10.525 12.2522V12.0617Z" fill="white"/>
<path d="M6.05969 10.4102C6.05969 9.95428 6.5417 9.58472 7.13628 9.58472H8.21289V10.4102C8.21289 10.8661 7.73088 11.2356 7.13628 11.2356C6.5417 11.2356 6.05969 10.8661 6.05969 10.4102Z" fill="white"/>
<path d="M12.3079 8.59441C11.9629 9.05251 11.199 9.20946 10.6015 8.94497L11.2972 8.02102C11.6422 7.56295 12.4062 7.40599 13.0036 7.67046L12.3079 8.59441Z" fill="white"/>
<path d="M9.70242 7.40523C10.3166 7.87611 10.3166 8.63956 9.70242 9.11043L7.88809 7.71936C7.27396 7.24848 7.27396 6.48503 7.88809 6.01416L9.70242 7.40523Z" fill="white"/>
</svg>
