<svg width="20" height="20" viewBox="0 0 20 20" fill="none" xmlns="http://www.w3.org/2000/svg">
<path d="M6.75055 19C8.26824 19 9.5 17.656 9.5 16V13H6.75055C5.23285 13 4.0011 14.344 4.0011 16C4.0011 17.656 5.23285 19 6.75055 19Z" fill="#0ACF83"/>
<path d="M4.0011 10C4.0011 8.344 5.23285 7 6.75055 7H9.5V13H6.75055C5.23285 13 4.0011 11.656 4.0011 10Z" fill="#A259FF"/>
<path d="M4.0011 4C4.0011 2.344 5.23285 1 6.75055 1H9.5V7H6.75055C5.23285 7 4.0011 5.656 4.0011 4Z" fill="#F24E1E"/>
<path d="M9.5 1H12.2495C13.7672 1 14.9989 2.344 14.9989 4C14.9989 5.656 13.7672 7 12.2495 7H9.5V1Z" fill="#FF7262"/>
<path d="M14.9989 10C14.9989 11.656 13.7672 13 12.2495 13C10.7318 13 9.5 11.656 9.5 10C9.5 8.344 10.7318 7 12.2495 7C13.7672 7 14.9989 8.344 14.9989 10Z" fill="#1ABCFE"/>
</svg>
