<svg width="20" height="20" viewBox="0 0 20 20" fill="none" xmlns="http://www.w3.org/2000/svg">
<path d="M9.99995 1C5.02952 1 1 5.02951 1 10.0001C1 14.9708 5.02952 19 9.99995 19C14.9709 19 19 14.9708 19 10.0001C19 5.02983 14.9709 1.00043 9.99984 1.00043L9.99995 1ZM14.1273 13.9807C13.9661 14.245 13.62 14.3289 13.3556 14.1666C11.2425 12.8758 8.5824 12.5835 5.44962 13.2993C5.14774 13.3681 4.84682 13.1789 4.77804 12.8769C4.70893 12.5749 4.89733 12.274 5.19997 12.2052C8.62829 11.4219 11.569 11.7592 13.9413 13.209C14.2057 13.3713 14.2895 13.7163 14.1273 13.9807ZM15.2288 11.53C15.0257 11.8602 14.5937 11.9645 14.2638 11.7613C11.8446 10.2743 8.15693 9.84368 5.29551 10.7123C4.92441 10.8244 4.53247 10.6152 4.41984 10.2448C4.30807 9.87366 4.51731 9.48246 4.88776 9.36961C8.15628 8.37785 12.2197 8.85825 14.9978 10.5655C15.3277 10.7686 15.432 11.2006 15.2288 11.5302V11.53ZM15.3234 8.97819C12.4228 7.25529 7.63709 7.09687 4.86767 7.93742C4.42295 8.0723 3.95266 7.82124 3.81789 7.37652C3.68312 6.93158 3.93396 6.46159 4.379 6.32639C7.5581 5.36128 12.843 5.54775 16.1825 7.53031C16.5834 7.76772 16.7145 8.28435 16.477 8.68382C16.2406 9.08384 15.7226 9.21571 15.3238 8.97819H15.3234Z" fill="#1ED760"/>
</svg>
