<svg width="20" height="20" viewBox="0 0 20 20" fill="none" xmlns="http://www.w3.org/2000/svg">
<path d="M9.98198 1.54004C5.31998 1.54004 1.53998 5.32004 1.53998 9.98204C1.53998 14.644 5.31998 18.424 9.98198 18.424C14.644 18.424 18.424 14.644 18.424 9.98204C18.424 5.32004 14.6476 1.54004 9.98198 1.54004ZM9.98198 17.0416C6.09038 17.0416 2.92598 13.8772 2.92598 9.98564C2.92598 6.09404 6.09038 2.92964 9.98198 2.92964C13.8736 2.92964 17.038 6.09404 17.038 9.98564C17.038 13.8772 13.8736 17.0416 9.98198 17.0416Z" fill="black"/>
<path d="M15.202 8.33316C15.202 8.32596 15.1984 8.31876 15.1984 8.31516C15.1948 8.30076 15.1948 8.28996 15.1912 8.27916C15.1876 8.27196 15.1876 8.26476 15.184 8.25756C15.1804 8.24676 15.1768 8.23596 15.1732 8.22516C15.1696 8.21796 15.166 8.21076 15.1624 8.20356C15.1588 8.19276 15.1516 8.18196 15.148 8.17476C15.1444 8.16756 15.1408 8.16036 15.1336 8.15316C15.1264 8.14236 15.1228 8.13516 15.1156 8.12436C15.112 8.11716 15.1048 8.10996 15.1012 8.10636C15.094 8.09916 15.0868 8.08836 15.0796 8.08116C15.0724 8.07396 15.0688 8.07036 15.0616 8.06316C15.0544 8.05596 15.0436 8.04876 15.0364 8.04156C15.0292 8.03796 15.022 8.03076 15.0148 8.02716C15.0112 8.02716 15.0112 8.02356 15.0076 8.01996L10.234 4.83756C10.0828 4.73676 9.88836 4.73676 9.73716 4.83756L4.96356 8.01996C4.95996 8.01996 4.95996 8.02356 4.95636 8.02716C4.94916 8.03076 4.94196 8.03796 4.93476 8.04156C4.92756 8.04876 4.91676 8.05596 4.90956 8.06316C4.90236 8.07036 4.89876 8.07396 4.89156 8.08116C4.88436 8.08836 4.87716 8.09556 4.86996 8.10636C4.86636 8.11356 4.85916 8.12076 4.85556 8.12436C4.84836 8.13156 4.84116 8.14236 4.83756 8.15316C4.83396 8.16036 4.83036 8.16756 4.82316 8.17476C4.81596 8.18556 4.81236 8.19276 4.80876 8.20356C4.80516 8.21076 4.80156 8.21796 4.79796 8.22516C4.79436 8.23596 4.79076 8.24676 4.78716 8.25756C4.78356 8.26476 4.78356 8.27196 4.77996 8.27916C4.77636 8.28996 4.77276 8.30436 4.77276 8.31516C4.77276 8.32236 4.76916 8.32956 4.76916 8.33316C4.76556 8.35116 4.76556 8.37276 4.76556 8.39076V11.5732C4.76556 11.5912 4.76556 11.6128 4.76916 11.6308C4.76916 11.638 4.77276 11.6452 4.77276 11.6488C4.77636 11.6632 4.77636 11.674 4.77996 11.6848C4.78356 11.692 4.78356 11.6992 4.78716 11.7064C4.79076 11.7172 4.79436 11.728 4.79796 11.7388C4.80156 11.746 4.80516 11.7532 4.80876 11.7604C4.81236 11.7712 4.81956 11.782 4.82316 11.7892C4.82676 11.7964 4.83036 11.8036 4.83756 11.8108C4.84476 11.8216 4.84836 11.8288 4.85556 11.8396C4.85916 11.8468 4.86636 11.854 4.86996 11.8576C4.87716 11.8648 4.88436 11.8756 4.89156 11.8828C4.89876 11.89 4.90236 11.8936 4.90956 11.9008C4.91676 11.908 4.92756 11.9152 4.93476 11.9224C4.94196 11.926 4.94916 11.9332 4.95636 11.9368C4.95996 11.9368 4.95996 11.9404 4.96356 11.944L9.73716 15.1264C9.81276 15.1768 9.89916 15.202 9.98556 15.202C10.072 15.202 10.1584 15.1768 10.234 15.1264L15.004 11.9476C15.0076 11.9476 15.0076 11.944 15.0112 11.9404C15.0184 11.9368 15.0256 11.9296 15.0328 11.926C15.04 11.9188 15.0508 11.9116 15.058 11.9044C15.0652 11.8972 15.0688 11.8936 15.076 11.8864C15.0832 11.8792 15.0904 11.872 15.0976 11.8612C15.1012 11.854 15.1084 11.8468 15.112 11.8432C15.1192 11.836 15.1264 11.8252 15.13 11.8144C15.1336 11.8072 15.1372 11.8 15.1444 11.7928C15.1516 11.782 15.1552 11.7748 15.1588 11.764C15.1624 11.7568 15.166 11.7496 15.1696 11.7424C15.1732 11.7316 15.1768 11.7208 15.1804 11.71C15.184 11.7028 15.184 11.6956 15.1876 11.6884C15.1912 11.6776 15.1948 11.6632 15.1948 11.6524C15.1948 11.6452 15.1984 11.638 15.1984 11.6344C15.202 11.6164 15.202 11.5948 15.202 11.5768V8.39436C15.2056 8.37276 15.202 8.35476 15.202 8.33316ZM10.432 6.05076L13.9492 8.39436L12.376 9.44556L10.432 8.14596V6.05076ZM9.53556 6.05076V8.14236L7.59156 9.44196L6.02196 8.39076L9.53556 6.05076ZM5.66196 9.23316L6.78516 9.98556L5.66196 10.738V9.23316ZM9.53556 13.9168L6.01836 11.5732L7.58796 10.522L9.53196 11.8216V13.9168H9.53556ZM9.98196 11.044L8.39436 9.98196L9.98196 8.91996L11.5696 9.98196L9.98196 11.044ZM10.432 13.9168V11.8252L12.376 10.5256L13.9456 11.5768L10.432 13.9168ZM14.3056 10.7344L13.1824 9.98196L14.3056 9.22956V10.7344Z" fill="black"/>
</svg>
