<svg width="20" height="20" viewBox="0 0 20 20" fill="none" xmlns="http://www.w3.org/2000/svg">
<path d="M17.3683 1H2.63173C1.73057 1 1 1.73057 1 2.63173V17.3683C1 18.2694 1.73057 19 2.63173 19H17.3683C18.2694 19 19 18.2694 19 17.3683V2.63173C19 1.73057 18.2694 1 17.3683 1Z" fill="#DC395F"/>
<path d="M7.01564 6.6634C7.614 6.6634 8.11521 6.19438 8.11521 5.57972C8.11521 4.96547 7.614 4.49658 7.01564 4.49658C6.41727 4.49658 5.91614 4.96547 5.91614 5.57972C5.91614 6.19438 6.41727 6.6634 7.01564 6.6634Z" fill="white"/>
<path d="M4.73563 12.4656C4.67106 12.7405 4.6386 13.0374 4.6386 13.2795C4.6386 14.2337 5.15603 14.8672 6.25567 14.8672C7.16767 14.8672 7.90697 14.3256 8.43926 13.4511L8.11424 14.7557H9.92515L10.9601 10.6045C11.2188 9.5534 11.7201 9.00787 12.4802 9.00787C13.0785 9.00787 13.4504 9.37994 13.4504 9.99419C13.4504 10.1722 13.4342 10.3661 13.3696 10.5763L12.8358 12.4844C12.755 12.7593 12.7228 13.0344 12.7228 13.2929C12.7228 14.1988 13.2562 14.8614 14.372 14.8614C15.3261 14.8614 16.0861 14.2472 16.5065 12.7756L15.7951 12.5009C15.4393 13.4868 15.1321 13.665 14.8895 13.665C14.6469 13.665 14.5175 13.5034 14.5175 13.1802C14.5175 13.0347 14.55 12.8732 14.5984 12.6787L15.116 10.8197C15.2452 10.3832 15.2938 9.99617 15.2938 9.64053C15.2938 8.2499 14.4529 7.52417 13.4342 7.52417C12.4802 7.52417 11.5099 8.38469 11.0249 9.29035L11.3806 7.66476H8.61551L8.22735 9.09658H9.52103L8.72446 12.286C8.09883 13.6766 6.94969 13.6992 6.80549 13.6669C6.56869 13.6135 6.41726 13.5236 6.41726 13.2159C6.41726 13.0383 6.44958 12.7833 6.53044 12.4758L7.74333 7.66476H4.67106L4.2829 9.09658H5.56028L4.73563 12.4656Z" fill="white"/>
</svg>
