<svg width="20" height="20" viewBox="0 0 20 20" fill="none" xmlns="http://www.w3.org/2000/svg">
<path d="M16 17.9568C16 18.2327 15.8898 18.4974 15.6937 18.6925C15.4976 18.8876 15.2316 18.9972 14.9542 18.9972H4.04867C3.91109 18.9976 3.77479 18.971 3.64758 18.9188C3.52036 18.8667 3.40474 18.7901 3.30732 18.6935C3.20991 18.5969 3.13261 18.482 3.07988 18.3556C3.02714 18.2292 3 18.0937 3 17.9568V2.04479C3 1.76886 3.11018 1.50423 3.3063 1.30912C3.50242 1.11401 3.76842 1.00439 4.04578 1.00439H11.06L16 6.03824V17.9568Z" fill="#23A566"/>
<path d="M11.6046 5.91089L16 10.089L15.987 6.0316H12.1C11.9293 6.0318 11.7612 5.99036 11.6103 5.91089H11.6046Z" fill="#1C8F5A"/>
<path d="M16 6.02954H12.1C11.8226 6.02954 11.5566 5.91993 11.3605 5.72481C11.1644 5.5297 11.0542 5.26507 11.0542 4.98914V1L16 6.02954Z" fill="#8ED1B1"/>
<path fill-rule="evenodd" clip-rule="evenodd" d="M12.8807 15.6711H6.11926V9.84619H12.8807V15.6711ZM9.9196 10.6782V11.7186H12.0458V10.6782H9.9196ZM9.9196 12.3423V13.313H12.0458V12.3423H9.9196ZM9.9196 13.9374V14.8391H12.0458V13.9374H9.9196ZM9.08326 14.8391V13.9374H6.9556V14.8391H9.08326ZM9.08326 13.313V12.3423H6.9556V13.313H9.08326ZM9.08326 11.7186V10.6782H6.9556V11.7186H9.08326Z" fill="white"/>
</svg>
