<svg width="20" height="20" viewBox="0 0 20 20" fill="none" xmlns="http://www.w3.org/2000/svg">
<g clip-path="url(#clip0_331_258)">
<path d="M38.0275 12.6547C23.8814 11.4541 12.215 15.1157 9.56615 16.4964C8.10082 17.2167 7.9881 18.1171 8.21353 18.5973C8.38261 18.9574 9.11528 19.1975 9.84795 18.7774C15.4839 15.5359 26.8121 12.9548 38.0275 13.6751C38.3093 13.6751 38.5348 13.435 38.5348 13.1349C38.5348 12.8948 38.3093 12.6547 38.0275 12.6547ZM41.5218 8.09265C40.9019 8.81297 40.0565 9.3532 39.7747 9.1131C39.4929 8.87299 39.7747 7.9726 39.7747 7.9726C41.1837 7.01217 43.8889 4.55109 43.8889 2.63024C43.8889 0.889471 42.4236 0.349233 40.9019 1.96995C39.662 3.41058 38.7602 5.21138 38.253 7.13222C37.4639 7.9726 36.1677 9.05307 35.0405 9.05307C34.4205 9.05307 34.3078 8.57286 34.3642 7.9726C35.3223 7.9726 38.0275 7.13222 38.0275 4.73117C38.0275 4.31098 37.8585 3.95082 37.5767 3.65069C37.2949 3.35056 36.9567 3.2305 36.5622 3.29053C35.3223 3.29053 33.8006 4.61111 33.0116 6.53196C32.8425 6.47193 32.6171 6.41191 32.448 6.29185C32.6734 5.81164 32.7861 5.33143 32.9552 4.85122C33.1243 3.83077 32.7298 3.2305 31.9971 3.35056C31.4899 3.35056 30.9263 3.83077 30.7572 4.85122C30.7008 5.39146 30.8136 5.93169 30.9826 6.35188C30.6445 7.49238 29.2919 8.87299 28.841 8.81297C28.3901 8.75294 28.8974 6.77207 29.3482 5.2714C29.63 4.97127 29.7991 4.67114 29.9682 4.25095C30.0809 3.95082 30.0245 3.59066 29.7427 3.47061C29.0664 3.17048 28.2774 3.53064 27.9956 4.25095C27.8265 4.61111 27.6574 4.97127 27.4884 5.39146C27.0939 5.87167 26.5303 6.53196 26.3612 6.47193C26.1358 6.29185 26.9811 5.09132 26.8684 4.37101C26.8121 3.83077 26.3048 3.41058 25.7976 3.47061C25.0086 3.59066 24.0505 5.15135 24.0505 5.15135C24.1632 4.85122 24.2195 4.55109 24.2759 4.25095C24.2195 3.65069 23.2051 3.41058 22.6978 4.49106C22.3597 5.51151 22.0779 6.59199 21.9652 7.67246C21.7397 8.15268 20.8943 9.59331 20.218 9.65334C19.6544 9.71336 20.3308 7.0722 20.4435 6.95215C20.7253 6.47193 21.1198 5.45148 21.0634 4.97127C21.0634 4.73117 21.0071 4.55109 20.838 4.43103C20.6689 4.31098 20.4435 4.25095 20.2744 4.31098C19.9362 4.43103 19.6544 4.67114 19.4854 4.97127C19.2599 4.67114 18.8654 4.49106 18.4709 4.55109C16.2165 4.79119 14.8076 8.99305 14.9766 10.9739C15.0894 12.0544 15.5966 12.7147 16.442 12.5346C17.4001 12.4146 18.1891 10.8539 18.1891 10.8539C18.1891 10.8539 18.4145 12.1144 19.4854 11.9944C20.2744 11.7543 20.9507 11.214 21.4579 10.4937C21.4579 10.5537 21.4016 10.6138 21.4016 10.7338C21.2325 11.8143 22.8669 11.6942 22.9796 10.8539C23.4869 6.83209 24.7268 5.21138 25.0649 5.21138C25.3467 5.21138 24.2759 7.0722 24.8958 7.85254C25.4031 8.45281 26.2485 7.9726 26.9811 7.3123C26.8684 7.79252 26.8121 8.33275 26.7557 8.81297C26.6993 9.95347 27.0939 10.8539 28.1083 10.7938C29.4609 10.7338 30.8699 8.93302 31.828 7.25228C32.0535 7.43236 32.3353 7.55241 32.6171 7.61244C32.5043 8.03262 32.5043 8.45281 32.5043 8.81297C32.5607 10.1335 33.4061 10.6138 34.4205 10.5537C35.5477 10.4937 36.9004 9.59331 37.8021 8.69291C37.8021 8.75294 37.8021 8.81297 37.7457 8.81297C37.6894 9.47326 37.8021 10.6138 38.6475 10.6738C39.6056 10.7338 41.2964 9.71336 42.1418 8.57286C42.7617 8.2127 42.029 7.49238 41.5218 8.09265ZM42.4236 2.69027C42.5363 2.69027 42.5926 2.81032 42.5926 2.93037C42.5926 4.07087 40.0001 6.41191 40.0001 6.41191C40.0001 6.41191 41.6909 2.69027 42.4236 2.69027ZM36.1113 5.0313C36.224 5.0313 36.2804 5.0313 36.3368 5.15135C36.3931 5.2714 36.3931 5.33143 36.3931 5.39146C36.3931 6.05175 35.6041 6.53196 34.7023 6.53196C35.2096 5.75162 35.7168 5.0313 36.1113 5.0313ZM18.64 6.77207C18.5836 7.43236 17.4564 10.4937 16.8928 10.4937C16.1602 10.5537 17.2874 6.23183 18.4709 6.23183C18.6963 6.23183 18.6963 6.41191 18.64 6.77207ZM9.11528 7.61244C9.84795 7.61244 8.49533 11.6342 8.66441 13.375C8.83348 15.1157 10.637 14.6355 10.5243 13.6151C10.2988 11.8743 11.426 6.41191 12.4968 6.41191C13.2859 6.41191 11.5951 10.1335 11.9332 12.4746C12.1587 13.9752 14.0749 13.5551 13.8495 12.5346C13.2295 9.47326 15.2584 6.53196 14.9766 4.37101C14.8639 3.47061 14.3567 2.9904 13.8495 2.9904C12.046 2.9904 10.5806 6.95215 10.5806 6.95215C10.5806 6.95215 10.8061 4.73117 9.28436 4.61111C7.14271 4.49106 4.9447 10.2536 5.00106 15.4759C5.05742 17.1566 6.97363 16.8565 6.86091 15.5359C6.7482 13.1949 7.9881 7.61244 9.11528 7.61244Z" fill="#2574D8"/>
</g>
<defs>
<clipPath id="clip0_331_258">
<rect width="10" height="18" fill="white" transform="translate(5 1)"/>
</clipPath>
</defs>
</svg>
