<svg width="20" height="20" viewBox="0 0 20 20" fill="none" xmlns="http://www.w3.org/2000/svg">
<g clip-path="url(#clip0_331_277)">
<path d="M10.0317 4.64074C8.56194 4.64074 7.31142 5.16225 6.28012 6.20029C5.22889 7.23337 4.71573 8.48498 4.71573 9.95016C4.71573 11.4004 5.22889 12.6521 6.28012 13.6752C7.30644 14.7083 8.56194 15.2348 10.0317 15.2348C11.4865 15.2348 12.742 14.7083 13.7832 13.6752C14.8245 12.6521 15.3327 11.4004 15.3327 9.95016C15.3327 8.48498 14.8195 7.23337 13.7832 6.20029C12.742 5.16722 11.4914 4.64074 10.0317 4.64074ZM13.4245 13.3176C12.4829 14.2464 11.347 14.7083 10.0317 14.7083C8.70642 14.7083 7.5705 14.2464 6.65378 13.3176C5.71216 12.3888 5.24384 11.2564 5.24384 9.95016C5.24384 8.61908 5.71216 7.49661 6.65378 6.56783C7.57548 5.62912 8.70642 5.16225 10.0317 5.16225C11.347 5.16225 12.4779 5.62415 13.4245 6.56783C14.3562 7.49661 14.8095 8.61412 14.8095 9.95016C14.8095 11.2614 14.3562 12.3938 13.4245 13.3176ZM10.0317 5.70362C8.86087 5.70362 7.84451 6.11089 7.0125 6.94033C6.1755 7.77474 5.77194 8.77305 5.77194 9.95016C5.77194 11.1173 6.1755 12.1157 7.0125 12.9501C7.8495 13.7845 8.86087 14.2017 10.0317 14.2017C11.2124 14.2017 12.2039 13.7845 13.0409 12.955C13.8779 12.1206 14.2964 11.1223 14.2964 9.95513C14.2964 8.77802 13.8779 7.77474 13.0409 6.9453C12.2039 6.10592 11.2174 5.70362 10.0317 5.70362ZM13.7583 10.129C13.7234 11.162 13.3049 12.0213 12.5427 12.7117C11.7655 13.402 10.8687 13.7249 9.84235 13.6653C8.80607 13.6057 7.94416 13.2034 7.25164 12.4534C6.56909 11.6786 6.25023 10.7895 6.29507 9.75149C6.35485 8.72835 6.75841 7.86911 7.53562 7.1837C8.28792 6.49333 9.19467 6.18539 10.2359 6.23009C11.2523 6.27976 12.1092 6.69696 12.8017 7.45687C13.4943 8.21181 13.8181 9.10582 13.7583 10.129ZM15.8857 7.48667C15.5768 6.71186 15.1085 6.04632 14.5355 5.46522C13.9377 4.88411 13.2701 4.42717 12.5078 4.1093C11.7306 3.77653 10.8936 3.60767 10.0367 3.60767C9.16478 3.60767 8.35269 3.77157 7.55555 4.1093C6.79826 4.42717 6.11571 4.87915 5.5328 5.46522C4.94989 6.04632 4.50648 6.71683 4.18264 7.48667C3.83389 8.26148 3.67944 9.08099 3.67944 9.95016C3.67944 10.8094 3.83389 11.6289 4.18264 12.4137C4.50648 13.1636 4.94491 13.8391 5.5328 14.4252C6.11571 15.0112 6.79826 15.4632 7.55057 15.7811C8.35269 16.1139 9.16478 16.2827 10.0317 16.2827C10.8886 16.2827 11.7256 16.1139 12.5028 15.7811C13.2651 15.4583 13.9327 15.0063 14.5305 14.4252C15.1035 13.8441 15.5718 13.1636 15.8807 12.4137C16.2245 11.6289 16.3939 10.8044 16.3939 9.95016C16.3988 9.08099 16.2295 8.26148 15.8857 7.48667ZM15.4074 12.21C15.1085 12.9004 14.69 13.5212 14.1519 14.0576C13.6138 14.594 13.006 15.0112 12.3035 15.3093C11.5861 15.6073 10.8338 15.7612 10.0367 15.7612C9.24948 15.7612 8.48721 15.6073 7.76978 15.3093C7.06232 15.0112 6.4545 14.594 5.90646 14.0576C5.37835 13.5212 4.94989 12.9004 4.66591 12.21C4.35702 11.4849 4.21253 10.7349 4.21253 9.95016C4.21253 9.15052 4.35702 8.40055 4.66591 7.67541C4.95487 6.98503 5.38334 6.36419 5.90646 5.83276C6.4545 5.29635 7.06232 4.87915 7.76978 4.58114C8.48721 4.27321 9.24948 4.12917 10.0367 4.12917C10.8338 4.12917 11.5861 4.27321 12.3035 4.58114C13.011 4.87915 13.6188 5.29635 14.1519 5.83276C14.69 6.36916 15.1085 6.98503 15.4074 7.67541C15.7163 8.40055 15.8757 9.15052 15.8757 9.95016C15.8707 10.7349 15.7163 11.4849 15.4074 12.21Z" fill="#3181FF"/>
<path d="M7.30123 11.4056C7.39091 11.5745 7.49056 11.7285 7.61013 11.8775V8.01337C7.16173 8.56964 6.93256 9.21532 6.93256 9.94542C6.93256 10.4818 7.05213 10.9785 7.30123 11.4056ZM8.30264 12.5132C8.30763 12.5182 8.31261 12.5182 8.31759 12.5231C8.52684 12.6622 8.761 12.7814 8.99516 12.8609V7.02003C8.75104 7.10446 8.51688 7.22366 8.30264 7.3677V12.5132ZM9.69764 6.86606V13.0198C9.69764 13.0198 9.69764 13.0198 9.70263 13.0198C9.80725 13.0447 9.92682 13.0447 10.0464 13.0447C10.166 13.0447 10.2855 13.0447 10.3902 13.0198C10.3902 13.0198 10.3902 13.0198 10.3951 13.0198V6.86606C10.2806 6.85612 10.166 6.84619 10.0464 6.84619C9.92682 6.84619 9.81223 6.85612 9.69764 6.86606ZM11.0976 12.8659C11.3417 12.7814 11.5659 12.6672 11.7752 12.5281C11.7802 12.5231 11.7852 12.5182 11.7901 12.5182V7.37763C11.5709 7.22863 11.3417 7.10943 11.0976 7.02499V12.8659ZM12.4827 8.01834V11.8725C12.6022 11.7285 12.7019 11.5695 12.7916 11.4156C13.0307 10.9785 13.1453 10.4818 13.1453 9.95039C13.1453 9.21531 12.931 8.56964 12.4827 8.01834Z" fill="#3181FF"/>
<path d="M8.62719 1.11435C8.31829 1.16402 8.0094 1.22858 7.71545 1.30805L8.21367 3.14574C8.45281 3.08117 8.69195 3.0315 8.94106 2.99177L8.62719 1.11435ZM4.11835 6.11583L2.5141 5.08276C2.34471 5.34599 2.18528 5.6142 2.0408 5.8973L3.73971 6.76151C3.85928 6.538 3.98383 6.31947 4.11835 6.11583ZM6.82863 1.59612C6.53469 1.71036 6.25071 1.83452 5.97171 1.97856L6.84358 3.67221C7.06279 3.56294 7.28699 3.46361 7.51119 3.37421L6.82863 1.59612ZM6.1959 4.03975L5.15464 2.44543C4.89058 2.6143 4.63649 2.79807 4.39237 2.99674L5.59805 4.47682C5.78737 4.32285 5.98665 4.17385 6.1959 4.03975ZM5.05001 4.96852L3.68989 3.63248C3.47067 3.85101 3.26641 4.07948 3.0721 4.31788L4.56176 5.50989C4.71123 5.32116 4.87564 5.14236 5.05001 4.96852ZM14.4812 4.47682L15.6919 3.00667C15.4428 2.808 15.1837 2.61927 14.9146 2.44543L13.8833 4.04471C14.0926 4.17881 14.2919 4.32285 14.4812 4.47682ZM14.1125 1.97856C13.8385 1.83949 13.5545 1.71036 13.2606 1.60109L12.573 3.37421C12.8072 3.46361 13.0364 3.56294 13.2556 3.67718L14.1125 1.97856ZM15.5324 5.52479L17.0121 4.31788C16.8178 4.07451 16.6036 3.84604 16.3844 3.62751L15.0292 4.96356C15.2036 5.14236 15.373 5.32613 15.5324 5.52479ZM16.3346 6.75157L18.0335 5.8824C17.894 5.60426 17.7345 5.33606 17.5651 5.07779L15.9659 6.11583C16.1004 6.31947 16.22 6.53304 16.3346 6.75157ZM16.8577 8.11742L18.7011 7.63068C18.6214 7.32275 18.5217 7.02474 18.4121 6.73171L16.6335 7.41711C16.7182 7.65055 16.7929 7.87902 16.8577 8.11742ZM12.3588 1.30805C12.0549 1.22858 11.751 1.16402 11.4371 1.11435L11.1481 2.99674C11.3973 3.03647 11.6414 3.08614 11.8755 3.1507L12.3588 1.30805ZM10.5055 1.01502C10.1966 1.00012 9.88767 1.00012 9.56881 1.01998L9.66845 2.91727C9.91756 2.90237 10.1617 2.90733 10.4058 2.91727L10.5055 1.01502ZM3.22157 11.7779L1.37817 12.2646C1.45789 12.5676 1.55255 12.8606 1.66216 13.1487L3.44576 12.4782C3.36107 12.2448 3.28633 12.0113 3.22157 11.7779ZM17.0121 11.0528L18.9004 11.3458C18.9502 11.0379 18.9801 10.7249 19 10.4071L17.0968 10.3077C17.0769 10.561 17.052 10.8094 17.0121 11.0528ZM16.6335 12.4683L18.4171 13.1487C18.5267 12.8557 18.6263 12.5577 18.711 12.2497L16.8627 11.768C16.7979 12.0064 16.7182 12.2398 16.6335 12.4683ZM18.8954 8.54456L17.0121 8.84256C17.047 9.08593 17.0769 9.3293 17.0918 9.57764V9.5826L18.995 9.48327V9.4783C18.9801 9.16043 18.9452 8.85249 18.8954 8.54456ZM15.9609 13.7795L17.5602 14.8175C17.7296 14.5543 17.889 14.2811 18.0335 14.003L16.3296 13.1437C16.22 13.3623 16.0954 13.5758 15.9609 13.7795ZM15.0292 14.9218L16.3744 16.2678C16.5986 16.0443 16.8079 15.8109 17.0071 15.5675L15.5175 14.3755C15.368 14.5692 15.2036 14.753 15.0292 14.9218ZM13.8933 15.8456L14.9246 17.4449C15.1887 17.2711 15.4428 17.0873 15.6869 16.8936L14.4762 15.4185C14.2919 15.5725 14.0976 15.7115 13.8933 15.8456ZM3.44576 7.42208L1.66216 6.74661C1.55255 7.03468 1.45291 7.32771 1.37319 7.63068L3.21658 8.12239C3.28633 7.88399 3.36107 7.65055 3.44576 7.42208ZM4.54682 14.3656L3.06712 15.5675C3.2664 15.8109 3.47566 16.0443 3.69487 16.2628L5.05001 14.9218C4.87564 14.748 4.70624 14.5642 4.54682 14.3656ZM3.74967 13.1388L2.05076 14.0079C2.19026 14.2811 2.34471 14.5493 2.5141 14.8076L4.11835 13.7795C3.98383 13.5758 3.85928 13.3623 3.74967 13.1388ZM2.99239 10.3177L1.08921 10.417C1.10416 10.7299 1.13903 11.0329 1.18387 11.3309L3.06712 11.0329C3.02726 10.8044 3.00235 10.566 2.99239 10.3177ZM5.59805 15.4185L4.39237 16.8936C4.63649 17.0923 4.89058 17.276 5.15464 17.4449L6.20088 15.8556C5.99163 15.7165 5.79235 15.5725 5.59805 15.4185ZM3.06712 8.83759L1.17889 8.54456C1.12907 8.85249 1.09917 9.16043 1.08423 9.47334L2.9874 9.57267C3.00235 9.32433 3.02726 9.08096 3.06712 8.83759ZM12.578 16.5112L13.2506 18.2942C13.5495 18.18 13.8335 18.0509 14.1175 17.9118L13.2506 16.2181C13.0364 16.3274 12.8072 16.4267 12.578 16.5112ZM5.96672 17.9118C6.24572 18.0509 6.53469 18.18 6.82863 18.2942L7.50122 16.5161C7.27204 16.4267 7.04785 16.3274 6.83362 16.2181L5.96672 17.9118ZM9.56383 18.8753C9.8777 18.8902 10.1916 18.8902 10.5104 18.8753L10.4108 16.978C10.1617 16.9929 9.91756 16.9929 9.67344 16.978L9.56383 18.8753ZM11.1432 16.8986L11.4421 18.776C11.751 18.7263 12.0599 18.6618 12.3588 18.5823L11.8706 16.7446C11.6314 16.8092 11.3873 16.8588 11.1432 16.8986ZM7.72044 18.5823C8.01937 18.6618 8.32328 18.7263 8.63217 18.776L8.93608 16.8986C8.69195 16.8588 8.45281 16.8092 8.21865 16.7446L7.72044 18.5823Z" fill="#3181FF"/>
</g>
<defs>
<clipPath id="clip0_331_277">
<rect width="18" height="17.775" fill="white" transform="translate(1 1)"/>
</clipPath>
</defs>
</svg>
