<svg width="20" height="20" viewBox="0 0 20 20" fill="none" xmlns="http://www.w3.org/2000/svg">
<g clip-path="url(#clip0_331_303)">
<path d="M9.52465 1.03335C11.8463 0.842205 13.5138 1.4584 15.3079 3.25147C17.2449 5.18735 18.5327 7.69606 18.8798 10.3684C19.2659 13.3402 18.7348 15.5579 17.099 17.1815C15.5348 18.7341 13.2501 19.2462 10.1981 18.991L10.0718 18.9799C7.47283 18.741 5.6346 17.8889 3.85349 16.085C1.95101 14.1583 0.948505 11.9706 1.00204 9.67448C1.02822 8.55039 1.34665 7.59235 1.96075 6.65235C2.36334 6.03609 2.7722 5.55536 3.62745 4.67374L3.91287 4.38138L4.2275 4.06247C6.25438 2.02511 7.58879 1.19274 9.52465 1.03335ZM15.1699 3.38952C13.4162 1.63684 11.805 1.04143 9.54067 1.22786C7.63238 1.38497 6.32185 2.21865 4.27086 4.29598L4.12249 4.44652C3.1232 5.46237 2.65491 5.98177 2.2424 6.58244L2.18237 6.67099L2.12413 6.75909C1.52924 7.66969 1.22245 8.59272 1.19715 9.67903C1.14494 11.9182 2.12485 14.0565 3.99237 15.9479C5.76895 17.7472 7.5941 18.5775 10.2144 18.7965L10.3443 18.807C13.2795 19.0327 15.4679 18.5255 16.9615 17.043C18.5485 15.4679 19.0652 13.3102 18.6862 10.3935C18.3449 7.76514 17.0772 5.2957 15.1699 3.38952ZM12.7411 7.56651V8.51988H10.7163V13.9841H9.70766V8.51988H7.68284V7.56651H12.7411Z" fill="#262627"/>
</g>
<defs>
<clipPath id="clip0_331_303">
<rect width="18" height="18.0703" fill="white" transform="translate(1 1)"/>
</clipPath>
</defs>
</svg>
