<svg width="20" height="20" viewBox="0 0 20 20" fill="none" xmlns="http://www.w3.org/2000/svg">
<path d="M2.1012 12.4105C2.02123 12.2785 1.98712 12.1228 2.00437 11.9686C2.02162 11.8143 2.08923 11.6705 2.19629 11.5603L2.19708 11.5571L3.37376 10.4672C3.60117 10.2591 3.71448 10.0502 3.71448 9.84212C3.71448 9.63321 3.60117 9.42511 3.37376 9.21621L2.75095 8.64131L2.36031 8.26398C2.21965 8.153 2.12723 7.99004 2.10293 7.81015C2.07863 7.63026 2.12439 7.44781 2.23036 7.30204C2.72193 6.30916 3.47319 5.47495 4.40072 4.89205C5.32824 4.30915 6.39573 4.00038 7.48462 4.00002C8.25675 3.99789 9.02169 4.15155 9.73558 4.45219C10.4495 4.75284 11.0982 5.19455 11.6447 5.75198C12.1912 6.30942 12.6245 6.97162 12.92 7.7006C13.2155 8.42957 13.3672 9.21098 13.3664 10C13.3664 13.2988 10.7421 16 7.48462 16C5.08926 16 3.0156 14.5182 2.1012 12.4105ZM7.5076 7.27451C7.15648 7.27398 6.8087 7.34415 6.48413 7.48101C6.15956 7.61788 5.86457 7.81875 5.616 8.07216C5.36743 8.32557 5.17015 8.62654 5.03545 8.95789C4.90075 9.28923 4.83125 9.64445 4.83094 10.0032C4.83449 10.727 5.11781 11.4201 5.61917 11.9313C6.12053 12.4426 6.7993 12.7307 7.5076 12.7328C8.21589 12.7307 8.89466 12.4426 9.39602 11.9313C9.89738 11.4201 10.1807 10.727 10.1842 10.0032C10.1841 9.64431 10.1148 9.28892 9.9802 8.95739C9.84559 8.62586 9.64835 8.32469 9.39975 8.07111C9.15116 7.81753 8.85609 7.61651 8.53142 7.47955C8.20675 7.34258 7.85884 7.27236 7.5076 7.27289V7.27451ZM14.3363 12.2972V7.60406C14.34 7.48646 14.3778 7.37264 14.445 7.27705C14.5121 7.18145 14.6055 7.10841 14.7134 7.06719C14.8212 7.02597 14.9386 7.01844 15.0506 7.04555C15.1627 7.07266 15.2643 7.13319 15.3426 7.21945L17.5082 9.27936L17.776 9.51661C17.7919 9.52957 17.8077 9.54333 17.822 9.5571L17.8481 9.58139V9.58544C17.9497 9.69873 18.0041 9.84797 17.9998 10.0015C17.9955 10.1551 17.9328 10.3009 17.8251 10.4081V10.4113L17.5763 10.6356L15.9385 12.1806L15.3284 12.7296C15.3116 12.7466 15.2939 12.7625 15.2753 12.7773L15.2674 12.7838C15.1803 12.8508 15.0766 12.8915 14.9681 12.9011C14.8595 12.9107 14.7505 12.889 14.6535 12.8383C14.5565 12.7876 14.4753 12.7101 14.4194 12.6146C14.3634 12.519 14.3349 12.4093 14.3371 12.298L14.3363 12.2972Z" fill="#47C9AF"/>
</svg>
