<svg width="20" height="20" viewBox="0 0 20 20" fill="none" xmlns="http://www.w3.org/2000/svg">
<path d="M7.381 3.75411C7.624 3.53811 8.029 3.55611 8.254 3.78111C8.866 4.37511 9.478 4.97811 10.09 5.57211C9.784 5.86911 9.478 6.17511 9.172 6.47211C8.794 6.10311 8.416 5.73411 8.038 5.36511C7.921 5.22111 7.678 5.23011 7.561 5.36511C6.211 6.67911 4.87 8.00211 3.52 9.32511C3.367 9.44211 3.34899 9.68511 3.502 9.81111C4.78 11.0711 6.067 12.3221 7.345 13.5821C7.453 13.6811 7.552 13.8071 7.678 13.8791C7.813 13.9421 7.966 13.8791 8.056 13.7801C8.425 13.4201 8.803 13.0511 9.172 12.6911C9.478 12.9881 9.784 13.2851 10.09 13.5821C9.532 14.1311 8.965 14.6801 8.407 15.2381C8.29 15.3551 8.173 15.4811 8.011 15.5351C7.768 15.6161 7.498 15.5441 7.327 15.3641C5.509 13.5731 3.691 11.8001 1.88199 10.0271C1.62999 9.78411 1.63899 9.34311 1.89999 9.11811C3.727 7.32711 5.554 5.53611 7.381 3.75411Z" fill="#9187F6"/>
<path d="M11.917 3.78105C12.169 3.52905 12.628 3.54705 12.862 3.80805C14.662 5.57205 16.471 7.34505 18.271 9.10905C18.451 9.27105 18.523 9.54105 18.442 9.77505C18.388 9.95505 18.226 10.081 18.091 10.207C16.39 11.872 14.698 13.528 13.006 15.193C12.88 15.319 12.754 15.472 12.574 15.526C12.34 15.607 12.061 15.535 11.899 15.355C11.296 14.761 10.693 14.167 10.09 13.573C9.78398 13.276 9.47798 12.979 9.17198 12.682C8.27198 11.791 7.36298 10.909 6.46298 10.018C6.20198 9.78405 6.21998 9.34305 6.48098 9.10905C7.38098 8.22705 8.28098 7.34505 9.17198 6.46305C9.47798 6.16605 9.78398 5.86005 10.09 5.56305C10.702 4.97805 11.305 4.37505 11.917 3.78105Z" fill="#8313DD"/>
</svg>
