<svg width="20" height="20" viewBox="0 0 20 20" fill="none" xmlns="http://www.w3.org/2000/svg">
<path d="M17.9031 6.00625C17.7156 5.29375 17.1531 4.73125 16.4406 4.53438C15.1562 4.1875 10 4.1875 10 4.1875C10 4.1875 4.84375 4.1875 3.55 4.53438C2.8375 4.72188 2.28438 5.28438 2.0875 6.00625C1.75 7.3 1.75 10 1.75 10C1.75 10 1.75 12.7 2.09687 13.9938C2.28437 14.7063 2.84687 15.2688 3.55937 15.4656C4.84375 15.8125 10 15.8125 10 15.8125C10 15.8125 15.1562 15.8125 16.45 15.4656C17.1625 15.2781 17.7156 14.7156 17.9125 13.9938C18.25 12.7 18.25 10 18.25 10C18.25 10 18.25 7.3 17.9031 6.00625Z" fill="#EE3124"/>
<path d="M8.3125 12.4562V7.5437L12.625 9.99995L8.3125 12.4562Z" fill="white"/>
</svg>
