<svg width="20" height="20" viewBox="0 0 20 20" fill="none" xmlns="http://www.w3.org/2000/svg">
<path d="M8.04001 2.56805C6.68001 2.68805 5.34401 3.05605 4.68001 3.48005C3.60801 4.16805 3.04001 5.16005 2.71201 6.92005C2.50401 8.01605 2.50401 11.976 2.70401 13.056C2.99201 14.576 3.38401 15.4 4.16801 16.112C4.82401 16.72 5.56801 17.032 6.96001 17.296C7.99201 17.496 11.896 17.496 13.016 17.296C15.656 16.832 16.8 15.704 17.296 13.064C17.496 11.976 17.496 8.00005 17.296 6.96005C16.856 4.73605 16.08 3.67205 14.448 3.08005C13.376 2.68805 12.608 2.59205 10.4 2.56005C9.30401 2.55205 8.24001 2.55205 8.04001 2.56805ZM13.72 10V13.808L12.984 13.784L12.24 13.76L12.216 10.776L12.2 7.80005H9.24801H6.28801L6.26401 7.03205C6.24801 6.60805 6.25601 6.24805 6.27201 6.23205C6.28801 6.21605 7.97601 6.20005 10.016 6.20005H13.72V10ZM9.84001 8.68805C10.448 8.91205 11.088 9.55205 11.312 10.16C11.76 11.352 11.296 12.744 10.24 13.368C9.76001 13.648 9.44801 13.728 8.81601 13.728C7.83201 13.728 6.97601 13.176 6.51201 12.232C6.27201 11.752 6.26401 11.68 6.29601 11.024C6.32001 10.44 6.36801 10.248 6.56001 9.88805C7.19201 8.72805 8.58401 8.21605 9.84001 8.68805Z" fill="black"/>
<path d="M8.39199 10.12C8.30399 10.152 8.12799 10.296 8.01599 10.44C7.83999 10.648 7.79999 10.768 7.79999 11.136C7.79999 11.544 7.82399 11.6 8.11199 11.888C8.39999 12.176 8.45599 12.2 8.87199 12.2C9.27199 12.2 9.35199 12.168 9.60799 11.936C10.136 11.456 10.056 10.568 9.45599 10.2C9.19199 10.032 8.68799 9.99995 8.39199 10.12Z" fill="black"/>
</svg>
