<svg width="20" height="20" viewBox="0 0 20 20" fill="none" xmlns="http://www.w3.org/2000/svg">
<g clip-path="url(#clip0_336_89)">
<path d="M5.88885 2.85191C7.11108 2.1482 8.44441 1.77783 9.88886 1.77783C11.3333 1.77783 12.6666 2.1482 13.8889 2.85191C15.1111 3.55561 16.074 4.51857 16.7777 5.7408C17.4815 6.96302 17.8518 8.29635 17.8518 9.7408C17.8518 11.4815 17.3333 13.0371 16.3333 14.4075C15.3333 15.7778 14.037 16.7408 12.4074 17.2593C12.2222 17.2964 12.074 17.2593 12 17.1852C11.9259 17.1112 11.8518 17.0001 11.8518 16.8889C11.8518 16.8519 11.8518 16.5926 11.8518 16.1112C11.8518 15.6297 11.8518 15.1482 11.8518 14.7038C11.8518 14.0371 11.6666 13.5556 11.2963 13.2223C11.7037 13.1852 12.037 13.1112 12.3703 13.0371C12.6666 12.963 13 12.8149 13.3333 12.6297C13.6666 12.4445 13.9629 12.2223 14.1852 11.926C14.4074 11.6667 14.5926 11.2964 14.7407 10.8519C14.8889 10.4075 14.9629 9.88894 14.9629 9.29635C14.9629 8.48154 14.7037 7.77783 14.1481 7.18524C14.4074 6.55561 14.3703 5.85191 14.074 5.07413C13.8889 5.00005 13.5926 5.03709 13.2222 5.18524C12.8518 5.33339 12.5555 5.48154 12.2592 5.62968L11.8518 5.88894C11.2222 5.70376 10.5555 5.62968 9.85182 5.62968C9.18515 5.62968 8.51849 5.70376 7.85182 5.88894C7.74071 5.81487 7.59256 5.70376 7.40737 5.59265C7.22219 5.48154 6.92589 5.33339 6.55552 5.18524C6.14811 5.03709 5.85182 5.00005 5.66663 5.03709C5.37034 5.81487 5.3333 6.51857 5.59256 7.1482C5.07404 7.77783 4.81478 8.48154 4.81478 9.29635C4.81478 9.88894 4.88886 10.4075 5.037 10.8519C5.18515 11.2964 5.37034 11.6667 5.59256 11.926C5.81478 12.1852 6.07404 12.4445 6.40737 12.6297C6.74071 12.8149 7.07404 12.963 7.37034 13.0371C7.66663 13.1112 8.037 13.1852 8.44441 13.2223C8.18515 13.4815 7.99997 13.8149 7.92589 14.2964C7.77774 14.3704 7.6296 14.4075 7.44441 14.4445C7.29626 14.4815 7.07404 14.4815 6.85182 14.4815C6.6296 14.4815 6.40737 14.4075 6.18515 14.2593C5.96293 14.1112 5.77774 13.8889 5.6296 13.6297C5.48145 13.4075 5.3333 13.2223 5.11108 13.0741C4.92589 12.926 4.74071 12.8519 4.59256 12.8149L4.37034 12.7778C4.22219 12.7778 4.11108 12.7778 4.07404 12.8149C4.037 12.8519 3.99997 12.8889 4.037 12.926C4.07404 12.963 4.07404 13.0371 4.14811 13.0741C4.18515 13.1112 4.22219 13.1482 4.29626 13.1852L4.37034 13.2223C4.51849 13.2964 4.66663 13.4075 4.81478 13.6297C4.96293 13.8149 5.07404 14.0001 5.14811 14.1482L5.25923 14.3704C5.3333 14.6297 5.51848 14.8519 5.70367 15.0001C5.92589 15.1482 6.14811 15.2593 6.40737 15.2964C6.66663 15.3334 6.88886 15.3704 7.11108 15.3704C7.3333 15.3704 7.51849 15.3704 7.66663 15.3334L7.88886 15.2964C7.88886 15.5556 7.88886 15.8519 7.88886 16.2223C7.88886 16.5556 7.88886 16.7408 7.88886 16.7778C7.88886 16.8889 7.85182 17.0001 7.74071 17.0741C7.66663 17.1482 7.51849 17.1852 7.3333 17.1482C5.74071 16.6297 4.44441 15.6667 3.40737 14.2964C2.37034 12.926 1.88885 11.3704 1.88885 9.62969C1.88885 8.18524 2.25923 6.85191 2.96293 5.62968C3.70367 4.51857 4.66663 3.55561 5.88885 2.85191ZM4.92589 13.1852C4.96293 13.1482 4.92589 13.1112 4.85182 13.0741C4.77774 13.0371 4.74071 13.0741 4.70367 13.1112C4.66663 13.1482 4.70367 13.1852 4.77774 13.2223C4.85182 13.2593 4.92589 13.2593 4.92589 13.1852ZM5.25923 13.5556C5.29626 13.5186 5.29626 13.4815 5.22219 13.4075C5.14811 13.3334 5.11108 13.3334 5.07404 13.3704C5.037 13.4075 5.037 13.4445 5.11108 13.5186C5.14811 13.5926 5.22219 13.5926 5.25923 13.5556ZM5.55552 14.0001C5.6296 13.963 5.6296 13.8889 5.55552 13.8149C5.51848 13.7408 5.44441 13.7038 5.37034 13.7408C5.29626 13.7778 5.29626 13.8519 5.37034 13.926C5.44441 14.0001 5.51848 14.0371 5.55552 14.0001ZM5.99997 14.4445C6.037 14.4075 6.037 14.3334 5.96293 14.2593C5.88886 14.1852 5.81478 14.1482 5.74071 14.2223C5.66663 14.2593 5.70367 14.3334 5.77774 14.4075C5.88886 14.4815 5.96293 14.4815 5.99997 14.4445ZM6.59256 14.7038C6.6296 14.6297 6.55552 14.5556 6.44441 14.5556C6.3333 14.5186 6.25923 14.5556 6.25923 14.6297C6.22219 14.7038 6.25923 14.7408 6.40737 14.7778C6.48145 14.8149 6.55552 14.7778 6.59256 14.7038ZM7.25923 14.7408C7.25923 14.6667 7.18515 14.6297 7.07404 14.6297C6.96293 14.6297 6.92589 14.6667 6.92589 14.7408C6.92589 14.8149 6.99997 14.8519 7.11108 14.8519C7.18515 14.8519 7.25923 14.8149 7.25923 14.7408ZM7.85182 14.6297C7.85182 14.5556 7.77774 14.5186 7.66663 14.5186C7.55552 14.5556 7.51849 14.5926 7.51849 14.6667C7.51849 14.7408 7.59256 14.7778 7.70367 14.7408C7.81478 14.7778 7.85182 14.7038 7.85182 14.6297Z" fill="black"/>
</g>
<defs>
<clipPath id="clip0_336_89">
<rect width="20" height="20" fill="white"/>
</clipPath>
</defs>
</svg>
