<svg width="20" height="20" viewBox="0 0 20 20" fill="none" xmlns="http://www.w3.org/2000/svg">
<path d="M19 18.2314C19 18.6658 18.6436 19 18.2314 19H1.76856C1.33416 19 1 18.6436 1 18.2314V1.76856C1 1.33416 1.35644 1 1.76856 1H18.2314C18.6658 1 19 1.35644 19 1.76856V18.2314Z" fill="#F08705"/>
<path d="M19 18.2315C19 18.6659 18.6435 19.0001 18.2314 19.0001H7.15963L3.573 15.3577L5.80072 11.7154L12.4171 3.49512L18.9777 10.2563L19 18.2315Z" fill="#DF6C0C"/>
<path d="M15.7809 11.0582H13.8874L11.8824 7.64981C12.328 7.5607 12.6621 7.15971 12.6621 6.69189V4.11887C12.6621 3.57308 12.2277 3.13867 11.6819 3.13867H8.34035C7.79456 3.13867 7.36015 3.57308 7.36015 4.11887V6.69189C7.36015 7.17085 7.69431 7.5607 8.12871 7.64981L6.12376 11.0694H4.2302C3.68441 11.0694 3.25 11.5038 3.25 12.0496V14.6226C3.25 15.1684 3.68441 15.6028 4.2302 15.6028H7.57178C8.11758 15.6028 8.55198 15.1684 8.55198 14.6226V12.0496C8.55198 11.5038 8.11758 11.0694 7.57178 11.0694H7.24876L9.23144 7.68323H10.7797L12.7735 11.0694H12.4394C11.8936 11.0694 11.4592 11.5038 11.4592 12.0496V14.6226C11.4592 15.1684 11.8936 15.6028 12.4394 15.6028H15.7809C16.3267 15.6028 16.7611 15.1684 16.7611 14.6226V12.0496C16.7611 11.5038 16.3267 11.0582 15.7809 11.0582Z" fill="white"/>
</svg>
