<svg width="20" height="20" viewBox="0 0 20 20" fill="none" xmlns="http://www.w3.org/2000/svg">
<path d="M19 9.025H13.75L18.325 6.4L17.35 4.675L12.775 7.3L15.4 2.725L13.675 1.75L10.975 6.25V1H8.95V6.25L6.4 1.675L4.6 2.725L7.225 7.3L2.725 4.6L1.675 6.4L6.25 9.025H1V11.05H6.25L1.675 13.675L2.65 15.4L7.225 12.775L4.6 17.35L6.325 18.325L8.95 13.75V19H10.975V13.75L13.6 18.325L15.325 17.35L12.7 12.775L17.275 15.4L18.25 13.675L13.75 10.975H19V9.025ZM10 12.7C8.5 12.7 7.3 11.5 7.3 10C7.3 8.5 8.5 7.225 10 7.225C11.5 7.225 12.7 8.425 12.7 9.925C12.7 11.5 11.5 12.7 10 12.7Z" fill="black"/>
</svg>
