<svg width="20" height="20" viewBox="0 0 20 20" fill="none" xmlns="http://www.w3.org/2000/svg">
<path d="M6.85706 2H13.1149L19 12.4H12.7281L6.85706 2Z" fill="url(#paint0_linear_331_211)"/>
<path d="M19 12.3999L15.8641 17.9567H4.12189L7.26486 12.3999H19Z" fill="url(#paint1_linear_331_211)"/>
<path d="M4.12188 17.9568L1 12.4L6.85703 2L10 7.57117L4.12188 17.9568Z" fill="url(#paint2_linear_331_211)"/>
<path opacity="0.1" d="M4.12189 17.9567L9.96486 12.3999H7.26486L4.12189 17.9567Z" fill="black"/>
<path opacity="0.1" d="M19 12.3999H12.7352L11.3571 9.96387L19 12.3999Z" fill="black"/>
<path opacity="0.1" d="M6.85706 2L8.66409 9.92793L10 7.57117L6.85706 2Z" fill="black"/>
<defs>
<linearGradient id="paint0_linear_331_211" x1="6.85706" y1="2" x2="17.1335" y2="13.9987" gradientUnits="userSpaceOnUse">
<stop stop-color="#F6C338"/>
<stop offset="0.522782" stop-color="#FFD351"/>
<stop offset="1" stop-color="#F6C338"/>
</linearGradient>
<linearGradient id="paint1_linear_331_211" x1="19" y1="12.3999" x2="15.3574" y2="22.153" gradientUnits="userSpaceOnUse">
<stop stop-color="#286EE6"/>
<stop offset="0.521046" stop-color="#4286FB"/>
<stop offset="1" stop-color="#286EE6"/>
</linearGradient>
<linearGradient id="paint2_linear_331_211" x1="6.87604" y1="2" x2="-0.210933" y2="15.6453" gradientUnits="userSpaceOnUse">
<stop stop-color="#069B5A"/>
<stop offset="0.531031" stop-color="#11AA62"/>
<stop offset="1" stop-color="#069B5A"/>
</linearGradient>
</defs>
</svg>
