<svg width="20" height="20" viewBox="0 0 20 20" fill="none" xmlns="http://www.w3.org/2000/svg">
<g clip-path="url(#clip0_331_109)">
<path d="M9.03383 2.18992L2.32613 4.96547C1.95312 5.11985 1.95698 5.64968 2.33234 5.79846L9.0681 8.46958C9.65997 8.70429 10.3191 8.70429 10.9108 8.46958L17.6467 5.79846C18.0219 5.64968 18.0259 5.11985 17.6528 4.96547L10.9452 2.18992C10.3332 1.93669 9.64573 1.93669 9.03383 2.18992Z" fill="#FFBF00"/>
<path d="M10.587 9.92813V16.6009C10.587 16.9183 10.9071 17.1357 11.2021 17.0187L18.7078 14.1054C18.8791 14.0374 18.9915 13.8719 18.9915 13.6876V7.01478C18.9915 6.69739 18.6715 6.48006 18.3765 6.59701L10.8708 9.51037C10.6995 9.5783 10.587 9.74386 10.587 9.92813Z" fill="#26B5F8"/>
<path d="M8.83443 10.2725L6.60691 11.348L6.38074 11.4573L1.67857 13.7104C1.3805 13.8542 1.00006 13.6369 1.00006 13.3058V7.04283C1.00006 6.92304 1.06148 6.81961 1.14386 6.74171C1.17823 6.70724 1.21718 6.67887 1.25765 6.65639C1.37003 6.58897 1.5303 6.57097 1.66657 6.62487L8.79701 9.45005C9.15945 9.59385 9.18792 10.1017 8.83443 10.2725Z" fill="#ED3049"/>
<path d="M8.83444 10.2725L6.60691 11.348L1.14386 6.74171C1.17823 6.70724 1.21718 6.67887 1.25766 6.65639C1.37003 6.58897 1.5303 6.57097 1.66657 6.62487L8.79701 9.45005C9.15945 9.59385 9.18793 10.1017 8.83444 10.2725Z" fill="black" fill-opacity="0.25"/>
</g>
<defs>
<clipPath id="clip0_331_109">
<rect width="18" height="15.1172" fill="white" transform="translate(1 2)"/>
</clipPath>
</defs>
</svg>
