<svg width="20" height="20" viewBox="0 0 20 20" fill="none" xmlns="http://www.w3.org/2000/svg">
<path d="M16.8734 2H3.82124C2.81556 2 2 2.81495 2 3.82124V16.8728C2 17.879 2.81556 18.694 3.82124 18.694H13.4904C16.3643 18.694 18.6946 16.3637 18.6946 13.4897V3.82124C18.6946 2.81495 17.8791 2 16.8734 2Z" fill="#C41130"/>
<path d="M3.69488 14.3249C3.6917 14.1769 3.72035 14.002 3.78402 13.8033C3.84196 13.6149 3.926 13.4239 4.02533 13.2374C4.12657 13.0535 4.24245 12.8727 4.37297 12.703C4.50095 12.5338 4.64103 12.3756 4.78683 12.2348C4.88998 12.1364 4.99376 12.0464 5.10073 11.9673L5.20706 11.5036C5.12111 11.5402 5.04406 11.5621 4.97594 11.5705C4.86961 11.5833 4.78874 11.564 4.72826 11.5171C4.67095 11.4701 4.6353 11.3981 4.62575 11.3017C4.61747 11.2065 4.63402 11.0875 4.67668 10.9486C4.72189 10.8058 4.79129 10.6534 4.87852 10.5016C4.96384 10.3512 5.06826 10.1987 5.18287 10.0528C5.29747 9.90742 5.42163 9.76851 5.55407 9.64053C5.68778 9.51255 5.82658 9.39808 5.96793 9.30162C6.11055 9.20644 6.24108 9.13891 6.35696 9.10033C6.47284 9.06174 6.5728 9.05274 6.65494 9.07139C6.73707 9.09068 6.79438 9.14149 6.82876 9.22187C6.86314 9.30226 6.86823 9.41416 6.84086 9.55757C6.82621 9.62638 6.8052 9.69841 6.77718 9.77237C6.74853 9.85018 6.71288 9.928 6.6734 10.0077C6.63074 10.0888 6.58363 10.1704 6.53396 10.2515C6.50977 10.2894 6.48494 10.328 6.45819 10.3659L7.44891 10.829C7.49667 10.7724 7.54569 10.7164 7.59663 10.6618C7.67431 10.5775 7.75835 10.4952 7.84431 10.418C7.92835 10.3402 8.01749 10.2669 8.10854 10.2C8.2015 10.1299 8.29573 10.0675 8.39379 10.009C8.48611 9.95501 8.57589 9.90935 8.66184 9.87205C8.75225 9.83282 8.83757 9.80259 8.91843 9.78137C9.00248 9.75822 9.08143 9.74407 9.1572 9.73764C9.16038 9.737 9.16357 9.737 9.16675 9.737L10.6821 7.60641C10.6458 7.58648 10.6134 7.56397 10.5866 7.53631C10.5484 7.49901 10.5178 7.45464 10.4956 7.40319C10.4765 7.35303 10.4644 7.29258 10.4631 7.22827C10.458 7.08936 10.4968 6.93116 10.5681 6.76524C10.6388 6.60189 10.7464 6.42761 10.8782 6.25333C11.0068 6.08098 11.166 5.90606 11.3462 5.73821C11.5238 5.56908 11.7263 5.40637 11.9428 5.25975C12.1669 5.10991 12.3853 4.98643 12.5942 4.8964C12.8062 4.80251 13.0061 4.74141 13.1876 4.71312C13.3722 4.68289 13.5346 4.68996 13.6625 4.73369C13.795 4.77935 13.8911 4.86489 13.937 4.99415C13.9822 5.12277 13.9752 5.2784 13.9191 5.45396C13.8663 5.63146 13.7644 5.82567 13.6256 6.02632C13.4849 6.22761 13.3034 6.43276 13.0965 6.62826C13.0144 6.70672 12.9284 6.7826 12.838 6.85592L12.9335 7.40191C13.0437 7.35946 13.1513 7.32281 13.2563 7.29322C13.5123 7.22248 13.7561 7.18968 13.9745 7.19805C14.1999 7.20576 14.4018 7.25592 14.5635 7.35175C14.7335 7.44885 14.8608 7.59484 14.9302 7.7897C15.0003 7.99034 15.0028 8.22186 14.9462 8.46945C14.8831 8.72219 14.7615 8.98843 14.587 9.25339C14.4126 9.51899 14.1853 9.7788 13.9204 10.0174C13.7746 10.1486 13.6186 10.2714 13.4543 10.384L13.5887 11.1467C13.7842 11.0946 13.9784 11.0592 14.1694 11.0425C14.51 11.0116 14.8417 11.038 15.1461 11.1216C15.4644 11.2071 15.7516 11.355 15.9929 11.5621C16.2457 11.7769 16.4431 12.0586 16.564 12.4026C16.6984 12.7737 16.7258 13.1801 16.6614 13.5924C16.5908 14.0181 16.424 14.4419 16.1731 14.8393C15.9184 15.2387 15.5829 15.604 15.1849 15.9049C14.7927 16.2008 14.3502 16.4278 13.8727 16.5648C13.4136 16.6953 12.9768 16.7236 12.5801 16.667C12.2007 16.613 11.8626 16.4818 11.5831 16.2863C11.315 16.1017 11.1004 15.8574 10.9514 15.5718C10.8095 15.2966 10.7254 14.9821 10.714 14.6348C10.7031 14.3101 10.7553 13.9827 10.8604 13.667C10.9604 13.3602 11.1144 13.058 11.3029 12.7795C11.4933 12.501 11.7244 12.2406 11.9874 12.0097C12.1504 11.8669 12.328 11.7338 12.5171 11.6148L12.3955 10.9139C12.214 10.9711 12.0409 11.009 11.8785 11.0283C11.613 11.0586 11.378 11.0373 11.1794 10.9737C10.9884 10.9119 10.8362 10.8065 10.7299 10.665C10.6286 10.5261 10.5681 10.3537 10.5611 10.1466C10.5541 9.94536 10.5974 9.73121 10.6815 9.5132C10.7623 9.30097 10.884 9.08361 11.0361 8.87203C11.1851 8.66174 11.3704 8.45466 11.5773 8.26302C11.6747 8.17298 11.7779 8.08552 11.8861 8.00192L11.7983 7.49966C11.7193 7.53374 11.6404 7.56332 11.5646 7.58776C11.4653 7.62056 11.3755 7.64307 11.2857 7.65915C11.2755 7.66108 11.2653 7.66236 11.2558 7.66365L9.69713 9.85533C9.74934 9.89262 9.79582 9.93829 9.83338 9.99423C9.87286 10.054 9.90661 10.1229 9.92634 10.2007C9.9499 10.2798 9.96073 10.3685 9.96136 10.4701C9.96009 10.6811 9.90724 10.9145 9.81174 11.155C9.71496 11.4007 9.5717 11.6509 9.39915 11.8907C9.22533 12.1319 9.02031 12.3576 8.79555 12.5544C8.57143 12.7506 8.33139 12.9139 8.08944 13.0309C7.8494 13.1467 7.63101 13.2033 7.44637 13.2097C7.26172 13.2174 7.10764 13.1763 6.98794 13.0927C6.87333 13.0136 6.79374 12.8927 6.75044 12.7415C6.70842 12.593 6.70269 12.4136 6.73835 12.2084C6.75554 12.1139 6.78291 12.0193 6.81157 11.9248C6.84404 11.8303 6.88097 11.7357 6.9249 11.6412C6.97138 11.546 7.01977 11.4528 7.07389 11.3595C7.10573 11.3036 7.14075 11.2489 7.17831 11.1936L6.17932 10.7274C6.14493 10.7679 6.10991 10.8078 6.07299 10.847C6.00931 10.9139 5.94564 10.9795 5.87879 11.0399C5.81384 11.1023 5.74572 11.1602 5.67823 11.2135C5.65148 11.2348 5.62347 11.256 5.59609 11.2759L5.48976 11.737C5.59291 11.6927 5.68841 11.6656 5.77437 11.6566C5.89853 11.6419 6.00358 11.6631 6.08763 11.7165C6.1704 11.7724 6.23089 11.8631 6.26018 11.9866C6.29265 12.1152 6.28819 12.2779 6.24999 12.4721C6.2086 12.6772 6.12965 12.8972 6.02077 13.1197C5.90999 13.3461 5.77055 13.5699 5.61201 13.7821C5.45219 13.9937 5.27583 14.1885 5.09054 14.3538C4.90908 14.5165 4.72125 14.6483 4.5417 14.7358C4.36151 14.822 4.20552 14.8567 4.07945 14.8451C3.95529 14.8335 3.85915 14.7795 3.79421 14.6895C3.72926 14.6001 3.69615 14.4766 3.69488 14.3249Z" fill="white"/>
</svg>
