<svg width="27" height="27" viewBox="0 0 27 27" fill="none" xmlns="http://www.w3.org/2000/svg">
<g clip-path="url(#clip0_5893_54176)">
<path d="M25.65 15.75V22.5H9.45001V14.4H19.35" stroke="#374151" stroke-width="1.2" stroke-miterlimit="10"/>
<path d="M17.55 20.7C18.7926 20.7 19.8 19.6926 19.8 18.45C19.8 17.2074 18.7926 16.2 17.55 16.2C16.3073 16.2 15.3 17.2074 15.3 18.45C15.3 19.6926 16.3073 20.7 17.55 20.7Z" stroke="#374151" stroke-width="1.2" stroke-miterlimit="10"/>
<path d="M12.15 18H11.25V18.9H12.15V18Z" fill="#374151"/>
<path d="M13.95 18H13.05V18.9H13.95V18Z" fill="#374151"/>
<path d="M22.05 18H21.15V18.9H22.05V18Z" fill="#374151"/>
<path d="M23.85 18H22.95V18.9H23.85V18Z" fill="#374151"/>
<path d="M1.35001 13.05V6.3H17.55V13.05" stroke="#374151" stroke-width="1.2" stroke-miterlimit="10"/>
<path d="M9.45001 12.6C10.6927 12.6 11.7 11.5926 11.7 10.35C11.7 9.10737 10.6927 8.10001 9.45001 8.10001C8.20737 8.10001 7.20001 9.10737 7.20001 10.35C7.20001 11.5926 8.20737 12.6 9.45001 12.6Z" stroke="#374151" stroke-width="1.2" stroke-miterlimit="10"/>
<path d="M4.04999 9.89999H3.14999V10.8H4.04999V9.89999Z" fill="#374151"/>
<path d="M5.85001 9.89999H4.95001V10.8H5.85001V9.89999Z" fill="#374151"/>
<path d="M13.95 9.89999H13.05V10.8H13.95V9.89999Z" fill="#374151"/>
<path d="M15.75 9.89999H14.85V10.8H15.75V9.89999Z" fill="#374151"/>
<path d="M20.25 10.8H18.9" stroke="#374151" stroke-width="1.2" stroke-miterlimit="10"/>
<path d="M8.10001 14.4H4.50001V13.2363C4.50001 12.8849 4.21516 12.6 3.86371 12.6C3.69496 12.6 3.53296 12.6671 3.41371 12.7863L0.768162 15.4319C0.564312 15.6357 0.450012 15.912 0.450012 16.2C0.450012 16.488 0.564312 16.7643 0.768162 16.9682L3.41371 19.6137C3.53296 19.733 3.69496 19.8 3.86371 19.8C4.21516 19.8 4.50001 19.5152 4.50001 19.1637V18H5.85001" stroke="#374151" stroke-width="1.2" stroke-miterlimit="10"/>
<path d="M21.15 10.8H22.5V9.6363C22.5 9.28485 22.7849 9 23.1363 9C23.3051 9 23.4671 9.06705 23.5863 9.1863L26.2318 11.8318C26.4357 12.0357 26.55 12.312 26.55 12.6C26.55 12.888 26.4357 13.1643 26.2318 13.3682L23.5863 16.0137C23.4671 16.1329 23.3051 16.2 23.1363 16.2C22.7849 16.2 22.5 15.9151 22.5 15.5637V14.4H20.25" stroke="#374151" stroke-width="1.2" stroke-miterlimit="10"/>
<path d="M6.75 18H8.1" stroke="#374151" stroke-width="1.2" stroke-miterlimit="10"/>
</g>
<defs>
<clipPath id="clip0_5893_54176">
<rect width="27" height="27" fill="white"/>
</clipPath>
</defs>
</svg>
