<svg xmlns="http://www.w3.org/2000/svg" width="22" height="25" fill="none" viewBox="0 0 22 25">
    <path  fill="currentColor"  fill-rule="evenodd" d="M3.634 2.422V0h1.422v2.422h11.69V0h1.423v2.422h1.21c1.337 0 2.423 1.087 2.423 2.423v11.833c-.304-.127-.448-.242-.576-.346-.18-.145-.331-.266-.846-.361V9.69H1.422v13.112h4.634v1.423H2.422C1.086 24.225 0 23.138 0 21.802V4.845c0-1.336 1.086-2.423 2.422-2.423h1.212zM20.38 3.845H1.422v4.422H20.38V3.845zm-9.186 10.018c.695-.782 1.778-1.295 3.05-1.295 1.272 0 2.355.513 3.05 1.295.695.782 1.02 1.785 1.02 2.774 0 .99-.325 1.992-1.02 2.774-.02.023-.047.039-.074.055-.025.014-.05.03-.069.049 1.873 1.045 3.198 2.974 3.198 5.262h-1.035c0-1.923-1.567-4.385-3.826-4.956-.19-.049 2.012-.662 2.156-3.221 0-1.878-1.522-3.4-3.4-3.4s-3.4 1.512-3.4 3.4c0 1.517 1.156 2.9 2.307 3.22-2.549.548-3.977 2.966-3.977 4.957H8.139c0-2.288 1.325-4.217 3.198-5.262-.02-.02-.045-.035-.07-.05-.027-.015-.054-.031-.073-.053-.696-.783-1.02-1.785-1.02-2.775 0-.989.324-1.992 1.02-2.774z" clip-rule="evenodd"/>
</svg>
