<svg xmlns="http://www.w3.org/2000/svg" width="26" height="26" fill="none" viewBox="0 0 26 26">
    <path fill="currentColor"  d="M4.746 0C3.26 0 2.063 1.197 2.063 2.683v15.682c0 .35.269.62.62.62.35 0 .619-.27.619-.62V2.683c0-.805.64-1.445 1.444-1.445h16.302c-.269.413-.413.908-.413 1.445v11.142c0 .351.268.62.619.62.35 0 .619-.269.619-.62V2.683c0-.805.64-1.445 1.444-1.445.805 0 1.445.64 1.445 1.445v1.444h-1.445c-.35 0-.619.268-.619.619 0 .35.269.62.62.62h2.063c.35 0 .619-.27.619-.62V2.683C26 1.197 24.803 0 23.317 0H4.746zm2.27 8.254c-.164 0-.322.065-.438.181-.116.116-.181.274-.181.438 0 .164.065.322.181.438.116.116.274.181.438.181.164 0 .322-.065.438-.181.116-.116.18-.274.18-.438 0-.164-.064-.322-.18-.438-.116-.116-.274-.181-.438-.181zm3.095 0c-.35 0-.619.268-.619.619 0 .35.268.62.62.62h7.015c.35 0 .619-.27.619-.62s-.268-.619-.619-.619h-7.016zm-3.095 3.095c-.164 0-.322.065-.438.181-.116.117-.181.274-.181.438 0 .164.065.322.181.438.116.116.274.181.438.181.164 0 .322-.065.438-.181.116-.116.18-.274.18-.438 0-.164-.064-.321-.18-.438-.116-.116-.274-.18-.438-.18zm3.095 0c-.35 0-.619.268-.619.62 0 .35.268.618.62.618h7.015c.35 0 .619-.268.619-.619 0-.35-.268-.619-.619-.619h-7.016zm-3.095 3.095c-.164 0-.322.066-.438.182-.116.116-.181.273-.181.438 0 .164.065.321.181.437.116.116.274.181.438.181.164 0 .322-.065.438-.18.116-.117.18-.274.18-.439 0-.164-.064-.321-.18-.437-.116-.116-.274-.182-.438-.182zm3.095 0c-.35 0-.619.269-.619.62 0 .35.268.618.62.618h7.015c.35 0 .619-.268.619-.619 0-.35-.268-.619-.619-.619h-7.016zm12.794 1.651c-.351 0-.62.268-.62.62v.082c-.97.268-1.67 1.155-1.67 2.208 0 .742.35 1.424.969 1.857l1.92 1.341c.288.206.474.516.474.867 0 .578-.475 1.052-1.053 1.052-.412 0-.804-.247-.97-.64-.144-.309-.495-.454-.804-.33-.31.145-.454.495-.33.805.289.64.825 1.114 1.485 1.3v.083c0 .35.268.619.62.619.35 0 .618-.268.618-.62v-.082c.97-.268 1.672-1.156 1.672-2.208 0-.763-.372-1.465-.99-1.898l-1.9-1.341c-.267-.207-.432-.516-.432-.867 0-.578.474-1.053 1.052-1.053.433 0 .805.248.97.64.124.31.495.454.805.33.31-.123.454-.495.33-.804-.268-.66-.826-1.135-1.486-1.321v-.02c-.041-.352-.31-.62-.66-.62zM.619 20.635c-.35 0-.619.268-.619.619v2.063C0 24.803 1.197 26 2.683 26H19.19c.35 0 .619-.268.619-.619 0-.35-.269-.62-.62-.62-.804 0-1.444-.639-1.444-1.444v-2.063c0-.35-.268-.62-.619-.62H.619zm.62 1.238h15.269v1.444c0 .537.165 1.032.413 1.445H2.683c-.805 0-1.445-.64-1.445-1.445v-1.444z"/>
</svg>
