<svg width="18" height="18" viewBox="0 0 18 18" fill="none" xmlns="http://www.w3.org/2000/svg">
<path d="M12.2145 13.5V16.0714C12.2145 16.4124 12.079 16.7395 11.8379 16.9806C11.5968 17.2217 11.2698 17.3571 10.9288 17.3571H1.92878C1.58779 17.3571 1.26076 17.2217 1.01964 16.9806C0.778525 16.7395 0.643066 16.4124 0.643066 16.0714V1.92857C0.643066 1.58758 0.778525 1.26056 1.01964 1.01944C1.26076 0.778319 1.58779 0.64286 1.92878 0.64286H10.9288C11.2698 0.64286 11.5968 0.778319 11.8379 1.01944C12.079 1.26056 12.2145 1.58758 12.2145 1.92857V4.5" stroke="CurrentColor" stroke-width="2" stroke-linecap="round" stroke-linejoin="round"/>
<path d="M8.35742 9H17.3574" stroke="CurrentColor" stroke-width="2" stroke-linecap="round" stroke-linejoin="round"/>
<path d="M14.7861 6.42857L17.3576 9L14.7861 11.5714" stroke="CurrentColor" stroke-width="2" stroke-linecap="round" stroke-linejoin="round"/>
</svg>
