<svg id="katman_1" data-name="katman 1" xmlns="http://www.w3.org/2000/svg" viewBox="0 0 24 24.07">
  <defs>
    <style>
      .cls-1 {
        fill: #fff;
        fill-opacity: 0.01;
      }

      .cls-2 {
        fill: #eb5839;
        fill-rule: evenodd;
      }
    </style>
  </defs>
  <rect class="cls-1" y="0.04" width="24" height="24"/>
  <rect class="cls-1" y="0.04" width="24" height="24"/>
  <rect class="cls-1" y="0.04" width="24" height="24"/>
  <rect class="cls-1" y="0.04" width="24" height="24"/>
  <rect class="cls-1" y="0.04" width="24" height="24"/>
  <rect class="cls-1" y="0.04" width="24" height="24"/>
  <rect class="cls-1" y="0.04" width="24" height="24"/>
  <rect class="cls-1" y="0.04" width="24" height="24"/>
  <rect class="cls-1" y="0.04" width="24" height="24"/>
  <rect class="cls-1" y="0.07" width="24" height="24"/>
  <rect class="cls-1" width="24" height="24"/>
  <path class="cls-2" d="M3,0H21a3,3,0,0,1,3,3V21a3,3,0,0,1-3,3H3a3,3,0,0,1-3-3V3A3,3,0,0,1,3,0ZM4,8v8a1,1,0,0,0,1,1h8a1,1,0,0,0,1-1V8a1,1,0,0,0-1-1H5A1,1,0,0,0,4,8Zm15.16,8a.58.58,0,0,0,.84-.46v-7A.58.58,0,0,0,19.16,8L16,9.55v4.82l3.16,1.53Z" transform="translate(0 0.04)"/>
</svg>
