<svg id="katman_1" data-name="katman 1" xmlns="http://www.w3.org/2000/svg" viewBox="0 0 24.09 24.02">
  <defs>
    <style>
      .cls-1 {
        fill: #fff;
        fill-opacity: 0.01;
      }

      .cls-2 {
        fill: #06b8d9;
        fill-rule: evenodd;
      }
    </style>
  </defs>
  <rect class="cls-1" x="0.09" width="24" height="24"/>
  <rect class="cls-1" x="0.09" width="24" height="24"/>
  <rect class="cls-1" x="0.09" width="24" height="24"/>
  <rect class="cls-1" x="0.09" width="24" height="24"/>
  <rect class="cls-1" x="0.09" width="24" height="24"/>
  <rect class="cls-1" x="0.09" width="24" height="24"/>
  <rect class="cls-1" x="0.09" width="24" height="24"/>
  <rect class="cls-1" x="0.09" width="24" height="24"/>
  <rect class="cls-1" x="0.09" width="24" height="24"/>
  <rect class="cls-1" x="0.09" y="0.02" width="24" height="24"/>
  <path class="cls-2" d="M2.91,0h18A3,3,0,0,1,23,.9,3,3,0,0,1,23.91,3V21A3,3,0,0,1,23,23.14a3,3,0,0,1-2.13.88h-18a3,3,0,0,1-2.12-.88A3,3,0,0,1-.09,21V3A3,3,0,0,1,.79.9,3,3,0,0,1,2.91,0Zm5,12.27L5.35,9.78l2.8-2.71a1,1,0,0,0,.3-.7.94.94,0,0,0-.28-.71,1,1,0,0,0-.7-.31,1,1,0,0,0-.71.28L3.22,9.07A1,1,0,0,0,3,9.39a1.09,1.09,0,0,0-.08.39,1,1,0,0,0,.08.39,1,1,0,0,0,.23.33l3.32,3.22a.93.93,0,0,0,.33.21.83.83,0,0,0,.38.07,1,1,0,0,0,.38-.08A1,1,0,0,0,8,13.7a.89.89,0,0,0,.21-.33A1,1,0,0,0,8.24,13a1,1,0,0,0-.09-.38A.87.87,0,0,0,7.93,12.29Zm6.64-8.22a1,1,0,0,0-.76,0,1,1,0,0,0-.51.58l-4.83,14a1,1,0,0,0,0,.77,1,1,0,0,0,.57.5A1,1,0,0,0,9.85,20a1,1,0,0,0,.51-.57l4.83-14a1,1,0,0,0-.62-1.28Zm6.08,9.78-3.32-3.22a1,1,0,0,0-.33-.21,1,1,0,0,0-.76,0,1,1,0,0,0-.32.22,1,1,0,0,0-.22.33,1.23,1.23,0,0,0-.07.39,1,1,0,0,0,.09.38.87.87,0,0,0,.22.32l2.58,2.5-2.8,2.71a.87.87,0,0,0-.22.32,1,1,0,0,0-.09.39,1.22,1.22,0,0,0,.07.38,1.19,1.19,0,0,0,.22.33,1,1,0,0,0,.32.22,1,1,0,0,0,.76,0,1,1,0,0,0,.33-.21l3.54-3.43a1.23,1.23,0,0,0,.23-.33,1.12,1.12,0,0,0,0-.78A1.09,1.09,0,0,0,20.65,13.85Z" transform="translate(0.09)"/>
</svg>
