<svg id="katman_1" data-name="katman 1" xmlns="http://www.w3.org/2000/svg" viewBox="0 0 24 24">
  <defs>
    <style>
      .cls-1 {
        fill: #007543;
        fill-rule: evenodd;
      }
    </style>
  </defs>
  <path class="cls-1" d="M3,0H21a3,3,0,0,1,3,3V21a3,3,0,0,1-3,3H3a3,3,0,0,1-3-3V3A3,3,0,0,1,3,0ZM4.38,6a.46.46,0,0,0-.27.15A.44.44,0,0,0,4,6.45V17.6a.43.43,0,0,0,.38.43L15.5,19.57a.41.41,0,0,0,.19,0,.29.29,0,0,0,.16-.09.36.36,0,0,0,.11-.14.41.41,0,0,0,0-.19V4.87a.34.34,0,0,0,0-.18.33.33,0,0,0-.11-.15.37.37,0,0,0-.16-.09.62.62,0,0,0-.19,0L4.38,6ZM17,7V17h2.5a.51.51,0,0,0,.5-.5v-9a.51.51,0,0,0-.5-.5ZM6.93,15.5,9.18,12,6.94,8.45H8.68l1.47,2.47h.08l1.49-2.47h1.65L11.05,12l2.29,3.53H11.66l-1.52-2.39h-.08L8.52,15.5Z"/>
</svg>
