<svg id="katman_1" data-name="katman 1" xmlns="http://www.w3.org/2000/svg" viewBox="0 0 24 24">
  <defs>
    <style>
      .cls-1 {
        fill: #fff;
        fill-opacity: 0.01;
      }

      .cls-2 {
        fill: #f8aa14;
        fill-rule: evenodd;
      }
    </style>
  </defs>
  <rect class="cls-1" width="24" height="24"/>
  <rect class="cls-1" width="24" height="24"/>
  <path class="cls-2" d="M3,0H21a3,3,0,0,1,3,3V21a3,3,0,0,1-3,3H3a3,3,0,0,1-3-3V3A3,3,0,0,1,3,0ZM13.56,16.64H11.63l-.09,0-.08-.05a.35.35,0,0,1-.05-.08.36.36,0,0,1,0-.1v-8a.24.24,0,0,1,.24-.24h1.93a.25.25,0,0,1,.25.24v8a.24.24,0,0,1-.25.25Zm3.79,0H15.42a.28.28,0,0,1-.17-.07.29.29,0,0,1-.07-.18v-8a.24.24,0,0,1,.24-.24h5.34a.24.24,0,0,1,.24.24V10a.24.24,0,0,1-.24.24H17.6v1.42h2.84a.25.25,0,0,1,.25.24v1.52a.36.36,0,0,1,0,.1.18.18,0,0,1-.05.07.24.24,0,0,1-.08.06l-.1,0H17.6v2.76A.25.25,0,0,1,17.35,16.64Zm-10.56.14C4.42,16.78,3,15.31,3,12.84v-1A3.56,3.56,0,0,1,6.79,8c2.32,0,3.44,1.47,3.52,2.92a.16.16,0,0,1,0,.1.22.22,0,0,1-.05.08.16.16,0,0,1-.08.06l-.1,0H8.19A.22.22,0,0,1,8,11.12.23.23,0,0,1,8,11a1.09,1.09,0,0,0-1.17-.89c-1.11,0-1.35,1-1.35,1.81v.94c0,1.23.47,1.85,1.4,1.85s1.2-.53,1.2-1V13.6H6.87a.23.23,0,0,1-.17-.07.28.28,0,0,1-.07-.17V12a.25.25,0,0,1,.24-.25h3.22a.25.25,0,0,1,.24.25v1.55A3.18,3.18,0,0,1,6.79,16.78Z"/>
</svg>
