<svg id="katman_1" data-name="katman 1" xmlns="http://www.w3.org/2000/svg" viewBox="0 0 24 24">
  <defs>
    <style>
      .cls-1 {
        fill: #fff;
        fill-opacity: 0.01;
      }

      .cls-2 {
        fill: #f28a1a;
        fill-rule: evenodd;
      }
    </style>
  </defs>
  <rect class="cls-1" width="24" height="24"/>
  <rect class="cls-1" width="24" height="24"/>
  <rect class="cls-1" width="24" height="24"/>
  <rect class="cls-1" width="24" height="24"/>
  <rect class="cls-1" width="24" height="24"/>
  <rect class="cls-1" width="24" height="24"/>
  <rect class="cls-1" width="24" height="24"/>
  <rect class="cls-1" width="24" height="24"/>
  <rect class="cls-1" width="24" height="24"/>
  <rect class="cls-1" width="24" height="24"/>
  <path class="cls-2" d="M3,0H21a3,3,0,0,1,3,3V21a3,3,0,0,1-3,3H3a3,3,0,0,1-3-3V3A3,3,0,0,1,3,0Zm9,20h0a1,1,0,0,0,.75-.34l7-8a1,1,0,0,0,.25-.58,1.09,1.09,0,0,0-.15-.61l-2.49-4A1,1,0,0,0,17,6.13,1,1,0,0,0,16.51,6H7.67a1,1,0,0,0-.83.44l-2.67,4a1.09,1.09,0,0,0-.17.63,1,1,0,0,0,.25.59l7,8A1,1,0,0,0,12,20Z"/>
</svg>
