<svg id="katman_1" data-name="katman 1" xmlns="http://www.w3.org/2000/svg" viewBox="0 0 24 24.07">
  <defs>
    <style>
      .cls-1 {
        fill: #fff;
        fill-opacity: 0.01;
      }

      .cls-2 {
        fill: #5f6d84;
        fill-rule: evenodd;
      }
    </style>
  </defs>
  <rect class="cls-1" y="0.04" width="24" height="24"/>
  <rect class="cls-1" y="0.04" width="24" height="24"/>
  <rect class="cls-1" y="0.04" width="24" height="24"/>
  <rect class="cls-1" y="0.04" width="24" height="24"/>
  <rect class="cls-1" y="0.04" width="24" height="24"/>
  <rect class="cls-1" y="0.04" width="24" height="24"/>
  <rect class="cls-1" y="0.04" width="24" height="24"/>
  <rect class="cls-1" y="0.04" width="24" height="24"/>
  <rect class="cls-1" y="0.04" width="24" height="24"/>
  <rect class="cls-1" y="0.07" width="24" height="24"/>
  <rect class="cls-1" width="24" height="24"/>
  <rect class="cls-1" y="0.07" width="24" height="24"/>
  <rect class="cls-1" y="0.07" width="24" height="24"/>
  <rect class="cls-1" y="0.07" width="24" height="24"/>
  <rect class="cls-1" y="0.07" width="24" height="24"/>
  <path class="cls-2" d="M3,0H21a3,3,0,0,1,3,3V21a3,3,0,0,1-.88,2.12A3,3,0,0,1,21,24H3a3,3,0,0,1-2.12-.88A3,3,0,0,1,0,21V3A3,3,0,0,1,3,0ZM9,3V6h3V3Zm3,3V9h3V6ZM9,9v3h3V9Zm3,3v3h3V12ZM9,15v3h3V15Zm3,3v3h3V18Z" transform="translate(0 0.04)"/>
</svg>
