<svg id="katman_1" data-name="katman 1" xmlns="http://www.w3.org/2000/svg" viewBox="0 0 24 24">
  <defs>
    <style>
      .cls-1 {
        fill: #fff;
        fill-opacity: 0.01;
      }

      .cls-2 {
        fill: #5a55a0;
        fill-rule: evenodd;
      }
    </style>
  </defs>
  <rect class="cls-1" width="24" height="24"/>
  <rect class="cls-1" width="24" height="24"/>
  <rect class="cls-1" width="24" height="24"/>
  <rect class="cls-1" width="24" height="24"/>
  <rect class="cls-1" width="24" height="24"/>
  <rect class="cls-1" width="24" height="24"/>
  <rect class="cls-1" width="24" height="24"/>
  <rect class="cls-1" width="24" height="24"/>
  <rect class="cls-1" width="24" height="24"/>
  <path class="cls-2" d="M3,0H21a3,3,0,0,1,3,3V21a3,3,0,0,1-3,3H3a3,3,0,0,1-3-3V3A3,3,0,0,1,3,0ZM6,14a1,1,0,0,0-1,1v3a1,1,0,0,0,1.71.71A1,1,0,0,0,7,18V15a1,1,0,0,0-1-1Zm8-6a1,1,0,0,0-1,1v9a1,1,0,1,0,2,0V9a1,1,0,0,0-1-1Zm-4,4a1,1,0,0,0-1,1v5a1,1,0,1,0,2,0V13a1,1,0,0,0-1-1Zm8-7a1,1,0,0,0-1,1V18a1,1,0,1,0,2,0V6a1,1,0,0,0-1-1Z"/>
</svg>
