<svg id="katman_1" data-name="katman 1" xmlns="http://www.w3.org/2000/svg" viewBox="0 0 24 24.22">
  <defs>
    <style>
      .cls-1 {
        fill: #fff;
        fill-opacity: 0.01;
      }

      .cls-2 {
        fill: #3cb07e;
        fill-rule: evenodd;
      }
    </style>
  </defs>
  <rect class="cls-1" width="24" height="24"/>
  <rect class="cls-1" width="24" height="24"/>
  <rect class="cls-1" width="24" height="24"/>
  <rect class="cls-1" width="24" height="24"/>
  <rect class="cls-1" width="24" height="24"/>
  <rect class="cls-1" width="24" height="24"/>
  <rect class="cls-1" width="24" height="24"/>
  <rect class="cls-1" width="24" height="24"/>
  <rect class="cls-1" width="24" height="24"/>
  <rect class="cls-1" y="0.02" width="24" height="24"/>
  <rect class="cls-1" y="0.22" width="24" height="24"/>
  <path class="cls-2" d="M3,.22H21a3,3,0,0,1,3,3v18a3,3,0,0,1-3,3H3a3,3,0,0,1-3-3v-18a3,3,0,0,1,3-3Zm2,5a1,1,0,0,0-.71,1.71A1,1,0,0,0,5,7.22H8a1,1,0,0,0,.71-1.71A1,1,0,0,0,8,5.22Zm0,4a1,1,0,1,0,0,2H8a1,1,0,1,0,0-2Zm0,4a1,1,0,1,0,0,2H8a1,1,0,1,0,0-2Zm0,4a1,1,0,1,0,0,2H8a1,1,0,1,0,0-2Zm7-12a1,1,0,0,0-.71,1.71,1,1,0,0,0,.71.29h7a1,1,0,0,0,.71-1.71A1,1,0,0,0,19,5.22Zm0,4a1,1,0,1,0,0,2h7a1,1,0,1,0,0-2Zm0,4a1,1,0,1,0,0,2h7a1,1,0,1,0,0-2Zm0,4a1,1,0,1,0,0,2h7a1,1,0,1,0,0-2Z" transform="translate(0)"/>
</svg>
