<svg id="katman_1" data-name="katman 1" xmlns="http://www.w3.org/2000/svg" viewBox="0 0 24 24">
  <defs>
    <style>
      .cls-1 {
        fill: #fff;
        fill-opacity: 0.01;
      }

      .cls-2 {
        fill: #f8aa14;
        fill-rule: evenodd;
      }
    </style>
  </defs>
  <rect class="cls-1" width="24" height="24"/>
  <rect class="cls-1" width="24" height="24"/>
  <rect class="cls-1" width="24" height="24"/>
  <rect class="cls-1" width="24" height="24"/>
  <rect class="cls-1" width="24" height="24"/>
  <rect class="cls-1" width="24" height="24"/>
  <path class="cls-2" d="M3,0H21a3,3,0,0,1,3,3V21a3,3,0,0,1-3,3H3a3,3,0,0,1-3-3V3A3,3,0,0,1,3,0Zm7,17L8.71,15.71a1,1,0,0,0-1.42,0L4,19H20V15.4l-3.3-3.62a.93.93,0,0,0-.32-.24.89.89,0,0,0-.39-.09,1.09,1.09,0,0,0-.4.07,1.06,1.06,0,0,0-.33.22ZM6.67,10.33a2.6,2.6,0,0,0,1-.18,2.91,2.91,0,0,0,.89-.58,2.73,2.73,0,0,0,.59-.87,2.66,2.66,0,0,0,0-2.07,2.85,2.85,0,0,0-.59-.87,2.71,2.71,0,0,0-.89-.57,2.61,2.61,0,0,0-1-.19,2.66,2.66,0,0,0-1.86.8,2.67,2.67,0,0,0,0,3.73A2.66,2.66,0,0,0,6.67,10.33Z"/>
</svg>
