<svg id="katman_1" data-name="katman 1" xmlns="http://www.w3.org/2000/svg" viewBox="0 0 24 24.07">
  <defs>
    <style>
      .cls-1 {
        fill: #fff;
        fill-opacity: 0.01;
      }

      .cls-2 {
        fill: #eb5839;
        fill-rule: evenodd;
      }
    </style>
  </defs>
  <rect class="cls-1" y="0.04" width="24" height="24"/>
  <rect class="cls-1" y="0.04" width="24" height="24"/>
  <rect class="cls-1" y="0.04" width="24" height="24"/>
  <rect class="cls-1" y="0.04" width="24" height="24"/>
  <rect class="cls-1" y="0.04" width="24" height="24"/>
  <rect class="cls-1" y="0.04" width="24" height="24"/>
  <rect class="cls-1" y="0.04" width="24" height="24"/>
  <rect class="cls-1" y="0.04" width="24" height="24"/>
  <rect class="cls-1" y="0.04" width="24" height="24"/>
  <rect class="cls-1" y="0.07" width="24" height="24"/>
  <rect class="cls-1" width="24" height="24"/>
  <rect class="cls-1" y="0.07" width="24" height="24"/>
  <rect class="cls-1" y="0.07" width="24" height="24"/>
  <rect class="cls-1" y="0.07" width="24" height="24"/>
  <rect class="cls-1" width="24" height="24"/>
  <path class="cls-2" d="M3,0H21a3,3,0,0,1,2.12.87A3,3,0,0,1,24,3V21a3,3,0,0,1-.88,2.12A3,3,0,0,1,21,24H3a3,3,0,0,1-2.12-.88A3,3,0,0,1,0,21V3A3,3,0,0,1,.88.83,3,3,0,0,1,3,0ZM19,6.63V5.57A.62.62,0,0,0,18.28,5l-8.56.89A.79.79,0,0,0,9,6.61v6.46A2.71,2.71,0,0,0,8.2,13H7.8A2.8,2.8,0,0,0,5,15.76v.4A2.8,2.8,0,0,0,7.8,19h.4a2.81,2.81,0,0,0,1.07-.22,2.77,2.77,0,0,0,.91-.6,2.8,2.8,0,0,0,.61-.91A2.83,2.83,0,0,0,11,16.16V8.82l6-.62v3.87a2.71,2.71,0,0,0-.8-.11h-.4a2.8,2.8,0,0,0-2.8,2.8v.4A2.8,2.8,0,0,0,15.8,18h.4a2.8,2.8,0,0,0,2.8-2.8Z" transform="translate(0 0.04)"/>
</svg>
