<svg id="katman_1" data-name="katman 1" xmlns="http://www.w3.org/2000/svg" viewBox="0 0 24 24">
  <defs>
    <style>
      .cls-1 {
        fill: #fff;
        fill-opacity: 0.01;
      }

      .cls-2 {
        fill: #eb5839;
        fill-rule: evenodd;
      }
    </style>
  </defs>
  <rect class="cls-1" width="24" height="24"/>
  <rect class="cls-1" width="24" height="24"/>
  <rect class="cls-1" width="24" height="24"/>
  <rect class="cls-1" width="24" height="24"/>
  <rect class="cls-1" width="24" height="24"/>
  <rect class="cls-1" width="24" height="24"/>
  <rect class="cls-1" width="24" height="24"/>
  <path class="cls-2" d="M3,0H21a3,3,0,0,1,3,3V21a3,3,0,0,1-3,3H3a3,3,0,0,1-3-3V3A3,3,0,0,1,3,0ZM4.85,12.17h.48c1.12,0,1.2-.32,1.2-.78s-.27-.77-.81-.77H4.85v1.55Zm6.29,2.18h.66c.74,0,1.5-.22,1.5-1.85s-.8-1.86-1.5-1.86h-.66v3.71ZM4.46,16H3.38a.39.39,0,0,1-.27-.11A.4.4,0,0,1,3,15.61V9.38A.38.38,0,0,1,3.38,9h2.5a2.39,2.39,0,1,1,0,4.78h-1v1.83a.37.37,0,0,1-.12.27.39.39,0,0,1-.27.11Zm7.45,0H9.67a.32.32,0,0,1-.14,0,.57.57,0,0,1-.13-.08.35.35,0,0,1-.08-.13.32.32,0,0,1,0-.14V9.38A.38.38,0,0,1,9.67,9h2.24c2.11,0,3.27,1.24,3.27,3.48S14,16,11.91,16Zm5.78,0H16.61l-.15,0a.36.36,0,0,1-.12-.08.38.38,0,0,1-.09-.13.32.32,0,0,1,0-.14V9.38A.39.39,0,0,1,16.61,9h4a.38.38,0,0,1,.38.38v.88a.39.39,0,0,1-.11.27.36.36,0,0,1-.27.12H18.07v1.14h2.29a.38.38,0,0,1,.39.38V13a.38.38,0,0,1-.39.38H18.07v2.19a.4.4,0,0,1-.11.27A.39.39,0,0,1,17.69,16Z"/>
</svg>
