<svg id="katman_1" data-name="katman 1" xmlns="http://www.w3.org/2000/svg" viewBox="0 0 24 24">
  <defs>
    <style>
      .cls-1 {
        fill: #fff;
        fill-opacity: 0.01;
      }

      .cls-2 {
        fill: #ca5117;
        fill-rule: evenodd;
      }
    </style>
  </defs>
  <rect class="cls-1" width="24" height="24"/>
  <rect class="cls-1" width="24" height="24"/>
  <rect class="cls-1" width="24" height="24"/>
  <rect class="cls-1" width="24" height="24"/>
  <rect class="cls-1" width="24" height="24"/>
  <rect class="cls-1" width="24" height="24"/>
  <rect class="cls-1" width="24" height="24"/>
  <rect class="cls-1" width="24" height="24"/>
  <path class="cls-2" d="M3,0H21a3,3,0,0,1,3,3V21a3,3,0,0,1-3,3H3a3,3,0,0,1-3-3V3A3,3,0,0,1,3,0ZM4.38,6a.46.46,0,0,0-.27.15A.44.44,0,0,0,4,6.45V17.6a.43.43,0,0,0,.38.43L15.5,19.57a.41.41,0,0,0,.19,0,.29.29,0,0,0,.16-.09.36.36,0,0,0,.11-.14.41.41,0,0,0,0-.19V4.87a.37.37,0,0,0,0-.18.33.33,0,0,0-.11-.15.51.51,0,0,0-.16-.09.62.62,0,0,0-.19,0L4.38,6ZM17,7V17h2.5a.51.51,0,0,0,.5-.5v-9a.51.51,0,0,0-.5-.5ZM7.85,8.45h2.94a2.31,2.31,0,0,1,2.44,2.44,2.34,2.34,0,0,1-2.51,2.42H9.33V15.5H7.85ZM9.33,9.66v2.46H10.4c.84,0,1.34-.43,1.34-1.22A1.17,1.17,0,0,0,10.4,9.66Z"/>
</svg>
