<svg id="katman_1" data-name="katman 1" xmlns="http://www.w3.org/2000/svg" viewBox="0 0 24 24.07">
  <defs>
    <style>
      .cls-1 {
        fill: #fff;
        fill-opacity: 0.01;
      }

      .cls-2 {
        fill: #034f8d;
        fill-rule: evenodd;
      }
    </style>
  </defs>
  <rect class="cls-1" y="0.04" width="24" height="24"/>
  <rect class="cls-1" y="0.04" width="24" height="24"/>
  <rect class="cls-1" y="0.04" width="24" height="24"/>
  <rect class="cls-1" y="0.04" width="24" height="24"/>
  <rect class="cls-1" y="0.04" width="24" height="24"/>
  <rect class="cls-1" y="0.04" width="24" height="24"/>
  <rect class="cls-1" y="0.04" width="24" height="24"/>
  <rect class="cls-1" y="0.04" width="24" height="24"/>
  <rect class="cls-1" y="0.04" width="24" height="24"/>
  <rect class="cls-1" y="0.07" width="24" height="24"/>
  <rect class="cls-1" width="24" height="24"/>
  <rect class="cls-1" y="0.07" width="24" height="24"/>
  <path class="cls-2" d="M3,0H21a3,3,0,0,1,3,3V21a3,3,0,0,1-3,3H3a3,3,0,0,1-3-3V3A3,3,0,0,1,3,0ZM4.38,6a.46.46,0,0,0-.27.15A.44.44,0,0,0,4,6.47V17.62a.43.43,0,0,0,.38.43L15.5,19.59a.41.41,0,0,0,.19,0,.29.29,0,0,0,.16-.09.36.36,0,0,0,.11-.14.41.41,0,0,0,0-.19V4.89a.37.37,0,0,0,0-.18.33.33,0,0,0-.11-.15.51.51,0,0,0-.16-.09.62.62,0,0,0-.19,0L4.38,6ZM10,11.36,8.69,16H7.3L5.43,9H7l1.1,5h.08L9.42,9h1.25l1.31,5h.08l1.09-5h1.52L12.8,16H11.42l-1.34-4.66ZM17,7V17h2.5a.51.51,0,0,0,.5-.5v-9a.51.51,0,0,0-.5-.5Z" transform="translate(0 0.04)"/>
</svg>
