<svg xmlns="http://www.w3.org/2000/svg" width="22" height="28" fill="none" viewBox="0 0 22 28">
    <path fill="currentColor"  d="M3.094 0C1.388 0 0 1.345 0 2.999v20.657c0 1.653 1.388 2.999 3.094 2.999H6.91l-1.393-1.35c-.197-.191-.347-.413-.464-.65h-1.96c-.568 0-1.03-.448-1.03-.999V2.999c0-.551.462-1 1.03-1H11v5.664c0 1.653 1.388 2.999 3.094 2.999h5.844v12.994c0 .551-.463 1-1.032 1H16.26c-.117.237-.268.46-.465.65l-1.392 1.349h4.503c1.706 0 3.094-1.346 3.094-2.999V9.662c0-.276-.116-.526-.302-.706L12.76.293C12.574.112 12.316 0 12.031 0H3.094zm9.969 3.413l5.416 5.25h-4.385c-.569 0-1.031-.449-1.031-1v-4.25zM10.64 16.645c-.273.004-.534.113-.724.303-.19.19-.295.446-.291.71v6.917l-1.677-1.626c-.095-.096-.209-.172-.335-.225-.126-.053-.261-.08-.399-.082-.137-.001-.273.024-.4.074-.127.05-.242.125-.34.219-.096.094-.173.206-.225.329-.052.123-.078.255-.076.388.001.133.03.264.084.386.055.122.134.233.233.325l3.348 3.246c.097.122.222.22.364.289.143.067.3.102.458.102.16 0 .316-.037.458-.105.142-.07.266-.169.361-.291l3.344-3.241c.099-.092.178-.203.232-.325.055-.122.084-.253.085-.386.001-.133-.025-.265-.077-.388-.051-.123-.128-.235-.225-.33-.097-.093-.213-.168-.34-.218-.127-.05-.263-.075-.4-.074-.137.001-.273.03-.399.082-.126.053-.24.13-.334.225l-1.678 1.626v-6.916c.003-.134-.023-.267-.075-.39-.052-.125-.13-.237-.227-.332-.098-.095-.214-.169-.342-.22-.128-.05-.265-.074-.403-.072z"/>
</svg>
