<svg width="19" height="20" viewBox="0 0 19 20" fill="none" xmlns="http://www.w3.org/2000/svg">
<path d="M12.6821 0.900734C12.4104 0.892961 12.1349 0.939843 11.883 1.03312L6.15102 3.05414H2.78061C1.64677 3.05414 0.733398 3.95583 0.733398 5.07516V17.5122C0.733398 18.6315 1.64677 19.5332 2.78061 19.5332H11.4419C12.4498 19.5332 13.3003 18.818 13.4578 17.8541L17.5522 16.4859C18.0876 16.2994 18.4968 15.9267 18.7173 15.4293C18.9692 14.9629 19.001 14.4032 18.812 13.8746L14.4974 2.21488C14.3084 1.7174 13.9302 1.28162 13.4578 1.09506C13.2215 0.970693 12.9537 0.908508 12.6821 0.900734ZM12.5916 1.80679C12.7334 1.81068 12.875 1.84177 13.0167 1.90396C13.2687 2.02833 13.4894 2.24598 13.5839 2.52581L14.0877 3.8934C13.6467 3.36483 12.9852 3.05414 12.2293 3.05414H11.4419H9.61554H8.89089L12.1666 1.87238C12.3083 1.82574 12.4499 1.80291 12.5916 1.80679ZM2.78061 3.98692H11.4419C12.0718 3.98692 12.5443 4.45331 12.5443 5.07516V17.5122C12.5443 18.1341 12.0718 18.6005 11.4419 18.6005H2.78061C2.1822 18.6005 1.67827 18.1341 1.67827 17.5122V5.07516C1.67827 4.45331 2.1822 3.98692 2.78061 3.98692ZM14.7176 5.63507L17.8985 14.2165C18.0245 14.4964 18.0246 14.7761 17.8671 15.0248C17.7412 15.3046 17.5207 15.4914 17.2372 15.5847L14.7176 16.424V5.63507ZM3.94632 10.05C3.66286 10.05 3.47389 10.2676 3.47389 10.5164C3.47389 10.7651 3.66286 10.9828 3.94632 10.9828H10.4029C10.6549 10.9828 10.8754 10.7651 10.8754 10.5164C10.8754 10.2676 10.6549 10.05 10.4029 10.05H3.94632ZM3.94632 12.3819C3.66286 12.3819 3.47389 12.5996 3.47389 12.8483C3.47389 13.0971 3.66286 13.3147 3.94632 13.3147H10.4029C10.6549 13.3147 10.8754 13.0971 10.8754 12.8483C10.8754 12.5996 10.6549 12.3819 10.4029 12.3819H3.94632ZM3.94632 14.7139C3.66286 14.7139 3.47389 14.9315 3.47389 15.1803C3.47389 15.429 3.66286 15.6467 3.94632 15.6467H8.13487C8.41833 15.6467 8.60731 15.429 8.60731 15.1803C8.60731 14.9315 8.38696 14.7139 8.1035 14.7139H3.94632Z" fill="currentColor"/>
</svg>
