<svg xmlns="http://www.w3.org/2000/svg" width="19" height="19" fill="none" viewBox="0 0 19 19">
    <path  fill="currentColor" d="M9.5.38C6.14.38 3.42 3.102 3.42 6.46c0 2.724 1.465 5.702 2.907 8.028 1.442 2.326 2.885 4 2.885 4 .035.041.08.074.129.097.05.023.103.035.157.035.055 0 .108-.011.158-.033.05-.023.094-.055.13-.096 0 0 1.444-1.646 2.886-3.959 1.442-2.313 2.908-5.294 2.908-8.072 0-3.358-2.722-6.08-6.08-6.08zm0 .76c2.95 0 5.32 2.37 5.32 5.32 0 2.504-1.385 5.413-2.792 7.67-1.177 1.887-2.172 3.087-2.526 3.504-.352-.422-1.35-1.644-2.53-3.546C5.566 11.816 4.18 8.904 4.18 6.46c0-2.95 2.37-5.32 5.32-5.32zm-.006 2.655c-.1.001-.197.043-.267.115-.07.072-.108.17-.107.27v1.988L7.416 5.144c-.043-.026-.09-.043-.14-.05-.05-.008-.1-.005-.148.007-.048.012-.094.033-.134.063-.04.03-.074.067-.1.11-.026.043-.043.09-.05.14-.008.049-.005.1.007.148.012.048.033.094.063.134.03.04.067.074.11.1L8.761 6.84 7.024 7.884c-.043.026-.08.06-.11.1-.03.04-.051.086-.063.134-.012.049-.015.1-.007.148.007.05.024.097.05.14.026.043.06.08.1.11.04.03.086.051.134.063.049.012.099.015.148.007.05-.007.097-.024.14-.05L9.12 7.512V9.5c0 .05.009.1.027.147.02.047.047.09.082.125.036.036.078.065.124.084.047.02.097.03.147.03.05 0 .1-.01.147-.03.046-.02.088-.048.124-.084.035-.036.063-.078.082-.125.018-.047.028-.097.027-.147V7.512l1.704 1.024c.043.026.09.043.14.05.049.008.1.005.148-.007.048-.012.094-.033.134-.063.04-.03.074-.067.1-.11.026-.043.043-.09.05-.14.007-.049.005-.1-.007-.148-.012-.048-.034-.094-.063-.134-.03-.04-.067-.074-.11-.1L10.238 6.84l1.738-1.044c.043-.026.08-.06.11-.1.03-.04.05-.086.063-.134.012-.049.014-.1.007-.148-.007-.05-.024-.097-.05-.14-.026-.043-.06-.08-.1-.11-.04-.03-.086-.051-.134-.063-.049-.012-.099-.015-.148-.007-.05.007-.097.024-.14.05L9.88 6.168V4.18c0-.05-.009-.101-.028-.148-.02-.047-.048-.09-.084-.126-.036-.036-.078-.064-.126-.084-.047-.019-.097-.028-.148-.027z"/>
</svg>
