<svg width="16" height="10" viewBox="0 0 16 10" fill="none" xmlns="http://www.w3.org/2000/svg">
<path d="M9.0901 0.00240949C8.90246 0.0303273 8.76545 0.182479 8.76843 0.359758V3.21854H0.381236C0.171258 3.21854 0 3.37907 0 3.57589V6.43468C0 6.6315 0.171258 6.79203 0.381236 6.79203H8.76843V9.65081C8.77141 9.78482 8.85331 9.90486 8.98139 9.96349C9.10946 10.0221 9.26136 10.0096 9.37602 9.92999L15.857 5.28446C15.9479 5.21606 16 5.11416 16 5.00528C16 4.8964 15.9479 4.7945 15.857 4.72611L9.37602 0.0805794C9.29561 0.0191602 9.19285 -0.00875764 9.0901 0.00240949ZM9.5309 1.07445L15.0112 5.00528L9.5309 8.93611V6.43468C9.5309 6.23786 9.35964 6.07733 9.14966 6.07733H0.762472V3.93324H9.14966C9.35964 3.93324 9.5309 3.77271 9.5309 3.57589V1.07445Z" fill="#465669"/>
</svg>
