<svg width="20" height="18" viewBox="0 0 20 18" fill="none" xmlns="http://www.w3.org/2000/svg">
<path d="M16.0792 14.25C15.8563 14.6375 15.955 14.95 15.5813 15.1654C15.2075 15.3812 14.7771 15.5 14.3292 15.5H5.67084C5.22334 15.5 4.79334 15.3813 4.41917 15.1658C4.045 14.9504 4.14375 14.6375 3.92084 14.25L7.11667 10.5H12.8833L16.0792 14.25Z" fill="#1E88E5"/>
<path d="M11.4429 0.916143C11.89 0.915309 12.3196 0.617809 12.6934 0.833643C13.0671 1.04989 13.385 1.36281 13.6088 1.75073L17.9379 9.24906C18.1617 9.63656 18.2742 10.0686 18.2746 10.4999C18.275 10.932 17.7467 11.3636 17.5221 11.7503L12.8859 10.4982L10.0009 5.50114L11.4429 0.916143Z" fill="#FBC02D"/>
<path d="M18.275 10.5C18.275 10.9333 18.1625 11.3625 17.9375 11.75L16.4084 14.3958C16.1875 14.7208 15.9042 14.9792 15.5792 15.1667L12.8834 10.5H18.275Z" fill="#E53935"/>
<path d="M2.4779 11.7503C2.25374 11.3636 1.7254 10.932 1.7254 10.5003C1.72582 10.0686 1.8379 9.63657 2.06207 9.24865L6.39124 1.75032C6.61499 1.36282 6.9329 1.04948 7.30624 0.833651C7.67999 0.617401 8.10999 0.914901 8.55707 0.915734L9.99832 5.50282L7.11415 10.4982L2.4779 11.7503Z" fill="#4CAF50"/>
<path d="M7.11664 10.5L4.42081 15.1667C4.09581 14.9792 3.81248 14.7208 3.59164 14.3958L2.06248 11.75C1.83748 11.3625 1.72498 10.9333 1.72498 10.5H7.11664Z" fill="#1565C0"/>
<path d="M12.6916 0.833333L9.99997 5.5L7.30414 0.833333C7.62914 0.645833 7.9958 0.529167 8.38747 0.504167L11.4416 0.5C11.8916 0.5 12.3208 0.616667 12.6916 0.833333Z" fill="#2E7D32"/>
 </svg>
