<svg xmlns="http://www.w3.org/2000/svg" width="27" height="27" fill="none" viewBox="0 0 27 27">
    <path fill="currentColor" d="M14.182 0c-1.37 0-2.413.476-2.953 1.324-.486.764-.494 1.726-.268 2.712-.115.2-.187.436-.154.731.038.342.122.614.281.835.059.08.164.085.243.145.08.32.166.65.324.864.112.15.225.277.33.38.006.004.01.005.015.01v.595c-.04.09-.106.175-.315.293-.231.13-.576.264-.95.447-.375.182-.788.42-1.126.815-.337.395-.57.944-.608 1.616-.004.082.008.163.036.24.028.076.071.146.127.205.056.06.124.107.199.139.075.032.155.049.237.049H18c.082 0 .162-.017.237-.049.075-.032.143-.08.199-.139.056-.059.099-.129.127-.205.028-.077.04-.158.036-.24-.037-.672-.271-1.221-.608-1.616-.338-.394-.75-.633-1.125-.815-.375-.183-.72-.318-.95-.448-.21-.118-.276-.201-.316-.292v-.602l.019-.015c.104-.105.216-.232.324-.383.154-.212.235-.53.316-.84.079-.06.183-.064.242-.145.16-.221.245-.493.283-.834.025-.23.004-.443-.075-.641-.011-.027-.058-.041-.07-.068.167-.687.221-1.42-.044-2.092-.253-.642-.908-1.082-1.726-1.241l-.123-.34c-.042-.116-.119-.216-.22-.286-.1-.071-.22-.109-.344-.109zm-.396 1.267l.05.138c.042.116.12.216.22.286.1.071.22.109.344.109.716 0 .923.224 1.078.616.155.393.138 1.032-.04 1.607-.032.105-.035.217-.008.324.027.107.083.204.162.28l-.001.018c-.019.17-.045.203-.052.218-.104.048-.192.125-.254.221s-.095.209-.095.323c0 .073-.082.298-.218.486-.068.094-.144.18-.204.24s-.136.106-.066.066c-.091.053-.168.128-.22.22-.054.091-.082.195-.082.3V7.76c0 .066.011.132.033.195.164.48.54.78.89.978.35.198.706.33 1.017.48.31.152.564.314.739.519.052.06.055.195.096.268h-6.75c.041-.073.044-.208.096-.268.175-.204.43-.366.74-.517.31-.151.666-.284 1.016-.482s.726-.498.89-.978c.022-.063.033-.129.033-.195V6.72c0-.107-.028-.21-.082-.302-.053-.092-.13-.168-.223-.22.06.034-.012-.01-.072-.068s-.135-.142-.203-.233c-.136-.183-.22-.4-.22-.5 0-.114-.033-.226-.095-.322s-.15-.173-.253-.221c-.008-.015-.034-.049-.053-.218-.003-.023.002-.016.006-.024.074-.075.128-.17.154-.273.027-.103.025-.211-.004-.314-.257-.896-.198-1.609.086-2.056.241-.379.747-.622 1.545-.702zm-4.812 2.93c-.074.005-.147.023-.214.053C5.017 5.885 2.4 9.417 2.4 13.522c0 .316.015.628.045.937.007.08.029.157.065.228.037.07.087.134.148.185.061.051.132.09.208.113.077.024.157.032.236.024.08-.008.157-.031.227-.07.07-.037.132-.089.182-.15.05-.063.087-.135.11-.211.022-.077.028-.157.019-.237-.027-.27-.04-.542-.04-.819 0-3.595 2.288-6.709 5.64-8.172.13-.055.237-.154.301-.28.064-.126.082-.27.05-.408-.031-.138-.11-.26-.224-.345-.113-.085-.252-.127-.393-.12zm9.52.24c-.134.003-.264.05-.368.136-.104.086-.176.204-.205.336-.029.132-.012.27.047.39.059.122.157.22.278.278 3.086 1.545 5.154 4.526 5.154 7.945 0 .277-.013.55-.04.82-.009.079-.002.159.02.236.022.076.059.148.109.21s.112.114.182.152c.07.038.147.061.227.07.08.007.16-.001.236-.025.076-.023.147-.062.208-.113.06-.051.111-.114.148-.185.036-.071.058-.149.065-.228.03-.308.045-.621.045-.937 0-3.903-2.367-7.291-5.816-9.018-.09-.047-.189-.07-.29-.067zM5.183 15.6c-1.37 0-2.414.476-2.953 1.324-.486.764-.494 1.726-.269 2.712-.114.2-.186.436-.153.731.038.342.122.614.281.835.059.08.164.085.243.145.08.32.166.65.324.863.112.151.225.278.33.38.005.005.01.006.015.01v.596c-.04.09-.106.175-.315.293-.231.13-.576.264-.95.447-.375.182-.789.42-1.126.815-.337.394-.57.944-.608 1.616-.005.082.008.163.036.24.028.076.071.146.127.205.056.06.124.107.199.139.075.032.155.049.237.049H9c.081 0 .162-.017.237-.049.075-.032.142-.08.198-.139.056-.059.1-.129.128-.205.028-.077.04-.158.036-.24-.037-.672-.271-1.221-.608-1.616-.338-.394-.75-.633-1.125-.816-.375-.182-.72-.317-.95-.447-.21-.118-.276-.201-.316-.292v-.602l.019-.016c.103-.104.216-.231.324-.381.154-.213.235-.532.315-.84.08-.06.184-.065.243-.146.16-.221.245-.493.282-.834.026-.23.005-.443-.075-.642-.01-.026-.057-.04-.07-.067.168-.687.222-1.42-.043-2.092-.254-.642-.908-1.082-1.726-1.241l-.123-.34c-.043-.116-.12-.216-.22-.286-.1-.071-.221-.109-.344-.109zm17.4 0c-1.369 0-2.413.476-2.953 1.324-.486.764-.494 1.726-.268 2.712-.115.2-.186.436-.154.731.038.342.122.614.281.835.059.08.164.085.243.145.081.32.166.65.325.863.111.151.224.278.33.38.005.005.01.006.014.01v.596c-.04.09-.106.175-.315.293-.23.13-.576.264-.95.447-.375.182-.788.42-1.126.815-.337.394-.57.944-.608 1.616-.004.082.008.163.036.24.028.076.072.146.128.205.056.06.123.107.198.139.075.032.156.049.237.049h8.4c.082 0 .163-.017.237-.049.075-.032.143-.08.199-.139.056-.059.1-.129.127-.205.028-.077.04-.158.036-.24-.037-.672-.27-1.221-.608-1.616-.337-.394-.75-.633-1.125-.816-.375-.182-.72-.317-.95-.447-.21-.118-.275-.201-.316-.292v-.602l.019-.016c.104-.104.216-.231.325-.381.153-.213.234-.532.315-.84.079-.06.184-.065.242-.146.16-.221.245-.493.283-.834.025-.23.004-.443-.075-.642-.01-.026-.058-.04-.07-.067.167-.687.221-1.42-.044-2.092-.253-.642-.908-1.082-1.726-1.241l-.123-.34c-.042-.116-.119-.216-.22-.286-.1-.071-.22-.109-.344-.109zM4.786 16.867l.05.138c.042.116.119.216.22.286.1.071.22.109.344.109.716 0 .923.224 1.078.616.155.393.138 1.032-.04 1.607-.032.105-.035.217-.008.324.027.107.083.204.162.28 0 .012 0 .001-.002.018-.018.17-.044.203-.051.218-.104.048-.192.125-.254.221s-.095.208-.095.323c0 .073-.082.298-.218.486-.068.094-.144.18-.204.24s-.136.107-.066.066c-.092.053-.168.128-.22.22-.054.091-.082.195-.082.3v1.041c0 .066.011.132.033.195.164.48.54.78.89.978.35.198.706.33 1.016.48.31.152.565.314.74.519.052.06.054.195.096.268h-6.75c.041-.073.044-.208.096-.268.174-.204.43-.366.74-.517.31-.151.666-.284 1.015-.482.35-.198.727-.498.891-.978.022-.063.033-.129.033-.195v-1.04c0-.107-.029-.21-.082-.302-.054-.092-.13-.168-.223-.22.06.034-.012-.01-.073-.068-.06-.058-.134-.142-.202-.233-.136-.183-.22-.4-.22-.5 0-.114-.034-.226-.095-.322-.062-.096-.15-.173-.254-.221-.007-.015-.034-.049-.052-.218-.003-.023.002-.016.005-.024.075-.075.129-.17.155-.273.026-.103.025-.211-.005-.314-.256-.896-.198-1.609.087-2.056.24-.379.747-.622 1.545-.702zm17.4 0l.05.138c.043.116.12.216.22.286.1.071.221.109.344.109.716 0 .923.224 1.078.616.155.393.138 1.032-.04 1.607-.032.105-.035.217-.008.324.028.107.083.204.162.28l-.001.018c-.019.17-.045.203-.052.218-.104.048-.192.125-.254.221s-.095.208-.095.323c0 .073-.082.298-.218.486-.068.094-.144.18-.204.24s-.136.107-.066.066c-.091.053-.168.128-.22.22-.054.091-.082.195-.082.3v1.041c0 .066.011.132.033.195.165.48.541.78.89.978.35.198.707.33 1.017.48.31.152.565.314.74.519.051.06.054.195.095.268h-6.75c.042-.073.044-.208.096-.268.175-.204.43-.366.74-.517.31-.151.666-.284 1.016-.482s.726-.498.89-.978c.022-.063.033-.129.033-.195v-1.04c0-.107-.028-.21-.082-.302-.053-.092-.13-.168-.223-.22.06.034-.012-.01-.072-.068s-.135-.142-.203-.233c-.136-.183-.22-.4-.22-.5 0-.114-.033-.226-.095-.322s-.15-.173-.253-.221c-.007-.015-.034-.049-.053-.218-.003-.023.002-.016.006-.024.075-.075.128-.17.154-.273.027-.103.025-.211-.004-.314-.257-.896-.198-1.609.087-2.056.24-.379.746-.622 1.544-.702zM18 21.837c-.085.004-.168.025-.244.063-1.288.577-2.73.9-4.255.9s-2.967-.323-4.255-.9c-.073-.034-.152-.053-.232-.056-.14-.005-.277.04-.388.125-.11.085-.188.207-.218.343-.03.137-.013.28.05.404.064.125.17.223.298.278C10.195 23.64 11.805 24 13.5 24c1.695 0 3.305-.36 4.745-1.006.131-.052.24-.15.306-.274.067-.125.087-.27.058-.407-.03-.139-.107-.262-.219-.349-.111-.087-.25-.131-.391-.126z"/>
</svg>
