<svg width="52" height="52" viewBox="0 0 52 52" fill="none" xmlns="http://www.w3.org/2000/svg"><rect width="52" height="52" rx="6" fill="#10B981"></rect> <path d="M23.1995 14.8C22.952 14.8001 22.7146 14.8984 22.5396 15.0734C22.3646 15.2485 22.2662 15.4859 22.2662 15.7334V23.2C22.2662 23.4476 22.3646 23.685 22.5396 23.86C22.7146 24.035 22.952 24.1334 23.1995 24.1334C26.6218 24.1334 29.2152 25.8433 29.2152 25.8433C29.2158 25.8439 29.2164 25.8445 29.217 25.8451C29.2348 25.8567 29.2531 25.8676 29.2717 25.8779C29.2831 25.8842 29.2946 25.8903 29.3063 25.8961C29.3112 25.898 29.316 25.8998 29.3209 25.9016C29.3453 25.9143 29.3702 25.9258 29.3956 25.9362C29.4243 25.9474 29.4535 25.9571 29.4831 25.9654C29.488 25.9667 29.4928 25.9679 29.4977 25.9691C29.5176 25.9746 29.5377 25.9794 29.5579 25.9836C29.5591 25.9836 29.5603 25.9836 29.5615 25.9836C29.5893 25.9892 29.6172 25.9934 29.6454 25.9964C29.6478 25.9964 29.6502 25.9964 29.6527 25.9964C29.6775 25.9986 29.7025 25.9998 29.7274 26.0001C29.7383 26.0002 29.7493 26.0002 29.7602 26.0001C29.7767 25.9993 29.7931 25.9981 29.8094 25.9964C29.8186 25.9959 29.8277 25.9953 29.8368 25.9946C29.8423 25.994 29.8477 25.9934 29.8532 25.9928C29.8789 25.989 29.9044 25.9841 29.9297 25.9782C29.9543 25.9725 29.9786 25.9658 30.0027 25.9581C30.0081 25.957 30.0136 25.9557 30.0191 25.9545C30.0246 25.9527 30.03 25.9509 30.0355 25.949C30.0434 25.9461 30.0513 25.943 30.0592 25.9399C30.0801 25.9321 30.1008 25.9236 30.1212 25.9144C30.1447 25.9038 30.1678 25.8922 30.1904 25.8797C30.2109 25.8683 30.231 25.8562 30.2506 25.8433C30.2506 25.8433 32.844 24.1334 36.2662 24.1334C36.5137 24.1334 36.7511 24.035 36.9261 23.86C37.1012 23.685 37.1995 23.4476 37.1995 23.2V15.7334C37.1995 15.4859 37.1012 15.2485 36.9261 15.0734C36.7511 14.8984 36.5137 14.8001 36.2662 14.8C33.2048 14.8 30.7511 15.9537 29.7329 16.5172C28.7146 15.9537 26.261 14.8 23.1995 14.8ZM24.1329 16.7724C26.6678 17.0084 28.331 17.8873 28.7995 18.1706V23.5592C27.7354 23.0403 26.2769 22.5438 24.1329 22.3724V16.7724ZM35.3329 16.7724V22.3724C33.1888 22.5438 31.7304 23.0403 30.6662 23.5592V18.1706C31.1347 17.8873 32.798 17.0084 35.3329 16.7724ZM19.4662 26.0001C19.1089 26.0004 18.755 26.069 18.4235 26.2024L13.8662 27.8667V35.3334L17.8055 33.6217C18.2703 33.4201 18.7962 33.413 19.2657 33.6053L27.7258 37.0615C27.7258 37.0615 27.7295 37.0615 27.7295 37.0615C27.9178 37.1521 28.1239 37.1995 28.3329 37.2001C28.5746 37.1992 28.812 37.1358 29.0219 37.0159C29.0221 37.0159 29.0273 37.016 29.0274 37.0159L37.4146 32.3566L37.4128 32.3547C37.6307 32.2337 37.8123 32.0567 37.9389 31.842C38.0655 31.6272 38.1324 31.3826 38.1329 31.1334C38.1329 30.7621 37.9854 30.406 37.7228 30.1434C37.4603 29.8809 37.1042 29.7334 36.7329 29.7334C36.5273 29.7342 36.3244 29.7802 36.1386 29.8683V29.8665L29.7329 32.5334H28.3329C28.7042 32.5334 29.0603 32.3859 29.3228 32.1233C29.5854 31.8608 29.7329 31.5047 29.7329 31.1334C29.7328 30.838 29.6393 30.5502 29.4658 30.3112C29.2922 30.0722 29.0476 29.8942 28.7667 29.8027V29.8008L20.6529 26.2626H20.642C20.2738 26.0908 19.8725 26.0012 19.4662 26.0001V26.0001Z" fill="white"></path></svg>
