<svg width="48" height="48" viewBox="0 0 48 48" fill="none" xmlns="http://www.w3.org/2000/svg"><rect width="48" height="48" rx="6" fill="#F59E0B"></rect> <path d="M14 16V30C14 31.0931 14.9069 32 16 32H22.5879C22.6912 32.2921 22.8824 32.5451 23.1352 32.7241C23.3881 32.9032 23.6902 32.9996 24 33C24.3098 32.9996 24.6119 32.9032 24.8648 32.7241C25.1176 32.5451 25.3088 32.2921 25.4121 32H32C33.0931 32 34 31.0931 34 30V16H27C25.7891 16 24.7356 16.5762 24 17.4355C23.2644 16.5762 22.2109 16 21 16H14ZM16 18H21C22.1167 18 23 18.8833 23 20H25C25 18.8833 25.8833 18 27 18H32V30H16V18ZM27 21V23H29V21H27ZM27 24V28H29V24H27Z" fill="white"></path></svg>
