<svg width="52" height="52" viewBox="0 0 52 52" fill="none" xmlns="http://www.w3.org/2000/svg"><rect width="52" height="52" rx="6" fill="#EC4899"></rect> <path d="M24.3411 14.3469C24.0111 14.3635 23.6782 14.3974 23.3431 14.4495C18.399 15.2194 15.1156 19.835 15.5456 24.7626C15.7287 26.8751 16.5505 28.1332 17.2751 29.1786C18.1806 30.4868 19 31.5579 19 34.4469V37.6666H29.5V34.1666H31.8333C33.1086 34.1666 34.1667 33.1085 34.1667 31.8333V28.3583L35.5976 27.7545C36.2517 27.4791 36.5542 26.4845 36.1787 25.8928L34.1051 22.6389V22.6366C33.5702 17.7534 29.2915 14.0982 24.3411 14.3469ZM23.6667 16.76V22.8167C23.3125 23.0211 23.0184 23.315 22.8136 23.6689C22.6089 24.0229 22.5007 24.4244 22.5 24.8333C22.5 25.4521 22.7458 26.0456 23.1834 26.4832C23.621 26.9208 24.2145 27.1666 24.8333 27.1666C25.0372 27.1665 25.2402 27.1397 25.4372 27.0868L27.1712 28.8209C27.1688 28.8527 27.1673 28.8847 27.1667 28.9166C27.1667 29.3807 27.351 29.8258 27.6792 30.154C28.0074 30.4822 28.4525 30.6666 28.9167 30.6666C29.3808 30.6666 29.8259 30.4822 30.1541 30.154C30.4823 29.8258 30.6667 29.3807 30.6667 28.9166C30.6667 28.4525 30.4823 28.0073 30.1541 27.6792C29.8259 27.351 29.3808 27.1666 28.9167 27.1666C28.8847 27.1672 28.8528 27.1688 28.821 27.1711L27.0846 25.4348C27.1381 25.2387 27.1656 25.0365 27.1667 24.8333C27.1663 24.424 27.0584 24.022 26.8536 23.6676C26.6488 23.3133 26.3544 23.019 26 22.8144V16.76C29.0579 17.2608 31.4383 19.7231 31.7855 22.8919L31.8447 23.4319L32.1364 23.8922L33.5378 26.0911L31.8333 26.8111V27.5836V31.8333H27.1667V35.3333H21.3333V34.4469C21.3333 31.0498 20.0988 29.1577 19.1937 27.8502C18.4692 26.805 18.0133 26.218 17.8698 24.5621V24.5598C17.5402 20.7828 19.9864 17.3535 23.6667 16.76Z" fill="white"></path></svg>
