<svg width="15" height="15" viewBox="0 0 15 15" fill="none" xmlns="http://www.w3.org/2000/svg">
<path fill="currentColor" d="M7.5 0C3.36461 0 0 3.36461 0 7.5C0 8.72824 0.323515 9.8763 0.848145 10.8999L0.0351562 13.8105C-0.154201 14.4868 0.514472 15.1555 1.19092 14.9663L4.10376 14.1533C5.12653 14.6768 6.27291 15 7.5 15C11.6354 15 15 11.6354 15 7.5C15 3.36461 11.6354 0 7.5 0ZM7.5 1.125C11.0274 1.125 13.875 3.97264 13.875 7.5C13.875 11.0274 11.0274 13.875 7.5 13.875C6.37441 13.875 5.32148 13.5823 4.40332 13.0708C4.2739 12.9987 4.12125 12.9805 3.97852 13.0203L1.2085 13.793L1.98193 11.0244C2.02189 10.8815 2.00372 10.7285 1.9314 10.5989C1.41887 9.68005 1.125 8.62669 1.125 7.5C1.125 3.97264 3.97264 1.125 7.5 1.125ZM7.5 3.37573C6.26405 3.37573 5.25 4.38978 5.25 5.62573C5.24895 5.70027 5.26272 5.77427 5.29051 5.84344C5.31831 5.91261 5.35957 5.97557 5.41191 6.02865C5.46425 6.08174 5.52661 6.12389 5.59538 6.15266C5.66415 6.18143 5.73795 6.19624 5.8125 6.19624C5.88705 6.19624 5.96085 6.18143 6.02962 6.15266C6.09839 6.12389 6.16075 6.08174 6.21309 6.02865C6.26543 5.97557 6.30669 5.91261 6.33449 5.84344C6.36228 5.77427 6.37605 5.70027 6.375 5.62573C6.375 4.99793 6.8722 4.50073 7.5 4.50073C8.1278 4.50073 8.625 4.99793 8.625 5.62573C8.625 6.22056 8.38375 6.39564 7.95996 6.79175C7.53617 7.18785 6.9375 7.80321 6.9375 8.81323C6.93645 8.88777 6.95022 8.96177 6.97801 9.03094C7.00581 9.10011 7.04707 9.16307 7.09941 9.21615C7.15175 9.26924 7.21411 9.31139 7.28288 9.34016C7.35165 9.36893 7.42545 9.38374 7.5 9.38374C7.57455 9.38374 7.64835 9.36893 7.71712 9.34016C7.78589 9.31139 7.84825 9.26924 7.90059 9.21615C7.95293 9.16307 7.99419 9.10011 8.02199 9.03094C8.04978 8.96177 8.06355 8.88777 8.0625 8.81323C8.0625 8.19088 8.30758 8.00605 8.72754 7.61353C9.1475 7.221 9.75 6.61903 9.75 5.62573C9.75 4.38978 8.73595 3.37573 7.5 3.37573ZM7.5 10.1257C7.30109 10.1257 7.11032 10.2048 6.96967 10.3454C6.82902 10.4861 6.75 10.6768 6.75 10.8757C6.75 11.0746 6.82902 11.2654 6.96967 11.4061C7.11032 11.5467 7.30109 11.6257 7.5 11.6257C7.69891 11.6257 7.88968 11.5467 8.03033 11.4061C8.17098 11.2654 8.25 11.0746 8.25 10.8757C8.25 10.6768 8.17098 10.4861 8.03033 10.3454C7.88968 10.2048 7.69891 10.1257 7.5 10.1257Z" />
</svg>
