<svg width="12" height="13" viewBox="0 0 12 13"  xmlns="http://www.w3.org/2000/svg">
<path d="M5.98372 0.000241944C5.87711 0.00388272 5.77445 0.0415226 5.69076 0.107662L0.953125 3.84001C0.351826 4.31388 0 5.03798 0 5.80352V12.1667C0 12.6212 0.378802 13 0.833333 13H4.16667C4.6212 13 5 12.6212 5 12.1667V8.83341C5 8.73507 5.06832 8.66675 5.16667 8.66675H6.83333C6.93168 8.66675 7 8.73507 7 8.83341V12.1667C7 12.6212 7.3788 13 7.83333 13H11.1667C11.6212 13 12 12.6212 12 12.1667V5.80352C12 5.03798 11.6482 4.31388 11.0469 3.84001L6.30924 0.107662C6.21678 0.0346216 6.1015 -0.00342174 5.98372 0.000241944ZM6 1.13694L10.4284 4.62581C10.7898 4.91059 11 5.34375 11 5.80352V12H8V8.83341C8 8.19511 7.47165 7.66677 6.83333 7.66677H5.16667C4.52835 7.66677 4 8.19511 4 8.83341V12H1V5.80352C1 5.34375 1.21025 4.91059 1.57161 4.62581L6 1.13694Z" fill="#465669"/>
</svg>
