<svg id="katman_1" data-name="katman 1" xmlns="http://www.w3.org/2000/svg" viewBox="0 0 24 24">
  <defs>
    <style>
      .cls-1 {
        fill: #fff;
        fill-opacity: 0.01;
      }

      .cls-2 {
        fill: #504797;
        fill-rule: evenodd;
      }
    </style>
  </defs>
  <rect class="cls-1" width="24" height="24"/>
  <path class="cls-2" d="M3.25,0A3.24,3.24,0,0,0,0,3.25v17.5A3.24,3.24,0,0,0,3.25,24h17.5A3.24,3.24,0,0,0,24,20.75V3.25A3.24,3.24,0,0,0,20.75,0ZM12,17a2.51,2.51,0,1,1-2.5-2.5,2.51,2.51,0,0,1,0-5,2.51,2.51,0,1,1,0-5h5a2.51,2.51,0,0,1,0,5H12V12a2.51,2.51,0,1,1,2.51,2.52A2.52,2.52,0,0,1,12,12v5Z"/>
</svg>
