<svg width="21" height="19" viewBox="0 0 21 19" fill="none" xmlns="http://www.w3.org/2000/svg">
<path d="M1.93334 0.666504C1.12301 0.666504 0.466675 1.32284 0.466675 2.13317V13.8665C0.466675 14.6768 1.12301 15.3332 1.93334 15.3332H9.43568C9.32788 14.8609 9.26667 14.371 9.26667 13.8665C9.26667 13.6186 9.28251 13.3744 9.30964 13.1332H2.66667V7.99984L4.34532 6.32119C5.03832 5.62819 6.1617 5.62819 6.8547 6.32119L10.5285 9.99502C11.7283 8.34429 13.6696 7.2665 15.8667 7.2665C17.2241 7.2665 18.4847 7.67686 19.5333 8.37939V2.13317C19.5333 1.32284 18.877 0.666504 18.0667 0.666504H1.93334ZM15.8667 2.8665C16.677 2.8665 17.3333 3.52284 17.3333 4.33317C17.3333 5.1435 16.677 5.79984 15.8667 5.79984C15.0563 5.79984 14.4 5.1435 14.4 4.33317C14.4 3.52284 15.0563 2.8665 15.8667 2.8665ZM15.8667 8.73317C13.0316 8.73317 10.7333 11.0314 10.7333 13.8665C10.7333 16.7016 13.0316 18.9998 15.8667 18.9998C18.7017 18.9998 21 16.7016 21 13.8665C21 11.0314 18.7017 8.73317 15.8667 8.73317ZM15.8667 10.9332C16.2715 10.9332 16.6 11.261 16.6 11.6665V13.1332H18.0667C18.4715 13.1332 18.8 13.461 18.8 13.8665C18.8 14.272 18.4715 14.5998 18.0667 14.5998H16.6V16.0665C16.6 16.472 16.2715 16.7998 15.8667 16.7998C15.4619 16.7998 15.1333 16.472 15.1333 16.0665V14.5998H13.6667C13.2619 14.5998 12.9333 14.272 12.9333 13.8665C12.9333 13.461 13.2619 13.1332 13.6667 13.1332H15.1333V11.6665C15.1333 11.261 15.4619 10.9332 15.8667 10.9332Z" fill="currentColor"/>
</svg>
