<svg xmlns="http://www.w3.org/2000/svg" width="18" height="18" fill="none" viewBox="0 0 18 18">
    <path fill="currentColor"  d="M3.25 0C1.464 0 0 1.464 0 3.25v11.5C0 16.536 1.464 18 3.25 18h11.5c1.786 0 3.25-1.464 3.25-3.25V3.25C18 1.464 16.536 0 14.75 0H3.25zm0 1.5h11.5c.975 0 1.75.775 1.75 1.75V10h-4.54c-.199 0-.39.079-.53.22-.141.14-.22.331-.22.53 0 .803-.29 1.32-.706 1.688-.417.367-.991.562-1.504.562s-1.087-.195-1.504-.563c-.417-.367-.706-.884-.706-1.687 0-.199-.079-.39-.22-.53-.14-.141-.331-.22-.53-.22H1.5V3.25c0-.975.775-1.75 1.75-1.75zm-1.75 10h3.947c.166.838.506 1.577 1.057 2.063.716.632 1.622.937 2.496.937.874 0 1.78-.305 2.496-.938.55-.485.891-1.224 1.057-2.062H16.5v3.25c0 .975-.775 1.75-1.75 1.75H3.25c-.975 0-1.75-.775-1.75-1.75V11.5z"/>
</svg>
