<svg width="15" height="15" viewBox="0 0 15 15" fill="none" xmlns="http://www.w3.org/2000/svg">
<path d="M7.49976 0C3.36439 0 -0.000244141 3.36463 -0.000244141 7.5C-0.000244141 11.6354 3.36439 15 7.49976 15C11.6351 15 14.9998 11.6354 14.9998 7.5C14.9998 3.36463 11.6351 0 7.49976 0ZM7.49976 1.15385C11.0109 1.15385 13.8459 3.98888 13.8459 7.5C13.8459 11.0111 11.0109 13.8462 7.49976 13.8462C3.98864 13.8462 1.1536 11.0111 1.1536 7.5C1.1536 3.98888 3.98864 1.15385 7.49976 1.15385ZM6.92283 4.03846V5.19231H8.07668V4.03846H6.92283ZM6.92283 6.34615V10.9615H8.07668V6.34615H6.92283Z" fill="#465669"/>
</svg>
