<svg width="22" height="22" viewBox="0 0 22 22" fill="none" xmlns="http://www.w3.org/2000/svg">
<path d="M17.5387 0.919922C19.427 0.919922 20.9703 2.39765 21.0745 4.2598L21.08 4.46073L21.0794 17.5391C21.0792 19.4946 19.4937 21.0799 17.5379 21.0799H4.46146C2.57305 21.0799 1.02984 19.6022 0.925645 17.74L0.920044 17.5391L0.920698 4.46075C0.920927 2.50525 2.50637 0.919922 4.46211 0.919922H17.5387ZM10.182 8.54653L2.55451 8.54762L2.55462 17.539L2.56245 17.7141C2.65083 18.6851 3.46726 19.4456 4.4614 19.4456L10.182 19.4449V8.54653ZM19.444 15.0836L11.8165 15.0846V19.4449L17.5378 19.4456C18.5911 19.4456 19.4448 18.5919 19.4449 17.5389L19.444 15.0836ZM17.5387 2.55419L11.8165 2.5531V13.4504L19.444 13.4493L19.4455 4.46081L19.4376 4.28569C19.3492 3.31472 18.5329 2.55419 17.5387 2.55419ZM10.182 2.5531L4.46219 2.55419L4.30583 2.56052C3.32582 2.64014 2.55529 3.46055 2.55517 4.46088L2.55451 6.91334L10.182 6.91225V2.5531Z" fill="#465669"/>
</svg>
