<svg xmlns="http://www.w3.org/2000/svg" width="27" height="18" fill="none" viewBox="0 0 27 18">
    <path fill="currentColor" d="M13.5 0c-.256 0-.501.1-.682.277-.18.178-.282.42-.282.67 0 .252.101.493.282.67.181.178.426.278.682.278.256 0 .501-.1.682-.278.18-.177.282-.418.282-.67 0-.25-.101-.492-.282-.67C14 .1 13.756 0 13.5 0zM9.643.947c-.256 0-.501.1-.682.278-.18.178-.282.418-.282.67 0 .251.101.492.282.67.18.177.426.277.682.277.256 0 .5-.1.682-.277.18-.178.282-.419.282-.67 0-.252-.101-.492-.282-.67-.181-.178-.426-.278-.682-.278zm7.714 0c-.256 0-.5.1-.682.278-.18.178-.282.418-.282.67 0 .251.101.492.282.67.181.177.426.277.682.277.256 0 .501-.1.682-.277.18-.178.282-.419.282-.67 0-.252-.101-.492-.282-.67-.18-.178-.426-.278-.682-.278zM6.75 3.79c-.256 0-.501.1-.682.278-.18.178-.282.419-.282.67 0 .251.101.492.282.67.181.177.426.277.682.277.256 0 .501-.1.682-.277.18-.178.282-.419.282-.67 0-.251-.101-.492-.282-.67-.181-.178-.426-.278-.682-.278zm6.75 0c-1.205 0-2.232.479-2.891 1.207-.659.728-.966 1.662-.966 2.583 0 .883.301 1.769.906 2.483-.702.288-1.35.675-1.93 1.142-.107-.585-.361-1.15-.786-1.62-.579-.639-1.485-1.058-2.53-1.058-1.044 0-1.95.42-2.529 1.059-.578.64-.845 1.454-.845 2.257 0 .75.287 1.493.79 2.111C1.14 14.762 0 16.215 0 18h1.929c0-1.517 1.442-2.842 3.375-2.842.253 0 .495.03.73.074-.149.586-.248 1.19-.248 1.82h1.928c0-3.15 2.58-5.684 5.786-5.684 3.207 0 5.786 2.534 5.786 5.685h1.928c0-.627-.218-1.186-.365-1.77.274-.06.547-.125.847-.125 1.933 0 3.375 1.325 3.375 2.842H27c0-1.785-1.14-3.238-2.72-4.047.504-.618.791-1.36.791-2.11 0-.803-.267-1.619-.845-2.258-.579-.64-1.485-1.059-2.53-1.059-1.044 0-1.95.42-2.529 1.059-.463.512-.591 1.166-.678 1.807-.618-.526-1.272-1.016-2.038-1.33.604-.714.906-1.6.906-2.483 0-.921-.307-1.855-.966-2.583-.659-.728-1.686-1.207-2.891-1.207zm6.75 0c-.256 0-.501.1-.682.278-.18.178-.282.419-.282.67 0 .251.101.492.282.67.181.177.426.277.682.277.256 0 .501-.1.682-.277.18-.178.282-.419.282-.67 0-.251-.101-.492-.282-.67-.181-.178-.426-.278-.682-.278zM13.5 5.684c.723 0 1.143.233 1.448.57.306.338.48.825.48 1.325s-.174.987-.48 1.325c-.305.337-.725.57-1.448.57s-1.143-.233-1.448-.57c-.306-.338-.48-.825-.48-1.325s.174-.987.48-1.325c.305-.337.725-.57 1.448-.57zm-8.196 4.737c.562 0 .861.173 1.086.422.225.249.36.617.36 1 0 .38-.135.75-.36.998-.225.249-.524.422-1.086.422-.563 0-.862-.173-1.087-.422-.225-.248-.36-.617-.36-.999s.135-.75.36-1c.225-.248.524-.42 1.087-.42zm16.392 0c.563 0 .862.173 1.087.422.225.249.36.617.36 1 0 .38-.135.75-.36.998-.225.249-.524.422-1.087.422-.562 0-.861-.173-1.086-.422-.225-.248-.36-.617-.36-.999s.135-.75.36-1c.225-.248.524-.42 1.086-.42z"/>
</svg>
