<svg width="16" height="16" viewBox="0 0 16 16" fill="none" xmlns="http://www.w3.org/2000/svg">
<path d="M10.1532 2.12003C9.74617 2.12003 9.36028 2.18697 8.99185 2.28357C8.27215 1.66512 7.27414 1.28003 6.1683 1.28003C4.17969 1.28003 2.53308 2.52008 2.24658 4.1376C2.23641 4.20013 2.24017 4.26411 2.25758 4.32504C2.27499 4.38597 2.30564 4.44236 2.34737 4.49026C2.38909 4.53816 2.44088 4.57639 2.49909 4.60226C2.55729 4.62814 2.6205 4.64103 2.68426 4.64003H4.62557C3.7716 5.94912 3.69707 7.54118 4.48681 8.66022C4.67525 8.92718 5.00431 8.85683 5.15391 8.70852L7.35105 6.52609C7.11715 8.02234 6.67365 9.42724 6.24971 10.52H5.70762C3.79539 10.52 2.24023 12.0651 2.24023 13.964C2.24058 14.1645 2.32093 14.3566 2.46366 14.4983C2.60639 14.64 2.79987 14.7198 3.00169 14.72H11.628C11.8298 14.7198 12.0233 14.64 12.166 14.4983C12.3088 14.3566 12.3891 14.1645 12.3895 13.964C12.3895 12.3313 11.2366 10.9663 9.69859 10.6143C9.95496 8.66363 9.81568 6.75342 9.64837 5.48003H13.637C13.7007 5.48103 13.7639 5.46814 13.8221 5.44226C13.8803 5.41639 13.9321 5.37816 13.9739 5.33026C14.0156 5.28236 14.0462 5.22597 14.0636 5.16504C14.0811 5.10411 14.0848 5.04013 14.0746 4.9776C13.7881 3.36034 12.1415 2.12003 10.1532 2.12003ZM11.5421 13.88H3.08759C3.1102 13.2046 3.39605 12.5643 3.88485 12.0942C4.37365 11.624 5.02718 11.3608 5.70762 11.36H8.92207C9.60251 11.3608 10.256 11.624 10.7448 12.0942C11.2336 12.5643 11.5195 13.2046 11.5421 13.88V13.88ZM8.85097 10.52H7.1523C7.62434 9.24769 7.96344 7.4535 8.13313 5.74988L8.40456 5.48003H8.79494C8.96039 6.70433 9.10602 8.60378 8.85097 10.52ZM8.05489 4.64003L4.94194 7.73123C4.44795 6.44498 5.15047 4.54553 6.87135 3.77588C6.92142 3.75431 6.96115 3.71434 6.98224 3.66434C7.00332 3.61434 7.00412 3.55818 6.98447 3.5076L6.82589 3.11622C6.81561 3.09003 6.80015 3.06615 6.78042 3.04601C6.76068 3.02586 6.73708 3.00986 6.711 2.99894C6.68492 2.98802 6.65691 2.98241 6.62861 2.98245C6.60031 2.98248 6.5723 2.98816 6.54625 2.99914C6.10272 3.19928 5.69495 3.46978 5.33892 3.80003H3.22714C3.66165 2.81487 4.83489 2.12003 6.1683 2.12003C7.0331 2.12003 7.83896 2.40353 8.43787 2.91855L8.77512 3.2073C9.06083 3.1338 9.60609 2.96003 10.1532 2.96003C11.4866 2.96003 12.6596 3.65513 13.0941 4.64003H8.05489Z" 
 fill="currentColor"
/>
</svg>
