<svg xmlns="http://www.w3.org/2000/svg" width="18" height="18" fill="none" viewBox="0 0 18 18">
    <path fill="currentColor" d="M15.469 9h-.563c-.074 0-.146.03-.199.082-.052.053-.082.125-.082.2v7.03c0 .15-.06.293-.165.398-.105.106-.248.165-.398.165H1.688c-.15 0-.293-.06-.398-.165-.106-.105-.165-.248-.165-.398V3.938c0-.149.06-.292.165-.397.105-.106.248-.165.397-.165H8.72c.074 0 .146-.03.199-.082.052-.053.082-.125.082-.2v-.562c0-.074-.03-.146-.082-.199-.053-.052-.125-.082-.2-.082h-7.03c-.448 0-.877.178-1.194.494C.178 3.061 0 3.49 0 3.937v12.376c0 .447.178.876.494 1.193.317.316.746.494 1.194.494h12.374c.448 0 .877-.178 1.194-.494.316-.317.494-.746.494-1.194v-7.03c0-.075-.03-.147-.082-.2-.053-.052-.125-.082-.2-.082zm2.11-9l-4.782.012c-.112 0-.22.044-.298.124-.08.079-.124.186-.124.298v.351c0 .112.044.22.124.299.079.079.186.123.298.123l3.164-.012.024.025L4.623 12.581c-.039.04-.07.086-.091.137-.022.051-.033.106-.033.162 0 .055.011.11.033.162.02.05.052.098.091.137l.2.199c.039.039.085.07.136.091.052.022.107.033.162.033.056 0 .11-.011.162-.033.051-.02.098-.052.137-.091L16.78 2.016l.025.024-.012 3.165c0 .111.044.219.123.298.08.079.187.123.299.123h.351c.112 0 .22-.044.299-.123.079-.08.123-.187.123-.298L18 .422c0-.112-.044-.22-.124-.298C17.797.044 17.69 0 17.578 0z"/>
</svg>
