<?xml version="1.0" encoding="UTF-8"?>
<svg id="Layer_1" data-name="Layer 1" xmlns="http://www.w3.org/2000/svg" xmlns:xlink="http://www.w3.org/1999/xlink" version="1.1" viewBox="0 0 40 39.92">
  <defs>
    <style>
      .cls-1 {
        fill: url(#linear-gradient);
        stroke-width: 0px;
      }
    </style>
    <linearGradient id="linear-gradient" x1="5.81" y1="30.91" x2="27.29" y2="9.43" gradientUnits="userSpaceOnUse">
      <stop offset="0" stop-color="#4372b8"/>
      <stop offset=".03" stop-color="#437dc0"/>
      <stop offset=".09" stop-color="#4392cf"/>
      <stop offset=".15" stop-color="#439ed8"/>
      <stop offset=".21" stop-color="#43a3db"/>
      <stop offset=".37" stop-color="#6890cb"/>
      <stop offset=".6" stop-color="#9b78b6"/>
      <stop offset=".74" stop-color="#bf74a1"/>
      <stop offset=".91" stop-color="#e3718c"/>
      <stop offset="1" stop-color="#f27085"/>
    </linearGradient>
  </defs>
  <path class="cls-1" d="M12.1,34.77c-1.09,0-1.99-.18-2.7-.54-.71-.36-1.27-.9-1.68-1.63-.41-.73-.72-1.64-.92-2.72-.26-1.22-.43-2.66-.53-4.34-.1-1.68-.14-3.56-.14-5.64,0-1.84.04-3.58.13-5.21s.26-3.07.52-4.32c.35-1.6.91-2.87,1.67-3.8.76-.94,1.92-1.4,3.47-1.4,2.56,0,4.96.3,7.19.91,2.23.61,4.25,1.42,6.06,2.45,1.81,1.02,3.36,2.18,4.67,3.46,1.3,1.28,2.3,2.61,3,3.98.7,1.38,1.04,2.7,1.04,3.98,0,1.54-.34,3.03-1.01,4.49-.67,1.46-1.64,2.81-2.9,4.07-1.26,1.26-2.79,2.35-4.57,3.29-1.78.94-3.79,1.67-6.02,2.2-2.23.53-4.65.79-7.26.79ZM13.93,30.42c2,0,3.8-.22,5.41-.65,1.61-.43,3.02-1.01,4.25-1.74,1.22-.73,2.25-1.56,3.07-2.5.82-.94,1.44-1.91,1.86-2.93.42-1.02.62-2,.62-2.96,0-.85-.25-1.74-.76-2.68-.5-.94-1.22-1.86-2.16-2.76-.94-.9-2.06-1.72-3.37-2.45-1.31-.73-2.8-1.31-4.45-1.75-1.66-.44-3.44-.66-5.36-.66-.5,0-.9.23-1.2.68-.3.46-.54,1.08-.7,1.88-.14.74-.26,1.58-.35,2.53s-.13,1.96-.13,3.01c0,2.43.04,4.5.13,6.22.09,1.71.26,3.1.52,4.15.45,1.73,1.32,2.59,2.62,2.59Z"/>
</svg>