<svg xmlns="http://www.w3.org/2000/svg" xmlns:xlink="http://www.w3.org/1999/xlink" version="1.1" width="500.76517" height="500.76738" viewBox="464.45558,138.80124,500.76517,500.76738"><defs><clipPath id="clip-1"><rect x="-1308.62489" y="932.04768" transform="rotate(-91.04566) scale(0.49529,0.49534) skewX(0.00583)" width="993" height="993" id="clip-1" fill="none"/></clipPath><clipPath id="clip-2"><rect x="-1322.62489" y="932.04768" transform="rotate(-91.04566) scale(0.49529,0.49534) skewX(0.00583)" width="993" height="993" id="clip-2" fill="none"/></clipPath><clipPath id="clip-3"><rect x="-1176.15489" y="1078.51768" transform="rotate(-91.04566) scale(0.49529,0.49534) skewX(0.00583)" width="700.05" height="700.05" id="clip-3" fill="none"/></clipPath><clipPath id="clip-4"><path d="M795.22676,480.63287c-10.57527,2.82453 -24.48999,4.81869 -41.7393,5.97741c-17.23436,1.16341 -37.98291,1.96529 -62.23566,2.41044c-10.81642,0.19852 -21.1304,-0.03324 -30.94701,-0.70015c-9.8066,-0.66215 -18.45218,-1.77162 -25.95157,-3.32816c-8.42057,-1.53963 -14.99443,-3.96024 -19.7214,-7.25193c-4.71715,-3.29683 -7.14702,-7.76508 -7.24997,-13.40551c-0.36001,-19.72414 1.54827,-38.13258 5.71005,-55.2201c4.17673,-17.08285 9.86583,-32.46459 17.07262,-46.12552c7.22154,-13.66616 15.35495,-25.41709 24.41489,-35.26298c9.05993,-9.84589 18.3401,-17.39729 27.85553,-22.64457c9.51535,-5.25223 18.56704,-7.94972 27.13994,-8.10707c9.70209,-0.17807 19.77056,1.80191 30.20033,5.93511c10.42978,4.13319 20.48701,10.3835 30.15186,18.75132c9.67503,8.38249 18.36158,18.79434 26.04982,31.24067c7.68842,12.45625 13.92283,26.95039 18.70843,43.49722c4.78064,16.5469 7.3497,35.15554 7.72696,55.82552c0.25876,13.90535 -8.80309,23.37479 -27.18555,28.40832M543.25784,489.23039c1.08174,18.55172 7.04993,32.57518 17.90465,42.07538c11.65557,10.21865 27.60551,17.4011 47.82989,21.5378c15.1786,2.92152 32.5132,4.80779 52.02877,5.66821c19.52565,0.87016 40.3871,1.09657 62.57463,0.68934c22.20239,-0.4075 42.28953,-1.34587 60.27162,-2.80041c17.9919,-1.45967 33.67216,-3.62493 47.04564,-6.50082c13.39511,-2.50476 24.52032,-6.41435 33.37516,-11.75353c8.86493,-5.32946 15.41066,-12.59289 19.62739,-21.78515c4.20681,-9.1921 6.19054,-21.02335 5.92644,-35.49333c-0.55551,-30.43548 -4.05731,-58.88988 -10.51054,-85.37302c-6.45305,-26.47324 -15.29152,-50.36637 -26.50076,-71.68957c-11.20897,-21.30836 -24.18498,-39.54269 -38.92769,-54.68318c-14.74261,-15.13554 -30.66911,-26.73219 -47.79927,-34.7896c-17.1299,-8.04256 -34.64924,-11.90692 -52.55774,-11.57822c-15.48669,0.28424 -31.30313,4.76044 -47.47928,13.41431c-16.17597,8.66376 -31.71733,20.88257 -46.64367,36.66667c-14.91654,15.77898 -28.19925,34.48536 -39.84299,56.12893c-11.63384,21.64339 -20.76259,45.63348 -27.37636,71.97006c-6.01728,24.00231 -9.07614,49.4018 -9.16201,76.18328l0.22108,12.11279z" id="clip-4" fill="none"/></clipPath><linearGradient x1="867.08976" y1="537.78596" x2="606.31224" y2="286.40844" gradientUnits="userSpaceOnUse" id="color-1"><stop offset="0" stop-color="#6366f1"/><stop offset="0.0254" stop-color="#5074ef"/><stop offset="0.0734" stop-color="#3389ed"/><stop offset="0.121" stop-color="#1f99eb"/><stop offset="0.1679" stop-color="#12a2e9"/><stop offset="0.2128" stop-color="#0ea5e9"/><stop offset="0.481" stop-color="#8d8ef7"/><stop offset="0.6005" stop-color="#c084fc"/><stop offset="0.6238" stop-color="#c483f4"/><stop offset="0.8007" stop-color="#e279b8"/><stop offset="0.9311" stop-color="#f47393"/><stop offset="1" stop-color="#fb7185"/></linearGradient></defs><g fill="none" fill-rule="nonzero" stroke="none" stroke-width="1" stroke-linecap="none" stroke-linejoin="none" stroke-miterlimit="10" stroke-dasharray="" stroke-dashoffset="0" font-family="none" font-weight="none" font-size="none" text-anchor="none" style="mix-blend-mode: normal"><g><g id="Group 1"><g clip-path="url(#clip-1)" id="Group 1" stroke="none" stroke-linecap="butt" stroke-linejoin="miter"><g id="Group 1"><g id="Group 1"><g id="Group 1"><g clip-path="url(#clip-2)" id="Group 1"><path d="M471.40435,528.19265c1.53549,26.31085 10.00369,46.2032 25.39974,59.68211c16.53423,14.49334 39.15786,24.67911 67.84595,30.54785c21.53239,4.14242 46.11952,6.81695 73.80138,8.04269c27.69689,1.23537 57.28443,1.55427 88.76299,0.97651c31.49342,-0.57803 59.98569,-1.90844 85.49206,-3.97168c25.52104,-2.07343 47.75908,-5.14174 66.73366,-9.22016c18.99902,-3.55378 34.78108,-9.09936 47.34057,-16.67132c12.57454,-7.56233 21.85406,-17.86304 27.83868,-30.89719c5.96471,-13.03874 8.7796,-29.81918 8.40495,-50.34555c-0.78799,-43.17223 -5.76052,-83.5332 -14.90809,-121.10288c-9.15214,-37.54978 -21.69071,-71.44597 -37.59588,-101.68888c-15.89994,-30.22816 -34.30621,-56.0857 -55.21378,-77.56777c-20.91225,-21.46712 -43.50659,-37.91991 -67.80266,-49.34809c-24.30056,-11.40333 -49.15199,-16.88675 -74.55374,-16.42052c-21.96466,0.40314 -44.40536,6.75454 -67.34729,19.02992c-22.94166,12.29023 -44.98874,29.62181 -66.16569,52.01004c-21.15724,22.38292 -39.99945,48.91421 -56.51626,79.61846c-16.50205,30.69902 -29.45063,64.72612 -38.83564,102.09106c-8.53403,34.04516 -12.87533,70.06917 -12.99439,108.06158z" id="Path 1" fill="#1d1b4a"/></g></g></g><g id="Group 1"><g id="Group 1"><g clip-path="url(#clip-3)" id="Group 1"><g clip-path="url(#clip-4)" id="Group 1"><path d="M721.07319,732.59856l-347.82289,-335.28038l335.35477,-347.82436l347.81803,335.28543z" id="Path 1" fill="url(#color-1)"/></g></g></g></g></g></g><path d="M649.14361,389.18493c0,-8.09648 29.41246,-14.65997 65.69455,-14.65997c36.2821,0 65.69455,6.56349 65.69455,14.65997c0,8.09648 -29.41246,14.65997 -65.69455,14.65997c-36.2821,0 -65.69455,-6.56349 -65.69455,-14.65997z" id="Path 1" fill="#15a3e9" stroke="#000000" stroke-linecap="round" stroke-linejoin="round"/></g></g><path d="M649.14361,389.18493c0,-8.09648 29.41246,-14.65997 65.69455,-14.65997c36.2821,0 65.69455,6.56349 65.69455,14.65997c0,8.09648 -29.41246,14.65997 -65.69455,14.65997c-36.2821,0 -65.69455,-6.56349 -65.69455,-14.65997z" id="Path 1" fill="#15a3e9" stroke="#000000" stroke-linecap="round" stroke-linejoin="round"/><path d="M507,257.34119l-11.56485,12.32101l4.88788,-16.17595l-16.45273,-3.85495l16.45273,-3.85495l-4.88788,-16.17595l11.56485,12.32101l11.56485,-12.32101l-4.88788,16.17595l16.45273,3.85495l-16.45273,3.85495l4.88788,16.17595z" id="Path 1" fill="#f0749b" stroke="#000000" stroke-linecap="round" stroke-linejoin="round"/><path d="M555,165.01911l16.5,-17.57884l-6.97372,23.07884l23.47372,5.5l-23.47372,5.5l6.97372,23.07884l-16.5,-17.57884l-16.5,17.57884l6.97372,-23.07884l-23.47372,-5.5l23.47372,-5.5l-6.97372,-23.07884z" id="Path 1" fill="#15a3e9" stroke="#000000" stroke-linecap="round" stroke-linejoin="round"/><path d="M927.30755,187.82217l23.69245,-4.46467l-19.24316,14.52468l15.71275,18.28593l-22.20032,-9.40272l-7.97971,22.7506l-2.95716,-23.92741l-23.69245,4.46467l19.24316,-14.52468l-15.71275,-18.28593l22.20032,9.40272l7.97971,-22.7506z" id="Path 1" fill="#f0749b" stroke="#000000" stroke-linecap="round" stroke-linejoin="round"/><path d="M932,284.54345l9.5,10.12115l-4.01517,-13.28782l13.51517,-3.16667l-13.51517,-3.16667l4.01517,-13.28782l-9.5,10.12115l-9.5,-10.12115l4.01517,13.28782l-13.51517,3.16667l13.51517,3.16667l-4.01517,13.28782z" id="Path 1" fill="#f0749b" stroke="#000000" stroke-linecap="round" stroke-linejoin="round"/><path d="M854,182.35244l9.5,10.12115l-4.01517,-13.28782l13.51517,-3.16667l-13.51517,-3.16667l4.01517,-13.28782l-9.5,10.12115l-9.5,-10.12115l4.01517,13.28782l-13.51517,3.16667l13.51517,3.16667l-4.01517,13.28782z" id="Path 1" fill="#15a3e9" stroke="#000000" stroke-linecap="round" stroke-linejoin="round"/></g></svg>
