<?xml version="1.0" encoding="UTF-8"?>
<svg id="Layer_1" data-name="Layer 1" xmlns="http://www.w3.org/2000/svg" xmlns:xlink="http://www.w3.org/1999/xlink" version="1.1" viewBox="0 0 1024 1024">
  <defs>
    <style>
      .cls-1 {
      fill: url(#linear-gradient);
      stroke-width: 0px;
      }
    </style>
    <linearGradient id="linear-gradient" x1="273.82" y1="999.43" x2="996.32" y2="276.94" gradientTransform="translate(-235.02 -116.16)" gradientUnits="userSpaceOnUse">
      <stop offset="0" stop-color="#6366f1"/>
      <stop offset=".03" stop-color="#5073ef"/>
      <stop offset=".07" stop-color="#3389ec"/>
      <stop offset=".12" stop-color="#1e98ea"/>
      <stop offset=".17" stop-color="#12a1e9"/>
      <stop offset=".21" stop-color="#0ea5e9"/>
      <stop offset=".48" stop-color="#8c8df6"/>
      <stop offset=".6" stop-color="#c084fc"/>
      <stop offset=".62" stop-color="#c482f3"/>
      <stop offset=".8" stop-color="#e179b8"/>
      <stop offset=".93" stop-color="#f47393"/>
      <stop offset="1" stop-color="#fb7185"/>
    </linearGradient>
  </defs>
  <path class="cls-1" d="M250.33,1003.08c-40.69,0-73.83-6.22-99.44-18.6-25.61-12.41-45.68-31.3-60.21-56.68-14.54-25.34-24.95-57.03-31.3-95.07-7.4-38.01-12.67-82.5-15.85-133.5-3.16-50.97-4.76-107.87-4.76-170.74,0-62.83,1.71-121.86,5.16-177.09,3.43-55.19,9.62-104.16,18.62-146.98,12.67-57.03,33.67-101.81,62.99-134.27,29.31-32.5,73-48.75,131.12-48.75,83.45,0,162.03,10.06,235.71,30.11,73.68,20.08,140.63,47.17,200.85,81.21,60.22,34.08,112.11,72.63,155.68,115.67,43.59,43.07,77.12,87.69,100.63,133.92,23.49,46.23,35.25,91.24,35.25,135.08,0,50.71-11.77,100.1-35.25,148.17-23.52,48.07-56.93,92.56-100.23,133.5-43.31,40.94-95.22,76.73-155.68,107.36-60.5,30.63-128.1,54.42-202.83,71.31-74.76,16.89-154.91,25.34-240.47,25.34ZM334.31,813.71c58.09,0,110.53-6.32,157.28-18.99,46.75-12.7,87.8-29.6,123.2-50.71,35.38-21.12,65.09-45.17,89.14-72.12,24.02-26.92,42.1-55.06,54.26-84.37,12.15-29.31,18.23-57.71,18.23-85.18,0-24.28-7.12-50.03-21.39-77.24-14.27-27.21-35-53.87-62.2-80.02-27.21-26.15-59.82-49.78-97.84-70.93-38.03-21.12-80.95-38.01-128.75-50.71-47.81-12.67-99.44-19.02-154.89-19.02-15.85,0-28.53,6.64-38.04,19.83-9.49,13.22-16.64,31.69-21.39,55.45-4.76,21.15-8.32,45.55-10.69,73.28-2.39,27.76-3.56,56.93-3.56,87.56,0,68.67,1.18,127.44,3.56,176.28,2.37,48.87,7.25,88.37,14.65,118.45,13.2,52.29,39.35,78.44,78.44,78.44Z"/>
</svg>
