<svg xmlns="http://www.w3.org/2000/svg" width="14" height="13" fill="none" viewBox="0 0 14 13">
    <path fill="#91A0B4" d="M2.917 0c-.535 0-1.01.224-1.312.568-.301.343-.438.778-.438 1.205 0 .426.137.861.438 1.205.302.343.777.567 1.312.567.534 0 1.01-.224 1.311-.567.301-.344.439-.779.439-1.205 0-.427-.138-.862-.439-1.205C3.927.224 3.451 0 2.917 0zM7 0c-.535 0-1.01.224-1.311.568-.302.343-.439.778-.439 1.205 0 .426.137.861.439 1.205.301.343.776.567 1.311.567.535 0 1.01-.224 1.311-.567.302-.344.439-.779.439-1.205 0-.427-.137-.862-.439-1.205C8.01.224 7.535 0 7 0zm4.083 0c-.534 0-1.01.224-1.311.568-.301.343-.439.778-.439 1.205 0 .426.138.861.439 1.205.301.343.777.567 1.311.567.535 0 1.01-.224 1.312-.567.301-.344.438-.779.438-1.205 0-.427-.137-.862-.438-1.205C12.093.224 11.618 0 11.083 0zM2.917 1.182c.243 0 .35.07.438.17.088.1.145.257.145.42 0 .165-.057.321-.145.42-.087.1-.195.172-.438.172s-.351-.071-.439-.171c-.088-.1-.145-.256-.145-.42 0-.164.057-.32.145-.42.088-.1.196-.171.439-.171zm4.083 0c.243 0 .351.07.439.17.087.1.144.257.144.42 0 .165-.057.321-.144.42-.088.1-.196.172-.439.172s-.351-.071-.439-.171c-.087-.1-.144-.256-.144-.42 0-.164.057-.32.144-.42.088-.1.196-.171.439-.171zm4.083 0c.243 0 .351.07.439.17.088.1.145.257.145.42 0 .165-.057.321-.145.42-.088.1-.196.172-.439.172s-.35-.071-.438-.171c-.088-.1-.145-.256-.145-.42 0-.164.057-.32.145-.42.087-.1.195-.171.438-.171zm-8.75 2.954C1.046 4.136 0 5.196 0 6.5v2.51l1.167.591V13h1.166V8.872L1.167 8.28V6.5c0-.652.523-1.182 1.166-1.182h.587c.154-.439.392-.831.692-1.17-.038-.004-.074-.012-.112-.012H2.333zm3.879 0c-1.173 0-2.17.893-2.316 2.07l-.39 2.568 1.154.18.393-2.592.001-.009c.073-.595.565-1.035 1.158-1.035h1.371c.652 0 1.167.522 1.167 1.182v1.78l-1.167.592V13H8.75V9.602l1.167-.59V6.5c0-1.298-1.052-2.364-2.334-2.364H6.212zm4.288 0c-.099 0-.193.018-.288.03.29.335.518.724.667 1.152h.788c.643 0 1.166.53 1.166 1.182v1.78l-1.166.592V13h1.166V9.601L14 9.011V6.5c0-1.304-1.046-2.364-2.333-2.364H10.5zm-7 5.319v2.363h1.167V9.455H3.5zm1.75 0V13h1.167V9.455H5.25z"/>
</svg>
