<svg width="24" height="24" viewBox="0 0 24 24" fill="none" xmlns="http://www.w3.org/2000/svg">
<rect width="24" height="24" fill="white" fill-opacity="0.01"/>
<path d="M19.728 11.1085C21.2529 11.1085 22.488 9.84273 22.488 8.27995C22.488 6.71716 21.2529 5.45137 19.728 5.45137C18.2031 5.45137 16.968 6.71716 16.968 8.27995C16.968 9.84273 18.2031 11.1085 19.728 11.1085ZM19.728 6.5828C20.6422 6.5828 21.384 7.34298 21.384 8.27995C21.384 9.21691 20.6422 9.97709 19.728 9.97709C18.8137 9.97709 18.072 9.21691 18.072 8.27995C18.072 7.34298 18.8137 6.5828 19.728 6.5828ZM12 12.2399C14.1355 12.2399 15.864 10.4686 15.864 8.27995C15.864 6.09134 14.1355 4.31995 12 4.31995C9.86445 4.31995 8.136 6.09134 8.136 8.27995C8.136 10.4686 9.86445 12.2399 12 12.2399ZM12 5.45137C13.5214 5.45137 14.76 6.7207 14.76 8.27995C14.76 9.8392 13.5214 11.1085 12 11.1085C10.4785 11.1085 9.24 9.8392 9.24 8.27995C9.24 6.7207 10.4785 5.45137 12 5.45137ZM20.418 12.2399H19.038C18.5136 12.2399 18.0271 12.4097 17.62 12.6961C17.9443 12.9223 18.2376 13.1875 18.4963 13.4881C18.6654 13.4138 18.8482 13.3714 19.038 13.3714H20.418C21.2529 13.3714 21.936 14.1316 21.936 15.0685C21.936 15.3797 22.1844 15.6342 22.488 15.6342C22.7916 15.6342 23.04 15.3797 23.04 15.0685C23.04 13.5093 21.8635 12.2399 20.418 12.2399V12.2399ZM4.272 11.1085C5.7969 11.1085 7.032 9.84273 7.032 8.27995C7.032 6.71716 5.7969 5.45137 4.272 5.45137C2.7471 5.45137 1.512 6.71716 1.512 8.27995C1.512 9.84273 2.7471 11.1085 4.272 11.1085ZM4.272 6.5828C5.18625 6.5828 5.928 7.34298 5.928 8.27995C5.928 9.21691 5.18625 9.97709 4.272 9.97709C3.35775 9.97709 2.616 9.21691 2.616 8.27995C2.616 7.34298 3.35775 6.5828 4.272 6.5828ZM14.7634 12.9471C13.6111 12.9471 13.3248 13.3714 12 13.3714C10.6752 13.3714 10.3888 12.9471 9.23655 12.9471C7.9842 12.9471 6.76635 13.5199 6.0522 14.6053C5.6244 15.2559 5.376 16.0373 5.376 16.8788V18.4628C5.376 19.3998 6.11775 20.1599 7.032 20.1599H16.968C17.8822 20.1599 18.624 19.3998 18.624 18.4628V16.8788C18.624 16.0373 18.3756 15.2559 17.9478 14.6053C17.2336 13.5199 16.0158 12.9471 14.7634 12.9471V12.9471ZM17.52 18.4628C17.52 18.7739 17.2716 19.0285 16.968 19.0285H7.032C6.7284 19.0285 6.48 18.7739 6.48 18.4628V16.8788C6.48 16.2919 6.64905 15.7226 6.96645 15.2382C7.44255 14.5134 8.29125 14.0785 9.2331 14.0785C10.1784 14.0785 10.5165 14.5028 12 14.5028C13.4835 14.5028 13.8216 14.0785 14.7634 14.0785C15.7053 14.0785 16.554 14.5134 17.0301 15.2382C17.3475 15.7226 17.5165 16.2919 17.5165 16.8788V18.4628H17.52ZM6.37995 12.6961C5.9694 12.4097 5.48295 12.2399 4.962 12.2399H3.582C2.13645 12.2399 0.96 13.5093 0.96 15.0685C0.96 15.3797 1.2084 15.6342 1.512 15.6342C1.8156 15.6342 2.064 15.3797 2.064 15.0685C2.064 14.1316 2.7471 13.3714 3.582 13.3714H4.962C5.15175 13.3714 5.3346 13.4138 5.50365 13.4881C5.7624 13.1875 6.0591 12.9223 6.37995 12.6961V12.6961Z" fill="currentColor"/>
</svg>

