<svg width="22" height="22" viewBox="0 0 22 22" fill="none" xmlns="http://www.w3.org/2000/svg">
<rect width="22" height="22" fill="white" fill-opacity="0.01"/>
<path d="M15.5833 7.33342H17.4167C18.4292 7.33342 19.25 8.15423 19.25 9.16675V14.6667C19.25 15.6793 18.4292 16.5001 17.4167 16.5001H15.5833V20.1667L11.9167 16.5001H8.25C7.74374 16.5001 7.28541 16.2949 6.95364 15.9631M6.95364 15.9631L10.0833 12.8334H13.75C14.7625 12.8334 15.5833 12.0126 15.5833 11.0001V5.50008C15.5833 4.48756 14.7625 3.66675 13.75 3.66675H4.58333C3.57081 3.66675 2.75 4.48756 2.75 5.50008V11.0001C2.75 12.0126 3.57081 12.8334 4.58333 12.8334H6.41667V16.5001L6.95364 15.9631Z" stroke="#6B7280" stroke-width="2" stroke-linecap="round" stroke-linejoin="round"/>
</svg>
