<svg width="20" height="14" viewBox="0 0 20 14" fill="none" xmlns="http://www.w3.org/2000/svg">
<path d="M10.2084 0.916748C6.87169 0.916748 4.16669 3.62175 4.16669 6.95842C4.16669 10.2951 6.87169 13.0001 10.2084 13.0001C13.545 13.0001 16.25 10.2951 16.25 6.95842C16.25 3.62175 13.545 0.916748 10.2084 0.916748Z" fill="url(#paint0_linear)"/>
<path d="M6.73125 4.23826C6.18125 4.02784 5.58417 3.91284 4.96042 3.91284C2.22083 3.91284 0 6.13367 0 8.87326C0 9.90492 0.315417 10.8624 0.854167 11.6558C0.879583 11.6449 7.70625 8.78534 11.8567 7.11909C9.56333 5.73659 7.45958 4.51701 6.73125 4.23826Z" fill="url(#paint1_linear)"/>
<path d="M20 9.82204C20 7.60662 18.2042 5.81079 15.9888 5.81079C15.5734 5.81079 15.1729 5.87412 14.7959 5.99121C14.3809 6.12037 13.2742 6.55037 11.8567 7.11954C15.3471 9.22371 19.2692 11.7012 19.4617 11.8229C19.8021 11.2333 20 10.5512 20 9.82204Z" fill="url(#paint2_linear)"/>
<path d="M19.4621 11.823C19.2692 11.7013 15.3475 9.2238 11.8571 7.11963C7.70627 8.78546 0.879604 11.645 0.854187 11.6559C1.02794 11.9117 2.3446 13.8334 4.96002 13.8334C7.05585 13.8334 11.7 13.8334 15.9409 13.8334C18.1954 13.8334 19.2284 12.2275 19.4621 11.823Z" fill="url(#paint3_linear)"/>
<defs>
<linearGradient id="paint0_linear" x1="10.2084" y1="0.930081" x2="10.2084" y2="7.52175" gradientUnits="userSpaceOnUse">
<stop stop-color="#0571BF"/>
<stop offset="1" stop-color="#0268BA"/>
</linearGradient>
<linearGradient id="paint1_linear" x1="5.92833" y1="3.92451" x2="5.92833" y2="11.6503" gradientUnits="userSpaceOnUse">
<stop stop-color="#1684DA"/>
<stop offset="1" stop-color="#107CD4"/>
</linearGradient>
<linearGradient id="paint2_linear" x1="15.9284" y1="5.81079" x2="15.9284" y2="12.207" gradientUnits="userSpaceOnUse">
<stop stop-color="#138CDD"/>
<stop offset="1" stop-color="#0C7DD4"/>
</linearGradient>
<linearGradient id="paint3_linear" x1="7.13752" y1="8.03463" x2="12.9771" y2="15.2221" gradientUnits="userSpaceOnUse">
<stop stop-color="#27A7EA"/>
<stop offset="1" stop-color="#1C94E3"/>
</linearGradient>
</defs>
</svg>
