<svg width="24" height="24" viewBox="0 0 24 24" fill="none" xmlns="http://www.w3.org/2000/svg">
<path d="M4.53348 2.3999C3.36755 2.3999 2.40015 3.3673 2.40015 4.53324V15.1999V17.3332V19.4666C2.40015 20.6325 3.36755 21.5999 4.53348 21.5999H10.9335C12.0994 21.5999 13.0668 20.6325 13.0668 19.4666V17.3332H19.4668C20.6327 17.3332 21.6001 16.3658 21.6001 15.1999V4.53324C21.6001 3.3673 20.6327 2.3999 19.4668 2.3999H4.53348ZM4.53348 4.53324H19.4668V6.66657H4.53348V4.53324ZM4.53348 8.7999H6.66681V10.9332H4.53348V8.7999ZM8.80015 8.7999H10.9335V10.9332H8.80015V8.7999ZM13.0668 8.7999H15.2001V10.9332H13.0668V8.7999ZM13.0668 13.0666H15.2001V15.1999H13.0668V13.0666ZM17.3335 13.0666H19.4668V15.1999H17.3335V13.0666ZM4.53348 17.3332H6.66681V19.4666H4.53348V17.3332ZM8.80015 17.3332H10.9335V19.4666H8.80015V17.3332Z" fill="currentColor"/>
<rect x="17.3457" y="8.78516" width="2.16823" height="2.16823" fill="#465669"/>
<rect x="8.7478" y="13.1216" width="2.16822" height="2.16823" fill="#465669"/>
<rect x="4.48608" y="13.1216" width="2.16822" height="2.16823" fill="#465669"/>
</svg>
