<svg xmlns="http://www.w3.org/2000/svg" width="14" height="15" fill="none" viewBox="0 0 14 15">
    <path fill="currentColor" d="M1.615 0C.73 0 0 .726 0 1.607v9.643c0 .881.73 1.607 1.615 1.607h3.513C5.999 14.147 7.479 15 9.154 15 11.824 15 14 12.835 14 10.179c0-2.091-1.355-3.86-3.23-4.527V3.528L7.222 0H1.615zm0 1.071h4.847v3.215h3.23v1.126c-.179-.02-.354-.055-.538-.055-2.67 0-4.846 2.165-4.846 4.822 0 .565.115 1.102.296 1.607H1.615c-.303 0-.538-.234-.538-.536V1.607c0-.301.235-.536.538-.536zm5.923.758l1.393 1.385H7.538V1.83zm1.616 4.6c2.088 0 3.77 1.672 3.77 3.75 0 2.077-1.682 3.75-3.77 3.75s-3.77-1.673-3.77-3.75c0-2.078 1.682-3.75 3.77-3.75zM8.615 7.5v2.143H6.462v1.071h2.153v2.143h1.077v-2.143h2.154V9.643H9.692V7.5H8.615z"/>
</svg>
