<svg width="12" height="12" viewBox="0 0 12 12" fill="none" xmlns="http://www.w3.org/2000/svg">
<path  
    fill="currentColor" 
    d="M0.959995 0.959961C0.499526 0.959961 0.119995 1.33949 0.119995 1.79996V10.2C0.119995 10.6604 0.499526 11.04 0.959995 11.04H11.04C11.5005 11.04 11.88 10.6604 11.88 10.2V1.79996C11.88 1.33949 11.5005 0.959961 11.04 0.959961H0.959995ZM0.959995 1.51996H11.04C11.1986 1.51996 11.32 1.64137 11.32 1.79996V2.63996H0.679995V1.79996C0.679995 1.64137 0.801401 1.51996 0.959995 1.51996ZM1.24 1.79996C1.08578 1.79996 0.959995 1.92574 0.959995 2.07996C0.959995 2.23418 1.08578 2.35996 1.24 2.35996C1.39421 2.35996 1.52 2.23418 1.52 2.07996C1.52 1.92574 1.39421 1.79996 1.24 1.79996ZM2.08 1.79996C1.92578 1.79996 1.8 1.92574 1.8 2.07996C1.8 2.23418 1.92578 2.35996 2.08 2.35996C2.23421 2.35996 2.36 2.23418 2.36 2.07996C2.36 1.92574 2.23421 1.79996 2.08 1.79996ZM2.92 1.79996C2.76578 1.79996 2.64 1.92574 2.64 2.07996C2.64 2.23418 2.76578 2.35996 2.92 2.35996C3.07421 2.35996 3.2 2.23418 3.2 2.07996C3.2 1.92574 3.07421 1.79996 2.92 1.79996ZM0.679995 3.19996H11.32V10.2C11.32 10.3586 11.1986 10.48 11.04 10.48H0.959995C0.801401 10.48 0.679995 10.3586 0.679995 10.2V3.19996ZM5.99562 4.31559C5.8414 4.31887 5.71781 4.44574 5.72 4.59996V6.55996H3.76C3.65937 6.55887 3.56531 6.61137 3.5139 6.69887C3.46359 6.78637 3.46359 6.89355 3.5139 6.98105C3.56531 7.06855 3.65937 7.12105 3.76 7.11996H5.72V9.07996C5.7189 9.18058 5.7714 9.27465 5.8589 9.32605C5.9464 9.37637 6.05359 9.37637 6.14109 9.32605C6.22859 9.27465 6.28109 9.18058 6.27999 9.07996V7.11996H8.24C8.34062 7.12105 8.43468 7.06855 8.48609 6.98105C8.5364 6.89355 8.5364 6.78637 8.48609 6.69887C8.43468 6.61137 8.34062 6.55887 8.24 6.55996H6.27999V4.59996C6.28109 4.52449 6.25156 4.45121 6.19796 4.39762C6.14437 4.34402 6.07109 4.31449 5.99562 4.31559Z" />
</svg>
