<svg width="18" height="18" viewBox="0 0 18 18" fill="none" xmlns="http://www.w3.org/2000/svg">
<path d="M6.49994 8.99994L8.16661 10.6666L11.4999 7.33327M5.52889 2.91414C6.12683 2.86643 6.69449 2.6313 7.15104 2.24223C8.21644 1.3343 9.78344 1.3343 10.8488 2.24223C11.3054 2.6313 11.873 2.86643 12.471 2.91414C13.8664 3.0255 14.9744 4.13353 15.0857 5.52889C15.1335 6.12683 15.3686 6.69449 15.7577 7.15104C16.6656 8.21644 16.6656 9.78343 15.7577 10.8488C15.3686 11.3054 15.1335 11.873 15.0857 12.471C14.9744 13.8664 13.8664 14.9744 12.471 15.0857C11.873 15.1334 11.3054 15.3686 10.8488 15.7576C9.78344 16.6656 8.21644 16.6656 7.15104 15.7576C6.69449 15.3686 6.12683 15.1334 5.52889 15.0857C4.13353 14.9744 3.0255 13.8664 2.91415 12.471C2.86643 11.873 2.6313 11.3054 2.24223 10.8488C1.3343 9.78343 1.3343 8.21644 2.24223 7.15104C2.6313 6.69449 2.86643 6.12683 2.91415 5.52889C3.0255 4.13353 4.13353 3.0255 5.52889 2.91414Z" stroke="currentColor" stroke-width="2" stroke-linecap="round" stroke-linejoin="round"/>
</svg>
