<svg xmlns="http://www.w3.org/2000/svg" width="13" height="15" fill="none" viewBox="0 0 13 15">
    <path fill="currentColor" d="M.264 0C.11.027-.002.154 0 .3v13.2c0 .165.146.3.325.3H1.3v.9c0 .165.146.3.325.3h11.05c.179 0 .325-.135.325-.3V1.5c0-.165-.146-.3-.325-.3H11.7V.3c0-.165-.146-.3-.325-.3H.265zM.65.6h10.4v12.6H.65V.6zM11.7 1.8h.65v12.6H1.95v-.6h9.425c.179 0 .325-.135.325-.3V1.8zM6.175 5.1v.6h2.133L5.85 7.969l-1.066-.985-.234-.206-.234.206-2.275 2.1.468.432L4.55 7.63l1.066.985.234.206.234-.206L8.775 6.13V8.1h.65v-3h-3.25z"/>
</svg>
