<svg width="22" height="22" viewBox="0 0 22 22" fill="none" xmlns="http://www.w3.org/2000/svg">
<path d="M7.3335 0H18.3335C19.0628 0 19.7623 0.289731 20.278 0.805456C20.7938 1.32118 21.0835 2.02065 21.0835 2.75V16.5C21.0835 17.2293 20.7938 17.9288 20.278 18.4445C19.7623 18.9603 19.0628 19.25 18.3335 19.25C18.3335 19.9793 18.0438 20.6788 17.528 21.1945C17.0123 21.7103 16.3128 22 15.5835 22H4.5835C3.85415 22 3.15468 21.7103 2.63895 21.1945C2.12323 20.6788 1.8335 19.9793 1.8335 19.25H3.2085C3.2085 19.6147 3.35336 19.9644 3.61122 20.2223C3.86909 20.4801 4.21882 20.625 4.5835 20.625H15.5835C15.9482 20.625 16.2979 20.4801 16.5558 20.2223C16.8136 19.9644 16.9585 19.6147 16.9585 19.25V5.5C16.9585 5.13533 16.8136 4.78559 16.5558 4.52773C16.2979 4.26987 15.9482 4.125 15.5835 4.125H4.5835C4.21882 4.125 3.86909 4.26987 3.61122 4.52773C3.35336 4.78559 3.2085 5.13533 3.2085 5.5H1.8335C1.8335 4.77065 2.12323 4.07118 2.63895 3.55546C3.15468 3.03973 3.85415 2.75 4.5835 2.75H15.5835C16.3128 2.75 17.0123 3.03973 17.528 3.55546C18.0438 4.07118 18.3335 4.77065 18.3335 5.5V17.875C18.6982 17.875 19.0479 17.7301 19.3058 17.4723C19.5636 17.2144 19.7085 16.8647 19.7085 16.5V2.75C19.7085 2.38533 19.5636 2.03559 19.3058 1.77773C19.0479 1.51987 18.6982 1.375 18.3335 1.375H7.3335C6.96882 1.375 6.61909 1.51987 6.36122 1.77773C6.10336 2.03559 5.9585 2.38533 5.9585 2.75H4.5835C4.5835 2.02065 4.87323 1.32118 5.38895 0.805456C5.90468 0.289731 6.60415 0 7.3335 0V0Z" fill="CurrentColor"/>
<path d="M1.375 8.70834V8.02084C1.375 7.83851 1.44743 7.66364 1.57636 7.53471C1.7053 7.40578 1.88016 7.33334 2.0625 7.33334C2.24484 7.33334 2.4197 7.40578 2.54864 7.53471C2.67757 7.66364 2.75 7.83851 2.75 8.02084V8.70834H3.4375C3.61984 8.70834 3.7947 8.78078 3.92364 8.90971C4.05257 9.03864 4.125 9.21351 4.125 9.39584C4.125 9.57818 4.05257 9.75305 3.92364 9.88198C3.7947 10.0109 3.61984 10.0833 3.4375 10.0833H0.6875C0.505164 10.0833 0.330295 10.0109 0.201364 9.88198C0.0724328 9.75305 0 9.57818 0 9.39584C0 9.21351 0.0724328 9.03864 0.201364 8.90971C0.330295 8.78078 0.505164 8.70834 0.6875 8.70834H1.375ZM1.375 12.8333V12.1458C1.375 11.9635 1.44743 11.7886 1.57636 11.6597C1.7053 11.5308 1.88016 11.4583 2.0625 11.4583C2.24484 11.4583 2.4197 11.5308 2.54864 11.6597C2.67757 11.7886 2.75 11.9635 2.75 12.1458V12.8333H3.4375C3.61984 12.8333 3.7947 12.9058 3.92364 13.0347C4.05257 13.1636 4.125 13.3385 4.125 13.5208C4.125 13.7032 4.05257 13.878 3.92364 14.007C3.7947 14.1359 3.61984 14.2083 3.4375 14.2083H0.6875C0.505164 14.2083 0.330295 14.1359 0.201364 14.007C0.0724328 13.878 0 13.7032 0 13.5208C0 13.3385 0.0724328 13.1636 0.201364 13.0347C0.330295 12.9058 0.505164 12.8333 0.6875 12.8333H1.375ZM1.375 16.2708V16.9583H0.6875C0.505164 16.9583 0.330295 17.0308 0.201364 17.1597C0.0724328 17.2886 0 17.4635 0 17.6458C0 17.8282 0.0724328 18.003 0.201364 18.132C0.330295 18.2609 0.505164 18.3333 0.6875 18.3333H3.4375C3.61984 18.3333 3.7947 18.2609 3.92364 18.132C4.05257 18.003 4.125 17.8282 4.125 17.6458C4.125 17.4635 4.05257 17.2886 3.92364 17.1597C3.7947 17.0308 3.61984 16.9583 3.4375 16.9583H2.75V16.2708C2.75 16.0885 2.67757 15.9136 2.54864 15.7847C2.4197 15.6558 2.24484 15.5833 2.0625 15.5833C1.88016 15.5833 1.7053 15.6558 1.57636 15.7847C1.44743 15.9136 1.375 16.0885 1.375 16.2708Z" fill="CurrentColor"/>
</svg>
