<svg xmlns="http://www.w3.org/2000/svg" width="26" height="23" fill="none" viewBox="0 0 26 23">
    <path fill="currentColor"  d="M19.211 0c-.97 0-1.919.209-2.827.626-1.94.875-3.363 2.627-3.982 4.9-.021.062-.021.104-.021.167v16.681c0 .313.227.584.536.626H13c.268 0 .516-.188.598-.459.516-1.918 1.693-3.378 3.302-4.108.722-.333 1.506-.5 2.311-.5.97 0 1.96.23 2.91.709.185.104.412.083.598-.042.186-.104.289-.313.289-.521V1.397c0-.229-.144-.459-.35-.563C21.521.271 20.366 0 19.21 0zm.083 1.251c.825.01 1.671.198 2.496.563v15.347c-1.816-.646-3.734-.605-5.385.146-1.115.5-2.064 1.293-2.765 2.315V5.776c.536-1.876 1.692-3.295 3.28-4.024.743-.344 1.548-.511 2.374-.5zM6.7 2.48c-2.393.03-4.76.98-6.536 2.776-.103.104-.165.271-.165.438v16.681c0 .355.268.626.619.626h9.286c.35 0 .619-.271.619-.626 0-.354-.268-.625-.62-.625H1.239V5.964c2.6-2.46 6.52-2.94 9.616-1.147.289.167.68.062.846-.23.165-.291.062-.688-.227-.854C9.989 2.869 8.339 2.459 6.7 2.479zm18.68 2.588c-.35 0-.62.271-.62.626v16.056h-8.666c-.35 0-.619.271-.619.625 0 .355.268.626.62.626h9.285c.35 0 .619-.271.619-.626V5.693c0-.355-.268-.626-.619-.626z"/>
</svg>
