<svg width="18" height="20" viewBox="0 0 18 20" fill="none" xmlns="http://www.w3.org/2000/svg">
<path d="M13.9574 5.93417L13.9574 19.1667C13.9575 19.2761 13.9355 19.3845 13.8927 19.4856C13.85 19.5867 13.7873 19.6786 13.7082 19.756C13.6292 19.8334 13.5354 19.8948 13.4321 19.9366C13.3288 19.9785 13.2182 20 13.1064 20L0.851064 20C0.73929 20 0.628607 19.9785 0.525336 19.9366C0.422065 19.8948 0.328231 19.8334 0.249195 19.756C0.17016 19.6786 0.107473 19.5867 0.0647155 19.4856C0.0219575 19.3845 -3.32675e-05 19.2761 1.15873e-07 19.1667L9.17248e-07 0.833333C-3.24566e-05 0.723889 0.0219583 0.61551 0.0647163 0.514391C0.107474 0.413271 0.170161 0.321392 0.249196 0.244004C0.328232 0.166615 0.422066 0.105233 0.525337 0.0633662C0.628608 0.0214989 0.739291 -3.34776e-05 0.851065 -6.62181e-07L15.1489 -3.72012e-08C15.2607 -3.28428e-05 15.3714 0.0214995 15.4747 0.0633668C15.5779 0.105234 15.6718 0.166616 15.7508 0.244004C15.8298 0.321393 15.8925 0.413272 15.9353 0.514392C15.978 0.615511 16 0.723889 16 0.833333L16 4.06583C16 4.2408 15.9438 4.41135 15.8394 4.55329C15.7349 4.69524 15.5874 4.80138 15.4179 4.85667L14.5396 5.14333C14.37 5.19862 14.2226 5.30476 14.1181 5.44671C14.0136 5.58865 13.9574 5.7592 13.9574 5.93417Z" fill="#D1D5DB"/>
<path d="M3 11.1743L5.39177 12.8858C5.45602 12.9331 5.53115 12.967 5.61191 12.985C5.69267 13.0031 5.77688 13.0048 5.85837 12.9901C5.94076 12.9763 6.0188 12.9468 6.08722 12.9036C6.15564 12.8604 6.21298 12.8044 6.25509 12.7397L10 7" stroke="CurrentColor" stroke-width="1.2" stroke-linecap="round" stroke-linejoin="round"/>
<path d="M13.8214 18.871L13.8214 18.7097L14.9464 18.7097C15.2447 18.7093 15.5307 18.5903 15.7416 18.3786C15.9525 18.167 16.0711 17.88 16.0714 17.5806L16.0714 7.35564C16.0713 7.25401 16.1032 7.15494 16.1624 7.07249C16.2216 6.99004 16.3052 6.92842 16.4013 6.89637L17.2306 6.61895C17.4548 6.54425 17.6498 6.4005 17.788 6.20816C17.9261 6.01582 18.0003 5.78467 18 5.54758L18 2.41935C17.9997 2.12002 17.881 1.83304 17.6701 1.62137C17.4592 1.40971 17.1733 1.29065 16.875 1.29032L15.75 1.29032L15.75 1.12903C15.7497 0.829696 15.631 0.542714 15.4201 0.331051C15.2092 0.119388 14.9233 0.000330725 14.625 -1.47526e-07L1.125 -7.3763e-07C0.826733 0.000330108 0.540777 0.119388 0.32987 0.331051C0.118963 0.542714 0.000329935 0.829695 -4.93516e-08 1.12903L-8.24876e-07 18.871C0.000329133 19.1703 0.118962 19.4573 0.329869 19.6689C0.540776 19.8806 0.826732 19.9997 1.125 20L12.6964 20C12.9947 19.9997 13.2807 19.8806 13.4916 19.6689C13.7025 19.4573 13.8211 19.1703 13.8214 18.871ZM16.875 1.93548C17.0028 1.93559 17.1254 1.9866 17.2158 2.07732C17.3062 2.16804 17.357 2.29106 17.3571 2.41935L17.3571 5.54758C17.3572 5.64921 17.3254 5.74829 17.2662 5.83074C17.207 5.91318 17.1234 5.97481 17.0273 6.00685L16.198 6.28427C15.9738 6.35898 15.7787 6.50272 15.6406 6.69506C15.5025 6.8874 15.4283 7.11855 15.4286 7.35564L15.4286 17.5806C15.4285 17.7089 15.3776 17.832 15.2872 17.9227C15.1968 18.0134 15.0743 18.0644 14.9464 18.0645L13.8214 18.0645L13.8214 6.06532C13.8213 5.96369 13.8532 5.86461 13.9124 5.78217C13.9716 5.69972 14.0552 5.63809 14.1513 5.60605L14.9806 5.32863C15.2048 5.25392 15.3998 5.11018 15.538 4.91784C15.6761 4.7255 15.7503 4.49435 15.75 4.25726L15.75 1.93548L16.875 1.93548ZM1.125 19.3548C0.997161 19.3547 0.874587 19.3037 0.78419 19.213C0.693793 19.1223 0.642963 18.9993 0.642858 18.871L0.642858 1.12903C0.642963 1.00073 0.693794 0.877721 0.784191 0.787001C0.874588 0.696281 0.997162 0.645267 1.125 0.645161L14.625 0.645161C14.7528 0.645268 14.8754 0.696281 14.9658 0.787002C15.0562 0.877722 15.107 1.00073 15.1071 1.12903L15.1071 4.25726C15.1072 4.35889 15.0754 4.45797 15.0162 4.54041C14.957 4.62286 14.8734 4.68449 14.7773 4.71653L13.948 4.99395C13.7238 5.06866 13.5287 5.2124 13.3906 5.40474C13.2525 5.59708 13.1783 5.82823 13.1786 6.06532L13.1786 18.871C13.1785 18.9993 13.1276 19.1223 13.0372 19.213C12.9468 19.3037 12.8243 19.3547 12.6964 19.3548L1.125 19.3548Z" fill="CurrentColor"/>
</svg>
