<svg width="18" height="20" viewBox="0 0 18 20" fill="none" xmlns="http://www.w3.org/2000/svg">
<path d="M6.97217 9.46912C7.13654 9.62678 7.35089 9.83346 7.59411 10.0686L7.59421 10.0685C7.3511 9.83359 7.13648 9.62674 6.97217 9.46912Z" fill="CurrentColor"/>
<path d="M8.43408 10.8821V10.8821C8.64042 11.0822 8.84994 11.2855 9.05397 11.4836C8.84996 11.2854 8.64029 11.082 8.43408 10.8821Z" fill="CurrentColor"/>
<path d="M11.5336 7.68973H10.6699V7.68981H11.5336V7.68973Z" fill="CurrentColor"/>
<path d="M14.724 7.68973H13.8604V7.68981H14.724V7.68973Z" fill="CurrentColor"/>
<path d="M15.6285 19.8048H2.37148C1.97577 19.8044 1.59638 19.647 1.31657 19.3672C1.03675 19.0874 0.879355 18.708 0.878906 18.3123V7.32046C0.878906 7.2583 0.903599 7.19868 0.947553 7.15473C0.991507 7.11077 1.05112 7.08608 1.11328 7.08608C1.17544 7.08608 1.23506 7.11077 1.27901 7.15473C1.32296 7.19868 1.34766 7.2583 1.34766 7.32046V18.3123C1.34797 18.5837 1.45593 18.8439 1.64787 19.0359C1.83981 19.2278 2.10004 19.3358 2.37148 19.3361H15.6285C15.8999 19.3357 16.1601 19.2277 16.3519 19.0358C16.5438 18.8439 16.6517 18.5836 16.652 18.3123V1.68765C16.6516 1.41632 16.5437 1.15618 16.3519 0.964315C16.16 0.772451 15.8999 0.664525 15.6285 0.664215H2.37148C2.10009 0.664472 1.83989 0.772369 1.64795 0.964234C1.45601 1.1561 1.34802 1.41626 1.34766 1.68765V5.49234C1.34766 5.5545 1.32296 5.61411 1.27901 5.65807C1.23506 5.70202 1.17544 5.72671 1.11328 5.72671C1.05112 5.72671 0.991507 5.70202 0.947553 5.65807C0.903599 5.61411 0.878906 5.5545 0.878906 5.49234V1.68765C0.879409 1.29199 1.03684 0.912675 1.31665 0.632934C1.59647 0.353192 1.97582 0.195864 2.37148 0.195465H15.6285C16.0241 0.195916 16.4034 0.353273 16.6832 0.633015C16.9629 0.912756 17.1203 1.29204 17.1207 1.68765V18.3123C17.1203 18.7079 16.963 19.0873 16.6832 19.3671C16.4035 19.6469 16.0242 19.8043 15.6285 19.8048Z" fill="CurrentColor"/>
<path d="M1.11328 6.81656C1.05112 6.81656 0.991507 6.79187 0.947553 6.74791C0.903599 6.70396 0.878906 6.64434 0.878906 6.58218V6.23062C0.878906 6.16846 0.903599 6.10885 0.947553 6.06489C0.991507 6.02094 1.05112 5.99625 1.11328 5.99625C1.17544 5.99625 1.23506 6.02094 1.27901 6.06489C1.32296 6.10885 1.34766 6.16846 1.34766 6.23062V6.58218C1.34766 6.64434 1.32296 6.70396 1.27901 6.74791C1.23506 6.79187 1.17544 6.81656 1.11328 6.81656Z" fill="CurrentColor"/>
<path d="M14.5819 19H3.22273C3.16366 19 3.10701 18.9773 3.06524 18.937C3.02347 18.8966 3 18.8419 3 18.7849V1.21514C3 1.15808 3.02347 1.10336 3.06524 1.06301C3.10701 1.02267 3.16366 1 3.22273 1H14.5819C14.9579 1.00041 15.3183 1.14486 15.5842 1.40166C15.85 1.65846 15.9996 2.00663 16 2.3698V17.6302C15.9996 17.9934 15.85 18.3415 15.5842 18.5983C15.3183 18.8551 14.9579 18.9996 14.5819 19Z" fill="CurrentColor"/>
</svg>
