<svg width="20" height="20" viewBox="0 0 20 20" fill="none" xmlns="http://www.w3.org/2000/svg">
<g clip-path="url(#clip0_6019_55032)">
<path d="M15.3125 19.375L15.3125 0.625L2.1875 0.624999L2.1875 19.375L15.3125 19.375Z" fill="CurrentColor"/>
<path d="M15.625 19.375L15.625 18.4375L16.5625 18.4375C16.6454 18.4375 16.7249 18.4046 16.7835 18.346C16.8421 18.2874 16.875 18.2079 16.875 18.125L16.875 7.69297L17.9523 7.15469C18.0042 7.12867 18.0479 7.08873 18.0783 7.03934C18.1088 6.98994 18.125 6.93305 18.125 6.875L18.125 1.875C18.125 1.79212 18.0921 1.71263 18.0335 1.65403C17.9749 1.59542 17.8954 1.5625 17.8125 1.5625L15.625 1.5625L15.625 0.625C15.625 0.54212 15.5921 0.462634 15.5335 0.404029C15.4749 0.345424 15.3954 0.3125 15.3125 0.3125L2.1875 0.312499C2.10462 0.312499 2.02513 0.345423 1.96653 0.404028C1.90792 0.462634 1.875 0.542119 1.875 0.624999L1.875 19.375C1.875 19.4579 1.90792 19.5374 1.96653 19.596C2.02513 19.6546 2.10462 19.6875 2.1875 19.6875L15.3125 19.6875C15.3954 19.6875 15.4749 19.6546 15.5335 19.596C15.5921 19.5374 15.625 19.4579 15.625 19.375ZM17.5 2.1875L17.5 6.68203L16.4227 7.22031C16.3708 7.24633 16.3271 7.28627 16.2967 7.33566C16.2662 7.38505 16.25 7.44195 16.25 7.5L16.25 17.8125L15.625 17.8125L15.625 2.1875L17.5 2.1875ZM2.5 19.0625L2.5 0.937499L15 0.9375L15 19.0625L2.5 19.0625Z" fill="CurrentColor"/>
</g>
<defs>
<clipPath id="clip0_6019_55032">
<rect width="20" height="20" fill="white" transform="translate(20) rotate(90)"/>
</clipPath>
</defs>
</svg>
