<svg xmlns="http://www.w3.org/2000/svg" width="20" height="21" fill="none" viewBox="0 0 20 21">
    <path fill="#91A0B4" d="M5.197 4.978c-.013.016-.025.034-.037.052-.073.105-.08.241-.018.352.062.112.18.18.308.174h.34c.13 2.29 1.495 4.245 1.661 4.479l-.926 2.424h-.06c-.102-.003-.2.041-.267.119-.083.102-.1.243-.042.36.057.118.179.191.31.189h6.88c.128.013.252-.047.32-.156s.068-.248 0-.356c-.068-.11-.192-.169-.32-.156h-.163l-.897-2.38c.058-.077.12-.167.2-.289.179-.273.404-.654.63-1.12.412-.847.825-1.957.905-3.114h.34c.187.003.339-.147.342-.333.003-.186-.148-.338-.334-.341l-.6.007c-.022-.004-.045-.007-.067-.007H6.109c-.022 0-.045.003-.066.007l-.6-.007c-.093-.003-.18.032-.246.096zm1.305.578h6.807c-.08 1.01-.41 2.04-.793 2.825-.214.438-.424.796-.586 1.046-.082.124-.156.217-.2.274-.012.015-.008.02-.015.03l-.022.022c-.115.089-.16.241-.112.378l.875 2.299h-5.19l.86-2.299c.043-.106.029-.225-.037-.319 0 0-1.436-2.107-1.587-4.256zm3.07 7.92l-.007 6.264h.682l-.008-6.265h-.667z"/>
</svg>
