<svg xmlns="http://www.w3.org/2000/svg" width="17" height="17" fill="none" viewBox="0 0 17 17">
    <path fill="#91A0B4" d="M4.292 3.883c-.011.013-.021.028-.03.043-.06.087-.066.2-.016.291.052.093.15.148.255.144h.281c.099 1.694 1.066 3.267 1.366 3.717l-.76 1.984H5.34c-.085-.003-.166.033-.22.098-.07.084-.084.2-.036.297.047.098.148.158.256.156h5.682c.105.01.208-.038.265-.129.056-.09.056-.204 0-.294-.057-.09-.16-.14-.265-.128h-.135l-.74-1.966c.373-.487 1.318-2.081 1.432-3.735h.282c.154.002.28-.122.281-.276.003-.154-.121-.28-.275-.281H4.494c-.075-.003-.147.026-.202.08zM7.905 10.9L7.9 16.075h.563L8.456 10.9h-.55z"/>
</svg>
