<svg xmlns="http://www.w3.org/2000/svg" width="15" height="15" fill="none" viewBox="0 0 15 15">
    <path fill="#2887EB" d="M9.118 0c-.13 0-.256.039-.364.111-.107.073-.19.175-.24.296-.048.12-.06.252-.033.379.026.127.09.243.183.333l.034.035c-1.264 1.59-2.832 4.72-2.832 4.72l-1.87.467-.276-.277c-.061-.062-.134-.112-.214-.146-.08-.033-.166-.05-.254-.05-.13 0-.256.038-.363.11-.108.073-.192.176-.24.296-.05.12-.06.252-.034.379.026.127.09.243.183.333l5.214 5.215c.06.063.132.113.212.147.08.035.165.053.252.054.086 0 .172-.016.253-.048.08-.033.153-.082.214-.143.062-.061.11-.134.143-.215.033-.08.049-.166.048-.253 0-.087-.019-.172-.053-.252-.035-.08-.085-.151-.147-.211l-.276-.277.467-1.87s3.129-1.568 4.719-2.833l.034.034c.06.063.132.113.212.147.08.035.165.053.252.054.086 0 .172-.016.252-.049.08-.032.154-.08.215-.142.061-.062.11-.134.143-.215.032-.08.049-.166.048-.253 0-.087-.02-.172-.053-.252-.035-.08-.085-.151-.147-.211L9.585.197c-.06-.062-.133-.112-.213-.146C9.292.017 9.205 0 9.118 0zM4.102 9.976L.197 13.88l-.006.006c-.122.122-.191.288-.191.461 0 .173.069.339.19.461.123.122.289.191.462.191.173 0 .338-.069.46-.191l3.911-3.911-.921-.922z"/>
</svg>
