<svg xmlns="http://www.w3.org/2000/svg" width="11" height="11" fill="none" viewBox="0 0 11 11">
    <path fill="#2887EB" d="M6.687 0c-.095 0-.188.028-.267.082-.079.053-.14.128-.176.216-.036.088-.044.185-.025.278.02.093.066.178.135.245l.025.025c-.928 1.166-2.077 3.46-2.077 3.46L2.93 4.65l-.202-.203c-.045-.045-.098-.082-.157-.107-.059-.025-.122-.037-.186-.037-.095 0-.188.028-.267.081-.079.053-.14.129-.176.217-.035.088-.044.185-.025.278.02.093.067.178.135.244l3.824 3.824c.044.046.096.082.155.108.058.025.12.038.184.039.064 0 .127-.012.186-.036.059-.024.112-.06.157-.104.045-.045.08-.099.105-.157.024-.06.036-.122.035-.186 0-.064-.014-.126-.039-.185-.025-.058-.062-.111-.108-.155l-.202-.203.342-1.37s2.295-1.15 3.461-2.078l.025.025c.044.046.097.083.155.108.059.025.121.039.185.04.064 0 .127-.012.186-.036.059-.024.112-.06.157-.105s.08-.098.104-.157c.025-.059.037-.122.036-.186 0-.063-.014-.126-.04-.184-.025-.059-.061-.112-.107-.156L7.029.145C6.985.099 6.932.063 6.873.038 6.813.013 6.75 0 6.687 0zm-3.68 7.314L.146 10.177l-.005.005c-.09.09-.14.211-.14.338 0 .127.05.248.14.338.09.09.211.14.338.14.127 0 .248-.05.338-.14L3.684 7.99l-.676-.676z"/>
</svg>
