<svg xmlns="http://www.w3.org/2000/svg" width="13" height="13" fill="none" viewBox="0 0 13 13">
    <path fill="#91A0B4" d="M6.5 0C2.913 0 0 2.913 0 6.5S2.913 13 6.5 13 13 10.087 13 6.5 10.087 0 6.5 0zm0 .565c3.28 0 5.935 2.654 5.935 5.935 0 3.28-2.654 5.935-5.935 5.935C3.22 12.435.565 9.78.565 6.5.565 3.22 3.22.565 6.5.565zm.23 1.66c-.107.017-.196.093-.228.196-.032.104-.002.216.077.29l.098.097C5.829 3.8 5.59 5.101 5.555 5.317l-1.272.574-.017-.018c-.067-.067-.163-.098-.256-.08-.106.02-.191.097-.221.2-.03.103 0 .213.08.286l1.227 1.228-2.27 2.27.398.397 2.27-2.27L6.72 9.132c.11.112.289.114.402.004.112-.11.113-.289.004-.402l-.018-.017.574-1.272c.216-.036 1.517-.274 2.509-1.122l.097.098c.112.109.292.108.402-.005.109-.113.108-.292-.005-.402l-.247-.238c-.01-.016-.022-.031-.036-.044L7.268 2.596c-.013-.013-.028-.025-.044-.035l-.238-.247c-.053-.056-.126-.087-.203-.088-.018-.003-.036-.003-.053 0zm.37 1.007L9.769 5.9c-.92.743-2.323 1.025-2.323 1.025-.095.016-.174.08-.212.168l-.539 1.174-1.96-1.96 1.174-.539c.089-.038.152-.117.168-.212 0 0 .282-1.403 1.025-2.323z"/>
</svg>
