<svg xmlns="http://www.w3.org/2000/svg" width="9" height="9" fill="none" viewBox="0 0 9 9">
    <path fill="#F64E60" d="M5.471 0c-.078 0-.154.023-.218.067-.065.043-.115.105-.144.177-.03.072-.037.151-.02.227.015.076.054.146.11.2l.02.021c-.759.954-1.7 2.831-1.7 2.831l-1.121.28-.166-.165c-.037-.038-.08-.067-.128-.088-.049-.02-.1-.03-.153-.03-.077 0-.153.023-.218.066-.064.044-.115.105-.144.177-.03.073-.036.152-.02.228.016.076.054.146.11.2l3.128 3.128c.036.038.08.068.127.088.048.021.1.032.151.033.052 0 .104-.01.152-.03.048-.02.092-.048.129-.085.037-.037.066-.08.085-.129.02-.048.03-.1.03-.151-.001-.053-.012-.104-.033-.152-.02-.047-.05-.09-.088-.127l-.166-.165.28-1.122s1.878-.941 2.832-1.7l.02.02c.037.038.08.068.128.089.047.02.099.032.15.032.053 0 .105-.01.153-.029.048-.02.092-.049.128-.085.037-.037.066-.081.086-.13.02-.047.03-.099.029-.151 0-.052-.011-.103-.032-.151-.02-.048-.05-.091-.088-.127L5.75.118c-.036-.037-.08-.067-.128-.087C5.575.01 5.523 0 5.471 0zm-3.01 5.984L.118 8.327l-.003.004C.04 8.404 0 8.503 0 8.607c0 .104.041.203.115.277.073.073.172.114.276.114.104 0 .203-.041.277-.114l2.346-2.347-.553-.553z"/>
</svg>
