<svg width="11" height="15" viewBox="0 0 11 15"  xmlns="http://www.w3.org/2000/svg">
<path d="M5 0C4.45347 0 4 0.485859 4 1.07143H1.5C0.677469 1.07143 0 1.79729 0 2.67857V13.3929C0 14.2741 0.677469 15 1.5 15H9.5C10.3225 15 11 14.2741 11 13.3929V2.67857C11 1.79729 10.3225 1.07143 9.5 1.07143H7C7 0.485859 6.54653 0 6 0H5ZM5 1.07143H6V2.14286H5V1.07143ZM1.5 2.14286H4V3.21429H7V2.67857V2.14286H9.5C9.78147 2.14286 10 2.377 10 2.67857V13.3929C10 13.6944 9.78147 13.9286 9.5 13.9286H1.5C1.21853 13.9286 1 13.6944 1 13.3929V2.67857C1 2.377 1.21853 2.14286 1.5 2.14286ZM7.5 3.75L6 5.35714H9L7.5 3.75ZM2.72852 4.30873L2.02148 5.06627L2.79297 5.89286L2.02148 6.71945L2.72852 7.47698L3.5 6.65039L4.27148 7.47698L4.97852 6.71945L4.20703 5.89286L4.97852 5.06627L4.27148 4.30873L3.5 5.13532L2.72852 4.30873ZM7.5 6.42857C7.36739 6.42857 7.24021 6.48501 7.14645 6.58548C7.05268 6.68594 7 6.82221 7 6.96429C7 7.10637 7.05268 7.24263 7.14645 7.34309C7.24021 7.44356 7.36739 7.5 7.5 7.5C7.63261 7.5 7.75979 7.44356 7.85355 7.34309C7.94732 7.24263 8 7.10637 8 6.96429C8 6.82221 7.94732 6.68594 7.85355 6.58548C7.75979 6.48501 7.63261 6.42857 7.5 6.42857ZM6.40234 7.51674L3.02734 10.9989L3.72266 11.769L7.09766 8.28683L6.40234 7.51674ZM6.72852 9.66588L6.02148 10.4234L6.79297 11.25L6.02148 12.0766L6.72852 12.8341L7.5 12.0075L8.27148 12.8341L8.97852 12.0766L8.20703 11.25L8.97852 10.4234L8.27148 9.66588L7.5 10.4925L6.72852 9.66588ZM2.5 11.7857C2.36739 11.7857 2.24021 11.8422 2.14645 11.9426C2.05268 12.0431 2 12.1793 2 12.3214C2 12.4635 2.05268 12.5998 2.14645 12.7002C2.24021 12.8007 2.36739 12.8571 2.5 12.8571C2.63261 12.8571 2.75979 12.8007 2.85355 12.7002C2.94732 12.5998 3 12.4635 3 12.3214C3 12.1793 2.94732 12.0431 2.85355 11.9426C2.75979 11.8422 2.63261 11.7857 2.5 11.7857Z" fill="#465669"/>
</svg>
