<svg width="20" height="20" viewBox="0 0 20 20" fill="none" xmlns="http://www.w3.org/2000/svg">
<path d="M11.5601 8.27493C11.7207 8.09606 11.9345 7.99746 12.1561 8.00005C12.3279 8.00207 12.4951 8.0648 12.6359 8.18002C12.7767 8.29525 12.8845 8.45759 12.9451 8.64578C13.0057 8.83397 13.0164 9.03923 12.9757 9.23465C12.9351 9.43007 12.8449 9.60654 12.7171 9.74094L9.94701 12.7353C9.79352 12.9012 9.59337 12.9953 9.38454 12.9998C9.17571 13.0043 8.97275 12.9189 8.81416 12.7597L7.32256 11.2625C7.23274 11.179 7.15823 11.0752 7.10348 10.9573C7.04872 10.8393 7.01485 10.7096 7.0039 10.5759C6.99294 10.4423 7.00513 10.3074 7.03972 10.1794C7.07431 10.0514 7.1306 9.93286 7.20522 9.83092C7.27983 9.72897 7.37125 9.6457 7.47399 9.58609C7.57672 9.52648 7.68868 9.49176 7.80314 9.48399C7.91761 9.47623 8.03223 9.49559 8.14016 9.54091C8.24809 9.58623 8.3471 9.65658 8.43127 9.74776L9.34771 10.6669L11.5601 8.27493Z" fill="currentColor"/>
<rect x="2.5" y="1.5" width="15" height="17" rx="2.5" stroke="currentColor"/>
</svg>
