<svg xmlns="http://www.w3.org/2000/svg" width="19" height="19" fill="none" viewBox="0 0 19 19">
    <path fill="currentColor" d="M14.403 9.27v.46c0 .253-.207.46-.46.46H10.19v3.754c0 .252-.207.46-.46.46h-.46c-.253 0-.46-.208-.46-.46v-3.755H5.056c-.252 0-.46-.206-.46-.46V9.27c0-.253.208-.46.46-.46H8.81V5.056c0-.252.207-.46.46-.46h.46c.253 0 .46.208.46.46V8.81h3.754c.252 0 .46.207.46.46zM19 9.5c0 5.248-4.252 9.5-9.5 9.5S0 14.748 0 9.5 4.252 0 9.5 0 19 4.252 19 9.5zm-1.226 0c0-4.593-3.727-8.274-8.274-8.274-4.593 0-8.274 3.727-8.274 8.274 0 4.593 3.727 8.274 8.274 8.274 4.593 0 8.274-3.727 8.274-8.274z"/>
</svg>
