<svg width="15" height="17" viewBox="0 0 15 17" fill="none" xmlns="http://www.w3.org/2000/svg">
<path d="M3.92234 6.59913e-06C3.54103 -0.00116098 3.17519 0.152649 2.90615 0.426446L0.419496 2.9543C0.150161 3.22809 -0.00114206 3.59969 6.49157e-06 3.98733V15.4704C6.49157e-06 15.9538 0.385919 16.3461 0.861418 16.3461H12.3267L12.5499 16.573C12.8299 16.8576 13.1975 17 13.565 17C13.9328 17 14.3001 16.8576 14.5801 16.573C15.14 16.0041 15.14 15.0781 14.5801 14.5092L13.2083 13.1147V0.87569C13.2083 0.392313 12.8224 6.59913e-06 12.3469 6.59913e-06H3.92234ZM4.01993 0.583795H12.3469C12.5051 0.583795 12.634 0.714856 12.634 0.87569V8.25229C11.8499 6.81451 10.3425 5.83789 8.61412 5.83789C6.91831 5.83789 5.43781 6.77968 4.64187 8.17305H3.15851C3.0003 8.17305 2.87138 8.30411 2.87138 8.46494C2.87138 8.62578 3.0003 8.75684 3.15851 8.75684H4.30706C4.32655 8.75684 4.34361 8.74922 4.36202 8.74543C4.27935 8.95077 4.21418 9.16474 4.16069 9.38338C4.11847 9.35852 4.07209 9.34062 4.01993 9.34062H3.15851C3.0003 9.34062 2.87138 9.47169 2.87138 9.63252C2.87138 9.79335 3.0003 9.92441 3.15851 9.92441H4.01993C4.03445 9.92441 4.04691 9.91799 4.06086 9.91586C4.03648 10.1104 4.01993 10.3071 4.01993 10.5082C4.01993 11.8395 4.57343 13.0396 5.45561 13.8912V14.3028C5.45561 14.4637 5.58453 14.5947 5.74275 14.5947C5.88166 14.5947 5.99235 14.4916 6.01867 14.3581C6.75778 14.8747 7.65142 15.1785 8.61412 15.1785C9.35791 15.1785 10.0586 14.9938 10.6807 14.6734L11.7524 15.7623H0.861418C0.703205 15.7623 0.574281 15.6312 0.574281 15.4704V4.08653H3.15851C3.63401 4.08653 4.01993 3.69422 4.01993 3.21084V0.583795ZM3.44565 0.729742V3.21084C3.44565 3.37168 3.31673 3.50274 3.15851 3.50274H0.717849C0.749147 3.45487 0.786161 3.40935 0.826647 3.36819L3.3133 0.840343C3.35379 0.799186 3.39856 0.761559 3.44565 0.729742ZM3.15851 5.2541C3.0003 5.2541 2.87138 5.38516 2.87138 5.546C2.87138 5.70683 3.0003 5.83789 3.15851 5.83789H4.5942C4.75241 5.83789 4.88134 5.70683 4.88134 5.546C4.88134 5.38516 4.75241 5.2541 4.5942 5.2541H3.15851ZM3.15851 6.42168C3.0003 6.42168 2.87138 6.55274 2.87138 6.71358C2.87138 6.87441 3.0003 7.00547 3.15851 7.00547H5.45561C5.61382 7.00547 5.74275 6.87441 5.74275 6.71358C5.74275 6.55274 5.61382 6.42168 5.45561 6.42168H3.15851ZM8.61412 6.42168C10.8308 6.42168 12.634 8.25478 12.634 10.5082C12.634 12.7616 10.8308 14.5947 8.61412 14.5947C6.39742 14.5947 4.5942 12.7616 4.5942 10.5082C4.5942 8.25478 6.39742 6.42168 8.61412 6.42168ZM8.61412 7.29736C6.87263 7.29736 5.45561 8.73786 5.45561 10.5082C5.45561 12.2785 6.87263 13.719 8.61412 13.719C10.3556 13.719 11.7726 12.2785 11.7726 10.5082C11.7726 8.73786 10.3556 7.29736 8.61412 7.29736ZM8.61412 7.88115C10.0389 7.88115 11.1984 9.05953 11.1984 10.5082C11.1984 11.9569 10.0389 13.1353 8.61412 13.1353C7.60208 13.1353 6.7263 12.5394 6.30244 11.6758H9.76267C10.0791 11.6758 10.3369 11.4137 10.3369 11.092C10.3369 10.7703 10.0791 10.5082 9.76267 10.5082H6.02988C6.02988 10.2008 6.0849 9.90687 6.18074 9.63252H9.18839C9.50482 9.63252 9.76267 9.3704 9.76267 9.04873C9.76267 8.72706 9.50482 8.46494 9.18839 8.46494H6.99336C7.43712 8.1004 8.00055 7.88115 8.61412 7.88115ZM12.4125 13.1313L14.174 14.922C14.5097 15.2635 14.5097 15.8187 14.174 16.1602C13.8378 16.5009 13.2916 16.5009 12.9559 16.1602L11.1944 14.3695C11.6728 14.0381 12.0865 13.6175 12.4125 13.1313ZM1.43569 13.4271C1.27748 13.4271 1.14855 13.5582 1.14855 13.719V14.3028C1.14855 14.4637 1.27748 14.5947 1.43569 14.5947C1.5939 14.5947 1.72283 14.4637 1.72283 14.3028V13.719C1.72283 13.5582 1.5939 13.4271 1.43569 13.4271ZM2.87138 13.4271C2.71316 13.4271 2.58424 13.5582 2.58424 13.719V14.3028C2.58424 14.4637 2.71316 14.5947 2.87138 14.5947C3.02959 14.5947 3.15851 14.4637 3.15851 14.3028V13.719C3.15851 13.5582 3.02959 13.4271 2.87138 13.4271ZM4.30706 13.4271C4.14885 13.4271 4.01993 13.5582 4.01993 13.719V14.3028C4.01993 14.4637 4.14885 14.5947 4.30706 14.5947C4.46527 14.5947 4.5942 14.4637 4.5942 14.3028V13.719C4.5942 13.5582 4.46527 13.4271 4.30706 13.4271Z" fill="#465669"/>
</svg>
