<svg width="18" height="18" viewBox="0 0 18 18" fill="none" xmlns="http://www.w3.org/2000/svg">
<path d="M13 13.5H15C15.2652 13.5 15.5196 13.3946 15.7071 13.2071C15.8946 13.0196 16 12.7652 16 12.5V8C16 7.73478 15.8946 7.48043 15.7071 7.29289C15.5196 7.10536 15.2652 7 15 7H4C3.73478 7 3.48043 7.10536 3.29289 7.29289C3.10536 7.48043 3 7.73478 3 8V12.5C3 12.7652 3.10536 13.0196 3.29289 13.2071C3.48043 13.3946 3.73478 13.5 4 13.5H6" stroke="white" stroke-linecap="round" stroke-linejoin="round"/>
<path d="M6 12V15.5C6 15.6326 6.05268 15.7598 6.14645 15.8536C6.24021 15.9473 6.36739 16 6.5 16H12.5C12.6326 16 12.7598 15.9473 12.8536 15.8536C12.9473 15.7598 13 15.6326 13 15.5V12H6Z" stroke="white" stroke-linecap="round" stroke-linejoin="round"/>
<path d="M13 7V3.5C13 3.36739 12.9473 3.24021 12.8536 3.14645C12.7598 3.05268 12.6326 3 12.5 3H6.5C6.36739 3 6.24021 3.05268 6.14645 3.14645C6.05268 3.24021 6 3.36739 6 3.5V7" stroke="white" stroke-linecap="round" stroke-linejoin="round"/>
<path d="M13.5 9.5H12.5" stroke="white" stroke-linecap="round" stroke-linejoin="round"/>
</svg>
