<svg width="42" height="42" viewBox="0 0 42 42" fill="none" xmlns="http://www.w3.org/2000/svg">
<path d="M20.8158 0.0974744C16.7009 0.0960197 12.678 1.31462 9.25554 3.59922C5.83313 5.88381 3.1649 9.13183 1.58819 12.9327C0.011468 16.7335 -0.402948 20.9165 0.397327 24.9528C1.1976 28.9891 3.17664 32.6975 6.08424 35.6093C8.99185 38.521 12.6975 40.5053 16.7327 41.3112C20.7678 42.1172 24.9514 41.7087 28.7544 40.1374C32.5575 38.5661 35.8093 35.9025 38.0987 32.4833C40.3882 29.0641 41.6125 25.0429 41.6168 20.928C41.6207 18.1939 41.0855 15.4858 40.0419 12.9587C38.9983 10.4316 37.4667 8.13506 35.5348 6.20038C33.6028 4.2657 31.3084 2.73087 28.7828 1.68368C26.2572 0.636482 23.5499 0.0974717 20.8158 0.0974744ZM20.8158 35.3922C17.948 35.3922 15.1446 34.5414 12.7605 32.9475C10.3764 31.3536 8.51869 29.0883 7.42257 26.4382C6.32645 23.7881 6.04115 20.8724 6.60279 18.0601C7.16442 15.2478 8.54774 12.6653 10.5777 10.6395C12.6076 8.61372 15.1929 7.23566 18.0063 6.67975C20.8198 6.12384 23.7349 6.41507 26.3827 7.51659C29.0306 8.6181 31.2921 10.4804 32.8812 12.8677C34.4702 15.2551 35.3153 18.0602 35.3095 20.928C35.3104 22.8316 34.9362 24.7167 34.2082 26.4756C33.4801 28.2345 32.4126 29.8327 31.0665 31.1787C29.7205 32.5248 28.1223 33.5924 26.3634 34.3204C24.6045 35.0484 22.7194 35.4227 20.8158 35.4217V35.3922Z" fill="currentColor"/>
<path d="M22.0021 9.16062V16.4775C22.7803 16.6788 23.4693 17.1336 23.9603 17.7701C24.4513 18.4065 24.7164 19.1884 24.7137 19.9922C24.7141 20.5102 24.6001 21.0219 24.3797 21.4906C24.1594 21.9594 23.8381 22.3737 23.439 22.7038L26.6884 25.4154H26.8874C27.244 25.4247 27.5835 25.5705 27.8357 25.8228C28.088 26.075 28.2338 26.4145 28.2432 26.7712C28.249 26.9434 28.2208 27.1151 28.1602 27.2764C28.0997 27.4378 28.008 27.5856 27.8903 27.7115C27.7726 27.8374 27.6313 27.9389 27.4743 28.0102C27.3174 28.0815 27.148 28.1211 26.9758 28.1269C26.8036 28.1327 26.6319 28.1046 26.4705 28.044C26.3092 27.9835 26.1613 27.8917 26.0354 27.774C25.9095 27.6564 25.808 27.515 25.7368 27.3581C25.6655 27.2012 25.6258 27.0318 25.62 26.8596L21.7221 23.6101H21.0958C20.1381 23.6062 19.2209 23.2236 18.5445 22.5457C17.868 21.8678 17.4872 20.9499 17.4853 19.9922C17.4905 19.1887 17.7583 18.4089 18.2478 17.7717C18.7374 17.1345 19.4218 16.6748 20.1968 16.4627V9.24904C17.7327 9.46775 15.4392 10.5995 13.7665 12.4221C12.0938 14.2448 11.1626 16.6268 11.1558 19.1006C11.1791 21.3293 11.9237 23.4905 13.2779 25.2606C14.1922 26.4235 14.7088 27.8493 14.7516 29.328V29.7775C14.7432 29.9923 14.8134 30.2028 14.949 30.3696C15.0847 30.5364 15.2764 30.6481 15.4884 30.6838L24.5295 32.6585C24.6613 32.6967 24.8004 32.7025 24.935 32.6756C25.0696 32.6486 25.1957 32.5896 25.3027 32.5036C25.4097 32.4176 25.4943 32.3071 25.5496 32.1814C25.6048 32.0558 25.629 31.9186 25.62 31.7817V30.4038L27.1453 30.4848C27.6437 30.528 28.1457 30.4665 28.619 30.3042C29.0923 30.1419 29.5264 29.8824 29.8934 29.5424C30.2605 29.2024 30.5524 28.7894 30.7504 28.3299C30.9484 27.8704 31.0481 27.3746 31.0432 26.8743V24.0743L32.9295 23.0869C33.0387 23.0412 33.1366 22.9721 33.2162 22.8844C33.2958 22.7968 33.3553 22.6928 33.3904 22.5797C33.4255 22.4666 33.4355 22.3472 33.4195 22.2299C33.4035 22.1126 33.362 22.0002 33.2979 21.9006L30.9621 17.9143C30.6904 15.6523 29.6538 13.5511 28.0242 11.959C26.3946 10.3669 24.2698 9.37958 22.0021 9.16062ZM21.0958 18.2017C20.7384 18.2031 20.3896 18.3106 20.0933 18.5106C19.7971 18.7105 19.5669 18.9938 19.4319 19.3246C19.2968 19.6555 19.263 20.019 19.3347 20.3691C19.4063 20.7192 19.5803 21.0401 19.8346 21.2912C20.0888 21.5424 20.4118 21.7124 20.7628 21.7798C21.1137 21.8472 21.4768 21.8089 21.806 21.6698C22.1351 21.5307 22.4156 21.297 22.6119 20.9984C22.8081 20.6997 22.9113 20.3495 22.9084 19.9922C22.9045 19.5147 22.7116 19.0582 22.3719 18.7226C22.0322 18.387 21.5733 18.1997 21.0958 18.2017Z" fill="currentColor"/>
</svg>
