 
<svg width="57" height="57" viewBox="0 0 57 57" fill="none" xmlns="http://www.w3.org/2000/svg">
<path fill-rule="evenodd" clip-rule="evenodd" d="M48.7331 8.8124C46.1342 6.07088 43.0153 3.87909 39.5601 2.36605C36.1049 0.853016 32.3832 0.0492948 28.614 0.00219726C24.8449 -0.0449003 21.1044 0.665577 17.6128 2.09181C14.1212 3.51805 10.949 5.63122 8.28288 8.30695C5.6168 10.9827 3.51071 14.1669 2.08858 17.6722C0.666447 21.1775 -0.0429937 24.9331 0.00201494 28.7178C0.0470236 32.5025 0.845572 36.24 2.35066 39.7102C3.85574 43.1804 6.03696 46.3132 8.76591 48.9243C8.76591 48.9243 16.1449 57 28.4883 57C40.8317 57 48.7331 48.9243 48.7331 48.9243C54.0266 43.6031 57 36.3895 57 28.8683C57 21.3472 54.0266 14.1336 48.7331 8.8124ZM30.2867 7.15788C35.3102 7.15788 40.7859 10.1844 44.0813 13.4632C47.3768 16.742 50.3607 22.2604 50.3607 27.3046H43.2675C42.9291 27.2952 42.5954 27.3858 42.3078 27.5651C42.0203 27.7445 41.7915 28.0047 41.6499 28.3135C41.5751 28.5129 41.5476 28.727 41.5695 28.9389C41.8969 29.2411 42.144 29.6204 42.2885 30.0426C42.433 30.4649 42.4703 30.9166 42.397 31.357C42.3238 31.7973 42.1423 32.2123 41.8689 32.5645C41.5956 32.9166 41.2391 33.1947 40.8317 33.3735C40.4243 33.5524 39.9789 33.6264 39.5359 33.5887C39.0928 33.5511 38.6661 33.4031 38.2944 33.1581C37.9228 32.9131 37.6178 32.5788 37.4073 32.1856C37.1967 31.7924 37.0871 31.3527 37.0886 30.9062C37.0877 30.5513 37.1574 30.1998 37.2937 29.8724C37.43 29.5449 37.6301 29.2482 37.8823 28.9995C37.9426 28.1924 37.7014 27.3349 36.1843 27.3349H30.2867V22.0384C30.9091 21.9593 31.5138 21.7751 32.0751 21.4936C33.2338 20.8717 34.1103 19.8266 34.5235 18.5743C34.9367 17.322 34.8551 15.9582 34.2955 14.7646C34.0224 14.2861 33.6842 13.8481 33.2908 13.4632C32.512 12.5937 31.4361 12.05 30.2767 11.9398V7.15788H30.2867ZM13.4478 13.4632C16.7131 10.1441 22.1787 7.15788 27.2123 7.15788V13.0798C27.1917 13.3888 27.2447 13.6982 27.367 13.9824C27.4893 14.2667 27.6774 14.5175 27.9156 14.7142C28.0918 14.8728 28.3132 14.9717 28.5486 14.9966C28.9398 14.6625 29.4187 14.4487 29.9279 14.3807C30.4371 14.3128 30.9549 14.3936 31.4195 14.6135C31.8841 14.8335 32.2758 15.1832 32.5476 15.6208C32.8194 16.0584 32.9599 16.5654 32.9522 17.0811C32.9445 17.5968 32.7889 18.0994 32.5042 18.5286C32.2194 18.9579 31.8175 19.2956 31.3465 19.5014C30.8756 19.7073 30.3555 19.7725 29.8486 19.6892C29.3417 19.606 28.8694 19.3778 28.4883 19.032C28.2626 19.0464 28.0445 19.1194 27.8553 19.2439C27.4643 19.6198 27.2338 20.1333 27.2123 20.6765V27.2945H21.586C21.5859 26.5382 21.4568 25.7875 21.2042 25.0751C20.8883 24.3744 20.4223 23.7524 19.8395 23.2535C19.2566 22.7545 18.5713 22.3909 17.8323 22.1885C17.0934 21.9862 16.3191 21.9501 15.5647 22.0828C14.8103 22.2156 14.0943 22.5139 13.4679 22.9565C12.8234 23.4758 12.3069 24.1374 11.9584 24.8897C11.6099 25.6421 11.4388 26.465 11.4585 27.2945H7.14833C7.14833 22.2604 10.1223 16.7722 13.4478 13.4632ZM27.2123 50.5485C22.1888 50.5485 16.7131 47.522 13.4177 44.2533C10.1223 40.9846 7.14833 35.4561 7.14833 30.4018H12.9857C13.8497 30.4018 14.8243 30.0285 14.8243 29.1508C14.8243 28.9995 14.8243 28.8683 14.8243 28.7574C14.3929 28.4101 14.0794 27.9371 13.927 27.4034C13.7745 26.8698 13.7907 26.3018 13.9732 25.7778C14.1557 25.2538 14.4955 24.7994 14.9459 24.4775C15.3963 24.1555 15.935 23.9817 16.4879 23.98C17.0408 23.9784 17.5806 24.1489 18.0329 24.4682C18.4852 24.7875 18.8277 25.2397 19.0133 25.7626C19.1989 26.2856 19.2185 26.8534 19.0692 27.388C18.92 27.9225 18.6093 28.3974 18.18 28.7473C18.18 29.8267 18.8732 30.3715 20.0186 30.3715H27.2123V35.2644C26.1827 35.157 25.143 35.324 24.1982 35.7487C21.1841 37.0501 20.6817 41.5092 22.9021 43.9002C24.2585 45.363 25.3938 45.363 27.2324 45.363V50.5182L27.2123 50.5485ZM48.2508 38.4423C47.177 40.5893 45.7696 42.5508 44.0813 44.2533C40.7859 47.5623 35.3203 50.5485 30.2867 50.5485V43.5471C30.2712 43.0804 30.1211 42.6283 29.8547 42.2457C29.7359 42.071 29.5751 41.9295 29.3871 41.8342C29.1991 41.7389 28.9901 41.6931 28.7796 41.7009H28.5184C28.2141 42.1994 27.756 42.5845 27.2137 42.7976C26.6715 43.0107 26.0747 43.0401 25.5143 42.8814C24.9539 42.7226 24.4604 42.3844 24.1089 41.9182C23.7575 41.452 23.5673 40.8833 23.5673 40.2986C23.5673 39.7139 23.7575 39.1452 24.1089 38.679C24.4604 38.2128 24.9539 37.8746 25.5143 37.7158C26.0747 37.5571 26.6715 37.5865 27.2137 37.7996C27.756 38.0127 28.2141 38.3978 28.5184 38.8963C28.7712 38.9903 29.0492 38.99 29.3018 38.8956C29.5544 38.8012 29.7648 38.6189 29.8949 38.3818C30.1149 38.0367 30.2429 37.6407 30.2666 37.2317V30.4018H34.6572C34.6836 31.1549 34.8747 31.893 35.2171 32.5637C35.5595 33.2343 36.0447 33.8211 36.6383 34.2823C37.2318 34.7435 37.9192 35.0679 38.6517 35.2324C39.3841 35.3969 40.1436 35.3975 40.8763 35.2342C41.9641 34.9632 42.9355 34.3461 43.6453 33.4752C44.3551 32.6042 44.7654 31.5261 44.8148 30.4018H50.3406C50.1795 33.1942 49.4692 35.9269 48.2508 38.4423Z" 
fill="currentColor"/>
</svg>
