<svg width="42" height="42" viewBox="0 0 42 42" fill="none" xmlns="http://www.w3.org/2000/svg">
<path fill-rule="evenodd" clip-rule="evenodd" d="M33.3528 7.28904C32.8149 7.73114 32.3286 8.22483 31.8791 8.71114C29.3665 11.1501 25.5496 14.9669 23.1033 17.4501C22.2781 18.2975 21.4454 19.1375 20.6275 19.9922C20.5524 20.062 20.5013 20.1537 20.4815 20.2543C20.4616 20.3548 20.4741 20.4591 20.517 20.5522C20.5597 20.6508 20.6309 20.7345 20.7215 20.7922C20.8121 20.85 20.918 20.8793 21.0254 20.8764C21.1802 20.8764 21.2759 20.7732 21.3791 20.6775C22.6686 19.4617 23.9286 18.209 25.1886 16.9564C27.3991 14.7459 30.9728 11.1943 33.1612 8.9543C33.5149 8.59325 33.8612 8.21746 34.1928 7.82693C34.2335 7.76225 34.2586 7.68901 34.2661 7.61297C34.2737 7.53693 34.2635 7.46018 34.2364 7.38875C34.2092 7.31733 34.1659 7.25317 34.1097 7.20135C34.0536 7.14952 33.9862 7.11144 33.9128 7.09009C33.8103 7.07494 33.7057 7.08516 33.608 7.11985C33.5104 7.15453 33.4228 7.21262 33.3528 7.28904Z" fill="currentColor"/>
<path fill-rule="evenodd" clip-rule="evenodd" d="M38.4149 10.1259L36.3739 11.968C34.7675 13.6038 32.4317 15.9322 31.0612 17.2364C30.9924 17.3047 30.9107 17.3587 30.8209 17.3954C30.7312 17.4321 30.635 17.4507 30.5381 17.4501C29.5507 17.4501 28.5707 17.4133 27.5907 17.369L26.6917 17.3248C26.6519 17.3235 26.6122 17.3307 26.5753 17.346C26.5385 17.3612 26.5053 17.3841 26.4781 17.4133C25.3949 18.5038 24.2675 19.5722 23.236 20.6848C23.01 20.9268 22.8413 21.2163 22.7423 21.5322C22.6402 21.9166 22.4296 22.2635 22.1356 22.5314C21.8416 22.7993 21.4766 22.9768 21.0844 23.0427C20.7473 23.128 20.3948 23.1325 20.0556 23.0559C19.7164 22.9793 19.4 22.8238 19.1322 22.6019C18.8644 22.3801 18.6528 22.0982 18.5144 21.7792C18.3761 21.4602 18.3149 21.113 18.336 20.7659C18.3382 20.292 18.4926 19.8314 18.7766 19.4519C19.0605 19.0725 19.4588 18.7944 19.9128 18.6585C20.1893 18.57 20.4415 18.4187 20.6496 18.2164C21.7917 17.148 22.8602 16.0059 23.9728 14.9006C23.9995 14.8781 24.0207 14.8499 24.0347 14.8179C24.0488 14.786 24.0553 14.7513 24.0539 14.7164C24.0539 13.9796 23.9875 13.2869 23.9654 12.5722C23.9433 11.8575 23.9654 11.2459 23.9654 10.5827C23.9696 10.5422 23.9831 10.5031 24.0048 10.4686C24.0265 10.4341 24.0559 10.4051 24.0907 10.3838L26.2054 8.26167L29.4107 5.07115L29.9486 4.51852C30.037 4.42273 30.1328 4.34167 30.2286 4.25325L31.4002 3.11852C27.071 0.518153 21.9414 -0.41224 16.9748 0.502068C12.0081 1.41638 7.54611 4.11248 4.42676 8.08404C1.30741 12.0556 -0.254667 17.0294 0.0338834 22.0712C0.322434 27.1131 2.44177 31.8761 5.99385 35.4659C5.99385 35.4659 12.036 41.3606 21.0844 41.3606C30.1328 41.3606 35.3128 35.4659 35.3128 35.4659C38.5813 32.1928 40.662 27.921 41.2241 23.3297C41.7862 18.7383 40.7974 14.0908 38.4149 10.1259ZM22.7349 15.6227C22.7349 15.8364 22.7349 15.8438 22.4917 15.7848C22.1249 15.6603 21.7476 15.569 21.3644 15.5122C20.1633 15.3355 18.9379 15.5727 17.8894 16.1846C16.8409 16.7966 16.0318 17.7469 15.5949 18.8796C15.2717 19.7011 15.1774 20.595 15.3223 21.4659C15.4708 22.8564 16.1647 24.1314 17.2517 25.0112C18.3387 25.8911 19.7302 26.304 21.1212 26.1596C22.4391 26.0753 23.6705 25.4742 24.5475 24.4869C25.3205 23.6548 25.8038 22.5951 25.9254 21.4659C26.0422 20.5841 25.9254 19.6872 25.5865 18.8648C25.5128 18.6659 25.5423 18.6217 25.7486 18.6217C26.0802 18.6217 26.4117 18.6217 26.7433 18.6217C26.8539 18.6217 26.8686 18.7027 26.8981 18.7764C27.1241 19.4373 27.2265 20.1342 27.2002 20.8322C27.2043 22.3754 26.6701 23.8717 25.6896 25.0634C24.7091 26.255 23.3437 27.0674 21.8286 27.3606C20.7467 27.5818 19.6261 27.5211 18.5745 27.1843C17.5228 26.8475 16.5754 26.246 15.8233 25.4375C14.7002 24.3238 14.0418 22.8253 13.9812 21.2448C13.8895 19.9879 14.1644 18.7313 14.7725 17.6275C15.3807 16.5236 16.296 15.6199 17.4075 15.0259C18.0625 14.6321 18.7931 14.3811 19.5517 14.289C20.1522 14.2338 20.7565 14.2338 21.357 14.289C21.7731 14.3101 22.1845 14.3869 22.5802 14.5175C22.7128 14.5617 22.7644 14.6206 22.757 14.7533C22.7423 15.0259 22.757 15.328 22.7349 15.6227ZM22.7717 10.0301C22.7349 10.2364 22.7128 10.4427 22.6907 10.6564C22.6907 10.7227 22.6907 10.789 22.6907 10.8627C22.6907 10.9364 22.6096 11.0322 22.477 11.0027C21.8576 10.8691 21.224 10.8121 20.5907 10.8333C18.2554 10.8283 15.9961 11.6625 14.2244 13.1838C12.57 14.5569 11.4043 16.4283 10.9012 18.5185C10.6784 19.4042 10.5866 20.3178 10.6286 21.2301C10.6718 22.6317 11.0167 24.0076 11.6398 25.2639C12.2629 26.5202 13.1494 27.6274 14.2391 28.5101C15.5094 29.5817 17.0304 30.3143 18.6602 30.6396C19.6172 30.8175 20.5945 30.8597 21.5633 30.7648C23.5901 30.5923 25.5109 29.7853 27.0528 28.4585C28.7999 26.9939 29.9891 24.972 30.4202 22.7333C30.5438 22.1395 30.6055 21.5345 30.6044 20.928C30.6145 20.3121 30.5577 19.6969 30.4349 19.0933V18.9311C30.4349 18.828 30.4791 18.7838 30.5749 18.7764C30.8737 18.7584 31.1641 18.67 31.4223 18.5185C31.5475 18.4522 31.6065 18.5185 31.636 18.6217C31.7204 18.9723 31.7722 19.3299 31.7907 19.6901C31.8768 20.7153 31.8372 21.7471 31.6728 22.7627C31.4613 24.0609 31.0143 25.3095 30.3539 26.4469C29.4276 28.0762 28.1045 29.4449 26.5075 30.4259C25.1886 31.2428 23.7168 31.7819 22.1823 32.0101C21.694 32.0767 21.201 32.1013 20.7086 32.0838C18.2587 32.1557 15.8598 31.3744 13.9223 29.8733C12.7636 29.0448 11.7803 27.9952 11.0291 26.7849C10.2779 25.5747 9.77365 24.2277 9.54543 22.8217C9.02178 19.9028 9.67161 16.8952 11.3536 14.4529C13.0356 12.0106 15.6138 10.3311 18.5275 9.77957C19.4466 9.61795 20.3815 9.566 21.3128 9.62483C21.7403 9.63946 22.1662 9.68378 22.5875 9.75746C22.8012 9.77957 22.8086 9.80167 22.7717 10.0301ZM36.3665 21.7311C36.3623 21.7728 36.3623 21.8148 36.3665 21.8564C36.331 22.5771 36.2398 23.294 36.0938 24.0006C35.4723 27.0338 33.9674 29.8154 31.7686 31.9954C30.7693 33.0008 29.6362 33.8637 28.4012 34.5596C26.6307 35.5669 24.6812 36.2201 22.6612 36.4827C22.2854 36.5343 21.9244 36.5638 21.5412 36.6006H19.6181L18.5496 36.4901C17.0921 36.303 15.6682 35.9111 14.3202 35.3259C12.5143 34.5516 10.8736 33.4385 9.48648 32.0469C7.41413 29.9892 5.9461 27.4023 5.24227 24.568C5.02058 23.6839 4.88243 22.781 4.82964 21.8711C4.60527 18.4868 5.47658 15.1202 7.31458 12.2696C9.15259 9.41904 11.8596 7.23605 15.0349 6.04378C16.1437 5.62293 17.2951 5.32398 18.4686 5.1522C18.9423 5.08828 19.4202 5.06118 19.8981 5.07115C20.7012 5.07115 21.5044 5.07115 22.3075 5.11536C23.2249 5.21005 24.1307 5.39516 25.0117 5.66799C25.4328 5.77887 25.8463 5.9167 26.2496 6.08062C26.4928 6.17641 26.5002 6.21325 26.3233 6.39746C26.1465 6.58167 25.8591 6.84694 25.6381 7.07536C25.5496 7.16378 25.4686 7.14167 25.3728 7.07536C24.6692 6.82789 23.9474 6.63573 23.2139 6.50062C22.5564 6.38253 21.8917 6.30868 21.2244 6.27957C17.5173 6.12218 13.8903 7.38743 11.0854 9.81641C8.70152 11.8972 7.05064 14.6899 6.37701 17.7817C6.21141 18.4593 6.12975 19.1547 6.13385 19.8522C6.13385 20.368 6.13385 20.8838 6.13385 21.3996C6.11703 22.8547 6.36676 24.3007 6.87069 25.6659C7.66556 27.892 8.98967 29.8915 10.729 31.4921C12.4683 33.0928 14.5706 34.2466 16.8549 34.8543C18.8569 35.3808 20.9479 35.4757 22.9893 35.1327C25.0308 34.7898 26.976 34.0167 28.696 32.8648C30.4503 31.6901 31.927 30.1465 33.0228 28.3418C34.1186 26.5371 34.8071 24.5148 35.0402 22.4164C35.2645 20.3247 35.0384 18.2092 34.377 16.2122C34.2296 15.748 34.2002 15.8806 34.5465 15.5564L35.0475 15.0996C35.2023 14.9669 35.2686 14.9817 35.3423 15.1659C35.5532 15.7063 35.7279 16.2602 35.8654 16.8238C36.1279 17.7416 36.2885 18.6855 36.3444 19.6385C36.3444 19.6385 36.3444 19.7048 36.3444 19.7343C36.3665 20.3975 36.3665 21.0606 36.3665 21.7311Z" fill="currentColor"/>
<path fill-rule="evenodd" clip-rule="evenodd" d="M31.8202 4.688C31.8202 4.87222 31.8644 5.04906 31.8865 5.2259L32.0191 6.58906C32.0191 6.72906 32.0781 6.75116 32.1886 6.66274C32.2991 6.57432 32.4538 6.43432 32.5865 6.32379C32.8279 6.07765 33.1404 5.91331 33.4801 5.85384C33.8197 5.79437 34.1694 5.84276 34.4802 5.99222C34.7087 6.09667 34.912 6.2492 35.0761 6.4394C35.2403 6.6296 35.3615 6.85299 35.4315 7.09431C35.5014 7.33564 35.5185 7.58922 35.4815 7.83773C35.4444 8.08625 35.3542 8.32385 35.217 8.53432C35.1024 8.72766 34.961 8.9038 34.797 9.05748C34.7218 9.12535 34.643 9.18929 34.5612 9.24906L34.6054 9.308L35.9538 9.45537L38.0317 9.49958C36.3926 6.98237 34.2221 4.85463 31.6728 3.2659L31.8202 4.688Z" fill="currentColor"/>
</svg>
