<svg width="42" height="43" viewBox="0 0 42 43" fill="none" xmlns="http://www.w3.org/2000/svg">
<path d="M19.2446 17.0918C18.784 17.0918 18.3337 16.9547 17.9507 16.6978C17.5677 16.4409 17.2692 16.0758 17.0929 15.6486C16.9166 15.2214 16.8705 14.7514 16.9603 14.2979C17.0502 13.8444 17.272 13.4278 17.5977 13.1009C17.9235 12.7739 18.3385 12.5513 18.7902 12.461C19.242 12.3708 19.7103 12.4171 20.1359 12.5941C20.5615 12.771 20.9252 13.0707 21.1811 13.4551C21.437 13.8396 21.5736 14.2916 21.5736 14.754C21.5746 15.0613 21.515 15.3657 21.3984 15.6498C21.2817 15.9339 21.1101 16.192 20.8937 16.4093C20.6772 16.6266 20.4201 16.7987 20.1371 16.9159C19.854 17.033 19.5507 17.0928 19.2446 17.0918Z" fill="currentColor" />
<path d="M40.0266 4.93054C37.5483 7.40326 28.8294 16.7921 22.6187 32.1005C22.223 33.0596 21.708 32.4152 21.5811 32.2054C19.6477 29.0133 13.6012 19.04 12.0858 16.5823C11.9963 16.4249 11.9141 16.1777 12.2799 16.4399L19.3267 21.9773C19.3988 22.0368 19.4825 22.0804 19.5725 22.1053C19.6625 22.1301 19.7567 22.1356 19.849 22.1215C19.9412 22.1073 20.0295 22.0739 20.108 22.0232C20.1865 21.9725 20.2535 21.9058 20.3046 21.8274C25.9899 15.2176 32.6004 9.47049 39.9295 4.76569C40.676 4.29363 40.0863 4.8631 40.0266 4.93054Z" fill="currentColor"/>
<path fill-rule="evenodd" clip-rule="evenodd" d="M41.9973 20.9807C41.953 16.1915 40.2777 11.5617 37.2497 7.86033L36.6003 8.60963C35.3536 10.0483 34.1742 11.5394 33.047 13.1055C34.7325 15.635 35.5883 18.63 35.4946 21.6717C35.4009 24.7134 34.3624 27.6497 32.5245 30.0698L32.4797 30.1223L32.2931 30.3621V30.407L32.0915 30.6543C32.023 30.7445 31.9482 30.8296 31.8676 30.9091L31.6287 31.1788C31.55 31.2741 31.4652 31.3643 31.3749 31.4486L31.1062 31.7108L30.8374 31.9656L30.5538 32.2129L30.2701 32.4526L29.979 32.6774L29.6878 32.9022L29.3967 33.112L29.0907 33.3218C28.9957 33.3913 28.8959 33.4539 28.7921 33.5092L28.486 33.704L28.1725 33.8838L27.8515 34.0562L27.538 34.2135C27.4335 34.2735 27.329 34.3184 27.217 34.3709L26.799 34.5657C26.687 34.5657 26.575 34.6556 26.4705 34.7006L26.1421 34.8279L25.8062 34.9478C25.6969 34.9931 25.5847 35.0307 25.4702 35.0602L25.1418 35.1726L24.7984 35.2625L24.4625 35.345C24.3496 35.3787 24.235 35.4062 24.1191 35.4274L23.7757 35.5023L23.4324 35.5623L23.0666 35.6147L22.7157 35.6597H22.3649L22.0215 35.6971H21.6707H21.3273H20.6256H20.2747H19.9314L19.5805 35.6597H19.2371C19.1218 35.6526 19.0071 35.6375 18.8938 35.6147L18.5877 35.5623L18.2443 35.5023L17.9009 35.4274C17.7791 35.3981 17.6594 35.3606 17.5426 35.315L17.1992 35.2326L16.8633 35.1427L16.5199 35.0303L16.1915 34.9179L15.863 34.798L15.5346 34.6706L15.2061 34.5657L14.8553 34.4158C14.7508 34.3634 14.6388 34.3184 14.5343 34.2585L14.2133 34.1011L13.8998 33.9288L13.5937 33.7489L13.2802 33.5541L12.9742 33.3668L12.683 33.157L12.3844 32.9472L12.0933 32.7224L11.8022 32.4976L11.5185 32.2578C11.4215 32.1754 11.3319 32.1005 11.2423 32.0105L10.9661 31.7558L10.6974 31.4935C7.99445 28.853 6.41999 25.2611 6.30667 21.4768C6.19335 17.6925 7.55005 14.0122 10.0901 11.2135C12.6302 8.41472 16.1547 6.71679 19.9189 6.47839C23.6831 6.24 27.3923 7.47983 30.2626 9.93591C31.9646 8.54969 33.7263 7.21592 35.5328 5.96457C31.8375 2.38529 26.9588 0.296792 21.8274 0.0974884L20.9316 4.3161V0.0974884C15.5453 0.114692 10.3717 2.20965 6.48123 5.94891C2.59074 9.68817 0.281108 14.7856 0.0302075 20.1865L4.35233 21.0781H0.000348279C-0.015654 23.8607 0.519935 26.6187 1.57594 29.1915C2.63194 31.7643 4.18726 34.1006 6.15134 36.0643C6.15134 36.0643 13.0712 42.4334 20.9316 42.4334C28.7921 42.4334 34.0324 37.7053 34.0324 37.7053C34.6707 37.1971 35.2766 36.649 35.8463 36.0643C39.6138 32.2996 41.8107 27.2355 41.9898 21.9024L37.6453 20.9807H41.9973Z" fill="currentColor"/>
</svg>