<svg width="42" height="42" viewBox="0 0 42 42" fill="none" xmlns="http://www.w3.org/2000/svg">
<path d="M25.845 11.0175H12.7425C12.5814 11.0175 12.4269 11.0815 12.3129 11.1954C12.199 11.3094 12.135 11.4639 12.135 11.625V31.6725L12.2175 31.74H12.27L12.4875 31.9125L12.78 32.1375L12.99 32.2875L13.08 32.355L13.3725 32.55L13.6575 32.7375L13.95 32.91L14.25 33.0825L14.4 33.165L14.55 33.2475C14.64 33.2925 14.73 33.345 14.82 33.3825H14.8575L15.1425 33.525L15.465 33.675L15.7725 33.795L16.08 33.9225H16.1775L16.41 34.0125L16.7475 34.125H16.8675L17.0625 34.185L17.4 34.2825H17.565L17.715 34.32L18.03 34.395H18.2025L18.405 34.44L18.705 34.485L19.0125 34.5375L19.38 34.59H19.5525H19.7175H19.89H20.0625H20.3925H21.7425H22.065H22.4175L22.7625 34.5525L23.085 34.5L23.415 34.455L23.745 34.395H23.8875L24.075 34.35L24.39 34.2825L24.5925 34.23H24.765L25.395 34.0425L25.7175 33.93L26.025 33.8175C26.1225 33.7865 26.2177 33.7489 26.31 33.705L26.7 33.75L27.0225 33.6075L27.3225 33.4575L27.63 33.3075L27.945 33.135L28.2225 32.97L28.5375 32.79L28.83 32.6025L28.9725 32.4975L29.1075 32.4075L29.3925 32.205L29.6625 32.0025L29.8125 31.8825L29.9475 31.7775L30.2025 31.56L30.4875 31.3125L30.75 31.065L31.05 30.75C31.1161 30.6739 31.1862 30.6013 31.26 30.5325V30.495L31.485 30.255C31.56 30.1725 31.635 30.0975 31.7025 30.015L31.86 29.8275V17.1L25.845 11.0175ZM13.695 14.25C13.7065 14.1014 13.7758 13.9633 13.888 13.8652C14.0001 13.767 14.1462 13.7167 14.295 13.725H20.175C20.3246 13.7166 20.4716 13.7667 20.5849 13.8647C20.6983 13.9626 20.7691 14.1008 20.7825 14.25V16.575C20.7691 16.7242 20.6983 16.8624 20.5849 16.9604C20.4716 17.0583 20.3246 17.1084 20.175 17.1H14.295C14.1462 17.1083 14.0001 17.058 13.888 16.9599C13.7758 16.8617 13.7065 16.7236 13.695 16.575V14.25ZM24.5025 29.7825H13.425V28.5H24.5025V29.7825ZM24.5025 27.375H13.425V26.0775H24.5025V27.375ZM24.5025 24.975H13.425V23.6775H24.5025V24.975ZM24.5025 22.5675H13.425V21.27H24.5025V22.5675ZM30.2625 29.7825H25.425V28.5H30.2625V29.7825ZM30.2625 27.375H25.425V26.0775H30.2625V27.375ZM30.2625 24.975H25.425V23.6775H30.2625V24.975ZM30.2625 22.5675H25.425V21.27H30.2625V22.5675Z" fill="currentColor"/>
<path fill-rule="evenodd" clip-rule="evenodd" d="M21.0279 41.25C11.1504 41.25 6.18238 35.7678 6.18238 35.7678C4.22238 33.8086 2.66757 31.4824 1.60678 28.9222C0.54599 26.362 0 23.6178 0 20.8465C0 18.0752 0.54599 15.3311 1.60678 12.7709C2.66757 10.2106 4.22238 7.88447 6.18238 5.92527C10.1628 2.08045 15.4941 -0.0471351 21.0279 0.000792514C26.5618 0.0487201 31.8555 2.26832 35.7686 6.18151C39.6818 10.0947 41.9014 15.3883 41.9494 20.9222C41.9973 26.4561 39.8697 31.7874 36.0249 35.7678C36.0249 35.7678 30.9054 41.25 21.0279 41.25ZM10.7724 10.5453C13.3881 7.89681 16.9168 6.34786 20.6369 6.21528C24.3569 6.08271 27.987 7.37653 30.7846 9.83207C33.5821 12.2876 35.3358 15.7193 35.6867 19.4251C36.0376 23.1309 34.9593 26.8307 32.6724 29.7678V29.8278L32.4849 30.0603L32.4399 30.1128C32.3799 30.1953 32.3049 30.2778 32.2374 30.3603L32.0124 30.6153L31.7649 30.8778L31.4274 31.1928L31.1574 31.4478L30.8799 31.7103L30.5949 31.9578L30.3174 32.1903L30.0324 32.4228C29.9349 32.4978 29.8374 32.5728 29.7324 32.6403C29.6274 32.7078 29.5374 32.7903 29.4324 32.8578L29.1324 33.0678L28.8249 33.2628L28.5174 33.4428C28.4161 33.5113 28.3109 33.5739 28.2024 33.6303L27.8874 33.7953L27.5724 33.9603L27.2499 34.1178L26.9274 34.2678C26.8224 34.3203 26.7099 34.3578 26.5974 34.4028C26.4905 34.453 26.3802 34.4956 26.2674 34.5303L25.9374 34.6578L25.5999 34.7703L25.2624 34.8753L24.9249 34.9728L24.5799 35.0553L24.2424 35.1378L23.8899 35.2128L23.5524 35.2728L23.1774 35.3178L22.8324 35.3628H22.4874H22.1349H21.7824H20.3949H20.0499H19.6974H19.3449L18.9999 35.3178L18.6774 35.2653L18.3324 35.2053L17.9874 35.1303L17.6199 35.0178L17.2824 34.9353L16.9374 34.8378L16.6074 34.7328L16.2699 34.6203L15.9324 34.4928C15.82 34.4568 15.7098 34.4142 15.6024 34.3653L15.2724 34.2678L14.9274 34.1178L14.6049 33.9603C14.4999 33.9078 14.3874 33.8553 14.2899 33.7953L13.9674 33.6303L13.6524 33.4428L13.3449 33.2628L13.0374 33.0678L12.7374 32.8578L12.4374 32.6403L12.1449 32.4228C12.0474 32.3478 11.9499 32.2728 11.8599 32.1903C11.7624 32.1153 11.6649 32.0403 11.5749 31.9578L11.2899 31.7103C11.1999 31.6353 11.1099 31.5453 11.0199 31.4553L10.7499 31.2003C8.01247 28.4619 6.47468 24.7485 6.47468 20.8765C6.47468 17.0046 8.01247 13.2911 10.7499 10.5528L10.7724 10.5453Z" fill="currentColor"/>
</svg>
