<svg xmlns="http://www.w3.org/2000/svg" width="18" height="16" fill="none" viewBox="0 0 18 16">
    <path fill="currentColor" d="M17.156 5.714H.844c-.468 0-.844.382-.844.857V9.43c0 .475.376.857.844.857h16.312c.468 0 .844-.382.844-.857V6.57c0-.475-.376-.857-.844-.857zM4.5 9.143H1.125V6.857H4.5v2.286zm12.375 0H5.625V6.857h11.25v2.286zM17.156 0H.844C.376 0 0 .382 0 .857v2.857c0 .475.376.857.844.857h16.312c.468 0 .844-.382.844-.857V.857C18 .382 17.624 0 17.156 0zM11.25 3.429H1.125V1.143H11.25v2.286zm5.625 0h-4.5V1.143h4.5v2.286zm.281 8H.844c-.468 0-.844.382-.844.857v2.857c0 .475.376.857.844.857h16.312c.468 0 .844-.382.844-.857v-2.857c0-.475-.376-.857-.844-.857zM9 14.857H1.125v-2.286H9v2.286zm7.875 0h-6.75v-2.286h6.75v2.286z"/>
</svg>
