<svg width="20" height="20" viewBox="0 0 20 20" fill="none" xmlns="http://www.w3.org/2000/svg">
<path d="M5.20837 1.66675C4.17462 1.66675 3.33337 2.508 3.33337 3.54175V16.4584C3.33337 17.4922 4.17462 18.3334 5.20837 18.3334H11.5137C11.1575 17.963 10.8545 17.543 10.6145 17.0834H5.20837C4.86379 17.0834 4.58337 16.803 4.58337 16.4584V3.54175C4.58337 3.19716 4.86379 2.91675 5.20837 2.91675H10V6.45841C10 7.49216 10.8413 8.33341 11.875 8.33341H15.4167V9.16675H15.4175C15.8484 9.16675 16.265 9.2223 16.6667 9.3173V7.70841C16.6667 7.53591 16.5967 7.37964 16.4836 7.26652L11.0669 1.84985C10.9539 1.73673 10.7977 1.66675 10.625 1.66675H5.20837ZM11.25 3.80054L14.5329 7.08341H11.875C11.5305 7.08341 11.25 6.803 11.25 6.45841V3.80054ZM15.4167 10.0001C15.1721 10.0001 14.9327 10.0207 14.6989 10.0603L14.5549 10.6568C14.3311 11.5839 13.3772 12.1349 12.4626 11.8645L11.9605 11.7156C11.6588 12.1043 11.4171 12.5463 11.25 13.0242L11.6228 13.3822C12.304 14.0381 12.304 15.1288 11.6228 15.7846L11.25 16.1427C11.4171 16.6206 11.6584 17.0621 11.9605 17.4513L12.4626 17.3023C13.3772 17.0319 14.3311 17.5829 14.5549 18.51L14.6989 19.1065C14.9327 19.1461 15.1725 19.1667 15.4167 19.1667C15.6613 19.1667 15.9007 19.1461 16.1345 19.1065L16.2785 18.51C16.5023 17.5829 17.4562 17.0319 18.3708 17.3023L18.8729 17.4513C19.1746 17.0625 19.4163 16.6206 19.5834 16.1427L19.2106 15.7846C18.5294 15.1292 18.5294 14.0377 19.2106 13.3822L19.5834 13.0242C19.4163 12.5463 19.175 12.1047 18.8729 11.7156L18.3708 11.8645C17.4562 12.1349 16.5023 11.5839 16.2785 10.6568L16.1345 10.0603C15.9007 10.0207 15.6613 10.0001 15.4167 10.0001ZM15.4167 13.3334C16.1071 13.3334 16.6667 13.893 16.6667 14.5834C16.6667 15.2738 16.1071 15.8334 15.4167 15.8334C14.7263 15.8334 14.1667 15.2738 14.1667 14.5834C14.1667 13.893 14.7263 13.3334 15.4167 13.3334Z" fill="#6B7280"/>
</svg>
