<svg width="13" height="15" viewBox="0 0 13 15" fill="none" xmlns="http://www.w3.org/2000/svg">
<path d="M2.07284 0C1.39462 0 0.833252 0.56137 0.833252 1.23958V3.36458C0.833252 4.0428 1.39462 4.60417 2.07284 4.60417H2.95825V11.8646C2.95825 12.5428 3.51962 13.1042 4.19783 13.1042H6.85408V13.6354C6.85408 14.3136 7.41545 14.875 8.09367 14.875H10.927C11.6052 14.875 12.1666 14.3136 12.1666 13.6354V11.5104C12.1666 10.8322 11.6052 10.2708 10.927 10.2708H8.09367C7.41545 10.2708 6.85408 10.8322 6.85408 11.5104V12.0417H4.19783C4.09334 12.0417 4.02075 11.9691 4.02075 11.8646V7.4375H6.85408V7.96875C6.85408 8.64696 7.41545 9.20833 8.09367 9.20833H10.927C11.6052 9.20833 12.1666 8.64696 12.1666 7.96875V5.84375C12.1666 5.16554 11.6052 4.60417 10.927 4.60417H8.09367C7.41545 4.60417 6.85408 5.16554 6.85408 5.84375V6.375H4.02075V4.60417H4.90617C5.58438 4.60417 6.14575 4.0428 6.14575 3.36458V1.23958C6.14575 0.56137 5.58438 0 4.90617 0H2.07284ZM2.07284 1.0625H4.90617C5.01066 1.0625 5.08325 1.13509 5.08325 1.23958V3.36458C5.08325 3.46908 5.01066 3.54167 4.90617 3.54167H3.57666C3.51963 3.5323 3.46145 3.5323 3.40442 3.54167H2.07284C1.96834 3.54167 1.89575 3.46908 1.89575 3.36458V1.23958C1.89575 1.13509 1.96834 1.0625 2.07284 1.0625ZM8.09367 5.66667H10.927C11.0315 5.66667 11.1041 5.73925 11.1041 5.84375V7.96875C11.1041 8.07324 11.0315 8.14583 10.927 8.14583H8.09367C7.98917 8.14583 7.91658 8.07324 7.91658 7.96875V6.99341C7.92595 6.93638 7.92595 6.8782 7.91658 6.82117V5.84375C7.91658 5.73925 7.98917 5.66667 8.09367 5.66667ZM8.09367 11.3333H10.927C11.0315 11.3333 11.1041 11.4059 11.1041 11.5104V13.6354C11.1041 13.7399 11.0315 13.8125 10.927 13.8125H8.09367C7.98917 13.8125 7.91658 13.7399 7.91658 13.6354V12.6601C7.92595 12.603 7.92595 12.5449 7.91658 12.4878V11.5104C7.91658 11.4059 7.98917 11.3333 8.09367 11.3333Z" fill="#465669"/>
</svg>
