 <svg width="13" height="14" viewBox="0 0 13 14" fill="none" xmlns="http://www.w3.org/2000/svg">
<path d="M6.5 0.0356445C3.51247 0.0356445 1.01791 1.86966 0 4.46087L1.07725 4.89614C1.92855 2.72886 3.99403 1.19636 6.5 1.19636C8.39431 1.19636 10.0832 2.11904 11.1376 3.51779H8.83708V4.6785H12.927V0.616002H11.7584V2.41148C10.4781 0.953788 8.58603 0.0356445 6.5 0.0356445ZM11.9228 9.10373C11.0715 11.271 9.00597 12.8035 6.5 12.8035C4.58515 12.8035 2.90309 11.8672 1.8441 10.4821H4.16292V9.32136H0.0730337V13.3839H1.24157V11.5884C2.51966 13.0279 4.39343 13.9642 6.5 13.9642C9.48753 13.9642 11.9821 12.1302 13 9.53899L11.9228 9.10373Z"  fill="currentColor" />
</svg>
