<svg width="13" height="15" viewBox="0 0 13 15" fill="none" xmlns="http://www.w3.org/2000/svg">
<path d="M6.5 0.535706C3.51247 0.535706 1.01791 2.36972 0 4.96093L1.07725 5.3962C1.92855 3.22893 3.99403 1.69642 6.5 1.69642C8.39431 1.69642 10.0832 2.6191 11.1376 4.01785H8.83708V5.17856H12.927V1.11606H11.7584V2.91154C10.4781 1.45385 8.58603 0.535706 6.5 0.535706ZM11.9228 9.60379C11.0715 11.7711 9.00597 13.3036 6.5 13.3036C4.58515 13.3036 2.90309 12.3673 1.8441 10.9821H4.16292V9.82142H0.0730337V13.8839H1.24157V12.0884C2.51966 13.528 4.39343 14.4643 6.5 14.4643C9.48753 14.4643 11.9821 12.6303 13 10.0391L11.9228 9.60379Z" fill="#465669"/>
</svg>
