<svg xmlns="http://www.w3.org/2000/svg" width="12" height="11" fill="none" viewBox="0 0 12 11">
    <path fill="currentColor" d="M4.88 0c-.12.004-.235.052-.32.135L.139 4.417C.049 4.503 0 4.62 0 4.741c0 .122.05.239.139.325l4.42 4.282c.067.064.151.108.243.126.092.018.187.008.274-.026.086-.035.16-.094.212-.17.053-.075.08-.163.08-.254V6.686c.691-.036 1.762-.036 2.855.313 1.295.412 2.464 1.217 2.839 3.033.023.111.088.21.183.278.094.068.211.099.328.088.117-.011.225-.064.304-.149.08-.084.123-.194.123-.307 0-.034-.01-.058-.01-.09l-.002-.007c-.032-3.002-1.434-4.82-3.011-5.81-1.39-.87-2.77-1.104-3.609-1.195V.46c0-.061-.012-.122-.037-.179-.025-.056-.06-.108-.106-.15-.046-.043-.1-.077-.159-.099-.059-.022-.122-.033-.186-.03zm-.459 1.567v1.66c0 .115.045.227.127.312.08.084.192.136.312.145.633.045 2.22.256 3.602 1.122.84.527 1.578 1.325 2.058 2.46-.6-.538-1.298-.915-2.001-1.14-1.505-.479-3.01-.407-3.669-.347-.117.01-.226.063-.306.148-.08.084-.123.194-.123.309v1.68L1.143 4.741l3.278-3.174z"/>
</svg>
