<svg width="14" height="14" viewBox="0 0 14 14" fill="none" xmlns="http://www.w3.org/2000/svg">
<path d="M5.7931 0V0.984075H0V9.84075H5.20286L3.86113 11.7214L4.64278 12.3L6.27869 10.0051C6.2784 10.0248 6.27586 10.0439 6.27586 10.0637C6.27586 12.2287 8.01379 14 10.1379 14C12.2621 14 14 12.2287 14 10.0637C14 8.828 13.4327 7.72209 12.5517 6.99904V0.984075H6.75862V0H5.7931ZM0.965517 1.96815H11.5862V6.41859C11.1381 6.23212 10.6498 6.1274 10.1379 6.1274C8.42657 6.1274 6.96751 7.2776 6.46444 8.85667H0.965517V1.96815ZM8.2069 3.24053L5.7931 5.70071L4.34483 4.2246L2.07247 6.54064L2.75512 7.23641L4.34483 5.61614L5.7931 7.09226L8.2069 4.63207L9.31385 5.7603L9.9965 5.06453L8.2069 3.24053ZM10.1379 7.11148C11.731 7.11148 13.0345 8.43998 13.0345 10.0637C13.0345 11.6874 11.731 13.0159 10.1379 13.0159C8.54483 13.0159 7.24138 11.6874 7.24138 10.0637C7.24138 8.43998 8.54483 7.11148 10.1379 7.11148ZM9.65517 8.09555V10.3587L8.83486 11.1958L9.50997 11.8839L10.6207 10.7527V8.09555H9.65517Z" fill="#465669"/>
</svg>
