<svg width="9" height="13" viewBox="0 0 9 13" fill="none" xmlns="http://www.w3.org/2000/svg">
<path d="M8.71875 0.875V1.8125H7.78125V3.6875C7.78125 4.87952 7.14038 5.92505 6.18457 6.5C7.14038 7.07495 7.78125 8.12048 7.78125 9.3125V11.1875H8.71875V12.125H0.28125V11.1875H1.21875V9.3125C1.21875 8.12048 1.85962 7.07495 2.81543 6.5C1.85962 5.92505 1.21875 4.87952 1.21875 3.6875V1.8125H0.28125V0.875H8.71875ZM6.84375 1.8125H2.15625V3.6875C2.15625 4.98755 3.19995 6.03125 4.5 6.03125C5.80005 6.03125 6.84375 4.98755 6.84375 3.6875V1.8125ZM6.375 2.75V3.6875C6.375 4.72388 5.53638 5.5625 4.5 5.5625C3.46362 5.5625 2.625 4.72388 2.625 3.6875V2.75H6.375ZM4.5 6.96875C3.19995 6.96875 2.15625 8.01245 2.15625 9.3125V11.1875H6.84375V9.3125C6.84375 8.01245 5.80005 6.96875 4.5 6.96875Z" fill="currentColor"/>
</svg>
