<svg xmlns="http://www.w3.org/2000/svg" width="19" height="19" fill="none" viewBox="0 0 19 19">
    <circle cx="9.5" cy="9.5" r="8.9" fill="#fff" stroke="#91A0B4" stroke-width="1.2"/>
    <mask id="7yhnp8wmoa" fill="#fff">
        <path d="M8.623 5C6.626 5 5 6.626 5 8.623c0 1.996 1.626 3.623 3.623 3.623.863 0 1.657-.305 2.28-.812l2.452 2.45c.034.037.076.066.121.085.046.02.095.03.145.031.05 0 .1-.009.146-.028.046-.019.088-.046.123-.082.035-.035.063-.077.082-.123.019-.046.029-.096.028-.146 0-.05-.011-.099-.03-.145-.02-.045-.05-.087-.085-.121l-2.451-2.451c.507-.624.812-1.418.812-2.281C12.246 6.626 10.619 5 8.623 5zm0 .75c1.591 0 2.873 1.282 2.873 2.873 0 .775-.306 1.475-.802 1.991-.03.023-.057.05-.08.08-.516.496-1.216.802-1.991.802-1.591 0-2.873-1.282-2.873-2.873 0-1.591 1.282-2.873 2.873-2.873z"/>
    </mask>
    <path fill="currentColor" d="M8.623 5C6.626 5 5 6.626 5 8.623c0 1.996 1.626 3.623 3.623 3.623.863 0 1.657-.305 2.28-.812l2.452 2.45c.034.037.076.066.121.085.046.02.095.03.145.031.05 0 .1-.009.146-.028.046-.019.088-.046.123-.082.035-.035.063-.077.082-.123.019-.046.029-.096.028-.146 0-.05-.011-.099-.03-.145-.02-.045-.05-.087-.085-.121l-2.451-2.451c.507-.624.812-1.418.812-2.281C12.246 6.626 10.619 5 8.623 5zm0 .75c1.591 0 2.873 1.282 2.873 2.873 0 .775-.306 1.475-.802 1.991-.03.023-.057.05-.08.08-.516.496-1.216.802-1.991.802-1.591 0-2.873-1.282-2.873-2.873 0-1.591 1.282-2.873 2.873-2.873z"/>
    <path fill="currentColor" d="M10.904 11.434l.736-.737-.664-.664-.73.592.658.809zm2.45 2.45l.752-.72-.007-.008-.008-.008-.736.737zm.53-.53l-.736.737.008.008.007.007.722-.751zm-2.45-2.45l-.809-.658-.592.73.664.664.737-.736zm-.74-.29l.617.84.072-.053.062-.065-.75-.722zm-.08.08l.722.751.065-.062.053-.072-.84-.617zM8.623 3.958c-2.572 0-4.665 2.093-4.665 4.665h2.084c0-1.421 1.16-2.581 2.58-2.581V3.958zM3.958 8.623c0 2.572 2.093 4.664 4.665 4.664v-2.083c-1.421 0-2.581-1.16-2.581-2.581H3.958zm4.665 4.664c1.113 0 2.137-.394 2.938-1.045l-1.315-1.617c-.445.363-1.01.579-1.623.579v2.083zm1.544-1.117l2.451 2.451 1.473-1.473-2.45-2.451-1.474 1.473zm2.436 2.436c.13.136.287.245.46.32l.827-1.913c.081.035.155.086.216.15l-1.503 1.443zm.46.32c.173.074.36.114.548.116l.021-2.084c.089.001.176.02.258.055l-.827 1.912zm.548.116c.188.002.375-.034.55-.105l-.788-1.93c.082-.033.17-.05.259-.049l-.021 2.084zm.55-.105c.174-.072.332-.177.466-.31l-1.473-1.473c.062-.063.137-.113.22-.146l.787 1.929zm.466-.31c.133-.134.238-.292.31-.466l-1.93-.788c.034-.082.084-.157.147-.22l1.473 1.474zm.31-.466c.07-.175.107-.362.105-.55l-2.084.021c0-.089.016-.177.05-.259l1.929.788zm.105-.55c-.002-.189-.042-.375-.117-.548l-1.912.827c-.035-.082-.054-.17-.055-.258l2.084-.021zm-.117-.548c-.074-.173-.183-.33-.319-.46l-1.443 1.503c-.064-.061-.115-.135-.15-.216l1.912-.827zm-.304-.445l-2.45-2.45-1.474 1.472 2.451 2.451 1.473-1.473zm-2.38-1.057c.652-.801 1.046-1.825 1.046-2.938h-2.083c0 .614-.216 1.178-.579 1.623l1.617 1.315zm1.046-2.938c0-2.572-2.093-4.665-4.664-4.665v2.084c1.42 0 2.581 1.16 2.581 2.58h2.083zM8.623 6.79c1.016 0 1.831.816 1.831 1.832h2.084c0-2.167-1.749-3.915-3.915-3.915V6.79zm1.831 1.832c0 .495-.193.94-.51 1.27l1.501 1.443c.675-.702 1.093-1.658 1.093-2.713h-2.084zm-.377 1.152c-.115.085-.217.187-.302.302l1.679 1.234c-.04.055-.088.103-.143.143l-1.234-1.68zm-.185.168c-.33.318-.774.511-1.27.511v2.084c1.056 0 2.012-.418 2.714-1.093L9.892 9.943zm-1.27.511c-1.015 0-1.83-.815-1.83-1.831H4.707c0 2.166 1.748 3.915 3.915 3.915v-2.084zm-1.83-1.831c0-1.016.815-1.832 1.83-1.832V4.708c-2.166 0-3.914 1.748-3.914 3.915H6.79z" mask="url(#7yhnp8wmoa)"/>
</svg>
