<svg width="17" height="16" viewBox="0 0 17 16" fill="none" xmlns="http://www.w3.org/2000/svg">
<path d="M1.23958 0.5H15.7604C16.1968 0.5 16.5 0.8276 16.5 1.16667V2.83333C16.5 3.1724 16.1968 3.5 15.7604 3.5H1.23958C0.803195 3.5 0.5 3.1724 0.5 2.83333V1.16667C0.5 0.8276 0.803195 0.5 1.23958 0.5Z" stroke="#91A0B4"/>
<path d="M1.23958 6.5H15.7604C16.1968 6.5 16.5 6.8276 16.5 7.16667V8.83333C16.5 9.1724 16.1968 9.5 15.7604 9.5H1.23958C0.803195 9.5 0.5 9.1724 0.5 8.83333V7.16667C0.5 6.8276 0.803195 6.5 1.23958 6.5Z" stroke="#91A0B4"/>
<path d="M1.23958 12.5H15.7604C16.1968 12.5 16.5 12.8276 16.5 13.1667V14.8333C16.5 15.1724 16.1968 15.5 15.7604 15.5H1.23958C0.803195 15.5 0.5 15.1724 0.5 14.8333V13.1667C0.5 12.8276 0.803195 12.5 1.23958 12.5Z" fill="currentColor" stroke="#91A0B4"/>
</svg>
