<svg width="17" height="17" viewBox="0 0 17 17" fill="none" xmlns="http://www.w3.org/2000/svg">
<path d="M16.2 0.100098C16.1328 0.100559 16.066 0.110688 16.0017 0.130176C15.9828 0.135312 15.9641 0.141242 15.9457 0.147949L0.555249 5.04248V5.04521C0.421716 5.09504 0.306575 5.18445 0.225219 5.30147C0.143863 5.4185 0.100168 5.55757 0.0999756 5.7001C0.100231 5.8203 0.131434 5.93841 0.19058 6.04305C0.249726 6.14769 0.334822 6.23534 0.437671 6.29756L5.11482 10.0081L14.3611 2.63896L6.99197 11.8853L10.6998 16.5597C10.7619 16.6634 10.8498 16.7493 10.955 16.809C11.0602 16.8686 11.179 16.9 11.3 16.9001C11.4425 16.8999 11.5816 16.8562 11.6986 16.7749C11.8156 16.6935 11.905 16.5784 11.9549 16.4448H11.9576L16.8562 1.04072C16.8612 1.02674 16.8658 1.01261 16.8699 0.99834C16.8894 0.934045 16.8995 0.867279 16.9 0.800098C16.9 0.614446 16.8262 0.436398 16.695 0.305123C16.5637 0.173847 16.3856 0.100098 16.2 0.100098Z" fill="currentColor"/>
</svg>
