<svg width="18" height="18" viewBox="0 0 18 18" fill="none" xmlns="http://www.w3.org/2000/svg">
<path d="M7.49432 11.8913L9.33855 13.7271C9.4517 13.8431 9.59317 13.9275 9.74897 13.972C9.90476 14.0165 10.0695 14.0196 10.2268 13.9809C10.3851 13.9441 10.5313 13.8672 10.6513 13.7575C10.7714 13.6479 10.8611 13.5092 10.9121 13.3549L13.9407 4.27755C14.0039 4.10747 14.0169 3.92282 13.9782 3.74554C13.9396 3.56826 13.8508 3.40582 13.7225 3.27751C13.5942 3.14921 13.4317 3.06045 13.2545 3.02177C13.0772 2.9831 12.8925 2.99614 12.7224 3.05935L3.64513 6.08794C3.48545 6.14248 3.34324 6.23867 3.23318 6.36658C3.12313 6.49448 3.04922 6.64945 3.01911 6.81548C2.98803 6.96648 2.99495 7.12283 3.03925 7.27049C3.08354 7.41816 3.16383 7.5525 3.2729 7.66145L5.59088 9.97943L5.51474 12.915L7.49432 11.8913Z" stroke="white" stroke-linecap="round" stroke-linejoin="round"/>
<path d="M13.6699 3.24545L5.59088 9.97942" stroke="white" stroke-linecap="round" stroke-linejoin="round"/>
</svg>
