<svg width="20" height="20" viewBox="0 0 20 20" fill="none" xmlns="http://www.w3.org/2000/svg">
<path d="M4.16667 2.5L2.5 4.16667L3.67187 5.92448C3.98104 6.38865 4.50193 6.66667 5.05859 6.66667H5.48828L8.43587 9.61426L3.74023 14.3083C3.1969 14.8516 3.1969 15.7327 3.74023 16.276L4.55566 17.0915C4.82816 17.364 5.1837 17.5 5.54036 17.5C5.8962 17.5 6.2534 17.3648 6.52506 17.0931L10.4167 13.1999L14.3083 17.0931C14.5799 17.3648 14.9371 17.5 15.293 17.5C15.6488 17.5 16.0044 17.3648 16.276 17.0931L17.0915 16.2777C17.6348 15.7343 17.6348 14.8532 17.0915 14.3099L13.1999 10.4167L14.5003 9.11621C14.6645 9.14038 14.8292 9.16667 15 9.16667C16.8408 9.16667 18.3333 7.67417 18.3333 5.83333C18.3333 5.345 18.223 4.88365 18.0339 4.46615L16.8555 5.64453L15.5599 5.27344L15.1888 3.97786L16.3672 2.79948C15.9497 2.61031 15.4883 2.5 15 2.5C13.1592 2.5 11.6667 3.9925 11.6667 5.83333C11.6667 6.00417 11.693 6.16884 11.7171 6.33301L9.61426 8.43587L6.66667 5.48828V5.05859C6.66667 4.50193 6.38865 3.98104 5.92448 3.67188L4.16667 2.5ZM13.9111 4.05762L13.986 4.32292L14.3571 5.61849L14.5475 6.28581L15.2148 6.47624L16.5104 6.84733L16.7757 6.92383C16.4082 7.51883 15.75 7.91667 15 7.91667C14.9275 7.91667 14.8167 7.90003 14.6875 7.88086L14.0641 7.78646L13.6165 8.23242L12.3161 9.53288L12.3079 9.52474L9.52474 12.3079L9.53288 12.3161L5.64128 16.2077C5.61378 16.2352 5.5787 16.25 5.54036 16.25C5.50203 16.25 5.46858 16.2352 5.44108 16.2077L4.62565 15.3939C4.57065 15.3389 4.57065 15.2479 4.62565 15.1921L12.6009 7.2168L13.0452 6.75781L12.9508 6.13281C12.9333 6.01615 12.9167 5.90583 12.9167 5.83333C12.9167 5.08333 13.3153 4.42428 13.9111 4.05762ZM12.3161 11.3005L16.2093 15.1921C16.2643 15.2471 16.2643 15.3364 16.2093 15.3923L15.3939 16.2077C15.3664 16.2352 15.3329 16.2484 15.2946 16.2484C15.2554 16.2484 15.2212 16.2352 15.1937 16.2077L11.3021 12.3161L12.3161 11.3005Z" fill="currentColor"/>
</svg>
