<svg xmlns="http://www.w3.org/2000/svg" width="15" height="15" fill="none" viewBox="0 0 15 15">
    <path  fill="currentColor" d="M6.346 0c-.32 0-.577.257-.577.577v.901c-.46.136-.892.316-1.298.541l-.64-.64c-.225-.22-.595-.22-.82 0L1.379 3.011c-.22.225-.22.595 0 .82l.65.64c-.23.41-.41.843-.542 1.298h-.91c-.32 0-.577.257-.577.577v2.308c0 .32.257.577.577.577h.901c.136.46.316.892.541 1.298l-.64.644c-.22.221-.22.59 0 .816l1.632 1.627c.225.226.595.226.82 0l.64-.64c.406.226.838.406 1.298.541v.906c0 .32.257.577.577.577h2.308c.315 0 .572-.257.577-.577v-.901c.46-.136.892-.316 1.298-.541l.644.635c.221.226.59.226.816 0l1.627-1.627c.226-.225.226-.595 0-.816l-.644-.644c.225-.406.41-.838.545-1.298h.906c.32 0 .577-.257.577-.577V6.346c0-.32-.257-.577-.577-.577h-.91c-.131-.455-.307-.892-.532-1.302l.635-.636c.226-.225.226-.595 0-.82L11.99 1.379c-.108-.108-.257-.167-.41-.167-.153 0-.297.059-.406.167l-.64.64c-.405-.23-.842-.41-1.302-.545V.577C9.23.257 8.974 0 8.654 0H6.346zm.577 1.154h1.154v.694c0 .275.194.51.46.568.662.13 1.275.392 1.82.757.23.149.537.117.73-.077l.492-.49.816.815-.496.491c-.19.199-.22.5-.072.73.36.537.608 1.154.744 1.821.058.266.293.46.568.46h.707v1.154h-.703c-.275 0-.51.194-.563.464-.136.654-.402 1.262-.762 1.808-.153.23-.122.531.072.725l.505.505-.816.816-.505-.5c-.19-.194-.496-.226-.725-.073-.55.361-1.154.631-1.812.762-.266.054-.46.293-.46.568v.694H6.923v-.703c0-.275-.194-.51-.464-.563-.654-.136-1.262-.402-1.808-.762-.23-.149-.536-.122-.73.077l-.5.5-.816-.816.5-.5c.194-.194.226-.496.077-.726-.365-.554-.635-1.158-.766-1.816-.059-.266-.293-.46-.568-.46h-.694V6.923h.703c.275 0 .51-.194.568-.46.13-.658.397-1.266.757-1.812.149-.23.122-.536-.072-.73l-.505-.5.816-.816.5.5c.194.194.496.226.726.077.554-.365 1.158-.635 1.816-.766.266-.059.46-.293.46-.568v-.694zM7.6 4.615c-1.582-.054-2.925 1.2-2.984 2.786-.054 1.582 1.2 2.925 2.786 2.984 1.582.054 2.925-1.2 2.984-2.786.054-1.582-1.2-2.925-2.786-2.984zM7.563 5.77c.96.036 1.704.83 1.668 1.794-.036.96-.83 1.704-1.794 1.668-.96-.036-1.704-.83-1.668-1.794.036-.96.83-1.704 1.794-1.668z"/>
</svg>
