<svg xmlns="http://www.w3.org/2000/svg" width="11" height="10" fill="none" viewBox="0 0 11 10">
    <path fill="currentColor"   d="M3.75.125c-1.652 0-3 1.348-3 3 0 1.106.605 2.07 1.5 2.59v3.41h8.25v-7.5H8.625V1.25h-.75v.375H6.34C5.82.73 4.856.125 3.75.125zm0 .75C4.997.875 6 1.878 6 3.125s-1.003 2.25-2.25 2.25S1.5 4.372 1.5 3.125 2.503.875 3.75.875zm-.375.75v1.71l-.645.645.54.54.75-.75.105-.118V1.625h-.75zm3.27.75h1.23v.375h.75v-.375H9.75v.75h-3c0-.26-.042-.508-.105-.75zm0 1.5H9.75v4.5H3V6.02c.242.063.49.105.75.105 1.392 0 2.558-.96 2.895-2.25zm.105 1.5v.75h.75v-.75h-.75zm1.5 0v.75H9v-.75h-.75zm-4.5 1.5v.75h.75v-.75h-.75zm1.5 0v.75H6v-.75h-.75zm1.5 0v.75h.75v-.75h-.75zm1.5 0v.75H9v-.75h-.75z"/>
</svg>
