<svg width="20" height="20" viewBox="0 0 20 20" fill="none" xmlns="http://www.w3.org/2000/svg">
<path d="M1.90476 15.5556C1.90476 16.5397 2.60317 17.3968 3.5873 17.5873C3.61905 17.5873 3.65079 17.6032 3.68254 17.6032C3.90476 17.6032 4.11111 17.4444 4.14286 17.2222C4.19048 16.9683 4.01587 16.7143 3.7619 16.6667C3.2381 16.5714 2.85714 16.1111 2.85714 15.5714V14.9206C2.85714 14.6508 2.65079 14.4444 2.38095 14.4444C2.11111 14.4444 1.90476 14.6508 1.90476 14.9206V15.5556ZM2.38095 12.5238C2.65079 12.5238 2.85714 12.3175 2.85714 12.0476V9.20635C2.85714 8.93651 2.65079 8.73016 2.38095 8.73016C2.11111 8.73016 1.90476 8.93651 1.90476 9.20635V12.0635C1.90476 12.3175 2.11111 12.5238 2.38095 12.5238ZM6.04762 17.1429C6.04762 17.4127 6.25397 17.619 6.52381 17.619H8.22222L6.65079 19.1905C6.46032 19.381 6.46032 19.6825 6.65079 19.8571C6.74603 19.9524 6.87302 20 6.98413 20C7.09524 20 7.22222 19.9524 7.31746 19.8571L9.69841 17.4762C9.88889 17.2857 9.88889 16.9841 9.69841 16.8095L7.31746 14.4286C7.12698 14.2381 6.8254 14.2381 6.65079 14.4286C6.46032 14.619 6.46032 14.9206 6.65079 15.0952L8.22222 16.6667H6.52381C6.25397 16.6667 6.04762 16.873 6.04762 17.1429ZM2.38095 0.476191C1.06349 0.476191 0 1.53968 0 2.85714C0 4 0.825397 4.96825 1.90476 5.19048V6.34921C1.90476 6.61905 2.11111 6.8254 2.38095 6.8254C2.65079 6.8254 2.85714 6.61905 2.85714 6.34921V5.19048C3.93651 4.96825 4.7619 4 4.7619 2.85714C4.7619 1.53968 3.69841 0.476191 2.38095 0.476191ZM2.38095 4.28571C1.5873 4.28571 0.952381 3.65079 0.952381 2.85714C0.952381 2.06349 1.5873 1.42857 2.38095 1.42857C3.1746 1.42857 3.80952 2.06349 3.80952 2.85714C3.80952 3.65079 3.1746 4.28571 2.38095 4.28571ZM18.0952 4.44444C18.0952 3.46032 17.3968 2.60317 16.4127 2.4127C16.1587 2.36508 15.9048 2.53968 15.8571 2.79365C15.8095 3.04762 15.9841 3.30159 16.2381 3.34921C16.7619 3.44444 17.1429 3.90476 17.1429 4.44444V5.09524C17.1429 5.36508 17.3492 5.57143 17.619 5.57143C17.8889 5.57143 18.0952 5.36508 18.0952 5.09524V4.44444ZM17.619 7.47619C17.3492 7.47619 17.1429 7.68254 17.1429 7.95238V10.8095C17.1429 11.0794 17.3492 11.2857 17.619 11.2857C17.8889 11.2857 18.0952 11.0794 18.0952 10.8095V7.95238C18.0952 7.68254 17.8889 7.47619 17.619 7.47619ZM13.3492 0.142857C13.1587 -0.0476191 12.8571 -0.0476191 12.6825 0.142857L10.3016 2.52381C10.1111 2.71429 10.1111 3.01587 10.3016 3.19048L12.6825 5.57143C12.7778 5.66667 12.9048 5.71429 13.0159 5.71429C13.127 5.71429 13.254 5.66667 13.3492 5.57143C13.5397 5.38095 13.5397 5.07937 13.3492 4.90476L11.7778 3.33333H13.4762C13.746 3.33333 13.9524 3.12698 13.9524 2.85714C13.9524 2.5873 13.746 2.38095 13.4762 2.38095H11.7778L13.3492 0.809524C13.5397 0.619048 13.5397 0.333333 13.3492 0.142857ZM18.0952 14.8095V13.6508C18.0952 13.381 17.8889 13.1746 17.619 13.1746C17.3492 13.1746 17.1429 13.381 17.1429 13.6508V14.8095C16.0635 15.0317 15.2381 16 15.2381 17.1429C15.2381 18.4603 16.3016 19.5238 17.619 19.5238C18.9365 19.5238 20 18.4603 20 17.1429C20 16 19.1746 15.0317 18.0952 14.8095ZM17.619 18.5714C16.8254 18.5714 16.1905 17.9365 16.1905 17.1429C16.1905 16.3492 16.8254 15.7143 17.619 15.7143C18.4127 15.7143 19.0476 16.3492 19.0476 17.1429C19.0476 17.9365 18.4127 18.5714 17.619 18.5714Z" fill="#566980"/>
</svg>
