<svg xmlns="http://www.w3.org/2000/svg" width="15" height="14" fill="none" viewBox="0 0 15 14">
    <path fill="#465669" d="M12.321 0c-1.473 0-2.678 1.212-2.678 2.692 0 .185.02.362.054.539L4.842 5.427c-.49-.673-1.276-1.12-2.163-1.12C1.205 4.308 0 5.52 0 7c0 1.48 1.205 2.692 2.679 2.692.891 0 1.686-.45 2.172-1.131l4.859 2.17c-.042.185-.067.379-.067.577 0 1.48 1.205 2.692 2.678 2.692C13.795 14 15 12.789 15 11.308s-1.205-2.693-2.679-2.693c-.891 0-1.686.45-2.172 1.132L5.29 7.581c.042-.19.067-.383.067-.581 0-.202-.025-.4-.067-.589l4.83-2.196c.486.707 1.293 1.17 2.201 1.17C13.795 5.385 15 4.173 15 2.692 15 1.212 13.795 0 12.321 0zm0 1.077c.896 0 1.608.715 1.608 1.615s-.712 1.616-1.608 1.616c-.895 0-1.607-.715-1.607-1.616 0-.9.712-1.615 1.607-1.615zM2.68 5.385c.895 0 1.607.715 1.607 1.615s-.712 1.615-1.607 1.615C1.783 8.615 1.07 7.9 1.07 7s.712-1.615 1.608-1.615zm9.642 4.307c.896 0 1.608.716 1.608 1.616 0 .9-.712 1.615-1.608 1.615-.895 0-1.607-.715-1.607-1.615s.712-1.616 1.607-1.616z"/>
</svg>
