<svg width="24" height="21" viewBox="0 0 24 21" fill="none" xmlns="http://www.w3.org/2000/svg">
<path d="M23.1427 7.71428H0.856934" stroke="CurrentColor" stroke-width="2" stroke-linecap="round" stroke-linejoin="round"/>
<path d="M23.1427 12.8571H0.856934" stroke="CurrentColor" stroke-width="2" stroke-linecap="round" stroke-linejoin="round"/>
<path d="M7.71387 16.5714L11.4309 20.057C11.4581 20.0841 11.4908 20.1057 11.5272 20.1205C11.5636 20.1352 11.6028 20.1429 11.6425 20.1429C11.6821 20.1429 11.7213 20.1352 11.7577 20.1205C11.7941 20.1057 11.8269 20.0841 11.854 20.057L15.571 16.5714" stroke="CurrentColor" stroke-width="1.5" stroke-linecap="round" stroke-linejoin="round"/>
<path d="M7.71387 4.42858L11.4309 0.943017C11.4581 0.915907 11.4908 0.894307 11.5272 0.879537C11.5636 0.864767 11.6028 0.857147 11.6425 0.857147C11.6821 0.857147 11.7213 0.864767 11.7577 0.879537C11.7941 0.894307 11.8269 0.915907 11.854 0.943017L15.571 4.42858" stroke="CurrentColor" stroke-width="1.5" stroke-linecap="round" stroke-linejoin="round"/>
</svg>
