<svg width="100" height="100" viewBox="0 0 100 100" fill="none" xmlns="http://www.w3.org/2000/svg">
<g clip-path="url(#clip0_6404_59287)">
<path d="M12.5 18.75C10.8424 18.75 9.25269 19.4085 8.08058 20.5806C6.90848 21.7527 6.25 23.3424 6.25 25C6.25 26.6576 6.90848 28.2473 8.08058 29.4194C9.25269 30.5915 10.8424 31.25 12.5 31.25C14.1576 31.25 15.7473 30.5915 16.9194 29.4194C18.0915 28.2473 18.75 26.6576 18.75 25C18.75 23.3424 18.0915 21.7527 16.9194 20.5806C15.7473 19.4085 14.1576 18.75 12.5 18.75ZM29.1667 20.8333V29.1667H91.6667V20.8333H29.1667ZM12.5 43.75C10.8424 43.75 9.25269 44.4085 8.08058 45.5806C6.90848 46.7527 6.25 48.3424 6.25 50C6.25 51.6576 6.90848 53.2473 8.08058 54.4194C9.25269 55.5915 10.8424 56.25 12.5 56.25C14.1576 56.25 15.7473 55.5915 16.9194 54.4194C18.0915 53.2473 18.75 51.6576 18.75 50C18.75 48.3424 18.0915 46.7527 16.9194 45.5806C15.7473 44.4085 14.1576 43.75 12.5 43.75ZM29.1667 45.8333V54.1667H54.6061C59.8645 49.0167 67.0583 45.8333 75 45.8333H29.1667ZM75 54.1667C63.3333 54.1667 54.1667 63.3333 54.1667 75C54.1667 86.6667 63.3333 95.8333 75 95.8333C79.1667 95.8333 83.3366 94.5801 86.6699 92.4967L94.165 100L100 94.165L92.4967 86.6699C94.5801 83.3366 95.8333 79.1667 95.8333 75C95.8333 63.3333 86.6667 54.1667 75 54.1667ZM75 62.5C82.0833 62.5 87.5 67.9167 87.5 75C87.5 82.0833 82.0833 87.5 75 87.5C67.9167 87.5 62.5 82.0833 62.5 75C62.5 67.9167 67.9167 62.5 75 62.5ZM12.5 68.75C10.8424 68.75 9.25269 69.4085 8.08058 70.5806C6.90848 71.7527 6.25 73.3424 6.25 75C6.25 76.6576 6.90848 78.2473 8.08058 79.4194C9.25269 80.5915 10.8424 81.25 12.5 81.25C14.1576 81.25 15.7473 80.5915 16.9194 79.4194C18.0915 78.2473 18.75 76.6576 18.75 75C18.75 73.3424 18.0915 71.7527 16.9194 70.5806C15.7473 69.4085 14.1576 68.75 12.5 68.75ZM29.1667 70.8333V79.1667H46.167C45.9712 77.8042 45.8333 76.4167 45.8333 75C45.8333 73.5833 45.9712 72.1958 46.167 70.8333H29.1667Z" fill="#9ca3af"/>
</g>
<defs>
<clipPath id="clip0_6404_59287">
<rect width="100" height="100" fill="white"/>
</clipPath>
</defs>
</svg>
