<svg width="20" height="20" viewBox="0 0 20 20" fill="none" xmlns="http://www.w3.org/2000/svg">
<path d="M17.2043 3.74999H10.002" stroke="currentColor" stroke-width="1.5" stroke-linecap="round" stroke-linejoin="round"/>
<path d="M17.2043 7.67856H10.002" stroke="currentColor" stroke-width="1.5" stroke-linecap="round" stroke-linejoin="round"/>
<path d="M17.2043 15.5357H10.002" stroke="currentColor" stroke-width="1.5" stroke-linecap="round" stroke-linejoin="round"/>
<path d="M17.2043 11.6071H10.002" stroke="currentColor" stroke-width="1.5" stroke-linecap="round" stroke-linejoin="round"/>
<g clip-path="url(#clip0_7142_61636)">
<path d="M6.45871 1.93452H2.70871C1.8211 1.93452 1.10156 2.65406 1.10156 3.54166V7.29166C1.10156 8.17927 1.8211 8.89881 2.70871 8.89881H6.45871C7.34631 8.89881 8.06585 8.17927 8.06585 7.29166V3.54166C8.06585 2.65406 7.34631 1.93452 6.45871 1.93452Z" stroke="currentColor" stroke-linecap="round" stroke-linejoin="round"/>
<path d="M2.97656 5.95238L4.07478 6.83095C4.10427 6.85524 4.13881 6.87265 4.17587 6.88192C4.21294 6.89118 4.25161 6.89207 4.28906 6.88452C4.32687 6.87743 4.36272 6.86227 4.39415 6.84009C4.42558 6.8179 4.45186 6.7892 4.4712 6.75595L6.19085 3.80952" stroke="currentColor" stroke-linecap="round" stroke-linejoin="round"/>
</g>
<g clip-path="url(#clip1_7142_61636)">
<path d="M6.45871 11.1012H2.70871C1.8211 11.1012 1.10156 11.8207 1.10156 12.7083V16.4583C1.10156 17.3459 1.8211 18.0655 2.70871 18.0655H6.45871C7.34631 18.0655 8.06585 17.3459 8.06585 16.4583V12.7083C8.06585 11.8207 7.34631 11.1012 6.45871 11.1012Z" stroke="currentColor" stroke-linecap="round" stroke-linejoin="round"/>
<path d="M2.97656 15.119L4.07478 15.9976C4.10427 16.0219 4.13881 16.0393 4.17587 16.0486C4.21294 16.0579 4.25161 16.0587 4.28906 16.0512C4.32687 16.0441 4.36272 16.0289 4.39415 16.0068C4.42558 15.9846 4.45186 15.9559 4.4712 15.9226L6.19085 12.9762" stroke="currentColor" stroke-linecap="round" stroke-linejoin="round"/>
</g>
<defs>
<clipPath id="clip0_7142_61636">
<rect width="7.5" height="7.5" fill="white" transform="translate(0.833984 1.66666)"/>
</clipPath>
<clipPath id="clip1_7142_61636">
<rect width="7.5" height="7.5" fill="white" transform="translate(0.833984 10.8333)"/>
</clipPath>
</defs>
</svg>
