<svg width="16" height="12" viewBox="0 0 16 12" fill="none" xmlns="http://www.w3.org/2000/svg">
<path d="M10.3963 0.23999C9.96859 0.23999 9.55733 0.406752 9.25485 0.704144L9.14082 0.816104H7.46247C7.03478 0.816104 6.62352 0.982865 6.32103 1.28026L1.42981 6.08327C0.803344 6.69836 0.803344 7.70848 1.42981 8.32358L4.45932 11.2987C5.08579 11.9138 6.11515 11.9138 6.74162 11.2987L7.36047 10.6905L7.39313 10.7226C8.0196 11.3377 9.04897 11.3377 9.67544 10.7226L14.5672 5.91955C14.8697 5.62257 15.04 5.21941 15.04 4.79939V1.53625C15.0395 0.825606 14.4431 0.23999 13.7192 0.23999H10.3963ZM10.3963 1.10416H13.7192C13.9675 1.10416 14.1597 1.29226 14.1598 1.53625V4.79939C14.1598 4.99005 14.082 5.17344 13.9444 5.30855L9.05315 10.111C8.76309 10.3958 8.30605 10.3958 8.016 10.111L4.98592 7.13647C4.69586 6.85168 4.69586 6.40294 4.98592 6.11815L9.87771 1.31514C10.0153 1.17987 10.2014 1.10416 10.3963 1.10416ZM7.46247 1.68027H8.26067L4.36363 5.50715C3.73716 6.12225 3.73716 7.13237 4.36363 7.74747L6.73818 10.0795L6.11933 10.6871C5.82928 10.9719 5.37224 10.9719 5.08218 10.6871L2.0521 7.71259C1.76205 7.42779 1.76205 6.97905 2.0521 6.69426L6.94389 1.89125C7.08148 1.75598 7.2676 1.68027 7.46247 1.68027ZM12.399 1.96833C12.1655 1.96833 11.9417 2.05938 11.7766 2.22144C11.6115 2.3835 11.5188 2.60331 11.5188 2.8325C11.5188 3.06169 11.6115 3.2815 11.7766 3.44356C11.9417 3.60562 12.1655 3.69667 12.399 3.69667C12.6324 3.69667 12.8563 3.60562 13.0213 3.44356C13.1864 3.2815 13.2791 3.06169 13.2791 2.8325C13.2791 2.60331 13.1864 2.3835 13.0213 2.22144C12.8563 2.05938 12.6324 1.96833 12.399 1.96833Z" fill="#465669"/>
</svg>
