<svg xmlns="http://www.w3.org/2000/svg" width="18" height="18" fill="none" viewBox="0 0 18 18">
    <path fill="currentColor" d="M17.514.174H9.405c-.275 0-.486.214-.486.494s.21.494.486.494h8.109c.275 0 .486-.214.486-.494s-.21-.494-.486-.494zm0 6.582H9.405c-.275 0-.486.214-.486.493 0 .28.21.494.486.494h8.109c.275 0 .486-.214.486-.494s-.21-.493-.486-.493zm0 6.581H9.405c-.275 0-.486.214-.486.494s.21.493.486.493h8.109c.275 0 .486-.214.486-.493 0-.28-.21-.494-.486-.494zM2.431 4.936c1.346 0 2.433-1.102 2.433-2.468C4.865 1.102 3.778 0 2.432 0 1.086 0 0 1.102 0 2.468c0 1.366 1.086 2.468 2.432 2.468zm0-3.949c.811 0 1.46.658 1.46 1.481 0 .823-.649 1.48-1.46 1.48-.81 0-1.459-.657-1.459-1.48s.649-1.48 1.46-1.48zm0 10.53c1.346 0 2.433-1.102 2.433-2.468 0-1.365-1.087-2.468-2.433-2.468C1.086 6.581 0 7.684 0 9.05c0 1.366 1.086 2.468 2.432 2.468zm0-3.948c.811 0 1.46.658 1.46 1.48 0 .823-.649 1.481-1.46 1.481-.81 0-1.459-.658-1.459-1.48 0-.823.649-1.481 1.46-1.481zm-2.286 8.44l1.8 1.843c.097.099.21.148.34.148h.017c.13 0 .26-.066.356-.165l3.617-4.277c.178-.214.146-.527-.049-.691-.21-.181-.519-.149-.681.049l-3.276 3.85-1.443-1.464c-.195-.198-.503-.198-.681 0-.195.197-.195.51 0 .707zM9.405 2.468h4.509c.275 0 .486.214.486.494s-.21.493-.486.493H9.405c-.275 0-.486-.214-.486-.493 0-.28.21-.494.486-.494zM9.405 9.05h4.509c.275 0 .486.213.486.493s-.21.494-.486.494H9.405c-.275 0-.486-.214-.486-.494s.21-.494.486-.494zM9.405 15.63h4.509c.275 0 .486.215.486.494 0 .28-.21.494-.486.494H9.405c-.275 0-.486-.214-.486-.494s.21-.493.486-.493z"/>
</svg>
