<svg width="18" height="10" viewBox="0 0 18 10" fill="none" xmlns="http://www.w3.org/2000/svg">
<path d="M5.0625 0C3.51123 0 2.25 1.24566 2.25 2.77778C2.25 3.82625 2.84773 4.72905 3.71777 5.20182C1.58153 5.78802 0 7.70648 0 10H1.125C1.125 7.8559 2.8916 6.11111 5.0625 6.11111C6.49072 6.11111 7.80908 6.89236 8.50781 8.15538L9 9.05382L9.49219 8.15538C10.1909 6.89236 11.5093 6.11111 12.9375 6.11111C15.1084 6.11111 16.875 7.8559 16.875 10H18C18 7.73515 16.4568 5.83781 14.3613 5.22569C15.7886 4.6125 17.0056 3.33897 17.1782 3.15538L17.5254 2.77778L17.1738 2.40017C16.9453 2.15278 14.8711 0 12.9375 0C11.3862 0 10.125 1.24566 10.125 2.77778C10.125 3.82105 10.7166 4.72054 11.5796 5.19531C10.5709 5.47885 9.66524 6.06446 9 6.88802C8.33476 6.06446 7.42913 5.47885 6.42041 5.19531C7.28337 4.72054 7.875 3.82105 7.875 2.77778C7.875 1.24566 6.61377 0 5.0625 0ZM5.0625 1.11111C5.99414 1.11111 6.75 1.85764 6.75 2.77778C6.75 3.69792 5.99414 4.44444 5.0625 4.44444C4.13086 4.44444 3.375 3.69792 3.375 2.77778C3.375 1.85764 4.13086 1.11111 5.0625 1.11111ZM12.9375 1.11111C13.9438 1.11111 15.2402 2.10938 15.9653 2.77778C15.2446 3.45052 13.957 4.44444 12.9375 4.44444C12.0059 4.44444 11.25 3.69792 11.25 2.77778C11.25 1.85764 12.0059 1.11111 12.9375 1.11111Z" fill="currentColor"/>
</svg>
