<svg xmlns="http://www.w3.org/2000/svg" width="15" height="16" fill="none" viewBox="0 0 15 16">
    <path fill="currentColor" d="M7.5 0c-.578 0-1.083.24-1.405.609-.322.367-.47.835-.47 1.296 0 .46.148.928.47 1.296.322.368.827.609 1.405.609.578 0 1.083-.241 1.405-.61.322-.367.47-.835.47-1.295 0-.46-.148-.929-.47-1.296C8.583.24 8.078 0 7.5 0zm0 1.143c.297 0 .448.092.564.225.116.132.186.33.186.537 0 .206-.07.405-.186.537-.116.132-.267.225-.564.225-.297 0-.448-.093-.564-.225-.116-.132-.186-.33-.186-.537 0-.207.07-.405.186-.537.116-.133.267-.225.564-.225zM3.375 2.286c-.703 0-1.302.288-1.686.727-.384.44-.564 1.003-.564 1.558 0 .556.18 1.12.564 1.558.384.44.983.728 1.686.728s1.302-.288 1.686-.728c.384-.439.564-1.002.564-1.558 0-.555-.18-1.118-.564-1.558-.384-.439-.983-.727-1.686-.727zm8.25 0c-.703 0-1.302.288-1.686.727-.384.44-.564 1.003-.564 1.558 0 .556.18 1.12.564 1.558.384.44.983.728 1.686.728s1.302-.288 1.686-.728c.384-.439.564-1.002.564-1.558 0-.555-.18-1.118-.564-1.558-.384-.439-.983-.727-1.686-.727zm-8.25 1.143c.422 0 .667.14.845.343.178.204.28.498.28.8 0 .301-.102.595-.28.799-.178.203-.423.343-.845.343s-.667-.14-.845-.343c-.178-.204-.28-.498-.28-.8 0-.301.102-.595.28-.799.178-.203.423-.343.845-.343zm8.25 0c.422 0 .667.14.845.343.178.204.28.498.28.8 0 .301-.102.595-.28.799-.178.203-.423.343-.845.343s-.667-.14-.845-.343c-.178-.204-.28-.498-.28-.8 0-.301.102-.595.28-.799.178-.203.423-.343.845-.343zM7.5 6.095c-.703 0-1.302.289-1.686.728-.384.44-.564 1.002-.564 1.558s.18 1.119.564 1.558c.384.44.983.728 1.686.728s1.302-.289 1.686-.728c.384-.44.564-1.002.564-1.558s-.18-1.119-.564-1.558c-.384-.44-.983-.728-1.686-.728zm0 1.143c.422 0 .667.14.845.344.178.203.28.497.28.799 0 .302-.102.595-.28.8-.178.203-.423.343-.845.343s-.667-.14-.845-.344c-.178-.204-.28-.497-.28-.799 0-.302.102-.596.28-.8.178-.203.423-.343.845-.343zm-6.188.381C.59 7.619 0 8.217 0 8.952v.953c0 1.28 1.481 2.286 3.375 2.286h.08c.168-.614.61-1.113 1.18-1.36-.356.133-.787.217-1.26.217-1.286 0-2.25-.602-2.25-1.143v-.953c0-.106.083-.19.188-.19h3.21C4.508 8.636 4.5 8.51 4.5 8.38c0-.263.034-.518.094-.762H1.312zm9.094 0c.06.244.094.5.094.762 0 .13-.008.255-.023.38h3.21c.106 0 .188.085.188.191v.953c0 .54-.964 1.143-2.25 1.143-.473 0-.903-.084-1.26-.218.57.248 1.012.747 1.18 1.36h.08c1.894 0 3.375-1.005 3.375-2.285v-.953c0-.735-.589-1.333-1.313-1.333h-3.28zm-4.969 3.81c-.718 0-1.312.603-1.312 1.333v.952c0 .731.48 1.326 1.097 1.703.617.376 1.41.583 2.278.583.868 0 1.66-.207 2.278-.583.617-.377 1.097-.972 1.097-1.703v-.952c0-.73-.594-1.333-1.313-1.333H5.439zm0 1.142h4.125c.111 0 .188.079.188.19v.953c0 .216-.15.479-.55.723-.402.244-1.015.42-1.7.42s-1.298-.176-1.7-.42c-.4-.244-.55-.507-.55-.723v-.952c0-.113.077-.19.188-.19z"/>
</svg>
