<svg width="66" height="66" viewBox="0 0 66 66" fill="none" xmlns="http://www.w3.org/2000/svg">
<path fill-rule="evenodd" clip-rule="evenodd" d="M10 3.5C7.51472 3.5 5.5 5.51472 5.5 8V55C5.5 57.4853 7.51472 59.5 10 59.5H57C59.4853 59.5 61.5 57.4853 61.5 55V8C61.5 5.51472 59.4853 3.5 57 3.5H10ZM8.5 8C8.5 7.17157 9.17157 6.5 10 6.5H57C57.8284 6.5 58.5 7.17157 58.5 8V55C58.5 55.8284 57.8284 56.5 57 56.5H10C9.17157 56.5 8.5 55.8284 8.5 55V8ZM14 14.1667C14 12.9707 14.9685 12 16.1667 12C17.3648 12 18.3333 12.9707 18.3333 14.1667V16.3333H22.6667C23.8648 16.3333 24.8333 17.304 24.8333 18.5C24.8333 19.696 23.8648 20.6667 22.6667 20.6667H18.3333V29.3333H33.5C34.6982 29.3333 35.6667 30.304 35.6667 31.5C35.6667 32.696 34.6982 33.6667 33.5 33.6667H18.3333V42.3333H20.5C21.6982 42.3333 22.6667 43.304 22.6667 44.5C22.6667 45.696 21.6982 46.6667 20.5 46.6667H18.3333V48.8333C18.3333 50.0293 17.3648 51 16.1667 51C14.9685 51 14 50.0293 14 48.8333V14.1667ZM29.1667 18.5C29.1667 16.1102 31.1102 14.1667 33.5 14.1667C35.0968 14.1667 36.4806 15.0442 37.2324 16.3333H50.8333C52.0315 16.3333 53 17.304 53 18.5C53 19.696 52.0315 20.6667 50.8333 20.6667H37.2324C36.4806 21.9558 35.0968 22.8333 33.5 22.8333C31.1102 22.8333 29.1667 20.8898 29.1667 18.5ZM40 31.5C40 29.1102 41.9435 27.1667 44.3333 27.1667C45.9302 27.1667 47.3139 28.0442 48.0658 29.3333H50.8333C52.0315 29.3333 53 30.304 53 31.5C53 32.696 52.0315 33.6667 50.8333 33.6667H48.0658C47.3139 34.9558 45.9302 35.8333 44.3333 35.8333C41.9435 35.8333 40 33.8898 40 31.5ZM27 44.5C27 42.1102 28.9435 40.1667 31.3333 40.1667C32.9302 40.1667 34.3139 41.0442 35.0658 42.3333H50.8333C52.0315 42.3333 53 43.304 53 44.5C53 45.696 52.0315 46.6667 50.8333 46.6667H35.0658C34.3139 47.9558 32.9302 48.8333 31.3333 48.8333C28.9435 48.8333 27 46.8898 27 44.5Z" fill="CurrentColor"/>
</svg>
