<svg xmlns="http://www.w3.org/2000/svg" width="27" height="27" fill="none" viewBox="0 0 27 27">
    <path fill="currentColor" d="M11.571 0C5.192 0 0 5.192 0 11.571c0 6.38 5.192 11.572 11.571 11.572.344 0 .685-.018 1.021-.047C13.925 25.42 16.428 27 19.286 27 23.529 27 27 23.529 27 19.286c0-2.858-1.58-5.361-3.904-6.694.03-.336.047-.677.047-1.02C23.143 5.191 17.95 0 11.57 0zm0 1.929c5.337 0 9.643 4.306 9.643 9.642 0 .086-.009.168-.011.253-.614-.16-1.255-.253-1.917-.253-4.243 0-7.715 3.472-7.715 7.715 0 .662.094 1.303.253 1.917-.085.002-.167.011-.253.011-5.336 0-9.642-4.306-9.642-9.643 0-5.336 4.306-9.642 9.642-9.642zm-.964 1.928v6.75H5.786v1.929h6.75V3.857h-1.929zm8.679 9.643c3.182 0 5.785 2.604 5.785 5.786 0 3.182-2.603 5.785-5.785 5.785S13.5 22.468 13.5 19.286s2.604-5.786 5.786-5.786zm-3.857 4.821v1.929h7.714v-1.929h-7.714z"/>
    <path fill="currentColor" d="M20.304 15.5v7.596h-2V15.5h2z"/>
</svg>
