<svg width="16" height="15" viewBox="0 0 16 15" fill="none" xmlns="http://www.w3.org/2000/svg">
<path d="M1.59813 0C0.721787 0 -3.19625e-08 0.724949 0 1.60513V10.1658C0 11.046 0.721787 11.7709 1.59813 11.7709H6.70048C7.35779 13.644 9.12007 15 11.2056 15C13.8472 15 16 12.8377 16 10.1846C16 9.04009 15.5835 8.00057 14.9159 7.17291V1.60513C14.9159 0.724949 14.1941 0 13.3177 0H1.59813ZM1.59813 1.07009H13.3177C13.6176 1.07009 13.8504 1.30393 13.8504 1.60513V2.14017H1.06542V1.60513C1.06542 1.30393 1.29825 1.07009 1.59813 1.07009ZM1.06542 3.21026H13.8504V6.17389C13.2272 5.75766 12.4995 5.49411 11.7196 5.40895V5.35043H5.32709V6.42051H8.25283C7.8653 6.72806 7.51305 7.07923 7.23527 7.4906H5.32709V8.56068H6.71089C6.52737 9.07037 6.41124 9.61252 6.41124 10.1846C6.41124 10.3615 6.44461 10.5288 6.46326 10.7009H1.59813C1.29825 10.7009 1.06542 10.467 1.06542 10.1658V3.21026ZM3.19625 5.35043V6.42051H4.26167V5.35043H3.19625ZM11.2056 6.43932C13.2714 6.43932 14.9346 8.10981 14.9346 10.1846C14.9346 12.2594 13.2714 13.9299 11.2056 13.9299C9.13986 13.9299 7.47665 12.2594 7.47665 10.1846C7.47665 8.10981 9.13986 6.43932 11.2056 6.43932ZM3.19625 7.4906V8.56068H4.26167V7.4906H3.19625ZM10.6729 7.50941V10.7197H12.8037V9.64958H11.7383V7.50941H10.6729Z" fill="#465669"/>
</svg>
