<svg xmlns="http://www.w3.org/2000/svg" width="13" height="13" fill="none" viewBox="0 0 13 13">
    <path fill="currentColor" d="M0 0v3.545h.542V13h11.916V3.545H13V0H0zm1.083 1.182h10.834v1.182H1.083V1.182zm.542 2.363h9.75v8.273h-9.75V3.545zm3.25 1.182c-.072 0-.143.014-.21.043-.066.029-.127.072-.178.127-.051.055-.092.12-.12.193-.027.072-.041.15-.041.228 0 .078.014.156.042.228.027.073.068.138.119.193.051.055.112.098.178.128.067.029.138.043.21.042h3.25c.072.001.143-.013.21-.042.066-.03.127-.073.178-.128.051-.055.092-.12.12-.193.027-.072.041-.15.041-.228 0-.078-.014-.156-.042-.228-.027-.072-.068-.138-.119-.193-.051-.055-.112-.098-.178-.127-.067-.03-.138-.044-.21-.043h-3.25z"/>
</svg>
