<svg width="13" height="11" viewBox="0 0 13 11" fill="none" xmlns="http://www.w3.org/2000/svg">
<path fill-rule="evenodd" clip-rule="evenodd" d="M9.37592 0C8.06675 0 7.00342 1.09333 7.00342 2.44167C7.00342 3.78917 8.06675 4.88333 9.37592 4.88333C11.6251 4.88333 10.3217 9.12333 7.48508 9.565C7.35124 9.58531 7.22909 9.65285 7.14074 9.75542C7.05239 9.85799 7.00368 9.9888 7.00342 10.1242C7.00342 10.4708 7.31342 10.745 7.65675 10.6925C12.8126 9.91083 14.6459 0.000833273 9.37592 0.000833273V0ZM2.54008 0C1.22925 0 0.166748 1.0925 0.166748 2.44167C0.166748 3.78833 1.22925 4.88167 2.54008 4.88167C4.78842 4.88167 3.48508 9.12333 0.648415 9.565C0.514715 9.58528 0.392676 9.65271 0.304343 9.75511C0.21601 9.8575 0.167207 9.98811 0.166748 10.1233C0.166748 10.47 0.476748 10.7442 0.819248 10.6917C5.97675 9.91 7.81008 0 2.54008 0Z" fill="CurrentColor"/>
</svg>
