<svg width="24" height="24" viewBox="0 0 24 24" fill="none" xmlns="http://www.w3.org/2000/svg">
<g clip-path="url(#clip0_63_66)">
<path d="M6.99724 12.0656C6.32157 12.0834 5.65663 12.2388 5.04305 12.5222C4.42946 12.8057 3.88012 13.2113 3.42861 13.7143C0.857178 16.2857 4.28575 18 0.857178 21.5486C3.42861 24.1886 7.88575 23.3143 10.5086 20.6743L10.44 20.7428C10.9441 20.2926 11.351 19.7442 11.636 19.1313C11.921 18.5184 12.078 17.8539 12.0974 17.1782" stroke="CurrentColor" stroke-linecap="round" stroke-linejoin="round"/>
<path d="M12.2915 6.85713L17.1429 2.0057C17.4542 1.65583 17.8338 1.37341 18.2583 1.17587C18.6829 0.978333 19.1434 0.869857 19.6115 0.857133C20.0799 0.840647 20.5467 0.920373 20.9831 1.09139C21.4195 1.2624 21.8162 1.52107 22.1486 1.85142C22.4811 2.1859 22.7411 2.58538 22.9121 3.02488C23.0832 3.46438 23.1618 3.93445 23.1429 4.4057C23.1279 4.87088 23.0183 5.32813 22.8208 5.74958C22.6234 6.17103 21.9944 6.85713 21.9944 6.85713L17.1429 11.7086" stroke="CurrentColor" stroke-linecap="round" stroke-linejoin="round"/>
<path d="M20.6434 14.9966L23.4124 22.2674L15.9884 19.9401L1.54829 6.34301C0.872455 5.70663 0.469509 4.83589 0.428103 3.92235C0.386697 3.00881 0.710223 2.12731 1.32751 1.47175C1.94479 0.8162 2.80527 0.440298 3.71964 0.426744C4.63402 0.41319 5.52739 0.763095 6.20323 1.39948L20.6434 14.9966Z" stroke="CurrentColor" stroke-linecap="round" stroke-linejoin="round"/>
<path d="M10.2462 5.20657L5.59128 10.1501" stroke="CurrentColor" stroke-linecap="round" stroke-linejoin="round"/>
</g>
<defs>
<clipPath id="clip0_63_66">
<rect width="24" height="24" fill="CurrentColor"/>
</clipPath>
</defs>
</svg>
