<svg width="24" height="26" viewBox="0 0 24 26" fill="none" xmlns="http://www.w3.org/2000/svg">
<path d="M3.53846 21H20.4615C21.3111 21 22 20.3801 22 19.6154V4.38462C22 3.61991 21.3111 3 20.4615 3H3.53846C2.68879 3 2 3.61991 2 4.38462V19.6154C2 20.3801 2.68879 21 3.53846 21Z" stroke="CurrentColor" stroke-linecap="round" stroke-linejoin="round"/>
<path d="M7 21L15.0901 13.1855C15.2295 13.0657 15.4054 13 15.587 13C15.7685 13 15.9443 13.0657 16.0838 13.1855L22 17.5572" stroke="CurrentColor" stroke-linecap="round" stroke-linejoin="round"/>
<path d="M8.00001 13C9.10458 13 10 12.1045 10 11C10 9.89544 9.10458 9 8.00001 9C6.89543 9 6 9.89544 6 11C6 12.1045 6.89543 13 8.00001 13Z" stroke="CurrentColor" stroke-linecap="round" stroke-linejoin="round"/>
<path d="M2 24H22" stroke="CurrentColor" stroke-width="2" stroke-linecap="round" stroke-linejoin="round"/>
</svg>
