<svg width="22" height="22" viewBox="0 0 22 22" fill="none" xmlns="http://www.w3.org/2000/svg">
<path d="M2.35707 21.2142H19.6428C20.5106 21.2142 21.2143 20.5107 21.2143 19.6428V2.35708C21.2143 1.4892 20.5106 0.785645 19.6428 0.785645H2.35707C1.48919 0.785645 0.785645 1.4892 0.785645 2.35708V19.6428C0.785645 20.5107 1.48919 21.2142 2.35707 21.2142Z" stroke="CurrentColor" stroke-linecap="round" stroke-linejoin="round"/>
<path d="M0.785645 17.2856H21.2143" stroke="CurrentColor" stroke-linecap="round" stroke-linejoin="round"/>
<path d="M6.03418 17.2857L14.2213 9.61711C14.3625 9.4995 14.5404 9.43506 14.7242 9.43506C14.9079 9.43506 15.0858 9.4995 15.227 9.61711L21.2142 13.9071" stroke="CurrentColor" stroke-linecap="round" stroke-linejoin="round"/>
<path d="M7.0715 9.42854C8.37331 9.42854 9.42863 8.37319 9.42863 7.07138C9.42863 5.76956 8.37331 4.71423 7.0715 4.71423C5.76968 4.71423 4.71436 5.76956 4.71436 7.07138C4.71436 8.37319 5.76968 9.42854 7.0715 9.42854Z" stroke="CurrentColor" stroke-linecap="round" stroke-linejoin="round"/>
</svg>

