<svg width="17" height="17" viewBox="0 0 17 17" fill="none" xmlns="http://www.w3.org/2000/svg">
<path fill-rule="evenodd" clip-rule="evenodd" d="M16.0852 15.5398C16.1907 15.6452 16.25 15.7883 16.25 15.9375C16.25 16.0867 16.1907 16.2298 16.0852 16.3352C15.9798 16.4408 15.8367 16.5 15.6875 16.5L1.0625 16.5C0.913325 16.5 0.770224 16.4407 0.664774 16.3352C0.559249 16.2298 0.499999 16.0867 0.499999 15.9375C0.499999 15.7883 0.559249 15.6452 0.664774 15.5398C0.770224 15.4342 0.913325 15.375 1.0625 15.375L15.6875 15.375C15.8367 15.375 15.9798 15.4342 16.0852 15.5398ZM16.0852 0.914753C16.1907 1.02024 16.25 1.16332 16.25 1.3125C16.25 1.46168 16.1907 1.60476 16.0852 1.71025C15.9798 1.81573 15.8367 1.875 15.6875 1.875L1.0625 1.875C0.913325 1.875 0.770225 1.81573 0.664775 1.71025C0.55925 1.60476 0.5 1.46168 0.5 1.3125C0.5 1.16332 0.55925 1.02024 0.664775 0.914752C0.770225 0.809264 0.913325 0.749999 1.0625 0.749999L15.6875 0.75C15.8367 0.75 15.9798 0.809265 16.0852 0.914753ZM2.32948 6.3295C2.54045 6.11853 2.82665 6 3.125 6L14.375 6C14.6734 6 14.9595 6.11853 15.1705 6.3295C15.3815 6.54048 15.5 6.82665 15.5 7.125L15.5 9.375C15.5 9.67335 15.3815 9.95955 15.1705 10.1705C14.9595 10.3815 14.6734 10.5 14.375 10.5L3.125 10.5C2.82665 10.5 2.54045 10.3815 2.32947 10.1705C2.1185 9.95955 2 9.67335 2 9.375L2 7.125C2 6.82665 2.1185 6.54048 2.32948 6.3295Z" fill="CurrentColor"/>
</svg>
