<svg width="26" height="24" viewBox="0 0 26 24" fill="none" xmlns="http://www.w3.org/2000/svg">
<path d="M14.8967 20V4H12.4139V10H7.44834V4H4.96558V20H7.44834V13H12.4139V20H14.8967Z" fill="CurrentColor"/>
<path d="M25.3569 18.0225V20H16.6029V18.3125L20.7426 13.874C21.1586 13.4111 21.4867 13.0039 21.727 12.6523C21.9672 12.2949 22.1401 11.9756 22.2455 11.6943C22.3569 11.4072 22.4125 11.1348 22.4125 10.877C22.4125 10.4902 22.3481 10.1592 22.2192 9.88379C22.0902 9.60254 21.8998 9.38575 21.6479 9.23341C21.4018 9.08106 21.0971 9.00488 20.7338 9.00488C20.3471 9.00488 20.0131 9.09863 19.7319 9.28613C19.4565 9.47363 19.2455 9.73439 19.099 10.0684C18.9584 10.4023 18.8881 10.7803 18.8881 11.2021H16.3481C16.3481 10.4404 16.5297 9.74316 16.893 9.11035C17.2563 8.47168 17.769 7.96484 18.4311 7.58984C19.0932 7.20898 19.8783 7.01855 20.7865 7.01855C21.683 7.01855 22.4389 7.16504 23.0541 7.45801C23.6752 7.74512 24.144 8.16113 24.4604 8.70605C24.7826 9.24512 24.9438 9.88965 24.9438 10.6396C24.9438 11.0615 24.8764 11.4746 24.7416 11.8789C24.6069 12.2773 24.4135 12.6758 24.1615 13.0742C23.9154 13.4668 23.6166 13.8652 23.2651 14.2695C22.9135 14.6738 22.5238 15.0928 22.0961 15.5264L19.8725 18.0225H25.3569Z" fill="CurrentColor"/>
</svg>
