<svg width="26" height="24" viewBox="0 0 26 24" fill="none" xmlns="http://www.w3.org/2000/svg">
<path d="M14.8967 20V4H12.4139V10H7.44834V4H4.96558V20H7.44834V13H12.4139V20H14.8967Z" fill="CurrentColor"/>
<path d="M19.1958 12.5029H20.5493C20.9829 12.5029 21.3403 12.4297 21.6216 12.2832C21.9028 12.1309 22.1109 11.9199 22.2456 11.6504C22.3862 11.375 22.4566 11.0557 22.4566 10.6924C22.4566 10.3643 22.3921 10.0742 22.2632 9.82228C22.1402 9.56446 21.9497 9.36524 21.6919 9.22462C21.4341 9.07812 21.1089 9.00488 20.7163 9.00488C20.4058 9.00488 20.1187 9.06642 19.855 9.18946C19.5913 9.31251 19.3804 9.48535 19.2222 9.70801C19.064 9.93066 18.9849 10.2002 18.9849 10.5166H16.4448C16.4448 9.81348 16.6323 9.20118 17.0073 8.6797C17.3882 8.15821 17.898 7.75098 18.5366 7.45801C19.1753 7.16504 19.8784 7.01855 20.646 7.01855C21.5132 7.01855 22.272 7.15918 22.9224 7.44043C23.5728 7.71582 24.0796 8.12306 24.4429 8.66212C24.8062 9.20118 24.9878 9.86915 24.9878 10.666C24.9878 11.0703 24.8941 11.4629 24.7066 11.8438C24.5191 12.2188 24.2495 12.5586 23.898 12.8633C23.5523 13.1621 23.1304 13.4023 22.6323 13.584C22.1343 13.7598 21.5747 13.8477 20.9536 13.8477H19.1958V12.5029ZM19.1958 14.4277V13.1182H20.9536C21.6509 13.1182 22.2632 13.1973 22.7905 13.3555C23.3179 13.5137 23.7603 13.7422 24.1177 14.041C24.4751 14.334 24.7446 14.6826 24.9263 15.0869C25.1079 15.4854 25.1987 15.9277 25.1987 16.4141C25.1987 17.0117 25.0845 17.5449 24.856 18.0137C24.6275 18.4766 24.3052 18.8691 23.8892 19.1914C23.479 19.5137 22.9986 19.7598 22.4478 19.9297C21.897 20.0938 21.2964 20.1758 20.646 20.1758C20.107 20.1758 19.5767 20.1025 19.0552 19.9561C18.5396 19.8037 18.0708 19.5781 17.6489 19.2793C17.2329 18.9746 16.8989 18.5938 16.647 18.1367C16.4009 17.6738 16.2778 17.126 16.2778 16.4932H18.8179C18.8179 16.8213 18.8999 17.1143 19.064 17.3721C19.228 17.6299 19.4536 17.832 19.7407 17.9785C20.0337 18.125 20.3589 18.1982 20.7163 18.1982C21.1206 18.1982 21.4663 18.125 21.7534 17.9785C22.0464 17.8262 22.2691 17.6152 22.4214 17.3457C22.5796 17.0703 22.6587 16.751 22.6587 16.3877C22.6587 15.9189 22.5737 15.5439 22.4038 15.2627C22.2339 14.9756 21.9907 14.7646 21.6743 14.6299C21.3579 14.4951 20.9829 14.4277 20.5493 14.4277H19.1958Z" fill="CurrentColor"/>
</svg>

