<svg width="18" height="18" viewBox="0 0 18 18" fill="none" xmlns="http://www.w3.org/2000/svg">
<path d="M17 12.5C17 11.6716 16.3284 11 15.5 11H5.5C4.67157 11 4 11.6716 4 12.5V13.5C4 14.3284 4.67157 15 5.5 15H15.5C16.3284 15 17 14.3284 17 13.5V12.5ZM18 12.5V13.5C18 14.8807 16.8807 16 15.5 16H5.5C4.11929 16 3 14.8807 3 13.5V12.5C3 11.1193 4.11929 10 5.5 10H15.5C16.8807 10 18 11.1193 18 12.5ZM15 4.5V5.5C15 6.88071 13.8807 8 12.5 8H5.5C4.11929 8 3 6.88071 3 5.5V4.5C3 3.11929 4.11929 2 5.5 2H12.5C13.8807 2 15 3.11929 15 4.5ZM14 4.5C14 3.67157 13.3284 3 12.5 3H5.5C4.67157 3 4 3.67157 4 4.5V5.5C4 6.32843 4.67157 7 5.5 7H12.5C13.3284 7 14 6.32843 14 5.5V4.5ZM0 0.5C0 0.22386 0.22386 0 0.5 0C0.77614 0 1 0.22386 1 0.5V17.5C1 17.7761 0.77614 18 0.5 18C0.22386 18 0 17.7761 0 17.5V0.5Z" fill="CurrentColor"/>
</svg>
