<svg width="17" height="18" viewBox="0 0 17 18" fill="none" xmlns="http://www.w3.org/2000/svg">
<path d="M3 5.5C3 6.32843 3.67157 7 4.5 7H12.5C13.3284 7 14 6.32843 14 5.5V4.5C14 3.67157 13.3284 3 12.5 3H4.5C3.67157 3 3 3.67157 3 4.5V5.5ZM9 16V17.5C9 17.7761 8.7761 18 8.5 18C8.2239 18 8 17.7761 8 17.5V16H2.5C1.11929 16 0 14.8807 0 13.5V12.5C0 11.1193 1.11929 10 2.5 10H8V8H4.5C3.11929 8 2 6.88071 2 5.5V4.5C2 3.11929 3.11929 2 4.5 2H8V0.5C8 0.22386 8.2239 0 8.5 0C8.7761 0 9 0.22386 9 0.5V2H12.5C13.8807 2 15 3.11929 15 4.5V5.5C15 6.88071 13.8807 8 12.5 8H9V10H14.5C15.8807 10 17 11.1193 17 12.5V13.5C17 14.8807 15.8807 16 14.5 16H9ZM1 13.5C1 14.3284 1.67157 15 2.5 15H14.5C15.3284 15 16 14.3284 16 13.5V12.5C16 11.6716 15.3284 11 14.5 11H2.5C1.67157 11 1 11.6716 1 12.5V13.5Z" fill="currentColor"/>
</svg>
