<svg width="16" height="16" viewBox="0 0 16 16" fill="none" xmlns="http://www.w3.org/2000/svg">
<rect width="16" height="16" fill="CurrentColor" fill-opacity="0.01"/>
<path fill-rule="evenodd" clip-rule="evenodd" d="M2 3.33C2 2.59533 2.59533 2 3.33 2H12.67C13.4047 2 14 2.59533 14 3.33V12.67C14 13.0227 13.8599 13.361 13.6105 13.6105C13.361 13.8599 13.0227 14 12.67 14H3.33C2.97726 14 2.63897 13.8599 2.38955 13.6105C2.14012 13.361 2 13.0227 2 12.67V3.33ZM7 11L6 10L4 12H12V10.2L10 8L7 11ZM5.33333 6.66667C5.68696 6.66667 6.02609 6.52619 6.27614 6.27614C6.52619 6.02609 6.66667 5.68696 6.66667 5.33333C6.66667 4.97971 6.52619 4.64057 6.27614 4.39052C6.02609 4.14048 5.68696 4 5.33333 4C4.97971 4 4.64057 4.14048 4.39052 4.39052C4.14048 4.64057 4 4.97971 4 5.33333C4 5.68696 4.14048 6.02609 4.39052 6.27614C4.64057 6.52619 4.97971 6.66667 5.33333 6.66667Z" fill="CurrentColor"/>
</svg>
