<svg width="18" height="18" viewBox="0 0 18 18" fill="none" xmlns="http://www.w3.org/2000/svg">
<path d="M1 12.5V13.5C1 14.3284 1.67157 15 2.5 15H12.5C13.3284 15 14 14.3284 14 13.5V12.5C14 11.6716 13.3284 11 12.5 11H2.5C1.67157 11 1 11.6716 1 12.5ZM0 12.5C0 11.1193 1.11929 10 2.5 10H12.5C13.8807 10 15 11.1193 15 12.5V13.5C15 14.8807 13.8807 16 12.5 16H2.5C1.11929 16 0 14.8807 0 13.5V12.5ZM3 4.5C3 3.11929 4.11929 2 5.5 2H12.5C13.8807 2 15 3.11929 15 4.5V5.5C15 6.88071 13.8807 8 12.5 8H5.5C4.11929 8 3 6.88071 3 5.5V4.5ZM4 4.5V5.5C4 6.32843 4.67157 7 5.5 7H12.5C13.3284 7 14 6.32843 14 5.5V4.5C14 3.67157 13.3284 3 12.5 3H5.5C4.67157 3 4 3.67157 4 4.5ZM17 0.5C17 0.22386 17.2239 0 17.5 0C17.7761 0 18 0.22386 18 0.5V17.5C18 17.7761 17.7761 18 17.5 18C17.2239 18 17 17.7761 17 17.5V0.5Z" fill="currentColor"/>
</svg>
