<svg width="18" height="18" viewBox="0 0 18 18" fill="none" xmlns="http://www.w3.org/2000/svg">
<path d="M9.19604 8.79267C8.94535 8.54084 8.94641 8.13363 9.19849 7.88318C9.45049 7.63266 9.85803 7.6338 10.1087 7.88564C11.7784 9.56299 11.7762 12.2735 10.1037 13.9481L7.3132 16.7424C5.64851 18.4093 2.94923 18.4205 1.27064 16.7677C-0.40648 15.1157 -0.425794 12.4189 1.22708 10.7435L4.03783 7.89464C4.28738 7.64174 4.69491 7.63879 4.94806 7.88817C5.20121 8.13747 5.20413 8.54468 4.95457 8.79758L2.14382 11.6465C0.990065 12.8159 1.00354 14.6985 2.17393 15.8513C3.34866 17.008 5.23725 17.0001 6.40195 15.8339L9.19252 13.0396C10.3641 11.8665 10.3656 9.96766 9.19604 8.79267ZM8.59991 9.18597C8.8506 9.43781 8.84954 9.84502 8.59746 10.0955C8.34537 10.346 7.93792 10.3448 7.68723 10.093C6.01726 8.41541 6.01769 5.70486 7.68813 4.02775L10.3768 1.32836C12.1111 -0.412698 14.9209 -0.446587 16.6966 1.25214C16.7552 1.30829 16.8123 1.36611 16.8676 1.42554C18.4576 3.1327 18.3615 5.80448 16.6529 7.39317L13.7382 10.1033C13.478 10.3453 13.0707 10.3306 12.8285 10.0706C12.5863 9.81057 12.601 9.40369 12.8612 9.16167L15.7759 6.45154C16.9641 5.34682 17.0309 3.48891 15.9253 2.30178C15.8868 2.26046 15.8471 2.22024 15.8063 2.1812C14.5371 0.967035 12.5288 0.991253 11.2893 2.23567L8.60056 4.93506C7.42983 6.11049 7.4295 8.01016 8.59991 9.18597Z" fill="CurrentColor"/>
</svg>
