<svg width="20" height="20" viewBox="0 0 20 20" fill="none" xmlns="http://www.w3.org/2000/svg">
<path d="M7.97625 7.97618C9.75145 7.97618 11.1905 6.53709 11.1905 4.76189C11.1905 2.98669 9.75145 1.54761 7.97625 1.54761C6.20105 1.54761 4.76196 2.98669 4.76196 4.76189C4.76196 6.53709 6.20105 7.97618 7.97625 7.97618Z" stroke="CurrentColor" stroke-width="2" stroke-linecap="round" stroke-linejoin="round"/>
<path d="M9.40479 10.2762C8.46278 10.0587 7.48379 10.057 6.54102 10.2711C5.59825 10.4853 4.71609 10.9098 3.96048 11.5129C3.20488 12.116 2.59538 12.8821 2.17756 13.754C1.75973 14.6258 1.5444 15.5808 1.54764 16.5476V18.6905H7.26193" stroke="CurrentColor" stroke-width="2" stroke-linecap="round" stroke-linejoin="round"/>
<g clip-path="url(#clip0_5898_55031)">
<path d="M15.5172 15.4117C15.5171 15.7532 15.4162 16.0871 15.227 16.3715C15.0378 16.6558 14.7688 16.8779 14.4538 17.0099C14.1388 17.1419 13.7918 17.1778 13.4565 17.1133C13.1211 17.0487 12.8123 16.8865 12.5688 16.647C12.3253 16.4075 12.158 16.1014 12.0879 15.7672C12.0178 15.4329 12.0481 15.0854 12.1748 14.7682C12.3016 14.4511 12.5192 14.1785 12.8004 13.9846C13.0815 13.7908 13.4137 13.6843 13.7552 13.6786C13.9852 13.6748 14.2137 13.7168 14.4273 13.8022C14.6409 13.8875 14.8354 14.0146 14.9994 14.1759C15.1634 14.3372 15.2936 14.5296 15.3825 14.7417C15.4714 14.9539 15.5172 15.1816 15.5172 15.4117V15.4117Z" stroke="CurrentColor" stroke-width="1.2" stroke-linecap="round" stroke-linejoin="round"/>
<path d="M15.5171 15.4117V16.1627C15.5171 18.1788 18.677 16.2782 17.0191 13.54C16.6852 12.9698 16.2087 12.4964 15.6365 12.1662C15.0642 11.836 14.4158 11.6604 13.7551 11.6567C13.2001 11.6584 12.6523 11.7832 12.1512 12.022C11.6501 12.2608 11.2082 12.6077 10.8573 13.0378C10.5064 13.4679 10.2552 13.9704 10.1218 14.5092C9.98838 15.048 9.97608 15.6096 10.0858 16.1538C10.1955 16.6979 10.4244 17.2109 10.7562 17.6559C11.0879 18.101 11.5142 18.4669 12.0043 18.7274C12.4945 18.9879 13.0363 19.1365 13.5907 19.1626C14.1452 19.1886 14.6985 19.0913 15.2109 18.8778" stroke="CurrentColor" stroke-width="1.2" stroke-linecap="round" stroke-linejoin="round"/>
</g>
<defs>
<clipPath id="clip0_5898_55031">
<rect width="9.16667" height="9.16667" fill="CurrentColor" transform="translate(9.16675 10.8333)"/>
</clipPath>
</defs>
</svg>
