<svg width="16" height="17" viewBox="0 0 16 17" fill="none" xmlns="http://www.w3.org/2000/svg">
<path fill-rule="evenodd" clip-rule="evenodd" d="M5.02308 7.26924H3.05385V5.45385C3.05385 5.14616 2.77692 4.99231 2.62308 5.17693L0.0692308 7.94616C-0.0230769 8.06924 -0.0230769 8.25385 0.0692308 8.37693L2.62308 11.1462C2.80769 11.3308 3.05385 11.1769 3.05385 10.8692V9.11539H5.02308C5.26923 9.11539 5.51538 8.9 5.51538 8.65385V7.73077C5.51538 7.48462 5.26923 7.26924 5.02308 7.26924V7.26924ZM15.9769 4.03847C15.9769 3.79231 15.7615 3.57693 15.5154 3.57693H10.2846C10.0385 3.57693 9.82308 3.79231 9.82308 4.03847V4.96154C9.82308 5.2077 10.0385 5.42308 10.2846 5.42308H15.5154C15.7615 5.42308 15.9769 5.2077 15.9769 4.96154V4.03847ZM14.7462 11.4231C14.7462 11.1769 14.5308 10.9615 14.2846 10.9615H10.2846C10.0385 10.9615 9.82308 11.1769 9.82308 11.4231V12.3462C9.82308 12.5923 10.0385 12.8077 10.2846 12.8077H14.2846C14.5308 12.8077 14.7462 12.5923 14.7462 12.3462V11.4231ZM15.9769 7.73077C15.9769 7.48462 15.7615 7.26924 15.5154 7.26924H10.2846C10.0385 7.26924 9.82308 7.48462 9.82308 7.73077V8.65385C9.82308 8.9 10.0385 9.11539 10.2846 9.11539H15.5154C15.7615 9.11539 15.9769 8.9 15.9769 8.65385V7.73077ZM8.59231 2.19231C8.59231 1.94616 8.37692 1.73077 8.13077 1.73077H7.20769C6.96154 1.73077 6.74615 1.94616 6.74615 2.19231V14.8077C6.74615 15.0539 6.96154 15.2692 7.20769 15.2692H8.13077C8.37692 15.2692 8.59231 15.0539 8.59231 14.8077V2.19231Z" fill="CurrentColor"/>
</svg>
