<svg width="16" height="17" viewBox="0 0 16 17" fill="none" xmlns="http://www.w3.org/2000/svg">
<path fill-rule="evenodd" clip-rule="evenodd" d="M15.3846 2.5V3.42308C15.3846 3.66924 15.1692 3.88462 14.9231 3.88462H6.61539C6.36923 3.88462 6.15385 3.66924 6.15385 3.42308V2.5C6.15385 2.25385 6.36923 2.03847 6.61539 2.03847H14.9231C15.1692 2.03847 15.3846 2.25385 15.3846 2.5ZM6.61539 6.96154H12.1538C12.4 6.96154 12.6154 6.74616 12.6154 6.5V5.57693C12.6154 5.33077 12.4 5.11539 12.1538 5.11539H6.61539C6.36923 5.11539 6.15385 5.33077 6.15385 5.57693V6.5C6.15385 6.74616 6.36923 6.96154 6.61539 6.96154ZM14.9231 9.73077H6.61539C6.36923 9.73077 6.15385 9.94616 6.15385 10.1923V11.1154C6.15385 11.3615 6.36923 11.5769 6.61539 11.5769H14.9231C15.1692 11.5769 15.3846 11.3615 15.3846 11.1154V10.1923C15.3846 9.94616 15.1692 9.73077 14.9231 9.73077ZM12.1538 12.8077H6.61539C6.36923 12.8077 6.15385 13.0231 6.15385 13.2692V14.1923C6.15385 14.4385 6.36923 14.6539 6.61539 14.6539H12.1538C12.4 14.6539 12.6154 14.4385 12.6154 14.1923V13.2692C12.6154 13.0231 12.4 12.8077 12.1538 12.8077ZM1.07693 2.96154H1.84616V6.8077C1.84616 7.05385 2.06154 7.26924 2.30769 7.26924H2.61539C2.86154 7.26924 3.07693 7.05385 3.07693 6.8077V2.34616C3.07693 2.0077 2.8 1.73077 2.46154 1.73077H1.07693C0.830772 1.73077 0.615387 1.94616 0.615387 2.19231V2.5C0.615387 2.74616 0.830772 2.96154 1.07693 2.96154ZM3.69231 9.11539H1.07693C0.830772 9.11539 0.615387 9.33077 0.615387 9.57693V9.88462C0.615387 10.1308 0.830772 10.3462 1.07693 10.3462H3.07693V11.5769H1.23077C0.89231 11.5769 0.615387 11.8539 0.615387 12.1923V14.6539C0.615387 14.9923 0.89231 15.2692 1.23077 15.2692H3.84616C4.09231 15.2692 4.30769 15.0539 4.30769 14.8077V14.5C4.30769 14.2539 4.09231 14.0385 3.84616 14.0385H1.84616V12.8077H3.69231C4.03077 12.8077 4.30769 12.5308 4.30769 12.1923V9.73077C4.30769 9.39231 4.03077 9.11539 3.69231 9.11539Z" fill="CurrentColor"/>
</svg>
