<svg width="16" height="17" viewBox="0 0 16 17" fill="none" xmlns="http://www.w3.org/2000/svg">
<path fill-rule="evenodd" clip-rule="evenodd" d="M16 4.03847C16 3.79231 15.7846 3.57693 15.5385 3.57693H10.3077C10.0615 3.57693 9.84615 3.79231 9.84615 4.03847V4.96154C9.84615 5.2077 10.0615 5.42308 10.3077 5.42308H15.5385C15.7846 5.42308 16 5.2077 16 4.96154V4.03847ZM14.7692 11.4231C14.7692 11.1769 14.5538 10.9615 14.3077 10.9615H10.3077C10.0615 10.9615 9.84615 11.1769 9.84615 11.4231V12.3462C9.84615 12.5923 10.0615 12.8077 10.3077 12.8077H14.3077C14.5538 12.8077 14.7692 12.5923 14.7692 12.3462V11.4231ZM16 7.73077C16 7.48462 15.7846 7.26924 15.5385 7.26924H10.3077C10.0615 7.26924 9.84615 7.48462 9.84615 7.73077V8.65385C9.84615 8.9 10.0615 9.11539 10.3077 9.11539H15.5385C15.7846 9.11539 16 8.9 16 8.65385V7.73077ZM8.61538 2.19231C8.61538 1.94616 8.4 1.73077 8.15385 1.73077H7.23077C6.98462 1.73077 6.76923 1.94616 6.76923 2.19231V14.8077C6.76923 15.0539 6.98462 15.2692 7.23077 15.2692H8.15385C8.4 15.2692 8.61538 15.0539 8.61538 14.8077V2.19231ZM2.89231 5.2077C2.70769 5.02308 2.46154 5.17693 2.46154 5.48462V7.26924H0.461538C0.215385 7.26924 0 7.48462 0 7.73077V8.65385C0 8.9 0.215385 9.11539 0.461538 9.11539H2.46154V10.9308C2.46154 11.2385 2.73846 11.3923 2.89231 11.2077L5.44615 8.43847C5.53846 8.31539 5.53846 8.13077 5.44615 8.0077L2.89231 5.2077V5.2077Z" fill="CurrentColor"/>
</svg>
