<svg width="16" height="17" viewBox="0 0 16 17" fill="none" xmlns="http://www.w3.org/2000/svg">
<path fill-rule="evenodd" clip-rule="evenodd" d="M14.3077 2.34616H1.69231C1.44616 2.34616 1.23077 2.56154 1.23077 2.8077V3.73077C1.23077 3.97693 1.44616 4.19231 1.69231 4.19231H14.3077C14.5539 4.19231 14.7692 3.97693 14.7692 3.73077V2.8077C14.7692 2.56154 14.5539 2.34616 14.3077 2.34616ZM14.3077 6.03847H4.15385C3.9077 6.03847 3.69231 6.25385 3.69231 6.5V7.42308C3.69231 7.66923 3.9077 7.88462 4.15385 7.88462H14.3077C14.5539 7.88462 14.7692 7.66923 14.7692 7.42308V6.5C14.7692 6.25385 14.5539 6.03847 14.3077 6.03847ZM14.3077 13.4231H4.15385C3.9077 13.4231 3.69231 13.6385 3.69231 13.8846V14.8077C3.69231 15.0538 3.9077 15.2692 4.15385 15.2692H14.3077C14.5539 15.2692 14.7692 15.0538 14.7692 14.8077V13.8846C14.7692 13.6385 14.5539 13.4231 14.3077 13.4231ZM14.3077 9.73077H1.69231C1.44616 9.73077 1.23077 9.94616 1.23077 10.1923V11.1154C1.23077 11.3615 1.44616 11.5769 1.69231 11.5769H14.3077C14.5539 11.5769 14.7692 11.3615 14.7692 11.1154V10.1923C14.7692 9.94616 14.5539 9.73077 14.3077 9.73077Z" fill="#465669"/>
</svg>
