<svg width="16" height="17" viewBox="0 0 16 17" fill="none" xmlns="http://www.w3.org/2000/svg">
<path fill-rule="evenodd" clip-rule="evenodd" d="M2.46154 4.96154C2.46154 5.2077 2.24616 5.42308 2 5.42308H1.07693C0.830772 5.42308 0.615387 5.2077 0.615387 4.96154V4.03847C0.615387 3.79231 0.830772 3.57693 1.07693 3.57693H2C2.24616 3.57693 2.46154 3.79231 2.46154 4.03847V4.96154ZM15.3846 4.03847C15.3846 3.79231 15.1692 3.57693 14.9231 3.57693H4.15385C3.90769 3.57693 3.69231 3.79231 3.69231 4.03847V4.96154C3.69231 5.2077 3.90769 5.42308 4.15385 5.42308H14.9231C15.1692 5.42308 15.3846 5.2077 15.3846 4.96154V4.03847ZM2.46154 8.34616C2.46154 8.1 2.24616 7.88462 2 7.88462H1.07693C0.830772 7.88462 0.615387 8.1 0.615387 8.34616V9.26924C0.615387 9.51539 0.830772 9.73077 1.07693 9.73077H2C2.24616 9.73077 2.46154 9.51539 2.46154 9.26924V8.34616ZM14.1538 8.34616C14.1538 8.1 13.9385 7.88462 13.6923 7.88462H4.15385C3.90769 7.88462 3.69231 8.1 3.69231 8.34616V9.26924C3.69231 9.51539 3.90769 9.73077 4.15385 9.73077H13.6923C13.9385 9.73077 14.1538 9.51539 14.1538 9.26924V8.34616ZM2.46154 12.6538C2.46154 12.4077 2.24616 12.1923 2 12.1923H1.07693C0.830772 12.1923 0.615387 12.4077 0.615387 12.6538V13.5769C0.615387 13.8231 0.830772 14.0385 1.07693 14.0385H2C2.24616 14.0385 2.46154 13.8231 2.46154 13.5769V12.6538ZM15.3846 12.6538C15.3846 12.4077 15.1692 12.1923 14.9231 12.1923H4.15385C3.90769 12.1923 3.69231 12.4077 3.69231 12.6538V13.5769C3.69231 13.8231 3.90769 14.0385 4.15385 14.0385H14.9231C15.1692 14.0385 15.3846 13.8231 15.3846 13.5769V12.6538Z" fill="CurrentColor"/>
</svg>
