<svg width="26" height="26" viewBox="0 0 26 26" fill="none" xmlns="http://www.w3.org/2000/svg">
<path fill-rule="evenodd" clip-rule="evenodd" d="M26 1.56C26 0.704844 25.2952 8.40518e-09 24.44 1.86028e-08L1.56 2.91444e-07C0.704845 3.01642e-07 8.40518e-09 0.704844 1.86028e-08 1.56L2.35636e-07 19.76C2.45833e-07 20.6152 0.704846 21.32 1.56 21.32L6.76 21.32L6.76 20.28L1.56 20.28C1.27156 20.28 1.04 20.0484 1.04 19.76L1.04 11.92L24.96 11.92L24.96 19.76C24.96 20.0484 24.7284 20.28 24.44 20.28L19.24 20.28L19.24 21.32L24.44 21.32C25.2952 21.32 26 20.6152 26 19.76L26 1.56ZM12.13 9.92L1.04 9.92L1.04 1.56C1.04 1.27156 1.27156 1.04 1.56 1.04L12.13 1.04L12.13 9.92ZM14.13 9.92L24.96 9.92L24.96 1.56C24.96 1.27156 24.7284 1.04 24.44 1.04L14.13 1.04L14.13 9.92ZM18.2 20.8C18.2 17.9339 15.8661 15.6 13 15.6C10.1339 15.6 7.8 17.9339 7.8 20.8C7.8 23.6661 10.1339 26 13 26C15.8661 26 18.2 23.6661 18.2 20.8ZM17.16 20.8C17.16 23.1034 15.3034 24.96 13 24.96C10.6966 24.96 8.84 23.1034 8.84 20.8C8.84 18.4966 10.6966 16.64 13 16.64C15.3034 16.64 17.16 18.4966 17.16 20.8ZM15.6 20.28L13.52 20.28L13.52 18.2L12.48 18.2L12.48 20.28L10.4 20.28L10.4 21.32L12.48 21.32L12.48 23.4L13.52 23.4L13.52 21.32L15.6 21.32L15.6 20.28Z" fill="CurrentColor"/>
</svg>
