<svg width="16" height="16" viewBox="0 0 16 16" fill="none" xmlns="http://www.w3.org/2000/svg">
<rect width="16" height="16" fill="white" fill-opacity="0.01"/>
<path d="M2.66667 11.9967H13.328C13.322 11.9967 13.322 5.33667 13.322 5.33667H2.66133C2.66667 5.33667 2.66667 11.9967 2.66667 11.9967ZM1.33333 3.99667C1.33333 3.26134 1.932 2.66667 2.66 2.66667H13.34C14.072 2.66667 14.6667 3.26334 14.6667 3.996V12.004C14.6661 12.3559 14.5263 12.6934 14.2777 12.9425C14.0291 13.1916 13.6919 13.3321 13.34 13.3333H2.66C2.3079 13.3326 1.97047 13.1923 1.72174 12.943C1.47302 12.6938 1.33333 12.3561 1.33333 12.004V3.99667Z" fill="CurrentColor"/>
<path d="M5.33333 4.00001V12H6.66667V4.00001H5.33333ZM9.33333 4.00001V12H10.6667V4.00001H9.33333Z" fill="CurrentColor"/>
<path fill-rule="evenodd" clip-rule="evenodd" d="M2.66667 8H14V9.33334H2.66667V8Z" fill="CurrentColor"/>
</svg>
