<svg width="26" height="26" viewBox="0 0 26 26" fill="none" xmlns="http://www.w3.org/2000/svg">
<path fill-rule="evenodd" clip-rule="evenodd" d="M0 1.56C0 0.704844 0.704844 0 1.56 0H24.44C25.2952 0 26 0.704844 26 1.56V19.24V24.44C26 25.2952 25.2952 26 24.44 26H1.56C0.704844 26 0 25.2952 0 24.44V1.56ZM24.96 24.44V19.24V7.11L6.72 7.11V24.96H24.44C24.7284 24.96 24.96 24.7284 24.96 24.44ZM24.96 1.56V5.11L6.72 5.11V1.04H24.44C24.7284 1.04 24.96 1.27156 24.96 1.56ZM4.72 1.04V5.11H1.04V1.56C1.04 1.27156 1.27156 1.04 1.56 1.04H4.72ZM1.04 24.44V7.11H4.72V24.96H1.56C1.27156 24.96 1.04 24.7284 1.04 24.44ZM13.75 9.5C13.1393 9.5 12.625 9.98693 12.625 10.6111V11.9444H10.6303H10.6208H10C9.72386 11.9444 9.5 12.1683 9.5 12.4444C9.5 12.7206 9.72386 12.9444 10 12.9444H10.1602L10.6684 19.9013C10.7349 20.8116 11.5056 21.5 12.4139 21.5H17.5861C18.4944 21.5 19.2651 20.8116 19.3316 19.9013L19.8398 12.9444H20C20.2761 12.9444 20.5 12.7206 20.5 12.4444C20.5 12.1683 20.2761 11.9444 20 11.9444H19.3792H19.3697H17.375V10.6111C17.375 9.98693 16.8607 9.5 16.25 9.5H13.75ZM11.1629 12.9444H13.125H16.875H18.8371L18.3343 19.8284C18.3073 20.1973 17.9894 20.5 17.5861 20.5H12.4139C12.0106 20.5 11.6927 20.1973 11.6657 19.8284L11.1629 12.9444ZM13.625 11.9444H16.375V10.6111C16.375 10.5603 16.3297 10.5 16.25 10.5H13.75C13.6703 10.5 13.625 10.5603 13.625 10.6111V11.9444ZM14.25 14.8889C14.25 14.6127 14.0261 14.3889 13.75 14.3889C13.4739 14.3889 13.25 14.6127 13.25 14.8889V18.5556C13.25 18.8317 13.4739 19.0556 13.75 19.0556C14.0261 19.0556 14.25 18.8317 14.25 18.5556V14.8889ZM16.75 14.8889C16.75 14.6127 16.5261 14.3889 16.25 14.3889C15.9739 14.3889 15.75 14.6127 15.75 14.8889V18.5556C15.75 18.8317 15.9739 19.0556 16.25 19.0556C16.5261 19.0556 16.75 18.8317 16.75 18.5556V14.8889Z" fill="CurrentColor"/>
</svg>