<svg width="26" height="26" viewBox="0 0 26 26" fill="none" xmlns="http://www.w3.org/2000/svg">
<path fill-rule="evenodd" clip-rule="evenodd" d="M-6.81898e-08 24.44C-3.08097e-08 25.2952 0.704844 26 1.56 26L24.44 26C25.2952 26 26 25.2952 26 24.44L26 6.24C26 5.38484 25.2952 4.68 24.44 4.68L19.24 4.68L19.24 5.72L24.44 5.72C24.7284 5.72 24.96 5.95156 24.96 6.24L24.96 14.08L1.04 14.08L1.04 6.24C1.04 5.95156 1.27156 5.72 1.56 5.72L6.76 5.72L6.76 4.68L1.56 4.68C0.704843 4.68 -9.01117e-07 5.38484 -8.63737e-07 6.24L-6.81898e-08 24.44ZM13.87 16.08L24.96 16.08L24.96 24.44C24.96 24.7284 24.7284 24.96 24.44 24.96L13.87 24.96L13.87 16.08ZM11.87 16.08L1.04 16.08L1.04 24.44C1.04 24.7284 1.27156 24.96 1.56 24.96L11.87 24.96L11.87 16.08ZM7.8 5.2C7.8 8.0661 10.1339 10.4 13 10.4C15.8661 10.4 18.2 8.06609 18.2 5.2C18.2 2.33391 15.8661 -6.93529e-07 13 -5.68248e-07C10.1339 -4.42967e-07 7.8 2.33391 7.8 5.2ZM8.84 5.2C8.84 2.89656 10.6966 1.04 13 1.04C15.3034 1.04 17.16 2.89656 17.16 5.2C17.16 7.50344 15.3034 9.36 13 9.36C10.6966 9.36 8.84 7.50344 8.84 5.2ZM10.4 5.72L12.48 5.72L12.48 7.8L13.52 7.8L13.52 5.72L15.6 5.72L15.6 4.68L13.52 4.68L13.52 2.6L12.48 2.6L12.48 4.68L10.4 4.68L10.4 5.72Z" fill="CurrentColor"/>
</svg>
