<svg width="26" height="26" viewBox="0 0 26 26" fill="none" xmlns="http://www.w3.org/2000/svg">
<path fill-rule="evenodd" clip-rule="evenodd" d="M0 1.56C0 0.704844 0.704844 0 1.56 0H24.44C25.2952 0 26 0.704844 26 1.56V19.24V24.44C26 25.2952 25.2952 26 24.44 26H1.56C0.704844 26 0 25.2952 0 24.44V1.56ZM24.96 24.44V19.24V7.11L6.72 7.11V24.96H24.44C24.7284 24.96 24.96 24.7284 24.96 24.44ZM24.96 1.56V5.11L6.72 5.11V1.04H24.44C24.7284 1.04 24.96 1.27156 24.96 1.56ZM4.72 1.04V5.11H1.04V1.56C1.04 1.27156 1.27156 1.04 1.56 1.04H4.72ZM1.04 24.44V7.11H4.72V24.96H1.56C1.27156 24.96 1.04 24.7284 1.04 24.44ZM22 11.8333C22 10.8267 21.1733 10 20.1667 10H11.8333C10.8267 10 10 10.8267 10 11.8333V20.1667C10 21.1733 10.8267 22 11.8333 22H20.1667C21.1733 22 22 21.1733 22 20.1667V11.8333ZM16.5 11H20.1667C20.6327 11 21 11.3673 21 11.8333V15.5H16.5V11ZM11.8333 11H15.5V15.5H11V11.8333C11 11.3673 11.3673 11 11.8333 11ZM16.5 16.5H21V20.1667C21 20.6327 20.6327 21 20.1667 21H16.5V16.5ZM11 16.5H15.5V21H11.8333C11.3673 21 11 20.6327 11 20.1667V16.5Z" fill="currentColor"/>
</svg>
