<svg width="26" height="26" viewBox="0 0 26 26" fill="none" xmlns="http://www.w3.org/2000/svg">
<path fill-rule="evenodd" clip-rule="evenodd" d="M1.56 0C0.704844 0 0 0.704844 0 1.56V24.44C0 25.2952 0.704844 26 1.56 26H19.76C20.6152 26 21.32 25.2952 21.32 24.44V19.24H20.28V24.44C20.28 24.7284 20.0484 24.96 19.76 24.96H11.92V1.04H19.76C20.0484 1.04 20.28 1.27156 20.28 1.56V6.76H21.32V1.56C21.32 0.704844 20.6152 0 19.76 0H1.56ZM9.92 13.87V24.96H1.56C1.27156 24.96 1.04 24.7284 1.04 24.44V13.87L9.92 13.87ZM9.92 11.87V1.04H1.56C1.27156 1.04 1.04 1.27156 1.04 1.56V11.87L9.92 11.87ZM20.8 7.8C17.9339 7.8 15.6 10.1339 15.6 13C15.6 15.8661 17.9339 18.2 20.8 18.2C23.6661 18.2 26 15.8661 26 13C26 10.1339 23.6661 7.8 20.8 7.8ZM20.8 8.84C23.1034 8.84 24.96 10.6966 24.96 13C24.96 15.3034 23.1034 17.16 20.8 17.16C18.4966 17.16 16.64 15.3034 16.64 13C16.64 10.6966 18.4966 8.84 20.8 8.84ZM20.28 10.4V12.48H18.2V13.52H20.28V15.6H21.32V13.52H23.4V12.48H21.32V10.4H20.28Z" fill="CurrentColor"/>
</svg>