<svg width="28" height="28" viewBox="0 0 28 28" fill="none" xmlns="http://www.w3.org/2000/svg">
<path d="M11 12V16H7V12H11Z" fill="#9CA3AF"/>
<path d="M1 7.5C1 7.10217 1.15804 6.72065 1.43934 6.43934C1.72065 6.15804 2.10217 6 2.5 6H15.5C15.8978 6 16.2793 6.15804 16.5607 6.43934C16.8419 6.72065 17 7.10217 17 7.5V20.5C17 20.8978 16.8419 21.2793 16.5607 21.5607C16.2793 21.8419 15.8978 22 15.5 22H2.5C2.10217 22 1.72065 21.8419 1.43934 21.5607C1.15804 21.2793 1 20.8978 1 20.5V7.5ZM2.5 7C2.36739 7 2.24021 7.05268 2.14645 7.14645C2.05268 7.24021 2 7.36739 2 7.5V11H6V7H2.5ZM6 12H2V16H6V12ZM7 16H11V12H7V16ZM6 17H2V20.5C2 20.6326 2.05268 20.7598 2.14645 20.8535C2.24021 20.9473 2.36739 21 2.5 21H6V17ZM7 17V21H11V17H7ZM12 17V21H15.5C15.6326 21 15.7598 20.9473 15.8535 20.8535C15.9473 20.7598 16 20.6326 16 20.5V17H12ZM12 16H16V12H12V16ZM12 11H16V7.5C16 7.36739 15.9473 7.24021 15.8535 7.14645C15.7598 7.05268 15.6326 7 15.5 7H12V11ZM11 11V7H7V11H11Z" fill="CurrentColor"/>
<path d="M23.2222 10V18" stroke="CurrentColor" stroke-width="2"/>
<path d="M27 14.2222H19" stroke="CurrentColor" stroke-width="2"/>
</svg>
