<svg width="26" height="26" viewBox="0 0 26 26" fill="none" xmlns="http://www.w3.org/2000/svg">
<path fill-rule="evenodd" clip-rule="evenodd" d="M0 1.56C0 0.704844 0.704844 0 1.56 0H24.44C25.2952 0 26 0.704844 26 1.56V19.24V24.44C26 25.2952 25.2952 26 24.44 26H1.56C0.704844 26 0 25.2952 0 24.44V1.56ZM24.96 24.44V19.24V7.11L6.72 7.11V24.96H24.44C24.7284 24.96 24.96 24.7284 24.96 24.44ZM24.96 1.56V5.11L6.72 5.11V1.04H24.44C24.7284 1.04 24.96 1.27156 24.96 1.56ZM4.72 1.04V5.11H1.04V1.56C1.04 1.27156 1.27156 1.04 1.56 1.04H4.72ZM1.04 24.44V7.11H4.72V24.96H1.56C1.27156 24.96 1.04 24.7284 1.04 24.44ZM14.5452 10.1436C14.6332 10.0537 14.7536 10.002 14.88 10.0001C14.9438 9.99907 15.0072 10.0108 15.0663 10.0346C15.1255 10.0583 15.1793 10.0936 15.2244 10.1384C15.2696 10.1831 15.3052 10.2364 15.3292 10.2951C15.3533 10.3538 15.3652 10.4167 15.3643 10.48V21.5201C15.3651 21.5828 15.3535 21.6451 15.3299 21.7032C15.3064 21.7614 15.2714 21.8144 15.227 21.859C15.1826 21.9037 15.1298 21.9391 15.0715 21.9633C15.0132 21.9875 14.9506 22 14.8874 22C14.8243 22 14.7617 21.9875 14.7034 21.9633C14.6451 21.9391 14.5922 21.9037 14.5479 21.859C14.5035 21.8144 14.4685 21.7614 14.445 21.7032C14.4214 21.6451 14.4097 21.5828 14.4106 21.5201V10.48C14.4088 10.3546 14.4572 10.2336 14.5452 10.1436ZM16.7704 10.1436C16.8584 10.0537 16.9788 10.002 17.1051 10.0001C17.1689 9.99907 17.2323 10.0108 17.2915 10.0346C17.3506 10.0583 17.4044 10.0936 17.4495 10.1384C17.4947 10.1831 17.5303 10.2364 17.5544 10.2951C17.5784 10.3538 17.5903 10.4167 17.5894 10.48V21.5201C17.5903 21.5828 17.5786 21.6451 17.555 21.7032C17.5315 21.7614 17.4965 21.8144 17.4521 21.859C17.4078 21.9037 17.3549 21.9391 17.2966 21.9633C17.2383 21.9875 17.1757 22 17.1126 22C17.0494 22 16.9868 21.9875 16.9285 21.9633C16.8702 21.9391 16.8174 21.9037 16.773 21.859C16.7286 21.8144 16.6936 21.7614 16.6701 21.7032C16.6465 21.6451 16.6349 21.5828 16.6357 21.5201V10.48C16.6339 10.3546 16.6823 10.2336 16.7704 10.1436ZM11.1196 13.8678C11.1983 13.8152 11.291 13.7871 11.3859 13.7871C11.4497 13.7871 11.5128 13.7998 11.5716 13.8245C11.6303 13.8491 11.6835 13.8852 11.728 13.9306L13.6352 15.8232C13.7246 15.912 13.7748 16.0323 13.7748 16.1578C13.7748 16.2832 13.7246 16.4036 13.6352 16.4923L11.728 18.3849C11.684 18.4303 11.6314 18.4666 11.5732 18.4915C11.5149 18.5165 11.4523 18.5297 11.3888 18.5303C11.3254 18.531 11.2625 18.519 11.2037 18.4953C11.145 18.4715 11.0917 18.4363 11.0468 18.3918C11.0019 18.3472 10.9665 18.2943 10.9425 18.236C10.9185 18.1777 10.9065 18.1153 10.9072 18.0523C10.9078 17.9894 10.9211 17.9272 10.9463 17.8694C10.9714 17.8116 11.008 17.7594 11.0537 17.7158L12.147 16.6309H9.4836C9.42042 16.6318 9.35769 16.6202 9.29906 16.5968C9.24042 16.5735 9.18706 16.5387 9.14206 16.4947C9.09706 16.4507 9.06133 16.3982 9.03695 16.3404C9.01256 16.2825 9 16.2205 9 16.1578C9 16.0951 9.01256 16.033 9.03695 15.9751C9.06133 15.9173 9.09706 15.8648 9.14206 15.8208C9.18706 15.7768 9.24042 15.7421 9.29906 15.7187C9.35769 15.6953 9.42042 15.6837 9.4836 15.6846H12.147L11.0537 14.5997C10.9857 14.5341 10.9389 14.4498 10.9193 14.3577C10.8998 14.2655 10.9084 14.1697 10.9441 14.0824C10.9798 13.9952 11.0409 13.9205 11.1196 13.8678ZM20.272 13.9306C20.3585 13.8426 20.476 13.7913 20.5998 13.7877C20.6958 13.785 20.7904 13.811 20.8712 13.8625C20.952 13.914 21.0153 13.9885 21.0527 14.0762C21.0901 14.164 21.1 14.2609 21.081 14.3543C21.062 14.4477 21.0151 14.5332 20.9463 14.5997L19.853 15.6846H22.5164C22.5796 15.6837 22.6423 15.6953 22.7009 15.7187C22.7596 15.7421 22.8129 15.7768 22.8579 15.8208C22.9029 15.8648 22.9387 15.9173 22.9631 15.9751C22.9874 16.033 23 16.0951 23 16.1578C23 16.2205 22.9874 16.2825 22.9631 16.3404C22.9387 16.3982 22.9029 16.4507 22.8579 16.4947C22.8129 16.5387 22.7596 16.5735 22.7009 16.5968C22.6423 16.6202 22.5796 16.6318 22.5164 16.6309H19.853L20.9463 17.7158C20.992 17.7594 21.0286 17.8116 21.0537 17.8694C21.0789 17.9272 21.0922 17.9894 21.0928 18.0523C21.0935 18.1153 21.0815 18.1777 21.0575 18.236C21.0335 18.2943 20.9981 18.3472 20.9532 18.3918C20.9083 18.4363 20.855 18.4715 20.7963 18.4953C20.7375 18.519 20.6746 18.531 20.6112 18.5303C20.5477 18.5297 20.4851 18.5165 20.4268 18.4915C20.3686 18.4666 20.316 18.4303 20.272 18.3849L18.3648 16.4923C18.2754 16.4036 18.2252 16.2832 18.2252 16.1578C18.2252 16.0323 18.2754 15.912 18.3648 15.8232L20.272 13.9306Z" fill="CurrentColor"/>
</svg>
