<svg width="26" height="26" viewBox="0 0 26 26" fill="none" xmlns="http://www.w3.org/2000/svg">
<path fill-rule="evenodd" clip-rule="evenodd" d="M0 1.56C0 0.704844 0.704844 0 1.56 0H24.44C25.2952 0 26 0.704844 26 1.56V19.24V24.44C26 25.2952 25.2952 26 24.44 26H1.56C0.704844 26 0 25.2952 0 24.44V1.56ZM24.96 24.44V19.24V7.11L6.72 7.11V24.96H24.44C24.7284 24.96 24.96 24.7284 24.96 24.44ZM24.96 1.56V5.11L6.72 5.11V1.04H24.44C24.7284 1.04 24.96 1.27156 24.96 1.56ZM4.72 1.04V5.11H1.04V1.56C1.04 1.27156 1.27156 1.04 1.56 1.04H4.72ZM1.04 24.44V7.11H4.72V24.96H1.56C1.27156 24.96 1.04 24.7284 1.04 24.44ZM14.5452 10.1436C14.6332 10.0537 14.7536 10.002 14.88 10.0001C14.9438 9.99907 15.0072 10.0108 15.0663 10.0346C15.1255 10.0583 15.1793 10.0936 15.2244 10.1384C15.2696 10.1831 15.3052 10.2364 15.3292 10.2951C15.3533 10.3538 15.3652 10.4167 15.3643 10.48V21.5201C15.3651 21.5828 15.3535 21.6451 15.3299 21.7032C15.3064 21.7614 15.2714 21.8144 15.227 21.859C15.1826 21.9037 15.1298 21.9391 15.0715 21.9633C15.0132 21.9875 14.9506 22 14.8874 22C14.8243 22 14.7617 21.9875 14.7034 21.9633C14.6451 21.9391 14.5922 21.9037 14.5479 21.859C14.5035 21.8144 14.4685 21.7614 14.445 21.7032C14.4214 21.6451 14.4097 21.5828 14.4106 21.5201V10.48C14.4088 10.3546 14.4572 10.2336 14.5452 10.1436ZM16.7704 10.1436C16.8584 10.0537 16.9788 10.002 17.1051 10.0001C17.1689 9.99907 17.2323 10.0108 17.2915 10.0346C17.3506 10.0583 17.4044 10.0936 17.4495 10.1384C17.4947 10.1831 17.5303 10.2364 17.5544 10.2951C17.5784 10.3538 17.5903 10.4167 17.5894 10.48V21.5201C17.5903 21.5828 17.5786 21.6451 17.555 21.7032C17.5315 21.7614 17.4965 21.8144 17.4521 21.859C17.4078 21.9037 17.3549 21.9391 17.2966 21.9633C17.2383 21.9875 17.1757 22 17.1126 22C17.0494 22 16.9868 21.9875 16.9285 21.9633C16.8702 21.9391 16.8174 21.9037 16.773 21.859C16.7286 21.8144 16.6936 21.7614 16.6701 21.7032C16.6465 21.6451 16.6349 21.5828 16.6357 21.5201V10.48C16.6339 10.3546 16.6823 10.2336 16.7704 10.1436ZM21.1196 13.8678C21.1983 13.8152 21.291 13.7871 21.3859 13.7871C21.4497 13.7871 21.5128 13.7998 21.5716 13.8245C21.6303 13.8491 21.6835 13.8852 21.728 13.9306L23.6352 15.8232C23.7246 15.912 23.7748 16.0323 23.7748 16.1578C23.7748 16.2832 23.7246 16.4036 23.6352 16.4923L21.728 18.3849C21.684 18.4303 21.6314 18.4665 21.5732 18.4915C21.5149 18.5165 21.4523 18.5297 21.3888 18.5303C21.3254 18.531 21.2625 18.519 21.2037 18.4953C21.145 18.4715 21.0917 18.4363 21.0468 18.3918C21.0019 18.3472 20.9665 18.2943 20.9425 18.236C20.9185 18.1777 20.9065 18.1153 20.9072 18.0523C20.9078 17.9894 20.9211 17.9272 20.9463 17.8694C20.9714 17.8116 21.008 17.7594 21.0537 17.7158L22.147 16.6309H19.4836C19.4204 16.6318 19.3577 16.6202 19.2991 16.5968C19.2404 16.5735 19.1871 16.5387 19.1421 16.4947C19.0971 16.4507 19.0613 16.3982 19.0369 16.3404C19.0126 16.2825 19 16.2205 19 16.1578C19 16.0951 19.0126 16.033 19.0369 15.9751C19.0613 15.9173 19.0971 15.8648 19.1421 15.8208C19.1871 15.7768 19.2404 15.7421 19.2991 15.7187C19.3577 15.6953 19.4204 15.6837 19.4836 15.6846H22.147L21.0537 14.5997C20.9857 14.5341 20.9389 14.4498 20.9193 14.3577C20.8998 14.2655 20.9084 14.1697 20.9441 14.0824C20.9798 13.9952 21.0409 13.9205 21.1196 13.8678ZM10.272 13.9306C10.3585 13.8426 10.476 13.7913 10.5998 13.7877C10.6958 13.785 10.7904 13.811 10.8712 13.8625C10.952 13.914 11.0153 13.9885 11.0527 14.0762C11.0901 14.164 11.1 14.2609 11.081 14.3543C11.062 14.4477 11.0151 14.5332 10.9463 14.5997L9.85297 15.6846H12.5164C12.5796 15.6837 12.6423 15.6953 12.7009 15.7187C12.7596 15.7421 12.8129 15.7768 12.8579 15.8208C12.9029 15.8648 12.9387 15.9173 12.9631 15.9751C12.9874 16.033 13 16.0951 13 16.1578C13 16.2205 12.9874 16.2825 12.9631 16.3404C12.9387 16.3982 12.9029 16.4507 12.8579 16.4947C12.8129 16.5387 12.7596 16.5735 12.7009 16.5968C12.6423 16.6202 12.5796 16.6318 12.5164 16.6309H9.85297L10.9463 17.7158C10.992 17.7594 11.0286 17.8116 11.0537 17.8694C11.0789 17.9272 11.0922 17.9894 11.0928 18.0523C11.0935 18.1153 11.0815 18.1777 11.0575 18.236C11.0335 18.2943 10.9981 18.3472 10.9532 18.3918C10.9083 18.4363 10.855 18.4715 10.7963 18.4953C10.7375 18.519 10.6746 18.531 10.6112 18.5303C10.5477 18.5297 10.4851 18.5165 10.4268 18.4915C10.3686 18.4665 10.316 18.4303 10.272 18.3849L8.3648 16.4923C8.27542 16.4036 8.2252 16.2832 8.2252 16.1578C8.2252 16.0323 8.27542 15.912 8.3648 15.8232L10.272 13.9306Z" fill="CurrentColor"/>
</svg>