<svg width="25" height="26" viewBox="0 0 25 26" fill="none" xmlns="http://www.w3.org/2000/svg">
<path fill-rule="evenodd" clip-rule="evenodd" d="M1.5 0C0.677735 0 0 0.704844 0 1.56V24.44C0 25.2952 0.677735 26 1.5 26H19C19.8223 26 20.5 25.2952 20.5 24.44V19.24H19.5V24.44C19.5 24.7284 19.2773 24.96 19 24.96H11.5V1.04H19C19.2773 1.04 19.5 1.27156 19.5 1.56V6.76H20.5V1.56C20.5 0.704844 19.8223 0 19 0H1.5ZM9.5 13.87V24.96H1.5C1.22266 24.96 1 24.7284 1 24.44V13.87L9.5 13.87ZM9.5 11.87V1.04H1.5C1.22266 1.04 1 1.27156 1 1.56V11.87L9.5 11.87ZM20 7.8C17.2441 7.8 15 10.1339 15 13C15 15.8661 17.2441 18.2 20 18.2C22.7559 18.2 25 15.8661 25 13C25 10.1339 22.7559 7.8 20 7.8ZM20 8.84C22.2148 8.84 24 10.6966 24 13C24 15.3034 22.2148 17.16 20 17.16C17.7852 17.16 16 15.3034 16 13C16 10.6966 17.7852 8.84 20 8.84ZM19.5 12.48H17.5V13.52H19.5H20.5H22.5V12.48H20.5H19.5Z" fill="CurrentColor"/>
</svg>