<svg width="21" height="16" viewBox="0 0 21 16" fill="none" xmlns="http://www.w3.org/2000/svg">
<path fill-rule="evenodd" clip-rule="evenodd" d="M6 14C6 13.8011 6.07902 13.6103 6.21967 13.4697C6.36032 13.329 6.55109 13.25 6.75 13.25H20.25C20.4489 13.25 20.6397 13.329 20.7803 13.4697C20.921 13.6103 21 13.8011 21 14C21 14.1989 20.921 14.3897 20.7803 14.5303C20.6397 14.671 20.4489 14.75 20.25 14.75H6.75C6.55109 14.75 6.36032 14.671 6.21967 14.5303C6.07902 14.3897 6 14.1989 6 14ZM6 8C6 7.8011 6.07902 7.6103 6.21967 7.4697C6.36032 7.329 6.55109 7.25 6.75 7.25H20.25C20.4489 7.25 20.6397 7.329 20.7803 7.4697C20.921 7.6103 21 7.8011 21 8C21 8.1989 20.921 8.3897 20.7803 8.5303C20.6397 8.671 20.4489 8.75 20.25 8.75H6.75C6.55109 8.75 6.36032 8.671 6.21967 8.5303C6.07902 8.3897 6 8.1989 6 8ZM6 2C6 1.80109 6.07902 1.61032 6.21967 1.46967C6.36032 1.32902 6.55109 1.25 6.75 1.25H20.25C20.4489 1.25 20.6397 1.32902 20.7803 1.46967C20.921 1.61032 21 1.80109 21 2C21 2.19891 20.921 2.38968 20.7803 2.53033C20.6397 2.67098 20.4489 2.75 20.25 2.75H6.75C6.55109 2.75 6.36032 2.67098 6.21967 2.53033C6.07902 2.38968 6 2.19891 6 2ZM1.5 3.5C1.89782 3.5 2.27936 3.34196 2.56066 3.06066C2.84196 2.77936 3 2.39782 3 2C3 1.60218 2.84196 1.22064 2.56066 0.93934C2.27936 0.65804 1.89782 0.5 1.5 0.5C1.10218 0.5 0.72064 0.65804 0.43934 0.93934C0.15804 1.22064 0 1.60218 0 2C0 2.39782 0.15804 2.77936 0.43934 3.06066C0.72064 3.34196 1.10218 3.5 1.5 3.5ZM1.5 9.5C1.89782 9.5 2.27936 9.342 2.56066 9.0607C2.84196 8.7794 3 8.3978 3 8C3 7.6022 2.84196 7.2206 2.56066 6.9393C2.27936 6.658 1.89782 6.5 1.5 6.5C1.10218 6.5 0.72064 6.658 0.43934 6.9393C0.15804 7.2206 0 7.6022 0 8C0 8.3978 0.15804 8.7794 0.43934 9.0607C0.72064 9.342 1.10218 9.5 1.5 9.5ZM1.5 15.5C1.89782 15.5 2.27936 15.342 2.56066 15.0607C2.84196 14.7794 3 14.3978 3 14C3 13.6022 2.84196 13.2206 2.56066 12.9393C2.27936 12.658 1.89782 12.5 1.5 12.5C1.10218 12.5 0.72064 12.658 0.43934 12.9393C0.15804 13.2206 0 13.6022 0 14C0 14.3978 0.15804 14.7794 0.43934 15.0607C0.72064 15.342 1.10218 15.5 1.5 15.5Z" fill="currentColor"/>
</svg>
