<svg width="24" height="25" viewBox="0 0 24 25" fill="none" xmlns="http://www.w3.org/2000/svg">
<path fill-rule="evenodd" clip-rule="evenodd" d="M8 18.25C8 18.0511 8.07902 17.8603 8.21967 17.7197C8.36032 17.579 8.55109 17.5 8.75 17.5H22.25C22.4489 17.5 22.6397 17.579 22.7803 17.7197C22.921 17.8603 23 18.0511 23 18.25C23 18.4489 22.921 18.6397 22.7803 18.7803C22.6397 18.921 22.4489 19 22.25 19H8.75C8.55109 19 8.36032 18.921 8.21967 18.7803C8.07902 18.6397 8 18.4489 8 18.25ZM8 12.25C8 12.0511 8.07902 11.8603 8.21967 11.7197C8.36032 11.579 8.55109 11.5 8.75 11.5H22.25C22.4489 11.5 22.6397 11.579 22.7803 11.7197C22.921 11.8603 23 12.0511 23 12.25C23 12.4489 22.921 12.6397 22.7803 12.7803C22.6397 12.921 22.4489 13 22.25 13H8.75C8.55109 13 8.36032 12.921 8.21967 12.7803C8.07902 12.6397 8 12.4489 8 12.25ZM8 6.25C8 6.05109 8.07902 5.86032 8.21967 5.71967C8.36032 5.57902 8.55109 5.5 8.75 5.5H22.25C22.4489 5.5 22.6397 5.57902 22.7803 5.71967C22.921 5.86032 23 6.05109 23 6.25C23 6.44891 22.921 6.63968 22.7803 6.78033C22.6397 6.92098 22.4489 7 22.25 7H8.75C8.55109 7 8.36032 6.92098 8.21967 6.78033C8.07902 6.63968 8 6.44891 8 6.25Z" fill="currentColor"/>
<path d="M3.0695 18.7965V18.0855H3.5C3.8255 18.0855 4.0445 17.88 4.0445 17.61C4.0445 17.3325 3.8075 17.145 3.503 17.145C3.1685 17.145 2.9525 17.373 2.9435 17.61H2.0585C2.0825 16.9095 2.618 16.4295 3.5375 16.4295C4.4195 16.4265 4.9685 16.866 4.973 17.484C4.97584 17.696 4.90314 17.902 4.76792 18.0653C4.6327 18.2285 4.44379 18.3383 4.235 18.375V18.4245C4.47171 18.4422 4.69251 18.5504 4.85148 18.7267C5.01044 18.903 5.09533 19.1337 5.0885 19.371C5.093 20.1705 4.3355 20.571 3.512 20.571C2.528 20.571 2.012 20.016 2 19.38H2.873C2.885 19.647 3.152 19.839 3.506 19.8435C3.887 19.8435 4.142 19.626 4.139 19.3185C4.136 19.026 3.9065 18.7965 3.518 18.7965H3.068H3.0695ZM3.0635 11.748H2.1575V11.6955C2.1575 11.0835 2.6 10.4295 3.5945 10.4295C4.469 10.4295 5.0345 10.9185 5.0345 11.5635C5.0345 12.147 4.649 12.489 4.3205 12.8355L3.515 13.6935V13.7385H5.096V14.499H2.2145V13.9065L3.65 12.4215C3.857 12.2085 4.0895 11.9655 4.0895 11.6595C4.0895 11.3895 3.869 11.1795 3.5765 11.1795C3.50897 11.177 3.44166 11.1884 3.37869 11.2129C3.31573 11.2374 3.25845 11.2746 3.21039 11.3221C3.16233 11.3696 3.12451 11.4264 3.09924 11.4891C3.07398 11.5518 3.06182 11.6189 3.0635 11.6865V11.748ZM4.346 8.499H3.3935V5.385H3.347L2.45 6.015V5.1645L3.3935 4.5H4.346V8.499Z" fill="currentColor"/>
</svg>
