<svg width="33" height="20" viewBox="0 0 33 20" fill="none" xmlns="http://www.w3.org/2000/svg">
<path fill-rule="evenodd" clip-rule="evenodd" d="M0 3.44444V1C0 0.447715 0.447716 0 1 0H3.44444C3.99673 0 4.44444 0.447716 4.44444 1V3.44444C4.44444 3.99673 3.99673 4.44444 3.44444 4.44444H1C0.447715 4.44444 0 3.99673 0 3.44444ZM7.77778 3.44444V1C7.77778 0.447715 8.22549 0 8.77778 0H11.2222C11.7745 0 12.2222 0.447716 12.2222 1V3.44444C12.2222 3.99673 11.7745 4.44444 11.2222 4.44444H8.77778C8.22549 4.44444 7.77778 3.99673 7.77778 3.44444ZM15.5556 1V3.44444C15.5556 3.99673 16.0033 4.44444 16.5556 4.44444H19C19.5523 4.44444 20 3.99673 20 3.44444V1C20 0.447716 19.5523 0 19 0H16.5556C16.0033 0 15.5556 0.447715 15.5556 1ZM0 11.2222V8.77778C0 8.22549 0.447716 7.77778 1 7.77778H3.44444C3.99673 7.77778 4.44444 8.22549 4.44444 8.77778V11.2222C4.44444 11.7745 3.99673 12.2222 3.44444 12.2222H1C0.447715 12.2222 0 11.7745 0 11.2222ZM16.5556 7.77778C16.0033 7.77778 15.5556 8.22549 15.5556 8.77778V11.2222C15.5556 11.7745 16.0033 12.2222 16.5556 12.2222H19C19.5523 12.2222 20 11.7745 20 11.2222V8.77778C20 8.22549 19.5523 7.77778 19 7.77778H16.5556ZM0 19V16.5556C0 16.0033 0.447716 15.5556 1 15.5556H3.44444C3.99673 15.5556 4.44444 16.0033 4.44444 16.5556V19C4.44444 19.5523 3.99673 20 3.44444 20H1C0.447715 20 0 19.5523 0 19ZM7.77778 16.5556V19C7.77778 19.5523 8.22549 20 8.77778 20H11.2222C11.7745 20 12.2222 19.5523 12.2222 19V16.5556C12.2222 16.0033 11.7745 15.5556 11.2222 15.5556H8.77778C8.22549 15.5556 7.77778 16.0033 7.77778 16.5556ZM15.5556 19V16.5556C15.5556 16.0033 16.0033 15.5556 16.5556 15.5556H19C19.5523 15.5556 20 16.0033 20 16.5556V19C20 19.5523 19.5523 20 19 20H16.5556C16.0033 20 15.5556 19.5523 15.5556 19ZM12.2222 10C12.2222 8.7727 11.2273 7.77778 10 7.77778C8.7727 7.77778 7.77778 8.7727 7.77778 10C7.77778 11.2273 8.7727 12.2222 10 12.2222C11.2273 12.2222 12.2222 11.2273 12.2222 10ZM28.6826 6.7801C28.4165 6.47597 28.6325 6 29.0366 6C29.1722 6 29.3012 6.05855 29.3905 6.16063L32.4238 9.62721C32.7537 10.0042 32.7537 10.5672 32.4238 10.9442L29.3905 14.4108C29.3012 14.5129 29.1722 14.5714 29.0366 14.5714C28.6325 14.5714 28.4165 14.0955 28.6826 13.7913L31.1738 10.9442C31.5037 10.5672 31.5037 10.0042 31.1738 9.62721L28.6826 6.7801Z" fill="#1BC5BD"/>
</svg>
