<svg xmlns="http://www.w3.org/2000/svg" width="21" height="19" fill="none" viewBox="0 0 21 19">
    <path fill="#fff" d="M15.274.576c-.77 0-1.525.164-2.247.492-1.543.689-2.675 2.067-3.167 3.855-.016.05-.016.082-.016.132V18.18c0 .246.18.46.426.492h.066c.213 0 .41-.148.476-.36.41-1.51 1.345-2.659 2.625-3.233.574-.263 1.197-.394 1.837-.394.771 0 1.559.18 2.313.558.148.082.329.066.476-.033.148-.082.23-.246.23-.41V1.675c0-.18-.115-.361-.279-.443-.902-.443-1.821-.656-2.74-.656zm.066.984c.656.008 1.329.156 1.985.443v12.075c-1.444-.508-2.97-.476-4.282.115-.886.394-1.64 1.017-2.198 1.821V5.12c.426-1.476 1.345-2.592 2.608-3.166.59-.27 1.23-.402 1.887-.394zm-10.012.966C3.425 2.55 1.544 3.298.13 4.71.05 4.792 0 4.923 0 5.055V18.18c0 .279.213.492.492.492h7.383c.279 0 .492-.213.492-.492 0-.28-.213-.492-.492-.492H.985V5.268c2.067-1.936 5.184-2.313 7.645-.902.23.131.541.049.672-.18.131-.23.05-.542-.18-.674-1.18-.68-2.492-1.002-3.794-.986zM20.18 4.563c-.28 0-.492.213-.492.492v12.633h-6.891c-.279 0-.492.213-.492.492s.213.492.492.492h7.383c.279 0 .492-.213.492-.492V5.055c0-.28-.213-.492-.492-.492z"/>
</svg>
