<svg xmlns="http://www.w3.org/2000/svg"  viewBox="0 0 24 24" width="96px" height="96px"><path d="M19.591,23.998L20.25,24V0.022h-0.679c-1.309,0-2.597,0.31-3.76,0.906C14.641,0.322,13.343,0.004,12.025,0h-0.023	c-1.327,0-2.634,0.318-3.812,0.927C7.03,0.332,5.738,0.021,4.431,0.021H3.75V8.23c-0.021,4.184,1.648,8.2,4.633,11.143	C11.353,22.336,15.387,24,19.591,23.998L19.591,23.998z M5.99,8.35C5.034,6.834,5.493,4.834,7.017,3.883	c1.523-0.951,3.534-0.494,4.49,1.022c0.274,0.437,0.442,0.933,0.485,1.446l0.016-0.02l0.015,0.018	c0.155-1.667,1.564-2.945,3.249-2.941c1.799,0.002,3.255,1.453,3.253,3.242c-0.003,1.791-1.462,3.238-3.26,3.236	c-0.619,0-1.227-0.176-1.748-0.508l-1.523,1.508L10.478,9.37C8.956,10.322,6.945,9.865,5.99,8.35L5.99,8.35z"/><path fill="#212121" d="M12.025,0h-0.023c0,0-0.001,0-0.002,0v6.341l0.008-0.009l0.015,0.018c0.155-1.664,1.56-2.941,3.24-2.941	c0.003,0,0.005,0,0.008,0c1.799,0.002,3.255,1.453,3.253,3.242c-0.003,1.79-1.459,3.236-3.256,3.236c-0.001,0-0.003,0-0.004,0	c-0.619,0-1.227-0.176-1.748-0.508L12,10.879v11.193c2.305,1.253,4.909,1.927,7.582,1.927c0.003,0,0.006,0,0.009,0L20.25,24V0.022	h-0.679c-1.309,0-2.597,0.31-3.76,0.906C14.641,0.322,13.343,0.004,12.025,0L12.025,0z"/><path fill="#DEDEDE" d="M8.745,3.387c-0.592,0-1.191,0.16-1.729,0.496C5.493,4.834,5.034,6.834,5.99,8.35	c0.618,0.98,1.676,1.517,2.759,1.517c0.592,0,1.191-0.161,1.729-0.497l1.514,1.516L12,10.879V6.341l-0.008,0.01	c-0.044-0.513-0.212-1.009-0.486-1.446C10.888,3.925,9.829,3.387,8.745,3.387L8.745,3.387z"/><path d="M8.744,8.789c1.198,0.006,2.174-0.959,2.179-2.15c0.001-0.219-0.031-0.436-0.097-0.644	c-0.244,0.544-0.886,0.788-1.433,0.546C8.846,6.297,8.6,5.658,8.845,5.113C8.954,4.87,9.15,4.676,9.395,4.566	C8.253,4.211,7.036,4.842,6.677,5.98c-0.067,0.207-0.1,0.424-0.101,0.642C6.573,7.814,7.541,8.785,8.74,8.789H8.744L8.744,8.789z"/><path fill="#212121" d="M8.747,4.467H8.746v4.322c0.003,0,0.006,0,0.01,0c1.193,0,2.163-0.963,2.168-2.15	c0.001-0.219-0.031-0.436-0.097-0.644c-0.18,0.401-0.577,0.64-0.992,0.64c-0.148,0-0.297-0.03-0.441-0.094	C8.846,6.297,8.6,5.658,8.845,5.113C8.954,4.87,9.15,4.676,9.395,4.566C9.18,4.499,8.962,4.467,8.747,4.467L8.747,4.467z"/><path d="M14.612,8.71c0.21,0.063,0.425,0.097,0.643,0.098c1.199,0.003,2.174-0.962,2.177-2.155c0.003-1.193-0.968-2.162-2.166-2.164	c-0.217-0.002-0.433,0.03-0.642,0.094c0.548,0.244,0.793,0.884,0.55,1.428c-0.245,0.543-0.887,0.787-1.435,0.545	c-0.246-0.109-0.441-0.307-0.552-0.553C12.83,7.142,13.468,8.355,14.612,8.71L14.612,8.71z"/><path fill="#212121" d="M15.26,4.489v0.952c0.01,0.086,0.011,0.174,0,0.261v3.105h0c1.196,0,2.168-0.964,2.172-2.155	c0.003-1.193-0.968-2.162-2.166-2.164C15.264,4.489,15.262,4.489,15.26,4.489L15.26,4.489z"/></svg>