<?xml version="1.0" standalone="no"?>
<!DOCTYPE svg PUBLIC "-//W3C//DTD SVG 20010904//EN"
 "http://www.w3.org/TR/2001/REC-SVG-20010904/DTD/svg10.dtd">
<svg version="1.0" xmlns="http://www.w3.org/2000/svg"
 width="2133.000000pt" height="2133.000000pt" viewBox="0 0 2133.000000 2133.000000"
 preserveAspectRatio="xMidYMid meet">

<g transform="translate(0.000000,2133.000000) scale(0.100000,-0.100000)"
fill="#318CEB" stroke="none">
<path d="M0 10665 l0 -10665 10665 0 10665 0 0 10665 0 10665 -10665 0 -10665
0 0 -10665z m7515 5709 c68 -32 82 -127 30 -205 -32 -49 -3163 -5444 -3177
-5475 -6 -13 -14 -21 -18 -19 -5 3 -11 -2 -14 -11 -6 -17 -827 -1437 -1241
-2149 -264 -453 -317 -546 -293 -511 7 10 62 89 121 175 562 809 1166 1403
1730 1701 100 53 121 60 131 49 8 -8 624 -1074 1371 -2369 746 -1295 1371
-2376 1387 -2402 37 -60 46 -114 24 -156 -35 -67 82 -63 -1598 -60 l-1523 3
-58 29 c-117 60 -103 37 -927 1466 -420 729 -866 1501 -990 1715 -403 693
-813 1402 -1000 1730 -100 176 -214 370 -252 431 -101 163 -113 202 -113 354
1 148 8 170 111 336 58 94 636 1105 999 1749 65 116 136 235 157 267 20 31
436 744 924 1585 487 840 901 1552 920 1581 64 97 139 156 239 188 32 10 356
13 1533 13 1341 1 1497 -1 1527 -15z m1125 -6 c18 -13 46 -39 61 -58 15 -19
710 -1212 1544 -2650 835 -1438 1532 -2637 1550 -2665 18 -27 96 -169 173
-315 77 -146 383 -684 680 -1197 l539 -931 6 -85 c7 -103 -7 -340 -29 -492
-88 -606 -347 -1363 -756 -2205 -60 -124 -105 -220 -100 -215 5 6 300 516 655
1134 558 968 645 1126 636 1143 -6 11 -7 18 -2 15 11 -7 -17 -54 521 873 228
393 546 940 707 1215 161 275 354 613 430 750 76 138 163 295 193 350 30 55
60 105 67 110 6 6 681 1167 1500 2580 818 1414 1499 2585 1512 2603 52 69 123
81 178 30 22 -21 295 -486 766 -1303 402 -698 738 -1284 745 -1301 37 -89 25
-216 -30 -319 -90 -168 -2242 -3899 -3438 -5960 -1292 -2225 -1368 -2354
-1434 -2421 -53 -55 -82 -76 -127 -93 l-58 -21 -1532 2 -1532 3 -67 33 c-42
21 -82 50 -108 80 -24 27 -671 1134 -1514 2592 -810 1400 -1885 3256 -2391
4125 -505 869 -929 1603 -942 1632 -51 112 -63 249 -32 368 6 22 334 591 729
1265 394 674 725 1241 735 1260 44 89 100 112 165 68z"/>
<path d="M12270 5500 c-6 -11 -8 -20 -6 -20 3 0 10 9 16 20 6 11 8 20 6 20 -3
0 -10 -9 -16 -20z"/>
</g>
</svg>
