<?xml version="1.0" standalone="no"?>
<!DOCTYPE svg PUBLIC "-//W3C//DTD SVG 20010904//EN"
 "http://www.w3.org/TR/2001/REC-SVG-20010904/DTD/svg10.dtd">
<svg version="1.0" xmlns="http://www.w3.org/2000/svg"
 width="246.000000pt" height="205.000000pt" viewBox="0 0 246.000000 205.000000"
 preserveAspectRatio="xMidYMid meet">

<g transform="translate(0.000000,205.000000) scale(0.100000,-0.100000)"
fill="#CF0C28" stroke="none">
<path d="M365 1263 c-3 -49 -7 -97 -8 -108 -2 -17 5 -20 46 -23 36 -2 47 0 47
12 0 9 -11 16 -27 18 -17 2 -28 9 -27 18 0 8 4 50 8 93 6 72 6 77 -13 77 -17
0 -20 -10 -26 -87z"/>
<path d="M454 1342 c-7 -4 -13 -38 -15 -77 l-4 -70 75 0 75 0 9 62 c12 88 9
93 -66 93 -35 0 -68 -4 -74 -8z m106 -72 l0 -40 -45 0 c-44 0 -45 0 -45 33 0
43 5 47 52 47 38 0 38 0 38 -40z"/>
<path d="M642 1338 c-7 -7 -12 -39 -12 -80 l0 -68 45 0 c33 0 45 -4 45 -15 0
-10 -10 -15 -30 -15 -20 0 -30 -5 -30 -16 0 -12 10 -14 48 -12 42 3 47 6 51
28 1 14 8 28 13 31 6 4 11 40 12 80 l1 74 -65 3 c-42 2 -70 -2 -78 -10z m114
-50 c-3 -13 -6 -31 -6 -40 0 -15 -9 -18 -45 -18 -48 0 -48 1 -39 49 6 29 9 31
51 31 42 0 45 -2 39 -22z"/>

</g>
</svg>
