<?xml version="1.0" standalone="no"?>
<!DOCTYPE svg PUBLIC "-//W3C//DTD SVG 20010904//EN"
 "http://www.w3.org/TR/2001/REC-SVG-20010904/DTD/svg10.dtd">
<svg version="1.0" xmlns="http://www.w3.org/2000/svg"
 width="246.000000pt" height="205.000000pt" viewBox="0 0 246.000000 205.000000"
 preserveAspectRatio="xMidYMid meet">

<g transform="translate(0.000000,205.000000) scale(0.100000,-0.100000)"
fill="#CF0C28" stroke="none">
<path d="M365 1263 c-3 -49 -7 -97 -8 -108 -2 -17 5 -20 46 -23 36 -2 47 0 47
12 0 9 -11 16 -27 18 -17 2 -28 9 -27 18 0 8 4 50 8 93 6 72 6 77 -13 77 -17
0 -20 -10 -26 -87z"/>
<path d="M454 1342 c-7 -4 -13 -38 -15 -77 l-4 -70 75 0 75 0 9 62 c12 88 9
93 -66 93 -35 0 -68 -4 -74 -8z m106 -72 l0 -40 -45 0 c-44 0 -45 0 -45 33 0
43 5 47 52 47 38 0 38 0 38 -40z"/>
<path d="M642 1338 c-7 -7 -12 -39 -12 -80 l0 -68 45 0 c33 0 45 -4 45 -15 0
-10 -10 -15 -30 -15 -20 0 -30 -5 -30 -16 0 -12 10 -14 48 -12 42 3 47 6 51
28 1 14 8 28 13 31 6 4 11 40 12 80 l1 74 -65 3 c-42 2 -70 -2 -78 -10z m114
-50 c-3 -13 -6 -31 -6 -40 0 -15 -9 -18 -45 -18 -48 0 -48 1 -39 49 6 29 9 31
51 31 42 0 45 -2 39 -22z"/>
<path d="M830 1324 c-6 -14 -10 -50 -10 -80 l0 -54 74 0 c62 0 75 3 80 18 8
29 10 117 2 130 -4 7 -32 12 -72 12 -60 0 -65 -2 -74 -26z m120 -38 c0 -45
-10 -56 -51 -56 -39 0 -39 0 -39 40 l0 40 45 0 c41 0 45 -2 45 -24z"/>
<path d="M780 1085 c0 -21 5 -25 31 -25 l32 0 -6 -67 c-4 -38 -10 -96 -13
-130 l-7 -63 30 0 31 0 8 103 c4 56 9 105 10 110 1 4 2 16 3 27 1 15 8 20 31
20 25 0 30 4 30 25 0 25 -1 25 -90 25 -89 0 -90 0 -90 -25z"/>
<path d="M1005 1008 c-13 -208 -13 -203 15 -203 25 0 25 2 36 115 19 188 19
190 -15 190 l-29 0 -7 -102z"/>
<path d="M1146 1101 c-8 -13 -27 -282 -20 -292 6 -11 161 -12 167 -1 3 4 8 44
12 90 l7 82 -25 0 c-22 0 -25 -5 -31 -60 l-7 -60 -34 0 -35 0 0 49 c0 26 3 69
6 95 l7 46 63 0 c49 0 64 3 64 14 0 8 3 21 6 30 5 14 -6 16 -84 16 -50 0 -93
-4 -96 -9z"/>
<path d="M1396 1088 c-4 -21 -26 -252 -26 -277 0 -7 32 -11 90 -11 l90 0 0 30
0 30 -60 0 c-62 0 -66 3 -54 47 4 16 15 23 38 25 26 2 31 7 31 28 0 21 -5 26
-33 28 -29 3 -33 6 -28 25 3 12 6 25 6 29 0 4 28 8 63 10 59 3 62 4 65 31 l3
27 -90 0 c-86 0 -91 -1 -95 -22z"/>
<path d="M1636 1078 c-3 -18 -8 -88 -11 -156 l-6 -124 23 4 c20 3 24 10 29 61
7 63 12 73 29 62 7 -4 10 -19 6 -36 -5 -24 -2 -29 14 -29 16 0 20 -7 20 -30 0
-27 3 -30 30 -30 27 0 30 3 30 30 0 23 -4 30 -20 30 -32 0 -28 57 5 70 20 7
25 17 25 42 0 18 3 57 6 86 l7 52 -91 0 -91 0 -5 -32z m122 -60 c-3 -29 -7
-33 -35 -36 -32 -3 -33 -2 -33 32 0 35 1 36 36 36 34 0 35 -1 32 -32z"/>
<path d="M1948 1075 c-5 -25 -4 -25 54 -25 l60 0 -7 -36 c-6 -34 -5 -35 17
-29 32 10 39 24 36 70 l-3 40 -76 3 c-75 3 -77 2 -81 -23z"/>
<path d="M2046 896 c-7 -35 -7 -35 -64 -38 -43 -2 -58 -7 -60 -19 -2 -14 9
-17 70 -21 40 -3 78 -3 84 -1 9 3 28 94 21 99 -1 1 -12 4 -23 8 -19 6 -23 2
-28 -28z"/>
</g>
</svg>
